<?xml version="1.0" encoding="UTF-8"?>
<!DOCTYPE svg PUBLIC "-//W3C//DTD SVG 1.1//EN" "http://www.w3.org/Graphics/SVG/1.1/DTD/svg11.dtd">
<!-- Creator: CorelDRAW -->
<svg xmlns="http://www.w3.org/2000/svg" xml:space="preserve" width="30.454mm" height="7.091mm" version="1.1" style="shape-rendering:geometricPrecision; text-rendering:geometricPrecision; image-rendering:optimizeQuality; fill-rule:evenodd; clip-rule:evenodd"
viewBox="0 0 3045.4 709.1"
 xmlns:xlink="http://www.w3.org/1999/xlink"
 xmlns:xodm="http://www.corel.com/coreldraw/odm/2003">
 <defs>
  <style type="text/css">
   <![CDATA[
    .fil0 {fill:#332C2B;fill-rule:nonzero}
   ]]>
  </style>
 </defs>
 <g id="Layer_x0020_1">
  <metadata id="CorelCorpID_0Corel-Layer"/>
  <g id="_2182774889280">
   <g>
    <path class="fil0" d="M924.76 122.76c7.94,82.02 2.65,209.02 5.29,293.69 0,84.67 2.65,209.02 -5.29,293.69 -7.94,-82.02 -2.65,-209.02 -5.29,-293.69 2.65,-84.67 -2.64,-209.02 5.29,-293.69l0 0z"/>
    <path class="fil0" d="M1996.33 122.76c7.94,82.02 2.65,209.02 5.29,293.69 0,84.67 2.65,209.02 -5.29,293.69 -7.94,-82.02 -2.65,-209.02 -5.29,-293.69 0,-84.67 -2.65,-209.02 5.29,-293.69l0 0z"/>
   </g>
   <path class="fil0" d="M104.56 278.87c18.52,0 34.4,5.29 52.92,18.52 15.88,13.23 29.1,29.1 39.69,50.27 7.93,21.16 13.22,42.33 13.22,66.14 0,42.33 -10.58,74.08 -29.1,100.54 -18.52,26.46 -44.98,37.04 -76.73,37.04 -31.75,0 -58.21,-10.58 -76.73,-34.4 -18.52,-23.8 -29.11,-55.55 -29.11,-92.59 0,-26.46 5.29,-50.27 13.23,-71.44 7.94,-21.17 21.17,-39.69 37.04,-52.92 18.52,-13.23 34.4,-21.16 55.57,-21.16l0 0zm-18.52 243.41c5.29,10.58 13.23,18.52 18.52,18.52 7.94,0 13.23,-5.29 18.52,-15.88 5.29,-10.58 10.58,-26.46 13.23,-44.98 2.65,-18.52 5.29,-37.04 5.29,-58.21 0,-23.81 0,-44.98 -2.65,-63.5 -2.64,-18.51 -7.94,-34.38 -13.23,-47.61 -5.29,-13.23 -13.23,-18.52 -21.16,-18.52 -2.65,0 -7.94,2.64 -13.23,7.93 -2.65,5.29 -7.94,13.23 -10.59,23.82 -2.64,10.58 -7.93,23.81 -10.58,42.33 -2.65,15.88 -2.65,34.4 -2.65,55.56 0,21.17 2.65,39.69 5.29,58.21 2.65,15.87 7.94,31.75 13.24,42.33l0 0zm304.27 -145.52c-7.94,0 -13.23,-2.65 -18.52,-5.29 -5.29,-2.65 -7.94,-7.94 -7.94,-10.58 0,0 0,0 2.65,-2.65 0,0 2.65,-2.65 2.65,-5.29 0,-2.65 2.65,-7.94 2.65,-10.58 0,-15.88 -2.65,-29.1 -7.94,-34.4 -5.29,-7.94 -10.58,-10.58 -18.52,-10.58 -5.29,0 -7.94,0 -13.23,2.65 -5.29,2.65 -7.94,5.29 -13.23,10.58 -5.29,5.29 -7.94,10.58 -13.23,18.52 -2.65,7.94 -5.29,18.52 -7.94,31.75 -2.65,13.23 -2.65,29.1 -2.65,44.98 0,42.33 5.29,74.08 18.52,95.25 13.23,21.17 29.1,34.4 47.63,34.4 10.58,0 21.17,-7.94 29.1,-21.17 7.94,-13.23 13.23,-31.75 15.88,-50.27 0,0 2.65,0 5.29,0 2.65,0 5.29,0 7.94,0 0,7.94 -2.65,15.88 -5.29,23.81 -2.65,7.94 -5.29,15.88 -7.94,23.81 -5.29,7.94 -7.94,15.88 -13.23,21.17 -5.29,5.29 -13.23,10.58 -21.17,15.88 -7.94,5.29 -18.52,5.29 -29.1,5.29 -18.52,0 -37.04,-2.65 -50.27,-10.58 -15.88,-7.94 -26.46,-15.88 -37.04,-26.46 -10.58,-10.58 -15.88,-26.46 -21.17,-39.69 -5.29,-15.88 -7.94,-31.75 -7.94,-50.27 0,-18.52 2.65,-37.04 7.94,-55.56 7.93,-21.18 15.87,-37.05 26.45,-50.28 10.58,-13.23 21.17,-23.81 37.04,-31.75 15.88,-7.94 31.75,-10.58 50.27,-10.58 10.58,0 21.17,2.65 29.1,5.29 10.58,2.65 18.52,7.94 26.46,15.88 7.94,5.29 13.23,13.23 15.88,21.17 5.29,7.94 5.29,15.88 5.29,23.81 0,7.94 -2.65,15.88 -10.58,21.17 -5.29,7.93 -13.23,10.57 -23.81,10.57l0 0zm52.91 -97.89l211.67 0 0 60.85 -10.58 0c0,-5.29 -2.65,-7.94 -5.29,-13.23 -2.65,-5.29 -5.29,-7.94 -10.58,-13.23 -5.29,-5.29 -10.58,-7.94 -18.52,-10.58 -7.94,-2.65 -18.52,-5.29 -29.1,-5.29l0 224.9c0,5.29 0,7.94 2.65,13.23 2.65,5.29 5.29,5.29 13.23,5.29l0 10.58 -95.27 0 0 -10.58c5.29,0 7.94,-2.65 10.58,-5.29 2.65,-2.65 2.65,-7.94 5.29,-10.58l0.01 -227.55c-10.58,0 -21.17,2.65 -29.1,5.29 -7.94,2.65 -15.88,7.94 -18.52,10.58 -5.29,5.29 -7.94,7.94 -10.58,13.23 -2.65,5.29 -2.65,7.94 -5.29,13.23l-10.6 0 0 -60.85 0 0z"/>
   <path class="fil0" d="M2170.95 501.12c2.65,-2.65 13.23,-5.29 26.46,-5.29 13.23,0 29.1,0 42.33,2.65 15.88,2.65 29.1,2.65 44.98,5.29 15.88,2.65 26.46,2.65 29.1,2.65 5.29,0 10.58,0 15.88,0 5.29,0 7.94,-2.65 10.58,-2.65 2.65,0 5.29,-2.65 5.29,-2.65 2.65,0 2.65,-2.65 2.65,-2.65 0,0 2.65,0 2.65,0 0,7.94 0,13.23 -2.65,18.52 -2.65,5.29 -2.65,10.58 -5.29,18.52 -2.65,5.29 -7.94,10.58 -13.23,13.23 -5.29,2.65 -10.58,5.29 -18.52,5.29 -7.94,0 -29.1,-2.65 -60.85,-5.29 -31.75,-2.65 -55.56,-5.29 -71.44,-5.29 -15.88,0 -23.81,2.65 -23.81,10.58l-13.23 0c-2.65,-13.23 0,-26.46 2.65,-39.69 2.65,-13.23 10.58,-23.81 18.52,-31.75 7.94,-10.58 15.88,-18.52 26.46,-26.46 10.58,-7.94 18.52,-15.88 29.1,-23.81 10.58,-7.94 18.52,-15.88 29.1,-23.81 7.94,-7.94 15.88,-15.88 21.17,-26.46 5.29,-10.58 7.94,-18.52 7.94,-29.1 0,-15.88 -2.65,-29.1 -10.58,-39.69 -5.29,-10.58 -13.23,-15.88 -23.81,-15.88 -10.58,0 -18.52,2.65 -23.81,10.58 -7.94,7.94 -10.58,18.52 -10.58,34.4 0,5.29 0,7.94 2.65,10.58 0,2.65 2.65,5.29 2.65,5.29 0,0 2.65,2.65 2.65,2.65 0,2.65 -2.65,7.94 -7.94,10.58 -5.29,2.65 -10.58,5.29 -18.52,5.29 -7.94,0 -15.88,-2.65 -23.81,-7.94 -7.94,-5.29 -10.58,-13.23 -10.58,-21.17 0,-7.94 2.65,-15.88 7.94,-23.81 5.29,-7.94 10.58,-15.88 18.52,-21.17 7.94,-5.29 15.88,-10.58 29.1,-15.88 10.58,-5.29 23.81,-5.29 37.04,-5.29 18.52,0 34.4,2.65 47.63,5.29 13.23,2.65 23.81,10.58 31.75,15.88 7.94,7.94 13.23,15.88 15.88,23.81 2.65,7.94 5.29,18.52 5.29,31.75 0,10.58 -2.65,18.52 -7.94,26.46 -5.29,7.94 -13.23,15.88 -21.17,23.81 -7.94,7.94 -18.52,13.23 -29.1,21.17 -10.58,5.29 -23.81,13.23 -34.4,18.52 -10.58,5.29 -23.81,10.58 -34.4,18.52 -10.58,5.29 -18.52,10.58 -29.1,18.52 -10.61,2.67 -15.91,10.6 -21.2,15.9l0 0zm306.92 -222.25c18.52,0 34.4,5.29 52.92,18.52 15.88,13.23 29.1,29.1 39.69,50.27 10.58,21.17 15.88,42.33 15.88,63.5 0,42.33 -10.58,74.08 -29.1,100.54 -18.52,26.46 -44.98,37.04 -76.73,37.04 -31.75,0 -58.21,-10.58 -76.73,-34.4 -18.52,-23.81 -29.1,-55.56 -29.1,-92.6 0,-26.46 5.29,-50.27 13.23,-71.44 7.94,-21.17 21.17,-39.69 37.04,-52.92 15.86,-10.58 34.38,-18.51 52.9,-18.51l0 0zm-18.52 243.41c5.29,10.58 13.23,18.52 18.52,18.52 7.94,0 13.23,-5.29 18.52,-15.88 5.29,-10.58 10.58,-26.46 13.23,-44.98 2.65,-18.52 5.29,-37.04 5.29,-58.21 0,-23.81 0,-44.98 -2.65,-63.5 -2.65,-18.52 -7.94,-34.4 -13.23,-47.63 -5.29,-13.23 -13.23,-18.52 -21.17,-18.52 -2.65,0 -7.94,2.65 -13.23,7.94 -5.29,5.29 -7.94,13.23 -13.23,23.81 -2.65,10.58 -7.94,23.81 -7.94,42.33 -2.65,15.88 -2.65,34.4 -2.65,55.56 0,21.17 2.65,39.69 5.29,58.21 2.66,15.89 7.96,31.77 13.25,42.35l0 0zm171.98 -21.16c2.65,-2.65 13.23,-5.29 26.46,-5.29 13.23,0 29.1,0 42.33,2.65 15.88,2.65 29.1,2.65 44.98,5.29 15.88,2.65 26.46,2.65 29.1,2.65 5.29,0 10.58,0 15.88,0 5.29,0 7.94,-2.65 10.58,-2.65 2.65,0 5.29,-2.65 5.29,-2.65 2.65,0 2.65,-2.65 2.65,-2.65 0,0 2.65,0 2.65,0 0,7.94 0,13.23 -2.65,18.52 0,5.29 -2.65,10.58 -5.29,18.52 -2.65,5.29 -7.94,10.58 -13.23,13.23 -5.29,2.65 -10.58,5.29 -18.52,5.29 -7.94,0 -29.1,-2.65 -60.85,-5.29 -31.75,-2.65 -55.56,-5.29 -71.44,-5.29 -15.88,0 -23.81,2.65 -23.81,10.58l-13.24 0c-2.65,-13.23 0,-26.46 2.65,-39.69 2.65,-13.23 10.58,-23.81 18.52,-31.75 7.94,-10.58 15.88,-18.52 26.46,-26.46 10.58,-7.94 18.52,-15.88 29.1,-23.81 10.58,-7.94 18.52,-15.88 29.1,-23.81 7.94,-7.94 15.88,-15.88 21.17,-26.46 5.29,-10.58 7.94,-18.52 7.94,-29.1 0,-15.88 -2.65,-29.1 -10.58,-39.69 -5.29,-10.58 -13.23,-15.88 -23.81,-15.88 -10.58,0 -18.52,2.65 -23.81,10.58 -7.94,7.94 -10.58,18.52 -10.58,34.4 0,5.29 0,7.94 2.65,10.58 0,2.65 2.65,5.29 2.65,5.29 0,0 2.65,2.65 2.65,2.65 0,2.65 -2.65,7.94 -7.94,10.58 -5.29,2.65 -10.58,5.29 -18.52,5.29 -7.94,0 -15.88,-2.65 -23.81,-7.94 -7.94,-5.29 -10.58,-13.23 -10.58,-21.17 0,-7.94 2.65,-15.88 5.29,-23.81 5.29,-7.94 10.58,-15.88 18.52,-21.17 7.94,-5.29 15.88,-10.58 29.1,-15.88 10.58,-5.29 23.81,-5.29 37.04,-5.29 18.52,0 34.4,2.65 47.63,5.29 13.23,2.65 23.81,10.58 31.75,15.88 7.94,7.94 13.23,15.88 15.88,23.81 2.65,7.94 5.29,18.52 5.29,31.75 0,10.58 -2.65,18.52 -7.94,26.46 -5.29,7.94 -13.23,15.88 -21.17,23.81 -7.94,7.94 -18.52,13.23 -29.1,21.17 -10.58,5.29 -23.81,13.23 -34.4,18.52 -10.58,5.29 -23.81,10.58 -34.4,18.52 -10.58,5.29 -18.52,10.58 -29.1,18.52 -10.61,2.67 -15.9,10.6 -18.54,15.9l0 0zm301.62 -116.42c18.52,0 34.4,2.65 50.27,7.94 15.88,5.29 26.46,10.58 34.4,18.52 7.94,7.94 15.88,15.88 18.52,26.46 5.29,7.94 7.94,18.52 7.94,29.1 0,26.46 -10.58,47.63 -29.1,63.5 -18.52,15.88 -47.63,23.81 -82.02,23.81 -15.88,0 -29.1,-2.65 -42.33,-5.29 -13.23,-2.65 -23.81,-7.94 -31.75,-15.88 -7.94,-5.29 -15.88,-13.23 -18.52,-21.17 -5.29,-7.94 -7.94,-15.88 -7.94,-23.81 0,-7.94 2.65,-15.88 10.58,-23.81 7.94,-5.29 15.88,-7.94 23.81,-7.94 7.94,0 13.23,2.65 18.52,5.29 5.29,2.65 7.94,7.94 7.94,10.58 0,0 0,0 -2.65,2.65 0,0 -2.65,2.65 -2.65,5.29 0,2.65 -2.65,7.94 -2.65,10.58 0,7.94 2.65,15.88 5.29,21.17 2.65,5.29 7.94,10.58 10.58,15.88 5.29,2.65 10.58,5.29 15.88,7.94 5.29,2.65 10.58,2.65 15.88,2.65 5.29,0 7.94,0 13.23,-2.65 5.29,0 7.94,-2.65 13.23,-5.29 5.29,-2.65 7.94,-7.94 10.58,-10.58 2.65,-5.29 5.29,-10.58 7.94,-18.52 2.65,-7.94 2.65,-15.88 2.65,-23.81 0,-18.52 -5.29,-34.4 -18.52,-47.63 -13.23,-13.23 -29.1,-18.52 -47.63,-18.52 -10.58,0 -21.17,2.65 -31.75,5.29 -10.58,2.65 -21.17,7.94 -29.1,15.88l-18.52 -0.01 18.52 -95.25 10.58 -55.56 113.77 0c15.88,0 26.46,0 31.75,2.65 5.29,0 7.94,2.65 7.94,5.29l13.23 55.56c0,0 -2.65,-2.65 -5.29,-2.65 -2.65,0 -7.94,-2.65 -15.88,-2.65 -7.94,-2.65 -15.88,-2.65 -26.46,-2.65l-116.41 0.01 -13.23 68.79c21.16,-13.22 44.98,-21.16 79.37,-21.16l0 0z"/>
   <g>
    <path class="fil0" d="M1205.22 626.26c5.29,-5.29 15.88,-7.94 34.4,-7.94 18.52,0 37.04,0 58.21,2.65 18.52,2.65 39.69,5.29 60.85,7.94 21.17,2.65 34.4,2.65 39.69,2.65 7.94,0 15.88,0 21.17,0 5.29,0 10.58,-2.65 15.88,-2.65 2.65,0 5.29,-2.65 7.94,-2.65 2.65,0 5.29,-2.65 5.29,-2.65 0,0 2.65,0 2.65,0 0,7.94 0,18.52 -2.65,26.46 -2.65,7.94 -5.29,15.88 -7.94,23.81 -2.65,7.94 -7.94,13.23 -15.88,18.52 -7.94,5.29 -15.88,5.29 -23.81,5.29 -10.58,0 -39.69,-2.65 -82.02,-7.94 -42.33,-5.29 -74.08,-7.94 -97.9,-7.94 -21.17,0 -31.75,5.29 -34.4,13.23l-15.87 0.01c-2.65,-18.52 0,-34.4 5.29,-52.92 5.29,-15.88 13.23,-31.75 23.81,-42.33 10.58,-13.23 21.17,-23.81 34.4,-37.04 13.23,-10.58 26.46,-23.81 39.69,-34.4 13.23,-10.58 26.46,-21.17 37.04,-31.75 10.58,-10.58 21.17,-21.17 29.1,-34.4 7.94,-13.23 10.58,-26.46 10.58,-39.69 0,-21.17 -5.29,-37.04 -13.23,-52.92 -7.94,-13.23 -18.52,-21.17 -31.75,-21.17 -13.23,0 -23.81,5.29 -31.75,15.88 -7.94,10.58 -13.23,26.46 -13.23,47.63 0,5.29 0,10.58 2.65,15.88 2.65,2.65 2.65,5.29 5.29,7.94 2.65,2.65 2.65,2.65 2.65,2.65 0,5.29 -2.65,10.58 -10.58,15.88 -7.94,5.29 -15.88,7.94 -23.81,7.94 -13.23,0 -23.81,-2.65 -31.75,-10.58 -7.94,-7.94 -13.23,-18.52 -13.23,-29.1 0,-10.58 2.65,-21.17 7.94,-29.1 5.29,-10.58 13.23,-18.52 23.81,-29.1 10.58,-7.94 23.81,-15.88 37.04,-21.17 15.88,-5.29 31.75,-7.94 47.63,-7.94 23.81,0 44.98,2.65 60.85,7.94 18.52,5.29 31.75,13.23 42.33,21.17 10.58,10.58 18.52,21.17 21.17,31.75 5.29,13.23 7.94,26.46 7.94,39.69 0,13.23 -2.65,26.46 -10.58,37.04 -7.94,10.58 -15.88,21.17 -29.1,31.75 -13.23,7.94 -26.46,18.52 -39.69,26.46 -15.88,7.94 -29.1,15.88 -44.98,23.81 -15.88,7.93 -31.75,15.88 -44.98,23.81 -13.23,7.94 -26.46,15.88 -37.04,23.81 -18.53,5.27 -26.47,13.21 -29.12,23.79l0 0zm402.17 -156.11c23.81,0 47.63,2.65 66.15,10.58 18.52,5.29 34.4,13.23 47.63,23.81 10.58,10.58 21.17,21.17 26.46,34.4 5.29,13.23 7.94,23.81 7.94,37.04 0,34.4 -13.23,63.5 -37.04,84.67 -26.46,21.17 -63.5,31.75 -111.13,31.75 -21.17,0 -39.69,-2.65 -55.56,-7.94 -18.52,-5.29 -31.75,-13.23 -42.33,-21.17 -10.58,-7.94 -18.52,-18.52 -26.46,-29.1 -5.29,-10.58 -10.58,-21.17 -10.58,-31.75 0,-13.23 5.29,-21.17 13.23,-29.1 7.94,-7.94 18.52,-10.58 31.75,-10.58 7.94,0 15.88,2.65 23.81,7.94 7.94,5.29 10.58,10.58 10.58,15.88 0,0 0,0 -2.65,2.65 -2.65,2.65 -2.65,5.29 -5.29,7.94 -2.65,2.65 -2.65,7.94 -2.65,15.88 0,10.58 2.65,21.17 5.29,29.1 5.29,7.94 10.58,15.88 15.88,21.17 5.29,5.29 13.23,7.94 18.52,10.58 7.94,2.65 13.23,2.65 18.52,2.65 5.29,0 10.58,0 15.88,-2.65 5.29,-2.65 10.58,-5.29 18.52,-7.94 5.29,-5.29 10.58,-7.94 15.88,-15.88 5.29,-5.29 7.94,-13.23 10.58,-23.81 2.65,-10.58 5.29,-21.17 5.29,-34.4 0,-26.46 -7.94,-47.63 -26.46,-63.5 -15.88,-15.88 -37.04,-23.81 -63.5,-23.81 -13.23,0 -29.1,2.65 -44.98,7.94 -15.88,5.29 -29.1,10.58 -39.69,21.17l-23.82 -0.02 23.81 -127 13.23 -74.08 153.46 0c21.17,0 34.4,0 42.33,2.65 7.94,2.65 10.58,5.29 13.23,7.94l18.52 74.08c-2.65,0 -2.65,-2.65 -5.29,-2.65 -2.65,0 -7.94,-2.65 -18.52,-5.29 -10.58,-2.65 -21.17,-2.65 -34.4,-2.65l-153.45 0 -15.88 89.96c23.81,-18.52 58.21,-26.46 103.19,-26.46l0 0z"/>
    <path class="fil0" d="M1237.28 139.51c0,2.69 0.71,5.17 2.14,7.44 1.43,2.27 3.7,3.36 6.85,3.36l0 6.05 -55.29 0 0 -6.05c2.9,0 5,-0.92 6.43,-2.86 1.39,-1.93 2.19,-4.24 2.44,-6.84l0 -101.92c-3.61,10.33 -8.53,24.53 -14.75,42.51 -6.26,18.03 -11.76,33.99 -16.55,47.85 -4.83,13.87 -7.27,20.97 -7.35,21.26l-32.35 0c-6.97,-19.58 -20,-56.29 -39.03,-110.15l0 100.57c0,2.61 0.8,4.88 2.36,6.77 1.55,1.89 4.07,2.81 7.6,2.81l-0.13 6.05 -31 0 0 -6.05c6.55,0 9.83,-3.19 9.83,-9.58l0 -121.62c0,-4.32 -0.46,-7.43 -1.38,-9.28 -0.97,-1.85 -3.07,-2.77 -6.35,-2.77l0 -6.01 45.67 0c22.22,66.54 36.21,107.29 41.96,122.33 27.73,-79.1 41.93,-119.89 42.6,-122.33l45.29 0 0 6.01c-3.07,0 -5.29,1.21 -6.76,3.57 -1.52,2.39 -2.23,4.79 -2.23,7.27l0 121.61z"/>
    <path id="_1" class="fil0" d="M1256.35 1.05l55.29 0 0 6.01c-3.15,0 -5.42,1.13 -6.85,3.4 -1.43,2.27 -2.14,4.75 -2.14,7.44l0 121.61c0,2.69 0.71,5.17 2.14,7.44 1.43,2.27 3.7,3.36 6.85,3.36l0 6.05 -55.29 0 0 -6.05c2.86,0 5.04,-0.92 6.47,-2.81 1.43,-1.89 2.27,-4.16 2.52,-6.77l0 -124.05c-0.25,-2.65 -1.09,-4.88 -2.52,-6.77 -1.43,-1.89 -3.61,-2.85 -6.47,-2.85l0 -6.01z"/>
    <path id="_2" class="fil0" d="M1421.91 7.06l0 -6.01 31 0 0 6.01c-3.36,0 -5.84,1.05 -7.43,3.11 -1.6,2.01 -2.4,4.15 -2.4,6.38l0 139.81 -37.3 0c-7.06,-13.78 -18.78,-36.76 -35.21,-68.94 -16.38,-32.14 -25.58,-50.12 -27.56,-53.9l0 107.21c0,2.61 0.76,4.88 2.27,6.77 1.52,1.89 4.04,2.81 7.56,2.81l0 6.05 -31 0 0 -6.05c3.53,0 6.05,-0.8 7.52,-2.39 1.47,-1.6 2.27,-3.87 2.31,-6.81l0 -124.56c0,-6.34 -3.28,-9.49 -9.83,-9.49l0 -6.01 47.14 0c3.69,7.31 13.23,26.05 28.61,56.25 15.41,30.16 26.8,52.55 34.15,67.05l0 -107.8c0,-2.65 -0.76,-4.87 -2.31,-6.72 -1.56,-1.85 -4.08,-2.77 -7.52,-2.77z"/>
    <path id="_3" class="fil0" d="M1556.68 75.49l27.56 0 0 6.05c-3.11,0 -5.38,1.13 -6.85,3.36 -1.43,2.27 -2.14,4.75 -2.14,7.48l0 53.9c-2.4,-0.59 -5.05,-0.42 -7.99,0.46 -2.98,0.92 -5.84,2.1 -8.61,3.57 -2.81,1.51 -6.76,2.86 -11.84,4.16 -5.09,1.26 -10.55,1.89 -16.35,1.89 -10.84,0 -20.58,-1.89 -29.24,-5.71 -8.65,-3.83 -15.75,-9.12 -21.25,-15.84 -5.46,-6.72 -9.67,-14.54 -12.52,-23.44 -2.9,-8.91 -4.33,-18.53 -4.33,-28.86 0,-11.14 1.56,-21.64 4.66,-31.51 3.16,-9.83 7.52,-18.49 13.11,-25.92 5.63,-7.4 12.73,-13.28 21.3,-17.56 8.57,-4.33 18.02,-6.47 28.27,-6.47 7.86,0 15.34,1.93 22.39,5.75 7.06,3.87 12.61,8.66 16.6,14.37 4.03,5.67 6.05,11.43 6.05,17.14 0,5.04 -1.85,9.24 -5.55,12.69 -3.69,3.44 -8.32,5.17 -13.9,5.17 -3.95,0 -7.31,-1.14 -10.17,-3.45 -2.81,-2.31 -4.24,-4.41 -4.24,-6.38 0,-0.09 0.33,-0.42 0.92,-1.05 0.63,-0.63 1.26,-1.77 1.85,-3.45 0.63,-1.68 0.92,-3.82 0.92,-6.47 0,-8.44 -1.34,-15.04 -3.99,-19.83 -2.68,-4.74 -6.47,-7.14 -11.38,-7.14 -2.4,0 -4.75,0.55 -7.14,1.64 -2.4,1.05 -4.88,3.02 -7.44,5.88 -2.6,2.9 -4.83,6.51 -6.76,10.97 -1.93,4.41 -3.53,10.37 -4.83,17.85 -1.26,7.44 -1.89,15.92 -1.89,25.33 0,13.15 1.42,25.96 4.24,38.52 2.81,12.57 6.43,22.65 10.84,30.29 4.37,7.65 8.74,11.43 13.11,11.43 3.61,0 6.51,-2.23 8.73,-6.68 2.23,-4.49 3.32,-10.21 3.32,-17.18 0,-3.61 -0.04,-9.33 -0.12,-17.1 -0.09,-7.81 -0.13,-13.48 -0.13,-17.1 0,-2.73 -0.67,-5.16 -2.1,-7.39 -1.39,-2.23 -3.66,-3.32 -6.76,-3.32l0 -6.05 23.65 0z"/>
    <path id="_4" class="fil0" d="M1688 75.49l27.56 0 0 6.05c-3.11,0 -5.38,1.13 -6.85,3.36 -1.43,2.27 -2.14,4.75 -2.14,7.48l0 53.9c-2.4,-0.59 -5.05,-0.42 -7.99,0.46 -2.98,0.92 -5.84,2.1 -8.61,3.57 -2.81,1.51 -6.76,2.86 -11.84,4.16 -5.09,1.26 -10.55,1.89 -16.35,1.89 -10.84,0 -20.58,-1.89 -29.24,-5.71 -8.65,-3.83 -15.75,-9.12 -21.25,-15.84 -5.46,-6.72 -9.67,-14.54 -12.52,-23.44 -2.9,-8.91 -4.33,-18.53 -4.33,-28.86 0,-11.14 1.56,-21.64 4.66,-31.51 3.16,-9.83 7.52,-18.49 13.11,-25.92 5.63,-7.4 12.73,-13.28 21.3,-17.56 8.57,-4.33 18.02,-6.47 28.27,-6.47 7.86,0 15.34,1.93 22.39,5.75 7.06,3.87 12.61,8.66 16.6,14.37 4.03,5.67 6.05,11.43 6.05,17.14 0,5.04 -1.85,9.24 -5.55,12.69 -3.69,3.44 -8.32,5.17 -13.9,5.17 -3.95,0 -7.31,-1.14 -10.17,-3.45 -2.81,-2.31 -4.24,-4.41 -4.24,-6.38 0,-0.09 0.33,-0.42 0.92,-1.05 0.63,-0.63 1.26,-1.77 1.85,-3.45 0.63,-1.68 0.92,-3.82 0.92,-6.47 0,-8.44 -1.34,-15.04 -3.99,-19.83 -2.68,-4.74 -6.47,-7.14 -11.38,-7.14 -2.4,0 -4.75,0.55 -7.14,1.64 -2.4,1.05 -4.88,3.02 -7.44,5.88 -2.6,2.9 -4.83,6.51 -6.76,10.97 -1.93,4.41 -3.53,10.37 -4.83,17.85 -1.26,7.44 -1.89,15.92 -1.89,25.33 0,13.15 1.42,25.96 4.24,38.52 2.81,12.57 6.43,22.65 10.84,30.29 4.37,7.65 8.74,11.43 13.11,11.43 3.61,0 6.51,-2.23 8.73,-6.68 2.23,-4.49 3.32,-10.21 3.32,-17.18 0,-3.61 -0.04,-9.33 -0.12,-17.1 -0.09,-7.81 -0.13,-13.48 -0.13,-17.1 0,-2.73 -0.67,-5.16 -2.1,-7.39 -1.39,-2.23 -3.66,-3.32 -6.76,-3.32l0 -6.05 23.65 0z"/>
    <path id="_5" class="fil0" d="M1825.7 7.06l0 -6.01 31.01 0 0 6.01c-6.56,0 -9.83,3.15 -9.83,9.49l0 101.16c0,2.86 -0.51,5.88 -1.47,8.99 -1.01,3.11 -2.82,6.47 -5.51,10.08 -2.64,3.62 -6.01,6.85 -10,9.67 -4.03,2.81 -9.41,5.2 -16.21,7.1 -6.77,1.89 -14.41,2.81 -22.94,2.81 -16.51,0 -29.95,-3.91 -40.37,-11.68 -10.42,-7.81 -15.63,-16.8 -15.63,-26.97l0 -101.03c-0.25,-2.65 -1.09,-4.88 -2.52,-6.77 -1.43,-1.89 -3.61,-2.85 -6.47,-2.85l0 -6.01 55.29 0 0 6.01c-3.07,0 -5.3,1.21 -6.81,3.57 -1.47,2.39 -2.18,4.79 -2.18,7.27l0 99.81c0,7.06 3.06,13.19 9.2,18.4 6.17,5.21 13.78,7.82 22.77,7.82 7.98,0 15.2,-2.61 21.76,-7.86 6.51,-5.25 9.74,-11.39 9.74,-18.36l0 -101.16c0,-2.65 -0.75,-4.87 -2.27,-6.72 -1.51,-1.85 -4.03,-2.77 -7.56,-2.77z"/>
   </g>
  </g>
 </g>
</svg>
