<?xml version="1.0" encoding="utf-8"?>
<!-- Generator: Adobe Illustrator 27.9.0, SVG Export Plug-In . SVG Version: 6.00 Build 0)  -->
<svg version="1.1" id="Layer_1" xmlns:xodm="http://www.corel.com/coreldraw/odm/2003"
	 xmlns="http://www.w3.org/2000/svg" xmlns:xlink="http://www.w3.org/1999/xlink" x="0px" y="0px" viewBox="0 0 115.1 25.2"
	 style="enable-background:new 0 0 115.1 25.2;" xml:space="preserve">
<g id="Layer_x0020_1">
	<g id="_2517521095408">
		<g id="_2763900904416">
			<g>
				<path d="M35,1.5c0.3,3.1,0.1,7.9,0.2,11.1c0,3.2,0.1,7.9-0.2,11.1c-0.3-3.1-0.1-7.9-0.2-11.1C34.9,9.4,34.7,4.7,35,1.5L35,1.5z"
					/>
				<path d="M75.5,1.5c0.3,3.1,0.1,7.9,0.2,11.1c0,3.2,0.1,7.9-0.2,11.1c-0.3-3.1-0.1-7.9-0.2-11.1C75.3,9.4,75.2,4.7,75.5,1.5
					L75.5,1.5z"/>
			</g>
			<g>
				<path d="M4,7.4c0.7,0,1.3,0.2,2,0.7c0.6,0.5,1.1,1.1,1.5,1.9C7.8,10.8,8,11.6,8,12.5c0,1.6-0.4,2.8-1.1,3.8
					c-0.7,1-1.7,1.4-2.9,1.4c-1.2,0-2.2-0.4-2.9-1.3C0.4,15.5,0,14.3,0,12.9c0-1,0.2-1.9,0.5-2.7c0.3-0.8,0.8-1.5,1.4-2
					C2.6,7.7,3.2,7.4,4,7.4L4,7.4z M3.3,16.6c0.2,0.4,0.5,0.7,0.7,0.7c0.3,0,0.5-0.2,0.7-0.6c0.2-0.4,0.4-1,0.5-1.7
					c0.1-0.7,0.2-1.4,0.2-2.2c0-0.9,0-1.7-0.1-2.4C5.2,9.7,5,9.1,4.8,8.6C4.6,8.1,4.3,7.9,4,7.9C3.9,7.9,3.7,8,3.5,8.2
					C3.4,8.4,3.2,8.7,3.1,9.1C3,9.5,2.8,10,2.7,10.7c-0.1,0.6-0.1,1.3-0.1,2.1c0,0.8,0.1,1.5,0.2,2.2C2.9,15.6,3.1,16.2,3.3,16.6
					L3.3,16.6z M14.8,11.1c-0.3,0-0.5-0.1-0.7-0.2c-0.2-0.1-0.3-0.3-0.3-0.4c0,0,0,0,0.1-0.1c0,0,0.1-0.1,0.1-0.2
					c0-0.1,0.1-0.3,0.1-0.4c0-0.6-0.1-1.1-0.3-1.3c-0.2-0.3-0.4-0.4-0.7-0.4c-0.2,0-0.3,0-0.5,0.1c-0.2,0.1-0.3,0.2-0.5,0.4
					c-0.2,0.2-0.3,0.4-0.5,0.7c-0.1,0.3-0.2,0.7-0.3,1.2c-0.1,0.5-0.1,1.1-0.1,1.7c0,1.6,0.2,2.8,0.7,3.6c0.5,0.8,1.1,1.3,1.8,1.3
					c0.4,0,0.8-0.3,1.1-0.8c0.3-0.5,0.5-1.2,0.6-1.9c0,0,0.1,0,0.2,0c0.1,0,0.2,0,0.3,0c0,0.3-0.1,0.6-0.2,0.9
					c-0.1,0.3-0.2,0.6-0.3,0.9c-0.2,0.3-0.3,0.6-0.5,0.8c-0.2,0.2-0.5,0.4-0.8,0.6c-0.3,0.2-0.7,0.2-1.1,0.2c-0.7,0-1.4-0.1-1.9-0.4
					c-0.6-0.3-1-0.6-1.4-1c-0.4-0.4-0.6-1-0.8-1.5c-0.2-0.6-0.3-1.2-0.3-1.9c0-0.7,0.1-1.4,0.3-2.1C9.2,10.1,9.5,9.5,9.9,9
					c0.4-0.5,0.8-0.9,1.4-1.2c0.6-0.3,1.2-0.4,1.9-0.4c0.4,0,0.8,0.1,1.1,0.2c0.4,0.1,0.7,0.3,1,0.6c0.3,0.2,0.5,0.5,0.6,0.8
					c0.2,0.3,0.2,0.6,0.2,0.9c0,0.3-0.1,0.6-0.4,0.8C15.5,11,15.2,11.1,14.8,11.1L14.8,11.1z M16.8,7.4h8v2.3h-0.4
					c0-0.2-0.1-0.3-0.2-0.5c-0.1-0.2-0.2-0.3-0.4-0.5c-0.2-0.2-0.4-0.3-0.7-0.4c-0.3-0.1-0.7-0.2-1.1-0.2v8.5c0,0.2,0,0.3,0.1,0.5
					s0.2,0.2,0.5,0.2v0.4H19v-0.4c0.2,0,0.3-0.1,0.4-0.2c0.1-0.1,0.1-0.3,0.2-0.4V8.1c-0.4,0-0.8,0.1-1.1,0.2
					c-0.3,0.1-0.6,0.3-0.7,0.4c-0.2,0.2-0.3,0.3-0.4,0.5c-0.1,0.2-0.1,0.3-0.2,0.5h-0.4L16.8,7.4L16.8,7.4z"/>
				<path d="M82.1,15.8c0.1-0.1,0.5-0.2,1-0.2c0.5,0,1.1,0,1.6,0.1c0.6,0.1,1.1,0.1,1.7,0.2c0.6,0.1,1,0.1,1.1,0.1
					c0.2,0,0.4,0,0.6,0c0.2,0,0.3-0.1,0.4-0.1c0.1,0,0.2-0.1,0.2-0.1c0.1,0,0.1-0.1,0.1-0.1c0,0,0.1,0,0.1,0c0,0.3,0,0.5-0.1,0.7
					c-0.1,0.2-0.1,0.4-0.2,0.7c-0.1,0.2-0.3,0.4-0.5,0.5c-0.2,0.1-0.4,0.2-0.7,0.2c-0.3,0-1.1-0.1-2.3-0.2c-1.2-0.1-2.1-0.2-2.7-0.2
					c-0.6,0-0.9,0.1-0.9,0.4h-0.5c-0.1-0.5,0-1,0.1-1.5c0.1-0.5,0.4-0.9,0.7-1.2c0.3-0.4,0.6-0.7,1-1c0.4-0.3,0.7-0.6,1.1-0.9
					c0.4-0.3,0.7-0.6,1.1-0.9c0.3-0.3,0.6-0.6,0.8-1c0.2-0.4,0.3-0.7,0.3-1.1c0-0.6-0.1-1.1-0.4-1.5c-0.2-0.4-0.5-0.6-0.9-0.6
					c-0.4,0-0.7,0.1-0.9,0.4c-0.3,0.3-0.4,0.7-0.4,1.3c0,0.2,0,0.3,0.1,0.4c0,0.1,0.1,0.2,0.1,0.2c0,0,0.1,0.1,0.1,0.1
					c0,0.1-0.1,0.3-0.3,0.4c-0.2,0.1-0.4,0.2-0.7,0.2c-0.3,0-0.6-0.1-0.9-0.3c-0.3-0.2-0.4-0.5-0.4-0.8c0-0.3,0.1-0.6,0.3-0.9
					c0.2-0.3,0.4-0.6,0.7-0.8c0.3-0.2,0.6-0.4,1.1-0.6c0.4-0.2,0.9-0.2,1.4-0.2c0.7,0,1.3,0.1,1.8,0.2c0.5,0.1,0.9,0.4,1.2,0.6
					c0.3,0.3,0.5,0.6,0.6,0.9c0.1,0.3,0.2,0.7,0.2,1.2c0,0.4-0.1,0.7-0.3,1c-0.2,0.3-0.5,0.6-0.8,0.9c-0.3,0.3-0.7,0.5-1.1,0.8
					c-0.4,0.2-0.9,0.5-1.3,0.7c-0.4,0.2-0.9,0.4-1.3,0.7c-0.4,0.2-0.7,0.4-1.1,0.7C82.5,15.3,82.3,15.6,82.1,15.8L82.1,15.8z
					 M93.7,7.4c0.7,0,1.3,0.2,2,0.7c0.6,0.5,1.1,1.1,1.5,1.9c0.4,0.8,0.6,1.6,0.6,2.4c0,1.6-0.4,2.8-1.1,3.8c-0.7,1-1.7,1.4-2.9,1.4
					c-1.2,0-2.2-0.4-2.9-1.3c-0.7-0.9-1.1-2.1-1.1-3.5c0-1,0.2-1.9,0.5-2.7c0.3-0.8,0.8-1.5,1.4-2C92.3,7.7,93,7.4,93.7,7.4
					L93.7,7.4z M93,16.6c0.2,0.4,0.5,0.7,0.7,0.7c0.3,0,0.5-0.2,0.7-0.6c0.2-0.4,0.4-1,0.5-1.7c0.1-0.7,0.2-1.4,0.2-2.2
					c0-0.9,0-1.7-0.1-2.4c-0.1-0.7-0.3-1.3-0.5-1.8c-0.2-0.5-0.5-0.7-0.8-0.7c-0.1,0-0.3,0.1-0.5,0.3c-0.2,0.2-0.3,0.5-0.5,0.9
					c-0.1,0.4-0.3,0.9-0.3,1.6c-0.1,0.6-0.1,1.3-0.1,2.1c0,0.8,0.1,1.5,0.2,2.2C92.6,15.6,92.8,16.2,93,16.6L93,16.6z M99.5,15.8
					c0.1-0.1,0.5-0.2,1-0.2c0.5,0,1.1,0,1.6,0.1c0.6,0.1,1.1,0.1,1.7,0.2c0.6,0.1,1,0.1,1.1,0.1c0.2,0,0.4,0,0.6,0
					c0.2,0,0.3-0.1,0.4-0.1c0.1,0,0.2-0.1,0.2-0.1c0.1,0,0.1-0.1,0.1-0.1c0,0,0.1,0,0.1,0c0,0.3,0,0.5-0.1,0.7
					c0,0.2-0.1,0.4-0.2,0.7c-0.1,0.2-0.3,0.4-0.5,0.5c-0.2,0.1-0.4,0.2-0.7,0.2c-0.3,0-1.1-0.1-2.3-0.2c-1.2-0.1-2.1-0.2-2.7-0.2
					c-0.6,0-0.9,0.1-0.9,0.4h-0.5c-0.1-0.5,0-1,0.1-1.5c0.1-0.5,0.4-0.9,0.7-1.2c0.3-0.4,0.6-0.7,1-1c0.4-0.3,0.7-0.6,1.1-0.9
					c0.4-0.3,0.7-0.6,1.1-0.9c0.3-0.3,0.6-0.6,0.8-1c0.2-0.4,0.3-0.7,0.3-1.1c0-0.6-0.1-1.1-0.4-1.5c-0.2-0.4-0.5-0.6-0.9-0.6
					c-0.4,0-0.7,0.1-0.9,0.4c-0.3,0.3-0.4,0.7-0.4,1.3c0,0.2,0,0.3,0.1,0.4c0,0.1,0.1,0.2,0.1,0.2c0,0,0.1,0.1,0.1,0.1
					c0,0.1-0.1,0.3-0.3,0.4c-0.2,0.1-0.4,0.2-0.7,0.2c-0.3,0-0.6-0.1-0.9-0.3c-0.3-0.2-0.4-0.5-0.4-0.8c0-0.3,0.1-0.6,0.2-0.9
					c0.2-0.3,0.4-0.6,0.7-0.8c0.3-0.2,0.6-0.4,1.1-0.6c0.4-0.2,0.9-0.2,1.4-0.2c0.7,0,1.3,0.1,1.8,0.2c0.5,0.1,0.9,0.4,1.2,0.6
					c0.3,0.3,0.5,0.6,0.6,0.9c0.1,0.3,0.2,0.7,0.2,1.2c0,0.4-0.1,0.7-0.3,1c-0.2,0.3-0.5,0.6-0.8,0.9c-0.3,0.3-0.7,0.5-1.1,0.8
					c-0.4,0.2-0.9,0.5-1.3,0.7c-0.4,0.2-0.9,0.4-1.3,0.7c-0.4,0.2-0.7,0.4-1.1,0.7C99.8,15.3,99.6,15.6,99.5,15.8L99.5,15.8z
					 M110.9,11.4c0.7,0,1.3,0.1,1.9,0.3c0.6,0.2,1,0.4,1.3,0.7c0.3,0.3,0.6,0.6,0.7,1c0.2,0.3,0.3,0.7,0.3,1.1c0,1-0.4,1.8-1.1,2.4
					c-0.7,0.6-1.8,0.9-3.1,0.9c-0.6,0-1.1-0.1-1.6-0.2c-0.5-0.1-0.9-0.3-1.2-0.6c-0.3-0.2-0.6-0.5-0.7-0.8c-0.2-0.3-0.3-0.6-0.3-0.9
					c0-0.3,0.1-0.6,0.4-0.9c0.3-0.2,0.6-0.3,0.9-0.3c0.3,0,0.5,0.1,0.7,0.2c0.2,0.1,0.3,0.3,0.3,0.4c0,0,0,0-0.1,0.1
					c0,0-0.1,0.1-0.1,0.2c0,0.1-0.1,0.3-0.1,0.4c0,0.3,0.1,0.6,0.2,0.8c0.1,0.2,0.3,0.4,0.4,0.6c0.2,0.1,0.4,0.2,0.6,0.3
					c0.2,0.1,0.4,0.1,0.6,0.1c0.2,0,0.3,0,0.5-0.1c0.2,0,0.3-0.1,0.5-0.2c0.2-0.1,0.3-0.3,0.4-0.4c0.1-0.2,0.2-0.4,0.3-0.7
					c0.1-0.3,0.1-0.6,0.1-0.9c0-0.7-0.2-1.3-0.7-1.8c-0.5-0.5-1.1-0.7-1.8-0.7c-0.4,0-0.8,0.1-1.2,0.2c-0.4,0.1-0.8,0.3-1.1,0.6
					h-0.7l0.7-3.6l0.4-2.1h4.3c0.6,0,1,0,1.2,0.1c0.2,0,0.3,0.1,0.3,0.2l0.5,2.1c0,0-0.1-0.1-0.2-0.1c-0.1,0-0.3-0.1-0.6-0.1
					c-0.3-0.1-0.6-0.1-1-0.1h-4.4l-0.5,2.6C108.7,11.7,109.6,11.4,110.9,11.4L110.9,11.4z"/>
				<g>
					<path d="M47.7,1.4c0,0.2,0.1,0.4,0.2,0.5c0.1,0.2,0.3,0.3,0.6,0.4c0.2,0.1,0.5,0.3,0.8,0.4c0.3,0.1,0.6,0.3,0.9,0.4
						c0.3,0.1,0.5,0.3,0.8,0.4c0.2,0.2,0.4,0.3,0.6,0.6c0.1,0.2,0.2,0.5,0.2,0.7c0,0.4-0.1,0.7-0.4,1c-0.3,0.3-0.6,0.5-1,0.7
						c-0.4,0.1-0.9,0.2-1.3,0.2c-0.4,0-0.8-0.1-1.2-0.2c-0.4-0.1-0.7-0.3-1-0.6c-0.2-0.3-0.4-0.5-0.4-0.8c0-0.3,0.1-0.5,0.2-0.6
						c0.2-0.1,0.4-0.2,0.6-0.2c0.1,0,0.3,0,0.4,0.1c0.1,0.1,0.2,0.2,0.2,0.3c0,0,0,0,0,0.1c0,0-0.1,0.1-0.1,0.1c0,0.1,0,0.1,0,0.2
						c0,0.4,0.1,0.7,0.3,0.9c0.2,0.3,0.5,0.4,0.9,0.4c0.3,0,0.6-0.1,0.8-0.3C49.9,6,50,5.8,50,5.4C50,5.3,50,5.1,49.9,5
						c-0.1-0.1-0.2-0.2-0.4-0.3c-0.2-0.1-0.4-0.2-0.6-0.3c-0.2-0.1-0.4-0.2-0.7-0.3c-0.2-0.1-0.5-0.2-0.7-0.3
						c-0.2-0.1-0.4-0.3-0.6-0.4c-0.2-0.2-0.3-0.3-0.4-0.6c-0.1-0.2-0.2-0.5-0.2-0.7c0-0.2,0-0.4,0.1-0.5s0.2-0.4,0.3-0.5
						c0.1-0.2,0.3-0.3,0.5-0.5c0.2-0.1,0.5-0.3,0.8-0.3C48.4,0,48.7,0,49.1,0c0.3,0,0.6,0.1,0.9,0.2c0.3,0.1,0.5,0.2,0.8,0.4
						c0.2,0.2,0.4,0.3,0.5,0.5c0.1,0.2,0.2,0.4,0.2,0.6c0,0.2-0.1,0.4-0.3,0.6c-0.2,0.1-0.4,0.2-0.6,0.2c-0.2,0-0.3-0.1-0.5-0.2
						C50,2.2,49.9,2.1,49.9,2c0,0,0,0,0,0c0,0,0.1-0.1,0.1-0.2c0-0.1,0-0.2,0-0.3c0-0.3-0.1-0.6-0.3-0.8c-0.2-0.2-0.5-0.4-0.8-0.4
						c-0.3,0-0.6,0.1-0.9,0.3C47.8,0.9,47.7,1.1,47.7,1.4L47.7,1.4z M56.5,0.3V0h1.4v0.3c-0.3,0-0.4,0.1-0.4,0.4v4.5
						c0,0.1,0,0.3-0.1,0.4c0,0.1-0.1,0.3-0.2,0.4c-0.1,0.2-0.3,0.3-0.4,0.4c-0.2,0.1-0.4,0.2-0.7,0.3c-0.3,0.1-0.6,0.1-1,0.1
						c-0.7,0-1.3-0.2-1.8-0.5c-0.5-0.3-0.7-0.7-0.7-1.2V0.7c0-0.1,0-0.2-0.1-0.3c-0.1-0.1-0.2-0.1-0.3-0.1V0h2.4v0.3
						c-0.1,0-0.2,0.1-0.3,0.2c-0.1,0.1-0.1,0.2-0.1,0.3v4.4c0,0.3,0.1,0.6,0.4,0.8c0.3,0.2,0.6,0.3,1,0.3c0.4,0,0.7-0.1,1-0.3
						c0.3-0.2,0.4-0.5,0.4-0.8V0.7c0-0.1,0-0.2-0.1-0.3C56.8,0.3,56.7,0.3,56.5,0.3L56.5,0.3z M62.7,0.3V0h1.4v0.3
						c-0.1,0-0.3,0-0.3,0.1c-0.1,0.1-0.1,0.2-0.1,0.3v6.2H62c-0.3-0.6-0.8-1.6-1.6-3c-0.7-1.4-1.1-2.2-1.2-2.4v4.7
						c0,0.1,0,0.2,0.1,0.3s0.2,0.1,0.3,0.1v0.3h-1.4V6.6c0.2,0,0.3,0,0.3-0.1c0.1-0.1,0.1-0.2,0.1-0.3V0.7c0-0.3-0.1-0.4-0.4-0.4V0
						h2.1c0.2,0.3,0.6,1.1,1.3,2.5c0.7,1.3,1.2,2.3,1.5,3V0.7c0-0.1,0-0.2-0.1-0.3C63,0.3,62.9,0.3,62.7,0.3L62.7,0.3z"/>
					<path d="M45.6,22.7c0.2-0.2,0.6-0.3,1.3-0.3c0.7,0,1.4,0,2.2,0.1c0.7,0.1,1.5,0.2,2.3,0.3c0.8,0.1,1.3,0.1,1.5,0.1
						c0.3,0,0.6,0,0.8,0c0.2,0,0.4-0.1,0.6-0.1c0.1,0,0.2-0.1,0.3-0.1c0.1,0,0.2-0.1,0.2-0.1c0,0,0.1,0,0.1,0c0,0.3,0,0.7-0.1,1
						c-0.1,0.3-0.2,0.6-0.3,0.9c-0.1,0.3-0.3,0.5-0.6,0.7c-0.3,0.2-0.6,0.2-0.9,0.2c-0.4,0-1.5-0.1-3.1-0.3
						c-1.6-0.2-2.8-0.3-3.7-0.3c-0.8,0-1.2,0.2-1.3,0.5h-0.6c-0.1-0.7,0-1.3,0.2-2c0.2-0.6,0.5-1.2,0.9-1.6c0.4-0.5,0.8-0.9,1.3-1.4
						c0.5-0.4,1-0.9,1.5-1.3c0.5-0.4,1-0.8,1.4-1.2c0.4-0.4,0.8-0.8,1.1-1.3c0.3-0.5,0.4-1,0.4-1.5c0-0.8-0.2-1.4-0.5-2
						c-0.3-0.5-0.7-0.8-1.2-0.8c-0.5,0-0.9,0.2-1.2,0.6c-0.3,0.4-0.5,1-0.5,1.8c0,0.2,0,0.4,0.1,0.6c0.1,0.1,0.1,0.2,0.2,0.3
						c0.1,0.1,0.1,0.1,0.1,0.1c0,0.2-0.1,0.4-0.4,0.6c-0.3,0.2-0.6,0.3-0.9,0.3c-0.5,0-0.9-0.1-1.2-0.4c-0.3-0.3-0.5-0.7-0.5-1.1
						c0-0.4,0.1-0.8,0.3-1.1c0.2-0.4,0.5-0.7,0.9-1.1c0.4-0.3,0.9-0.6,1.4-0.8c0.6-0.2,1.2-0.3,1.8-0.3c0.9,0,1.7,0.1,2.3,0.3
						c0.7,0.2,1.2,0.5,1.6,0.8c0.4,0.4,0.7,0.8,0.8,1.2c0.2,0.5,0.3,1,0.3,1.5c0,0.5-0.1,1-0.4,1.4c-0.3,0.4-0.6,0.8-1.1,1.2
						c-0.5,0.3-1,0.7-1.5,1c-0.6,0.3-1.1,0.6-1.7,0.9s-1.2,0.6-1.7,0.9c-0.5,0.3-1,0.6-1.4,0.9C46,22,45.7,22.3,45.6,22.7L45.6,22.7
						z M60.8,16.8c0.9,0,1.8,0.1,2.5,0.4c0.7,0.2,1.3,0.5,1.8,0.9c0.4,0.4,0.8,0.8,1,1.3c0.2,0.5,0.3,0.9,0.3,1.4
						c0,1.3-0.5,2.4-1.4,3.2c-1,0.8-2.4,1.2-4.2,1.2c-0.8,0-1.5-0.1-2.1-0.3c-0.7-0.2-1.2-0.5-1.6-0.8c-0.4-0.3-0.7-0.7-1-1.1
						c-0.2-0.4-0.4-0.8-0.4-1.2c0-0.5,0.2-0.8,0.5-1.1c0.3-0.3,0.7-0.4,1.2-0.4c0.3,0,0.6,0.1,0.9,0.3c0.3,0.2,0.4,0.4,0.4,0.6
						c0,0,0,0-0.1,0.1c-0.1,0.1-0.1,0.2-0.2,0.3c-0.1,0.1-0.1,0.3-0.1,0.6c0,0.4,0.1,0.8,0.2,1.1c0.2,0.3,0.4,0.6,0.6,0.8
						c0.2,0.2,0.5,0.3,0.7,0.4c0.3,0.1,0.5,0.1,0.7,0.1c0.2,0,0.4,0,0.6-0.1c0.2-0.1,0.4-0.2,0.7-0.3c0.2-0.2,0.4-0.3,0.6-0.6
						c0.2-0.2,0.3-0.5,0.4-0.9c0.1-0.4,0.2-0.8,0.2-1.3c0-1-0.3-1.8-1-2.4c-0.6-0.6-1.4-0.9-2.4-0.9c-0.5,0-1.1,0.1-1.7,0.3
						c-0.6,0.2-1.1,0.4-1.5,0.8h-0.9l0.9-4.8l0.5-2.8h5.8c0.8,0,1.3,0,1.6,0.1c0.3,0.1,0.4,0.2,0.5,0.3l0.7,2.8
						c-0.1,0-0.1-0.1-0.2-0.1c-0.1,0-0.3-0.1-0.7-0.2c-0.4-0.1-0.8-0.1-1.3-0.1h-5.8l-0.6,3.4C57.8,17.1,59.1,16.8,60.8,16.8
						L60.8,16.8z"/>
				</g>
			</g>
		</g>
	</g>
</g>
</svg>
