<?xml version="1.0" encoding="UTF-8"?>
<!DOCTYPE svg PUBLIC "-//W3C//DTD SVG 1.1//EN" "http://www.w3.org/Graphics/SVG/1.1/DTD/svg11.dtd">
<!-- Creator: CorelDRAW -->
<svg xmlns="http://www.w3.org/2000/svg" xml:space="preserve" width="30.454mm" height="7.091mm" version="1.1" style="shape-rendering:geometricPrecision; text-rendering:geometricPrecision; image-rendering:optimizeQuality; fill-rule:evenodd; clip-rule:evenodd"
viewBox="0 0 3045.4 709.1"
 xmlns:xlink="http://www.w3.org/1999/xlink"
 xmlns:xodm="http://www.corel.com/coreldraw/odm/2003">
 <defs>
  <style type="text/css">
   <![CDATA[
    .fil0 {fill:#332C2B;fill-rule:nonzero}
   ]]>
  </style>
 </defs>
 <g id="Layer_x0020_1">
  <metadata id="CorelCorpID_0Corel-Layer"/>
  <g id="_2267343540000">
   <path class="fil0" d="M2170.95 501.13c2.65,-2.65 13.23,-5.29 26.46,-5.29 13.23,0 29.1,0 42.33,2.65 15.88,2.65 29.1,2.65 44.98,5.29 15.88,2.65 26.46,2.65 29.1,2.65 5.29,0 10.58,0 15.88,0 5.29,0 7.94,-2.65 10.58,-2.65 2.65,0 5.29,-2.65 5.29,-2.65 2.65,0 2.65,-2.65 2.65,-2.65 0,0 2.65,0 2.65,0 0,7.94 0,13.23 -2.65,18.52 -2.65,5.29 -2.65,10.58 -5.29,18.52 -2.65,5.29 -7.94,10.58 -13.23,13.23 -5.29,2.65 -10.58,5.29 -18.52,5.29 -7.94,0 -29.1,-2.65 -60.85,-5.29 -31.75,-2.65 -55.56,-5.29 -71.44,-5.29 -15.88,0 -23.81,2.65 -23.81,10.58l-13.23 0c-2.65,-13.23 0,-26.46 2.65,-39.69 2.65,-13.23 10.58,-23.81 18.52,-31.75 7.94,-10.58 15.88,-18.52 26.46,-26.46 10.58,-7.94 18.52,-15.88 29.1,-23.81 10.58,-7.94 18.52,-15.88 29.1,-23.81 7.94,-7.94 15.88,-15.88 21.17,-26.46 5.29,-10.58 7.94,-18.52 7.94,-29.1 0,-15.88 -2.65,-29.1 -10.58,-39.69 -5.29,-10.58 -13.23,-15.88 -23.81,-15.88 -10.58,0 -18.52,2.65 -23.81,10.58 -7.94,7.94 -10.58,18.52 -10.58,34.4 0,5.29 0,7.94 2.65,10.58 0,2.65 2.65,5.29 2.65,5.29 0,0 2.65,2.65 2.65,2.65 0,2.65 -2.65,7.94 -7.94,10.58 -5.29,2.65 -10.58,5.29 -18.52,5.29 -7.94,0 -15.88,-2.65 -23.81,-7.94 -7.94,-5.29 -10.58,-13.23 -10.58,-21.17 0,-7.94 2.65,-15.88 7.94,-23.81 5.29,-7.94 10.58,-15.88 18.52,-21.17 7.94,-5.29 15.88,-10.58 29.1,-15.88 10.58,-5.29 23.81,-5.29 37.04,-5.29 18.52,0 34.4,2.65 47.63,5.29 13.23,2.65 23.81,10.58 31.75,15.88 7.94,7.94 13.23,15.88 15.88,23.81 2.65,7.94 5.29,18.52 5.29,31.75 0,10.58 -2.65,18.52 -7.94,26.46 -5.29,7.94 -13.23,15.88 -21.17,23.81 -7.94,7.94 -18.52,13.23 -29.1,21.17 -10.58,5.29 -23.81,13.23 -34.4,18.52 -10.58,5.29 -23.81,10.58 -34.4,18.52 -10.58,5.29 -18.52,10.58 -29.1,18.52 -10.61,2.67 -15.91,10.6 -21.2,15.9l0 0zm306.92 -222.25c18.52,0 34.4,5.29 52.92,18.52 15.88,13.23 29.1,29.1 39.69,50.27 10.58,21.17 15.88,42.33 15.88,63.5 0,42.33 -10.58,74.08 -29.1,100.54 -18.52,26.46 -44.98,37.04 -76.73,37.04 -31.75,0 -58.21,-10.58 -76.73,-34.4 -18.52,-23.81 -29.1,-55.56 -29.1,-92.6 0,-26.46 5.29,-50.27 13.23,-71.44 7.94,-21.17 21.17,-39.69 37.04,-52.92 15.86,-10.58 34.38,-18.51 52.9,-18.51l0 0zm-18.52 243.41c5.29,10.58 13.23,18.52 18.52,18.52 7.94,0 13.23,-5.29 18.52,-15.88 5.29,-10.58 10.58,-26.46 13.23,-44.98 2.65,-18.52 5.29,-37.04 5.29,-58.21 0,-23.81 0,-44.98 -2.65,-63.5 -2.65,-18.52 -7.94,-34.4 -13.23,-47.63 -5.29,-13.23 -13.23,-18.52 -21.17,-18.52 -2.65,0 -7.94,2.65 -13.23,7.94 -5.29,5.29 -7.94,13.23 -13.23,23.81 -2.65,10.58 -7.94,23.81 -7.94,42.33 -2.65,15.88 -2.65,34.4 -2.65,55.56 0,21.17 2.65,39.69 5.29,58.21 2.66,15.89 7.96,31.77 13.25,42.35l0 0zm171.98 -21.16c2.65,-2.65 13.23,-5.29 26.46,-5.29 13.23,0 29.1,0 42.33,2.65 15.88,2.65 29.1,2.65 44.98,5.29 15.88,2.65 26.46,2.65 29.1,2.65 5.29,0 10.58,0 15.88,0 5.29,0 7.94,-2.65 10.58,-2.65 2.65,0 5.29,-2.65 5.29,-2.65 2.65,0 2.65,-2.65 2.65,-2.65 0,0 2.65,0 2.65,0 0,7.94 0,13.23 -2.65,18.52 0,5.29 -2.65,10.58 -5.29,18.52 -2.65,5.29 -7.94,10.58 -13.23,13.23 -5.29,2.65 -10.58,5.29 -18.52,5.29 -7.94,0 -29.1,-2.65 -60.85,-5.29 -31.75,-2.65 -55.56,-5.29 -71.44,-5.29 -15.88,0 -23.81,2.65 -23.81,10.58l-13.24 0c-2.65,-13.23 0,-26.46 2.65,-39.69 2.65,-13.23 10.58,-23.81 18.52,-31.75 7.94,-10.58 15.88,-18.52 26.46,-26.46 10.58,-7.94 18.52,-15.88 29.1,-23.81 10.58,-7.94 18.52,-15.88 29.1,-23.81 7.94,-7.94 15.88,-15.88 21.17,-26.46 5.29,-10.58 7.94,-18.52 7.94,-29.1 0,-15.88 -2.65,-29.1 -10.58,-39.69 -5.29,-10.58 -13.23,-15.88 -23.81,-15.88 -10.58,0 -18.52,2.65 -23.81,10.58 -7.94,7.94 -10.58,18.52 -10.58,34.4 0,5.29 0,7.94 2.65,10.58 0,2.65 2.65,5.29 2.65,5.29 0,0 2.65,2.65 2.65,2.65 0,2.65 -2.65,7.94 -7.94,10.58 -5.29,2.65 -10.58,5.29 -18.52,5.29 -7.94,0 -15.88,-2.65 -23.81,-7.94 -7.94,-5.29 -10.58,-13.23 -10.58,-21.17 0,-7.94 2.65,-15.88 5.29,-23.81 5.29,-7.94 10.58,-15.88 18.52,-21.17 7.94,-5.29 15.88,-10.58 29.1,-15.88 10.58,-5.29 23.81,-5.29 37.04,-5.29 18.52,0 34.4,2.65 47.63,5.29 13.23,2.65 23.81,10.58 31.75,15.88 7.94,7.94 13.23,15.88 15.88,23.81 2.65,7.94 5.29,18.52 5.29,31.75 0,10.58 -2.65,18.52 -7.94,26.46 -5.29,7.94 -13.23,15.88 -21.17,23.81 -7.94,7.94 -18.52,13.23 -29.1,21.17 -10.58,5.29 -23.81,13.23 -34.4,18.52 -10.58,5.29 -23.81,10.58 -34.4,18.52 -10.58,5.29 -18.52,10.58 -29.1,18.52 -10.61,2.67 -15.9,10.6 -18.54,15.9l0 0zm301.62 -116.42c18.52,0 34.4,2.65 50.27,7.94 15.88,5.29 26.46,10.58 34.4,18.52 7.94,7.94 15.88,15.88 18.52,26.46 5.29,7.94 7.94,18.52 7.94,29.1 0,26.46 -10.58,47.63 -29.1,63.5 -18.52,15.88 -47.63,23.81 -82.02,23.81 -15.88,0 -29.1,-2.65 -42.33,-5.29 -13.23,-2.65 -23.81,-7.94 -31.75,-15.88 -7.94,-5.29 -15.88,-13.23 -18.52,-21.17 -5.29,-7.94 -7.94,-15.88 -7.94,-23.81 0,-7.94 2.65,-15.88 10.58,-23.81 7.94,-5.29 15.88,-7.94 23.81,-7.94 7.94,0 13.23,2.65 18.52,5.29 5.29,2.65 7.94,7.94 7.94,10.58 0,0 0,0 -2.65,2.65 0,0 -2.65,2.65 -2.65,5.29 0,2.65 -2.65,7.94 -2.65,10.58 0,7.94 2.65,15.88 5.29,21.17 2.65,5.29 7.94,10.58 10.58,15.88 5.29,2.65 10.58,5.29 15.88,7.94 5.29,2.65 10.58,2.65 15.88,2.65 5.29,0 7.94,0 13.23,-2.65 5.29,0 7.94,-2.65 13.23,-5.29 5.29,-2.65 7.94,-7.94 10.58,-10.58 2.65,-5.29 5.29,-10.58 7.94,-18.52 2.65,-7.94 2.65,-15.88 2.65,-23.81 0,-18.52 -5.29,-34.4 -18.52,-47.63 -13.23,-13.23 -29.1,-18.52 -47.63,-18.52 -10.58,0 -21.17,2.65 -31.75,5.29 -10.58,2.65 -21.17,7.94 -29.1,15.88l-18.52 -0.01 18.52 -95.25 10.58 -55.56 113.77 0c15.88,0 26.46,0 31.75,2.65 5.29,0 7.94,2.65 7.94,5.29l13.23 55.56c0,0 -2.65,-2.65 -5.29,-2.65 -2.65,0 -7.94,-2.65 -15.88,-2.65 -7.94,-2.65 -15.88,-2.65 -26.46,-2.65l-116.41 0.01 -13.23 68.79c21.16,-13.22 44.98,-21.16 79.37,-21.16l0 0z"/>
   <g>
    <g>
     <path class="fil0" d="M924.76 122.77c7.94,82.02 2.65,209.02 5.29,293.69 0,84.67 2.65,209.02 -5.29,293.69 -7.94,-82.02 -2.65,-209.02 -5.29,-293.69 2.65,-84.67 -2.64,-209.02 5.29,-293.69l0 0z"/>
     <path class="fil0" d="M1996.33 122.77c7.94,82.02 2.65,209.02 5.29,293.69 0,84.67 2.65,209.02 -5.29,293.69 -7.94,-82.02 -2.65,-209.02 -5.29,-293.69 0,-84.67 -2.65,-209.02 5.29,-293.69l0 0z"/>
    </g>
    <path class="fil0" d="M104.56 278.88c18.52,0 34.4,5.29 52.92,18.52 15.88,13.23 29.1,29.1 39.69,50.27 7.93,21.16 13.22,42.33 13.22,66.14 0,42.33 -10.58,74.08 -29.1,100.54 -18.52,26.46 -44.98,37.04 -76.73,37.04 -31.75,0 -58.21,-10.58 -76.73,-34.4 -18.52,-23.8 -29.11,-55.55 -29.11,-92.59 0,-26.46 5.29,-50.27 13.23,-71.44 7.94,-21.17 21.17,-39.69 37.04,-52.92 18.52,-13.23 34.4,-21.16 55.57,-21.16l0 0zm-18.52 243.41c5.29,10.58 13.23,18.52 18.52,18.52 7.94,0 13.23,-5.29 18.52,-15.88 5.29,-10.58 10.58,-26.46 13.23,-44.98 2.65,-18.52 5.29,-37.04 5.29,-58.21 0,-23.81 0,-44.98 -2.65,-63.5 -2.64,-18.51 -7.94,-34.38 -13.23,-47.61 -5.29,-13.23 -13.23,-18.52 -21.16,-18.52 -2.65,0 -7.94,2.64 -13.23,7.93 -2.65,5.29 -7.94,13.23 -10.59,23.82 -2.64,10.58 -7.93,23.81 -10.58,42.33 -2.65,15.88 -2.65,34.4 -2.65,55.56 0,21.17 2.65,39.69 5.29,58.21 2.65,15.87 7.94,31.75 13.24,42.33l0 0zm304.27 -145.52c-7.94,0 -13.23,-2.65 -18.52,-5.29 -5.29,-2.65 -7.94,-7.94 -7.94,-10.58 0,0 0,0 2.65,-2.65 0,0 2.65,-2.65 2.65,-5.29 0,-2.65 2.65,-7.94 2.65,-10.58 0,-15.88 -2.65,-29.1 -7.94,-34.4 -5.29,-7.94 -10.58,-10.58 -18.52,-10.58 -5.29,0 -7.94,0 -13.23,2.65 -5.29,2.65 -7.94,5.29 -13.23,10.58 -5.29,5.29 -7.94,10.58 -13.23,18.52 -2.65,7.94 -5.29,18.52 -7.94,31.75 -2.65,13.23 -2.65,29.1 -2.65,44.98 0,42.33 5.29,74.08 18.52,95.25 13.23,21.17 29.1,34.4 47.63,34.4 10.58,0 21.17,-7.94 29.1,-21.17 7.94,-13.23 13.23,-31.75 15.88,-50.27 0,0 2.65,0 5.29,0 2.65,0 5.29,0 7.94,0 0,7.94 -2.65,15.88 -5.29,23.81 -2.65,7.94 -5.29,15.88 -7.94,23.81 -5.29,7.94 -7.94,15.88 -13.23,21.17 -5.29,5.29 -13.23,10.58 -21.17,15.88 -7.94,5.29 -18.52,5.29 -29.1,5.29 -18.52,0 -37.04,-2.65 -50.27,-10.58 -15.88,-7.94 -26.46,-15.88 -37.04,-26.46 -10.58,-10.58 -15.88,-26.46 -21.17,-39.69 -5.29,-15.88 -7.94,-31.75 -7.94,-50.27 0,-18.52 2.65,-37.04 7.94,-55.56 7.93,-21.18 15.87,-37.05 26.45,-50.28 10.58,-13.23 21.17,-23.81 37.04,-31.75 15.88,-7.94 31.75,-10.58 50.27,-10.58 10.58,0 21.17,2.65 29.1,5.29 10.58,2.65 18.52,7.94 26.46,15.88 7.94,5.29 13.23,13.23 15.88,21.17 5.29,7.94 5.29,15.88 5.29,23.81 0,7.94 -2.65,15.88 -10.58,21.17 -5.29,7.93 -13.23,10.57 -23.81,10.57l0 0zm52.91 -97.89l211.67 0 0 60.85 -10.58 0c0,-5.29 -2.65,-7.94 -5.29,-13.23 -2.65,-5.29 -5.29,-7.94 -10.58,-13.23 -5.29,-5.29 -10.58,-7.94 -18.52,-10.58 -7.94,-2.65 -18.52,-5.29 -29.1,-5.29l0 224.9c0,5.29 0,7.94 2.65,13.23 2.65,5.29 5.29,5.29 13.23,5.29l0 10.58 -95.27 0 0 -10.58c5.29,0 7.94,-2.65 10.58,-5.29 2.65,-2.65 2.65,-7.94 5.29,-10.58l0.01 -227.55c-10.58,0 -21.17,2.65 -29.1,5.29 -7.94,2.65 -15.88,7.94 -18.52,10.58 -5.29,5.29 -7.94,7.94 -10.58,13.23 -2.65,5.29 -2.65,7.94 -5.29,13.23l-10.6 0 0 -60.85 0 0z"/>
    <path class="fil0" d="M1237.28 139.52c0,2.69 0.71,5.17 2.14,7.44 1.43,2.27 3.7,3.36 6.85,3.36l0 6.05 -55.29 0 0 -6.05c2.9,0 5,-0.92 6.43,-2.86 1.39,-1.93 2.19,-4.24 2.44,-6.84l0 -101.92c-3.61,10.33 -8.53,24.53 -14.75,42.51 -6.26,18.03 -11.76,33.99 -16.55,47.85 -4.83,13.87 -7.27,20.97 -7.35,21.26l-32.35 0c-6.97,-19.58 -20,-56.29 -39.03,-110.15l0 100.57c0,2.61 0.8,4.88 2.36,6.77 1.55,1.89 4.07,2.81 7.6,2.81l-0.13 6.05 -31 0 0 -6.05c6.55,0 9.83,-3.19 9.83,-9.58l0 -121.62c0,-4.32 -0.46,-7.43 -1.38,-9.28 -0.97,-1.85 -3.07,-2.77 -6.35,-2.77l0 -6.01 45.67 0c22.22,66.54 36.21,107.29 41.96,122.33 27.73,-79.1 41.93,-119.89 42.6,-122.33l45.29 0 0 6.01c-3.07,0 -5.29,1.21 -6.76,3.57 -1.52,2.39 -2.23,4.79 -2.23,7.27l0 121.61z"/>
    <path id="_1" class="fil0" d="M1256.35 1.06l55.29 0 0 6.01c-3.15,0 -5.42,1.13 -6.85,3.4 -1.43,2.27 -2.14,4.75 -2.14,7.44l0 121.61c0,2.69 0.71,5.17 2.14,7.44 1.43,2.27 3.7,3.36 6.85,3.36l0 6.05 -55.29 0 0 -6.05c2.86,0 5.04,-0.92 6.47,-2.81 1.43,-1.89 2.27,-4.16 2.52,-6.77l0 -124.05c-0.25,-2.65 -1.09,-4.88 -2.52,-6.77 -1.43,-1.89 -3.61,-2.85 -6.47,-2.85l0 -6.01z"/>
    <path id="_2" class="fil0" d="M1421.91 7.07l0 -6.01 31 0 0 6.01c-3.36,0 -5.84,1.05 -7.43,3.11 -1.6,2.01 -2.4,4.15 -2.4,6.38l0 139.81 -37.3 0c-7.06,-13.78 -18.78,-36.76 -35.21,-68.94 -16.38,-32.14 -25.58,-50.12 -27.56,-53.9l0 107.21c0,2.61 0.76,4.88 2.27,6.77 1.52,1.89 4.04,2.81 7.56,2.81l0 6.05 -31 0 0 -6.05c3.53,0 6.05,-0.8 7.52,-2.39 1.47,-1.6 2.27,-3.87 2.31,-6.81l0 -124.56c0,-6.34 -3.28,-9.49 -9.83,-9.49l0 -6.01 47.14 0c3.69,7.31 13.23,26.05 28.61,56.25 15.41,30.16 26.8,52.55 34.15,67.05l0 -107.8c0,-2.65 -0.76,-4.87 -2.31,-6.72 -1.56,-1.85 -4.08,-2.77 -7.52,-2.77z"/>
    <path id="_3" class="fil0" d="M1556.68 75.5l27.56 0 0 6.05c-3.11,0 -5.38,1.13 -6.85,3.36 -1.43,2.27 -2.14,4.75 -2.14,7.48l0 53.9c-2.4,-0.59 -5.05,-0.42 -7.99,0.46 -2.98,0.92 -5.84,2.1 -8.61,3.57 -2.81,1.51 -6.76,2.86 -11.84,4.16 -5.09,1.26 -10.55,1.89 -16.35,1.89 -10.84,0 -20.58,-1.89 -29.24,-5.71 -8.65,-3.83 -15.75,-9.12 -21.25,-15.84 -5.46,-6.72 -9.67,-14.54 -12.52,-23.44 -2.9,-8.91 -4.33,-18.53 -4.33,-28.86 0,-11.14 1.56,-21.64 4.66,-31.51 3.16,-9.83 7.52,-18.49 13.11,-25.92 5.63,-7.4 12.73,-13.28 21.3,-17.56 8.57,-4.33 18.02,-6.47 28.27,-6.47 7.86,0 15.34,1.93 22.39,5.75 7.06,3.87 12.61,8.66 16.6,14.37 4.03,5.67 6.05,11.43 6.05,17.14 0,5.04 -1.85,9.24 -5.55,12.69 -3.69,3.44 -8.32,5.17 -13.9,5.17 -3.95,0 -7.31,-1.14 -10.17,-3.45 -2.81,-2.31 -4.24,-4.41 -4.24,-6.38 0,-0.09 0.33,-0.42 0.92,-1.05 0.63,-0.63 1.26,-1.77 1.85,-3.45 0.63,-1.68 0.92,-3.82 0.92,-6.47 0,-8.44 -1.34,-15.04 -3.99,-19.83 -2.68,-4.74 -6.47,-7.14 -11.38,-7.14 -2.4,0 -4.75,0.55 -7.14,1.64 -2.4,1.05 -4.88,3.02 -7.44,5.88 -2.6,2.9 -4.83,6.51 -6.76,10.97 -1.93,4.41 -3.53,10.37 -4.83,17.85 -1.26,7.44 -1.89,15.92 -1.89,25.33 0,13.15 1.42,25.96 4.24,38.52 2.81,12.57 6.43,22.65 10.84,30.29 4.37,7.65 8.74,11.43 13.11,11.43 3.61,0 6.51,-2.23 8.73,-6.68 2.23,-4.49 3.32,-10.21 3.32,-17.18 0,-3.61 -0.04,-9.33 -0.12,-17.1 -0.09,-7.81 -0.13,-13.48 -0.13,-17.1 0,-2.73 -0.67,-5.16 -2.1,-7.39 -1.39,-2.23 -3.66,-3.32 -6.76,-3.32l0 -6.05 23.65 0z"/>
    <path id="_4" class="fil0" d="M1688 75.5l27.56 0 0 6.05c-3.11,0 -5.38,1.13 -6.85,3.36 -1.43,2.27 -2.14,4.75 -2.14,7.48l0 53.9c-2.4,-0.59 -5.05,-0.42 -7.99,0.46 -2.98,0.92 -5.84,2.1 -8.61,3.57 -2.81,1.51 -6.76,2.86 -11.84,4.16 -5.09,1.26 -10.55,1.89 -16.35,1.89 -10.84,0 -20.58,-1.89 -29.24,-5.71 -8.65,-3.83 -15.75,-9.12 -21.25,-15.84 -5.46,-6.72 -9.67,-14.54 -12.52,-23.44 -2.9,-8.91 -4.33,-18.53 -4.33,-28.86 0,-11.14 1.56,-21.64 4.66,-31.51 3.16,-9.83 7.52,-18.49 13.11,-25.92 5.63,-7.4 12.73,-13.28 21.3,-17.56 8.57,-4.33 18.02,-6.47 28.27,-6.47 7.86,0 15.34,1.93 22.39,5.75 7.06,3.87 12.61,8.66 16.6,14.37 4.03,5.67 6.05,11.43 6.05,17.14 0,5.04 -1.85,9.24 -5.55,12.69 -3.69,3.44 -8.32,5.17 -13.9,5.17 -3.95,0 -7.31,-1.14 -10.17,-3.45 -2.81,-2.31 -4.24,-4.41 -4.24,-6.38 0,-0.09 0.33,-0.42 0.92,-1.05 0.63,-0.63 1.26,-1.77 1.85,-3.45 0.63,-1.68 0.92,-3.82 0.92,-6.47 0,-8.44 -1.34,-15.04 -3.99,-19.83 -2.68,-4.74 -6.47,-7.14 -11.38,-7.14 -2.4,0 -4.75,0.55 -7.14,1.64 -2.4,1.05 -4.88,3.02 -7.44,5.88 -2.6,2.9 -4.83,6.51 -6.76,10.97 -1.93,4.41 -3.53,10.37 -4.83,17.85 -1.26,7.44 -1.89,15.92 -1.89,25.33 0,13.15 1.42,25.96 4.24,38.52 2.81,12.57 6.43,22.65 10.84,30.29 4.37,7.65 8.74,11.43 13.11,11.43 3.61,0 6.51,-2.23 8.73,-6.68 2.23,-4.49 3.32,-10.21 3.32,-17.18 0,-3.61 -0.04,-9.33 -0.12,-17.1 -0.09,-7.81 -0.13,-13.48 -0.13,-17.1 0,-2.73 -0.67,-5.16 -2.1,-7.39 -1.39,-2.23 -3.66,-3.32 -6.76,-3.32l0 -6.05 23.65 0z"/>
    <path id="_5" class="fil0" d="M1825.7 7.07l0 -6.01 31.01 0 0 6.01c-6.56,0 -9.83,3.15 -9.83,9.49l0 101.16c0,2.86 -0.51,5.88 -1.47,8.99 -1.01,3.11 -2.82,6.47 -5.51,10.08 -2.64,3.62 -6.01,6.85 -10,9.67 -4.03,2.81 -9.41,5.2 -16.21,7.1 -6.77,1.89 -14.41,2.81 -22.94,2.81 -16.51,0 -29.95,-3.91 -40.37,-11.68 -10.42,-7.81 -15.63,-16.8 -15.63,-26.97l0 -101.03c-0.25,-2.65 -1.09,-4.88 -2.52,-6.77 -1.43,-1.89 -3.61,-2.85 -6.47,-2.85l0 -6.01 55.29 0 0 6.01c-3.07,0 -5.3,1.21 -6.81,3.57 -1.47,2.39 -2.18,4.79 -2.18,7.27l0 99.81c0,7.06 3.06,13.19 9.2,18.4 6.17,5.21 13.78,7.82 22.77,7.82 7.98,0 15.2,-2.61 21.76,-7.86 6.51,-5.25 9.74,-11.39 9.74,-18.36l0 -101.16c0,-2.65 -0.75,-4.87 -2.27,-6.72 -1.51,-1.85 -4.03,-2.77 -7.56,-2.77z"/>
    <path class="fil0" d="M1609.46 471.73c24.35,0 45.23,3.49 66.1,10.44 20.88,6.96 34.79,13.91 45.23,24.35 10.44,10.44 20.88,20.88 24.35,34.8 6.96,10.44 10.44,24.35 10.44,38.26 0,34.79 -13.91,62.63 -38.26,83.49 -24.35,20.88 -62.63,31.31 -107.85,31.31 -20.88,0 -38.26,-3.48 -55.66,-6.96 -17.39,-3.48 -31.3,-10.44 -41.74,-20.88 -10.44,-6.95 -20.88,-17.39 -24.35,-27.83 -6.96,-10.44 -10.44,-20.88 -10.44,-31.31 0,-10.44 3.48,-20.88 13.91,-31.31 10.44,-6.95 20.88,-10.44 31.3,-10.44 10.44,0 17.4,3.49 24.35,6.96 6.96,3.48 10.44,10.44 10.44,13.91 0,0 0,0 -3.48,3.49 0,0 -3.48,3.48 -3.48,6.95 0,3.49 -3.49,10.44 -3.49,13.91 0,10.44 3.49,20.88 6.96,27.84 3.48,6.95 10.44,13.91 13.91,20.88 6.95,3.48 13.91,6.95 20.88,10.44 6.95,3.48 13.91,3.48 20.88,3.48 6.95,0 10.44,0 17.39,-3.48 6.96,0 10.44,-3.49 17.4,-6.96 6.96,-3.48 10.44,-10.44 13.91,-13.91 3.49,-6.95 6.96,-13.91 10.44,-24.35 3.49,-10.44 3.49,-20.88 3.49,-31.31 0,-24.35 -6.96,-45.23 -24.36,-62.62 -17.39,-17.4 -38.26,-24.36 -62.62,-24.36 -13.91,0 -27.84,3.49 -41.75,6.96 -13.91,3.48 -27.84,10.44 -38.26,20.88l-24.35 -0.01 24.35 -125.24 13.91 -73.06 149.59 0c20.88,0 34.79,0 41.75,3.49 6.95,0 10.44,3.48 10.44,6.95l17.39 73.06c0,0 -3.48,-3.49 -6.95,-3.49 -3.49,0 -10.44,-3.48 -20.88,-3.48 -10.44,-3.49 -20.88,-3.49 -34.79,-3.49l-153.07 0.02 -17.39 90.45c27.82,-17.39 59.14,-27.83 104.36,-27.83zm-328.38 180.9c6.96,13.91 17.4,24.35 24.35,24.35 10.44,0 17.4,-6.95 24.36,-20.88 6.95,-13.91 13.91,-34.79 17.39,-59.14 3.49,-24.35 6.96,-48.7 6.96,-76.54 0,-31.3 0,-59.14 -3.49,-83.49 -3.48,-24.35 -10.44,-45.23 -17.39,-62.63 -6.96,-17.39 -17.4,-24.35 -27.84,-24.35 -3.48,0 -10.44,3.48 -17.39,10.44 -6.96,6.96 -10.44,17.4 -17.4,31.31 -3.48,13.91 -10.44,31.3 -10.44,55.66 -3.48,20.88 -3.48,45.23 -3.48,73.05 0,27.84 3.48,52.19 6.95,76.54 3.5,20.89 10.47,41.77 17.42,55.68zm24.35 -320.05c24.36,0 45.24,6.96 69.59,24.35 20.88,17.4 38.26,38.26 52.18,66.1 13.92,27.84 20.88,55.66 20.88,83.49 0,55.66 -13.91,97.41 -38.26,132.2 -24.35,34.79 -59.14,48.7 -100.89,48.7 -41.74,0 -76.54,-13.91 -100.89,-45.23 -24.35,-31.3 -38.26,-73.05 -38.26,-121.75 0,-34.8 6.96,-66.1 17.4,-93.94 10.44,-27.83 27.83,-52.19 48.7,-69.58 20.85,-13.91 45.2,-24.34 69.55,-24.34z"/>
   </g>
  </g>
 </g>
</svg>
