<?xml version="1.0" encoding="UTF-8"?>
<svg id="Layer_2" data-name="Layer 2" xmlns="http://www.w3.org/2000/svg" xmlns:xlink="http://www.w3.org/1999/xlink" viewBox="0 0 434.71 90.73">
  <defs>
    <style>
      .cls-1 {
        fill: url(#linear-gradient);
      }

      .cls-1, .cls-2 {
        stroke-width: 0px;
      }

      .cls-2 {
        fill: #fff;
      }
    </style>
    <linearGradient id="linear-gradient" x1="175.51" y1="72.31" x2="246.94" y2=".88" gradientUnits="userSpaceOnUse">
      <stop offset="0" stop-color="#58c2b0"/>
      <stop offset=".32" stop-color="#4685b6"/>
      <stop offset=".72" stop-color="#3cc0c6"/>
      <stop offset="1" stop-color="#199ba0"/>
    </linearGradient>
  </defs>
  <g id="Layer_1-2" data-name="Layer 1">
    <g>
      <g>
        <path class="cls-2" d="m46.11,32.16v-6.62h2.57l4.38,8.31c.36.63,1.09,1.09,1.78,1.09h5.35v-.63l-.66-.36c-.63-.36-1.3-1-1.63-1.66l-2.3-4.32c-.48-.94-1.39-1.87-2.33-2.42l-.24-.12c3.41-.54,5.59-2.84,5.59-6.22,0-3.84-2.69-6.16-7.13-6.16h-11.63v.6l.27.24c.6.42,1,1.21,1,1.93v16.34c0,.72-.39,1.48-1,1.93l-.27.21v.63h7.52v-.63l-.3-.21c-.54-.45-.97-1.21-.97-1.93Zm0-17.25h3.17c2.72,0,4.32,1.66,4.32,4.32s-1.69,4.44-4.32,4.44h-3.17v-8.76Z"/>
        <path class="cls-2" d="m77.55,33.07c-.24.42-.69.42-.69.42-.6,0-.85-.3-.85-1.09v-7.55c0-4.71-3.81-5.89-7.19-5.89-3.81,0-6.07,1.48-6.07,3.56,0,1.39,1.06,2.45,2.39,2.45s2.39-1.06,2.39-2.33c0-.75-.36-1.42-.88-1.84.15-.12.45-.21.88-.21,1.06,0,2.66.66,3.26,2.66-.21,2.51-9.06,1.9-9.06,7.46,0,2.72,2.14,4.53,4.92,4.53,1.81,0,3.44-.79,4.44-2.3.33,1.54,1.48,2.3,3.11,2.3,2.27,0,3.35-1.42,3.35-2.18Zm-6.55-3.9c-.18,1.78-1.27,2.96-2.36,2.96-.97,0-1.9-.94-1.9-2.45,0-2.6,2.75-3.11,4.26-4.2v3.68Z"/>
        <path class="cls-2" d="m105.37,33.07c-.24.42-.73.42-.73.42-.57,0-.85-.3-.85-1.09v-7.82c0-3.35-1.72-5.62-4.71-5.62-2.17,0-3.9,1.24-4.74,3.2-.6-1.84-1.99-3.2-4.35-3.2-2.02,0-3.47,1.03-4.35,2.45v-2.12h-1.24l-5.01.94v.63l.27.21c.6.42,1,1.21,1,1.93v9.15c0,.72-.39,1.48-1,1.93l-.27.21v.63h7.52v-.63l-.3-.21c-.54-.45-.97-1.21-.97-1.93v-7.49c.12-1.36.66-3.32,2.17-3.32,1.6,0,1.9,2.39,1.9,3.53v10.06h6.25v-.63l-.27-.21c-.6-.45-.97-1.21-.97-1.93v-6.89c-.03-2.36.94-3.93,2.14-3.93s1.93,1.39,1.93,3.53v6.89c0,2.39,1.18,3.47,3.17,3.47,2.3,0,3.38-1.42,3.38-2.18Z"/>
        <path class="cls-2" d="m123.04,33.07c-.24.42-.69.42-.69.42-.6,0-.85-.3-.85-1.09v-7.55c0-4.71-3.81-5.89-7.19-5.89-3.81,0-6.07,1.48-6.07,3.56,0,1.39,1.06,2.45,2.39,2.45s2.39-1.06,2.39-2.33c0-.75-.36-1.42-.88-1.84.15-.12.45-.21.88-.21,1.06,0,2.66.66,3.26,2.66-.21,2.51-9.06,1.9-9.06,7.46,0,2.72,2.14,4.53,4.92,4.53,1.81,0,3.44-.79,4.44-2.3.33,1.54,1.48,2.3,3.11,2.3,2.27,0,3.35-1.42,3.35-2.18Zm-6.55-3.9c-.18,1.78-1.27,2.96-2.36,2.96-.97,0-1.9-.94-1.9-2.45,0-2.6,2.75-3.11,4.26-4.2v3.68Z"/>
        <path class="cls-2" d="m141.88,33.49c-.6,0-.85-.3-.85-1.09V13.04h-1.27l-4.98.94v.6l.27.24c.6.42.97,1.21.97,1.93v3.62c-.88-.88-2.08-1.42-3.84-1.42-4.41,0-7.43,3.29-7.43,8.22s2.9,8.07,7.13,8.07c2.02,0,3.38-.73,4.32-1.96.45,1.36,1.51,1.96,3.02,1.96,2.27,0,3.38-1.42,3.38-2.18-.27.42-.72.42-.72.42Zm-5.86-5.53c-.18,3.29-1.42,5.41-3.17,5.41-1.84,0-3.08-2.45-3.08-6.34,0-3.66,1.09-6.16,3.02-6.16,1.78,0,3.05,2.08,3.23,5.41v1.69Z"/>
        <path class="cls-2" d="m162.21,33.07c-.27.42-.72.42-.72.42-.6,0-.85-.3-.85-1.09v-7.82c0-3.35-1.75-5.62-4.98-5.62-2.14,0-3.96,1.03-5.04,2.72v-8.64h-1.24l-5.01.94v.6l.27.24c.6.42,1,1.21,1,1.93v15.41c0,.72-.39,1.48-1,1.93l-.27.21v.63h7.52v-.63l-.3-.21c-.54-.45-.97-1.21-.97-1.93v-7.52c.21-1.99,1.24-3.29,2.66-3.29,1.51,0,2.36,1.33,2.36,3.53v6.89c0,2.39,1.21,3.47,3.2,3.47,2.27,0,3.38-1.42,3.38-2.18Z"/>
        <path class="cls-2" d="m179.85,33.07c-.24.42-.69.42-.69.42-.6,0-.85-.3-.85-1.09v-7.55c0-4.71-3.81-5.89-7.19-5.89-3.81,0-6.07,1.48-6.07,3.56,0,1.39,1.06,2.45,2.39,2.45s2.39-1.06,2.39-2.33c0-.75-.36-1.42-.88-1.84.15-.12.45-.21.88-.21,1.06,0,2.66.66,3.26,2.66-.21,2.51-9.06,1.9-9.06,7.46,0,2.72,2.14,4.53,4.92,4.53,1.81,0,3.44-.79,4.44-2.3.33,1.54,1.48,2.3,3.11,2.3,2.27,0,3.35-1.42,3.35-2.18Zm-6.55-3.9c-.18,1.78-1.27,2.96-2.36,2.96-.97,0-1.9-.94-1.9-2.45,0-2.6,2.75-3.11,4.26-4.2v3.68Z"/>
        <path class="cls-2" d="m199.54,33.07c-.27.42-.73.42-.73.42-.6,0-.85-.3-.85-1.09v-7.82c0-3.35-1.75-5.62-4.98-5.62-2.14,0-3.96,1.03-5.04,2.72v-2.39h-1.24l-5.01.94v.63l.27.21c.6.42,1,1.21,1,1.93v9.15c0,.72-.39,1.48-1,1.93l-.27.21v.63h7.52v-.63l-.3-.21c-.54-.45-.97-1.21-.97-1.93v-7.52c.21-1.99,1.24-3.29,2.66-3.29,1.51,0,2.36,1.33,2.36,3.53v6.89c0,2.39,1.21,3.47,3.2,3.47,2.27,0,3.38-1.42,3.38-2.18Z"/>
        <path class="cls-2" d="m224.07,23.67c2.05-.82,3.59-2.63,3.59-5.11,0-3.32-2.78-5.53-7.46-5.53h-9.73v.6l.27.24c.6.42,1,1.21,1,1.93v16.34c0,.72-.39,1.48-1,1.93l-.27.21v.63h10.66c4.65,0,7.46-2.33,7.46-5.86,0-2.6-1.51-4.47-4.53-5.41Zm-7.34-8.76h1.93c2.39,0,3.99,1.6,3.99,4.05s-1.6,4.08-3.99,4.08h-1.93v-8.13Zm2.87,18.16h-2.87v-8.16h2.87c2.39,0,3.99,1.6,3.99,4.08s-1.6,4.08-3.99,4.08Z"/>
        <path class="cls-2" d="m241.92,32.52c.21,1.84,1.39,2.72,3.17,2.72,2.27,0,3.38-1.42,3.38-2.18-.27.42-.73.42-.73.42-.6,0-.85-.3-.85-1.06v-13.14h-1.27l-4.98.94v.63l.27.21c.54.36.88,1.03.97,1.69v6.92c-.21,1.96-1.24,3.2-2.66,3.2-1.51,0-2.36-1.33-2.36-3.56v-10.03h-1.24l-5.01.94v.63l.27.21c.6.42,1,1.21,1,1.93v6.65c0,3.35,1.75,5.59,4.95,5.59,2.2,0,4.02-1.03,5.07-2.72Z"/>
        <path class="cls-2" d="m260.07,18.96c-1.36,0-2.63.6-3.47,1.6v-1.27h-1.24l-5.01.94v.63l.27.21c.6.42,1,1.21,1,1.93v9.15c0,.72-.39,1.48-1,1.93l-.27.21v.63h7.52v-.63l-.3-.21c-.54-.45-.97-1.21-.97-1.93v-8.94c.06-1.06.45-1.54.94-1.63-.15,1.78.69,2.51,1.27,2.84.48.27,1.06.42,1.66.42,1.03,0,2.05-.45,2.66-1.45,1.15-2.05-.3-4.44-3.05-4.44Z"/>
        <path class="cls-2" d="m282.21,33.49c-.6,0-.85-.3-.85-1.09v-7.82c0-3.35-1.75-5.62-4.98-5.62-2.14,0-3.96,1.03-5.05,2.72v-8.64h-1.24l-5.01.94v.6l.27.24c.6.42,1,1.21,1,1.93v15.41c0,.72-.39,1.48-1,1.93l-.27.21v.63h7.52v-.63l-.3-.21c-.54-.45-.97-1.21-.97-1.93v-7.52c.21-1.99,1.24-3.29,2.66-3.29,1.51,0,2.36,1.33,2.36,3.53v6.89c0,2.39,1.21,3.47,3.2,3.47,2.27,0,3.38-1.42,3.38-2.18-.27.42-.72.42-.72.42Z"/>
        <path class="cls-2" d="m299.88,33.49c-.6,0-.85-.3-.85-1.09v-7.55c0-4.71-3.81-5.89-7.19-5.89-3.81,0-6.07,1.48-6.07,3.56,0,1.39,1.06,2.45,2.39,2.45s2.39-1.06,2.39-2.33c0-.75-.36-1.42-.88-1.84.15-.12.45-.21.88-.21,1.06,0,2.66.66,3.26,2.66-.21,2.51-9.06,1.9-9.06,7.46,0,2.72,2.14,4.53,4.92,4.53,1.81,0,3.44-.79,4.44-2.3.33,1.54,1.48,2.3,3.11,2.3,2.27,0,3.35-1.42,3.35-2.18-.24.42-.69.42-.69.42Zm-5.86-4.32c-.18,1.78-1.27,2.96-2.36,2.96-.97,0-1.9-.94-1.9-2.45,0-2.6,2.75-3.11,4.26-4.2v3.68Z"/>
        <path class="cls-2" d="m319.54,33.49c-.6,0-.85-.3-.85-1.09v-7.82c0-3.35-1.75-5.62-4.98-5.62-2.14,0-3.96,1.03-5.04,2.72v-2.39h-1.24l-5.01.94v.63l.27.21c.6.42,1,1.21,1,1.93v9.15c0,.72-.39,1.48-1,1.93l-.27.21v.63h7.52v-.63l-.3-.21c-.54-.45-.97-1.21-.97-1.93v-7.52c.21-1.99,1.24-3.29,2.66-3.29,1.51,0,2.36,1.33,2.36,3.53v6.89c0,2.39,1.21,3.47,3.2,3.47,2.27,0,3.38-1.42,3.38-2.18-.27.42-.73.42-.73.42Z"/>
        <path class="cls-2" d="m325.83,18.48c1.6,0,2.9-1.3,2.9-2.87s-1.3-2.9-2.9-2.9-2.87,1.33-2.87,2.9,1.3,2.87,2.87,2.87Z"/>
        <path class="cls-2" d="m329.6,34.3l-.3-.21c-.54-.45-.97-1.21-.97-1.93v-12.87h-1.24l-5.01.94v.63l.27.21c.6.42,1,1.21,1,1.93v9.15c0,.72-.39,1.48-1,1.93l-.27.21v.63h7.52v-.63Z"/>
        <path class="cls-2" d="m347.94,30.47c0-1.99-1.57-3.9-3.66-3.9-1.9,0-3.5,1.6-3.5,3.62,0,3.62,5.01,5.05,8.76,5.05,5.01,0,8.52-2.6,8.52-6.56,0-7.4-12.2-7.13-12.2-11.3,0-1.57,1.72-2.81,4.14-2.81,1.24,0,1.6.36,1.93.39-.81.66-1.06,1.69-1.06,2.51,0,1.93,1.3,3.29,3.17,3.29s3.11-1.3,3.11-3.14c0-2.96-3.14-4.92-7.73-4.92-4.98,0-8.34,2.36-8.34,5.8,0,6.62,12.2,7.46,12.2,11.69,0,1.75-2.11,3.17-4.5,3.17-.91,0-1.87-.21-2.2-.36.85-.66,1.36-1.39,1.36-2.54Z"/>
        <path class="cls-2" d="m371.34,32.52c.21,1.84,1.39,2.72,3.17,2.72,2.27,0,3.38-1.42,3.38-2.18-.27.42-.73.42-.73.42-.6,0-.85-.3-.85-1.06v-13.14h-1.27l-4.98.94v.63l.27.21c.54.36.88,1.03.97,1.69v6.92c-.21,1.96-1.24,3.2-2.66,3.2-1.51,0-2.36-1.33-2.36-3.56v-10.03h-1.24l-5.01.94v.63l.27.21c.6.42,1,1.21,1,1.93v6.65c0,3.35,1.75,5.59,4.95,5.59,2.2,0,4.02-1.03,5.07-2.72Z"/>
        <path class="cls-2" d="m385.9,32.16V13.04h-1.24l-5.01.94v.6l.27.24c.6.42,1,1.21,1,1.93v15.41c0,.72-.39,1.48-1,1.93l-.27.21v.63h7.52v-.63l-.3-.21c-.54-.45-.97-1.21-.97-1.93Z"/>
        <path class="cls-2" d="m390.43,31.77c0,2.39,1.18,3.47,3.17,3.47,2.29,0,3.38-1.42,3.38-2.18-.24.42-.73.42-.73.42-.57,0-.85-.3-.85-1.09v-11.24h1.78v-1.87h-1.78v-2.81h-1.87c0,1.84-1.18,2.81-3.11,2.81h-1.42v1.87h1.42v10.6Z"/>
        <path class="cls-2" d="m408.55,32.95c.33,1.54,1.48,2.3,3.11,2.3,2.27,0,3.35-1.42,3.35-2.18-.24.42-.69.42-.69.42-.6,0-.85-.3-.85-1.09v-7.55c0-4.71-3.81-5.89-7.19-5.89-3.81,0-6.07,1.48-6.07,3.56,0,1.39,1.06,2.45,2.39,2.45s2.39-1.06,2.39-2.33c0-.75-.36-1.42-.88-1.84.15-.12.45-.21.88-.21,1.06,0,2.66.66,3.26,2.66-.21,2.51-9.06,1.9-9.06,7.46,0,2.72,2.14,4.53,4.92,4.53,1.81,0,3.44-.79,4.44-2.3Zm-.09-7.46v3.68c-.18,1.78-1.27,2.96-2.36,2.96-.97,0-1.9-.94-1.9-2.45,0-2.6,2.75-3.11,4.26-4.2Z"/>
        <path class="cls-2" d="m433.99,33.49c-.6,0-.85-.3-.85-1.09v-7.82c0-3.35-1.75-5.62-4.98-5.62-2.14,0-3.96,1.03-5.05,2.72v-2.39h-1.24l-5.01.94v.63l.27.21c.6.42,1,1.21,1,1.93v9.15c0,.72-.39,1.48-1,1.93l-.27.21v.63h7.52v-.63l-.3-.21c-.54-.45-.97-1.21-.97-1.93v-7.52c.21-1.99,1.24-3.29,2.66-3.29,1.51,0,2.36,1.33,2.36,3.53v6.89c0,2.39,1.21,3.47,3.2,3.47,2.27,0,3.38-1.42,3.38-2.18-.27.42-.73.42-.73.42Z"/>
        <path class="cls-2" d="m356.83,58.32c.94,0,1.74-.15,2.41-.46s1.19-.74,1.55-1.3.54-1.23.54-2-.18-1.46-.54-2.02c-.36-.56-.88-.99-1.55-1.29-.67-.3-1.47-.45-2.41-.45h-4.35v10.57h1.96v-3.05h2.39Zm1.87-5.31c.44.37.66.88.66,1.55s-.22,1.18-.66,1.55c-.44.37-1.09.55-1.96.55h-2.3v-4.2h2.3c.87,0,1.52.18,1.96.55Z"/>
        <path class="cls-2" d="m367.43,61.47c.62,0,1.2-.14,1.72-.42.36-.19.64-.46.88-.76v1.08h1.8v-8.06h-1.89v4.08c0,.53-.09.98-.27,1.34-.18.36-.44.63-.77.82-.33.18-.72.27-1.16.27-.59,0-1.06-.18-1.39-.54-.33-.36-.5-.89-.5-1.61v-4.36h-1.9v4.61c0,.81.15,1.47.44,2,.3.53.71.92,1.23,1.18.52.26,1.13.39,1.81.39Z"/>
        <path class="cls-2" d="m376.04,60.79c.48.46,1.17.69,2.05.69.33,0,.66-.05.98-.14.32-.09.6-.23.83-.41l-.54-1.34c-.27.22-.61.33-1.03.33-.36,0-.64-.11-.85-.32s-.3-.51-.3-.89v-3.84h2.18v-1.51h-2.18v-1.84h-1.87v1.84h-1.33v1.51h1.33v3.9c0,.89.24,1.56.73,2.02Z"/>
        <path class="cls-2" d="m384.03,54.54v-1.24h-1.8v8.06h1.87v-3.9c0-.85.21-1.47.63-1.89.42-.41,1-.62,1.72-.62.06,0,.13,0,.2,0s.14.01.21.02v-1.8c-.75,0-1.39.14-1.92.43-.4.22-.69.54-.92.91Z"/>
        <path class="cls-2" d="m395.41,61.37v-4.73c0-1.17-.32-2.03-.95-2.6s-1.54-.85-2.72-.85c-.64,0-1.26.09-1.86.26-.59.17-1.11.42-1.56.75l.74,1.37c.31-.25.68-.45,1.12-.59.43-.14.87-.21,1.32-.21.68,0,1.19.15,1.53.46.34.31.51.74.51,1.29v.12h-2.1c-.81,0-1.47.11-1.96.32-.49.21-.85.5-1.06.86-.22.36-.33.77-.33,1.22s.12.88.37,1.25c.25.37.6.66,1.05.86.45.21.98.31,1.59.31.73,0,1.32-.13,1.78-.39.33-.19.57-.45.75-.75v1.04h1.78Zm-2.68-1.59c-.37.21-.78.32-1.25.32s-.86-.1-1.13-.3c-.27-.2-.41-.47-.41-.8,0-.31.11-.57.34-.78.23-.21.66-.31,1.29-.31h1.96v.94c-.17.41-.44.72-.81.94Z"/>
        <path class="cls-2" d="m408.77,61.03c.33-.18.6-.45.84-.76v1.1h1.8v-11.21h-1.9v4.12c-.23-.26-.48-.48-.77-.64-.53-.3-1.14-.44-1.81-.44-.77,0-1.47.17-2.09.51-.62.34-1.11.83-1.46,1.45-.35.62-.53,1.35-.53,2.18s.18,1.56.53,2.18c.35.62.84,1.1,1.46,1.44.62.34,1.32.51,2.09.51.71,0,1.32-.15,1.85-.45Zm-3.7-2.36c-.22-.39-.32-.83-.32-1.34s.11-.96.32-1.34c.22-.38.5-.67.86-.88.36-.21.76-.31,1.22-.31s.86.1,1.22.31.64.5.86.88c.22.38.33.82.33,1.34s-.11.95-.33,1.34c-.22.39-.5.69-.86.89-.36.21-.76.31-1.22.31s-.86-.1-1.22-.31c-.36-.21-.65-.5-.86-.89Z"/>
        <path class="cls-2" d="m421.39,61.37v-4.73c0-1.17-.32-2.03-.95-2.6s-1.54-.85-2.72-.85c-.64,0-1.26.09-1.86.26-.59.17-1.11.42-1.56.75l.74,1.37c.31-.25.68-.45,1.12-.59.43-.14.87-.21,1.32-.21.68,0,1.19.15,1.53.46.34.31.51.74.51,1.29v.12h-2.1c-.81,0-1.47.11-1.96.32-.49.21-.85.5-1.06.86-.22.36-.33.77-.33,1.22s.12.88.37,1.25c.25.37.6.66,1.05.86.45.21.98.31,1.59.31.73,0,1.32-.13,1.78-.39.33-.19.57-.45.75-.75v1.04h1.78Zm-2.68-1.59c-.37.21-.78.32-1.25.32s-.86-.1-1.13-.3c-.27-.2-.41-.47-.41-.8,0-.31.11-.57.34-.78.23-.21.66-.31,1.29-.31h1.96v.94c-.17.41-.44.72-.81.94Z"/>
        <path class="cls-2" d="m426.37,54.54v-1.24h-1.8v8.06h1.87v-3.9c0-.85.21-1.47.63-1.89.42-.41,1-.62,1.72-.62.06,0,.13,0,.2,0s.14.01.21.02v-1.8c-.75,0-1.39.14-1.92.43-.4.22-.69.54-.92.91Z"/>
        <rect class="cls-2" x="431.6" y="53.3" width="1.87" height="8.06"/>
        <path class="cls-2" d="m432.54,49.71c-.35,0-.64.11-.87.33s-.34.48-.34.79c0,.32.11.59.34.81.23.22.52.33.87.33s.65-.11.88-.34.33-.5.33-.82-.11-.59-.34-.79c-.23-.21-.52-.31-.87-.31Z"/>
        <path class="cls-2" d="m7.85,82.44c-.13-.06-.27-.09-.41-.13.42-.22.76-.51,1.01-.9.26-.4.39-.88.39-1.44,0-.84-.33-1.5-1-2-.66-.5-1.63-.75-2.88-.75H0v10.57h5.27c1.36,0,2.38-.25,3.07-.76.69-.5,1.03-1.21,1.03-2.11,0-.61-.14-1.13-.41-1.54-.27-.41-.64-.73-1.12-.94Zm-3.11-3.68c.67,0,1.2.12,1.57.36.37.24.56.61.56,1.1s-.19.85-.56,1.09c-.37.24-.9.36-1.57.36H1.96v-2.91h2.78Zm2.08,7.13c-.39.24-.95.36-1.68.36H1.96v-3.05h3.19c.72,0,1.28.12,1.68.37.39.25.59.63.59,1.16s-.2.92-.59,1.16Z"/>
        <path class="cls-2" d="m18.64,80.14c-.61-.34-1.31-.51-2.1-.51-.67,0-1.28.15-1.83.44-.33.18-.59.43-.83.72v-1.06h-1.8v10.99h1.87v-3.93c.23.27.49.5.79.66.53.3,1.13.45,1.8.45.79,0,1.48-.17,2.1-.51.61-.34,1.1-.82,1.46-1.44.36-.62.54-1.35.54-2.18s-.18-1.55-.54-2.18c-.36-.62-.84-1.11-1.46-1.45Zm-.24,4.95c-.21.38-.5.68-.85.89-.36.21-.77.32-1.23.32s-.85-.11-1.21-.32-.65-.51-.86-.89c-.21-.38-.32-.82-.32-1.33s.11-.96.32-1.34c.21-.38.5-.67.86-.88s.77-.31,1.21-.31.87.1,1.23.31c.36.21.64.5.85.88.21.38.32.82.32,1.34s-.11.95-.32,1.33Z"/>
        <polygon class="cls-2" points="31.25 79.73 28.98 79.73 25.07 83.35 25.07 76.59 23.2 76.59 23.2 87.8 25.07 87.8 25.07 85.67 26.46 84.34 29.28 87.8 31.56 87.8 27.87 83.11 31.25 79.73"/>
        <path class="cls-2" d="m34.31,85.4c-.35,0-.65.11-.89.34-.24.23-.36.53-.36.9s.12.68.36.91c.24.24.54.36.89.36.33,0,.62-.12.86-.36.24-.24.36-.54.36-.91s-.12-.67-.36-.9c-.24-.23-.53-.34-.86-.34Z"/>
        <rect class="cls-2" x="43.24" y="77.22" width="1.96" height="10.57"/>
        <path class="cls-2" d="m51.71,79.63c-.64,0-1.26.09-1.86.26-.59.17-1.11.42-1.56.75l.74,1.37c.31-.25.68-.45,1.12-.59.43-.14.87-.21,1.31-.21.68,0,1.2.15,1.53.46s.51.74.51,1.29v.12h-2.1c-.82,0-1.47.11-1.96.32s-.85.5-1.06.86c-.22.36-.33.77-.33,1.22s.12.88.37,1.25c.25.37.6.66,1.05.86.45.21.98.31,1.59.31.73,0,1.32-.13,1.78-.39.33-.19.57-.45.76-.75v1.04h1.78v-4.73c0-1.17-.32-2.03-.95-2.6-.63-.56-1.54-.85-2.72-.85Zm.99,6.59c-.37.21-.78.32-1.25.32s-.86-.1-1.13-.3c-.27-.2-.41-.47-.41-.8,0-.31.11-.57.34-.78.23-.21.66-.31,1.29-.31h1.96v.94c-.17.41-.44.72-.81.94Z"/>
        <path class="cls-2" d="m64.86,80c-.5-.25-1.07-.38-1.73-.38-.7,0-1.33.14-1.87.42-.37.19-.65.46-.9.77v-1.08h-1.8v8.06h1.87v-4.08c0-.54.09-.99.28-1.35.19-.36.45-.63.79-.81.34-.18.73-.27,1.18-.27.61,0,1.09.18,1.42.53.33.35.5.89.5,1.6v4.38h1.89v-4.62c0-.82-.15-1.49-.45-2.01s-.69-.91-1.19-1.16Z"/>
        <polygon class="cls-2" points="84.69 77.22 80.57 84.23 76.37 77.22 74.75 77.22 74.75 87.8 76.63 87.8 76.63 80.89 80.1 86.6 80.99 86.6 84.45 80.78 84.45 87.8 86.34 87.8 86.31 77.22 84.69 77.22"/>
        <path class="cls-2" d="m95.6,80.16c-.65-.36-1.39-.54-2.23-.54s-1.56.18-2.2.54c-.64.36-1.15.84-1.53,1.46s-.56,1.33-.56,2.14.19,1.51.56,2.13c.37.62.88,1.12,1.53,1.47.65.36,1.38.54,2.2.54s1.57-.18,2.22-.54c.65-.36,1.17-.85,1.53-1.46.37-.62.55-1.33.55-2.14s-.18-1.53-.55-2.14c-.37-.61-.88-1.1-1.53-1.46Zm-.14,4.94c-.21.39-.49.69-.85.89-.36.21-.78.31-1.24.31s-.85-.1-1.21-.31c-.36-.21-.65-.5-.86-.89-.21-.39-.32-.83-.32-1.34s.11-.96.32-1.34c.21-.38.5-.67.86-.88.36-.21.77-.31,1.22-.31s.86.1,1.22.31.65.5.85.88c.21.38.31.82.31,1.34s-.1.95-.31,1.34Z"/>
        <polygon class="cls-2" points="108.31 79.73 106.05 79.73 102.13 83.35 102.13 76.59 100.26 76.59 100.26 87.8 102.13 87.8 102.13 85.67 103.53 84.34 106.35 87.8 108.63 87.8 104.93 83.11 108.31 79.73"/>
        <path class="cls-2" d="m116.13,80.16c-.65-.36-1.39-.54-2.23-.54s-1.56.18-2.2.54c-.64.36-1.15.84-1.53,1.46s-.56,1.33-.56,2.14.19,1.51.56,2.13c.37.62.88,1.12,1.53,1.47.65.36,1.38.54,2.2.54s1.57-.18,2.22-.54c.65-.36,1.17-.85,1.53-1.46.37-.62.55-1.33.55-2.14s-.18-1.53-.55-2.14c-.37-.61-.88-1.1-1.53-1.46Zm-.14,4.94c-.21.39-.49.69-.85.89-.36.21-.78.31-1.24.31s-.85-.1-1.21-.31c-.36-.21-.65-.5-.86-.89-.21-.39-.32-.83-.32-1.34s.11-.96.32-1.34c.21-.38.5-.67.86-.88.36-.21.77-.31,1.22-.31s.86.1,1.22.31.65.5.85.88c.21.38.31.82.31,1.34s-.1.95-.31,1.34Z"/>
        <path class="cls-2" d="m126.77,80.71c-.23-.26-.48-.48-.77-.64-.53-.3-1.14-.44-1.81-.44-.77,0-1.47.17-2.09.51-.62.34-1.11.83-1.46,1.45-.35.62-.53,1.35-.53,2.18s.18,1.56.53,2.18c.35.62.84,1.1,1.46,1.44.62.34,1.32.51,2.09.51.7,0,1.32-.15,1.85-.45.33-.18.6-.45.84-.76v1.1h1.8v-11.21h-1.9v4.12Zm-.28,4.39c-.22.39-.5.69-.86.89-.36.21-.76.31-1.22.31s-.86-.1-1.22-.31c-.36-.21-.64-.5-.86-.89-.22-.39-.33-.83-.33-1.34s.11-.96.33-1.34c.22-.38.5-.67.86-.88.36-.21.76-.31,1.22-.31s.86.1,1.22.31c.36.21.64.5.86.88.22.38.33.82.33,1.34s-.11.95-.33,1.34Z"/>
        <path class="cls-2" d="m137.75,80.16c-.65-.36-1.39-.54-2.23-.54s-1.56.18-2.2.54c-.64.36-1.15.84-1.53,1.46s-.56,1.33-.56,2.14.19,1.51.56,2.13c.37.62.88,1.12,1.53,1.47.65.36,1.38.54,2.2.54s1.57-.18,2.22-.54c.65-.36,1.17-.85,1.53-1.46.37-.62.55-1.33.55-2.14s-.18-1.53-.55-2.14c-.37-.61-.88-1.1-1.53-1.46Zm-.14,4.94c-.21.39-.49.69-.85.89-.36.21-.78.31-1.24.31s-.85-.1-1.21-.31c-.36-.21-.65-.5-.86-.89-.21-.39-.32-.83-.32-1.34s.11-.96.32-1.34c.21-.38.5-.67.86-.88.36-.21.77-.31,1.22-.31s.86.1,1.22.31.65.5.85.88c.21.38.31.82.31,1.34s-.1.95-.31,1.34Z"/>
        <path class="cls-2" d="m154.29,80c-.5-.25-1.07-.38-1.71-.38-.8,0-1.5.19-2.1.56-.38.23-.66.52-.9.84-.19-.34-.44-.63-.76-.84-.55-.37-1.21-.56-1.96-.56-.67,0-1.27.14-1.79.42-.35.19-.62.45-.85.74v-1.06h-1.8v8.06h1.87v-4.09c0-.53.09-.98.26-1.34.18-.36.42-.63.74-.81.32-.18.68-.27,1.09-.27.58,0,1.03.18,1.35.53s.48.89.48,1.6v4.38h1.87v-4.09c0-.53.09-.98.26-1.34.18-.36.42-.63.74-.81.32-.18.68-.27,1.09-.27.58,0,1.03.18,1.35.53s.48.89.48,1.6v4.38h1.87v-4.62c0-.82-.14-1.49-.42-2.01-.28-.52-.67-.91-1.17-1.16Z"/>
        <path class="cls-2" d="m165.62,80.14c-.61-.34-1.31-.51-2.1-.51-.67,0-1.28.15-1.83.44-.33.18-.59.43-.83.72v-1.06h-1.8v10.99h1.87v-3.93c.23.27.49.5.79.66.53.3,1.13.45,1.8.45.79,0,1.48-.17,2.1-.51.61-.34,1.1-.82,1.46-1.44.36-.62.54-1.35.54-2.18s-.18-1.55-.54-2.18c-.36-.62-.84-1.11-1.46-1.45Zm-.24,4.95c-.21.38-.5.68-.85.89-.36.21-.77.32-1.23.32s-.85-.11-1.21-.32-.65-.51-.86-.89c-.21-.38-.32-.82-.32-1.33s.11-.96.32-1.34c.21-.38.5-.67.86-.88s.77-.31,1.21-.31.87.1,1.23.31c.36.21.64.5.85.88.21.38.32.82.32,1.34s-.11.95-.32,1.33Z"/>
        <path class="cls-2" d="m171.12,76.14c-.35,0-.64.11-.87.33-.23.22-.34.48-.34.79,0,.32.11.59.34.81.23.22.52.33.87.33s.65-.11.88-.34c.22-.23.33-.5.33-.82s-.11-.59-.34-.79c-.23-.21-.52-.31-.87-.31Z"/>
        <rect class="cls-2" x="170.18" y="79.73" width="1.87" height="8.06"/>
        <path class="cls-2" d="m178.57,86.35c-.36,0-.64-.11-.85-.32s-.3-.51-.3-.89v-3.84h2.17v-1.51h-2.17v-1.84h-1.87v1.84h-1.33v1.51h1.33v3.9c0,.89.24,1.56.73,2.02.48.46,1.17.69,2.05.69.33,0,.66-.05.98-.14.32-.09.6-.23.83-.41l-.54-1.34c-.27.22-.61.33-1.03.33Z"/>
        <path class="cls-2" d="m191.04,76.59h-1.8c-.58.9-1.04,1.95-1.36,3.16-.32,1.21-.48,2.51-.48,3.9s.16,2.69.48,3.89c.32,1.2.77,2.26,1.36,3.18h1.8c-.61-1.1-1.06-2.23-1.35-3.38s-.43-2.39-.43-3.68.14-2.53.43-3.68.74-2.29,1.35-3.38Z"/>
        <rect class="cls-2" x="198.47" y="77.22" width="1.96" height="10.57"/>
        <path class="cls-2" d="m206.94,79.63c-.64,0-1.26.09-1.86.26-.59.17-1.11.42-1.56.75l.74,1.37c.31-.25.68-.45,1.12-.59.43-.14.87-.21,1.31-.21.68,0,1.2.15,1.53.46s.51.74.51,1.29v.12h-2.1c-.82,0-1.47.11-1.96.32s-.85.5-1.06.86c-.22.36-.33.77-.33,1.22s.12.88.37,1.25c.25.37.6.66,1.05.86.45.21.98.31,1.59.31.73,0,1.32-.13,1.78-.39.33-.19.57-.45.76-.75v1.04h1.78v-4.73c0-1.17-.32-2.03-.95-2.6-.63-.56-1.54-.85-2.72-.85Zm.99,6.59c-.37.21-.78.32-1.25.32s-.86-.1-1.13-.3c-.27-.2-.41-.47-.41-.8,0-.31.11-.57.34-.78.23-.21.66-.31,1.29-.31h1.96v.94c-.17.41-.44.72-.81.94Z"/>
        <path class="cls-2" d="m220.09,80c-.5-.25-1.07-.38-1.73-.38-.7,0-1.33.14-1.87.42-.37.19-.65.46-.9.77v-1.08h-1.8v8.06h1.87v-4.08c0-.54.09-.99.28-1.35.19-.36.45-.63.79-.81.34-.18.73-.27,1.18-.27.61,0,1.09.18,1.42.53.33.35.5.89.5,1.6v4.38h1.89v-4.62c0-.82-.15-1.49-.45-2.01s-.69-.91-1.19-1.16Z"/>
        <path class="cls-2" d="m230.7,76.59h-1.8c.62,1.1,1.08,2.23,1.37,3.38.29,1.16.43,2.39.43,3.68s-.14,2.53-.43,3.68c-.29,1.16-.74,2.29-1.37,3.38h1.8c.6-.92,1.06-1.98,1.38-3.18s.48-2.5.48-3.89-.16-2.69-.48-3.9c-.32-1.21-.78-2.27-1.38-3.16Z"/>
        <path class="cls-2" d="m249.5,83.04l-1.51-.48c-.13.69-.35,1.26-.61,1.77l-2.27-2.17c.33-.18.62-.36.87-.53.45-.32.78-.66.99-1.02.21-.36.31-.75.31-1.17,0-.48-.12-.9-.36-1.24-.24-.34-.57-.61-.99-.79-.42-.19-.92-.28-1.48-.28-.61,0-1.16.1-1.62.31s-.83.5-1.07.87-.37.81-.37,1.3c0,.28.05.55.14.82s.24.54.45.82c.16.21.37.45.6.69-.41.23-.78.46-1.07.69-.48.37-.83.75-1.05,1.16s-.33.86-.33,1.37c0,.54.17,1.03.51,1.45.34.42.8.75,1.37,1,.58.24,1.24.36,1.97.36.95,0,1.8-.2,2.55-.59.36-.19.69-.42.99-.68l1.34,1.28,1.04-1.22-1.34-1.29c.44-.69.77-1.48.95-2.41Zm-6.03-4.28c.24-.21.57-.31.99-.31.39,0,.69.09.91.28.21.19.32.43.32.73,0,.22-.07.43-.2.63-.14.2-.37.41-.71.63-.19.12-.43.26-.7.41-.2-.2-.37-.38-.5-.53-.18-.2-.3-.38-.36-.54s-.09-.33-.09-.51c0-.32.12-.59.36-.79Zm2.4,7.23c-.53.28-1.12.42-1.76.42-.43,0-.81-.06-1.13-.19-.32-.13-.57-.3-.75-.53-.18-.23-.26-.49-.26-.78s.07-.54.21-.79c.14-.24.37-.48.69-.72.2-.15.46-.3.75-.47l2.77,2.66c-.17.14-.33.28-.52.38Z"/>
        <rect class="cls-2" x="257.26" y="77.22" width="1.96" height="10.57"/>
        <path class="cls-2" d="m269.22,80.14c-.61-.34-1.31-.51-2.1-.51-.66,0-1.26.15-1.8.44-.3.17-.56.4-.79.66v-4.14h-1.87v11.21h1.8v-1.06c.24.29.5.55.83.72.54.3,1.15.45,1.83.45.79,0,1.48-.17,2.1-.51.61-.34,1.1-.82,1.46-1.44.36-.62.54-1.35.54-2.18s-.18-1.55-.54-2.18c-.36-.62-.84-1.11-1.46-1.45Zm-.24,4.96c-.21.39-.5.69-.85.89-.36.21-.77.31-1.23.31s-.85-.1-1.21-.31c-.36-.21-.65-.5-.86-.89-.21-.39-.32-.83-.32-1.34s.11-.96.32-1.34c.21-.38.5-.67.86-.88s.77-.31,1.21-.31.87.1,1.23.31c.36.21.64.5.85.88.21.38.32.82.32,1.34s-.11.95-.32,1.34Z"/>
        <path class="cls-2" d="m279.69,83.81c0,.53-.09.98-.27,1.34-.18.36-.44.63-.77.82-.33.18-.72.27-1.16.27-.59,0-1.06-.18-1.39-.54-.33-.36-.5-.89-.5-1.61v-4.36h-1.9v4.61c0,.81.15,1.47.45,2,.3.53.71.92,1.23,1.18.52.26,1.13.39,1.81.39.62,0,1.2-.14,1.72-.42.36-.19.63-.46.88-.76v1.08h1.8v-8.06h-1.89v4.08Z"/>
        <polygon class="cls-2" points="291.88 83.24 296.98 83.24 296.98 81.62 291.88 81.62 291.88 78.89 297.63 78.89 297.63 77.22 289.91 77.22 289.91 87.8 297.84 87.8 297.84 86.13 291.88 86.13 291.88 83.24"/>
        <rect class="cls-2" x="300.62" y="76.59" width="1.87" height="11.21"/>
        <path class="cls-2" d="m306.68,76.14c-.35,0-.64.11-.87.33-.23.22-.34.48-.34.79,0,.32.11.59.34.81.23.22.52.33.87.33s.65-.11.88-.34c.22-.23.33-.5.33-.82s-.11-.59-.34-.79c-.23-.21-.52-.31-.87-.31Z"/>
        <rect class="cls-2" x="305.74" y="79.73" width="1.87" height="8.06"/>
        <path class="cls-2" d="m313.92,79.63c-.64,0-1.26.09-1.86.26-.59.17-1.11.42-1.56.75l.74,1.37c.31-.25.68-.45,1.12-.59.43-.14.87-.21,1.32-.21.68,0,1.19.15,1.53.46.34.31.51.74.51,1.29v.12h-2.1c-.81,0-1.47.11-1.96.32-.49.21-.85.5-1.06.86-.22.36-.33.77-.33,1.22s.12.88.37,1.25c.25.37.6.66,1.05.86.45.21.98.31,1.59.31.73,0,1.32-.13,1.78-.39.33-.19.57-.45.75-.75v1.04h1.78v-4.73c0-1.17-.32-2.03-.95-2.6s-1.54-.85-2.72-.85Zm.99,6.59c-.37.21-.78.32-1.25.32s-.86-.1-1.13-.3c-.27-.2-.41-.47-.41-.8,0-.31.11-.57.34-.78.23-.21.66-.31,1.29-.31h1.96v.94c-.17.41-.44.72-.81.94Z"/>
        <path class="cls-2" d="m332.18,82.58c-.37-.22-.78-.39-1.22-.53-.44-.14-.89-.25-1.34-.36-.45-.1-.86-.21-1.23-.32-.37-.11-.66-.26-.89-.46-.23-.2-.34-.46-.34-.78,0-.26.08-.5.23-.72s.4-.39.75-.52c.34-.13.78-.2,1.31-.2.46,0,.95.07,1.45.2.5.14.99.35,1.46.63l.62-1.53c-.46-.3-1.01-.53-1.63-.69s-1.25-.24-1.89-.24c-.97,0-1.76.14-2.39.43-.63.29-1.1.67-1.4,1.15-.31.48-.46,1.01-.46,1.58s.11,1.03.34,1.39c.23.36.53.65.9.87.37.22.78.39,1.23.54.45.14.9.26,1.34.36.45.09.86.2,1.22.32.37.12.67.27.9.47.23.2.35.46.35.78,0,.26-.08.5-.24.7s-.41.37-.75.49c-.34.12-.79.18-1.34.18-.65,0-1.29-.11-1.92-.33s-1.15-.5-1.57-.83l-.68,1.53c.45.37,1.05.68,1.8.91.75.24,1.54.36,2.36.36.97,0,1.77-.14,2.4-.43.63-.29,1.1-.67,1.41-1.15s.46-1,.46-1.56-.11-1.01-.34-1.37c-.23-.36-.53-.64-.9-.86Z"/>
        <path class="cls-2" d="m341.86,83.81c0,.53-.09.98-.27,1.34-.18.36-.44.63-.77.82-.33.18-.72.27-1.16.27-.59,0-1.06-.18-1.39-.54-.33-.36-.5-.89-.5-1.61v-4.36h-1.9v4.61c0,.81.15,1.47.45,2,.3.53.71.92,1.23,1.18.52.26,1.13.39,1.81.39.62,0,1.2-.14,1.72-.42.36-.19.63-.46.88-.76v1.08h1.8v-8.06h-1.89v4.08Z"/>
        <path class="cls-2" d="m352.14,83.65c-.3-.16-.62-.28-.97-.36-.35-.09-.71-.16-1.06-.21s-.68-.12-.97-.18c-.29-.07-.53-.16-.71-.28-.18-.12-.27-.3-.27-.54,0-.26.14-.48.42-.64.28-.17.7-.25,1.27-.25.38,0,.77.04,1.16.13.39.09.78.24,1.15.46l.74-1.44c-.37-.22-.84-.39-1.4-.52-.56-.13-1.1-.19-1.64-.19-.73,0-1.35.11-1.88.32s-.94.51-1.23.88c-.29.38-.44.82-.44,1.32,0,.47.09.85.27,1.13.18.28.42.51.71.67.29.17.62.29.97.38.36.08.71.15,1.07.2s.68.11.97.17c.29.06.53.15.71.26.18.12.27.28.27.51,0,.27-.13.49-.4.64s-.69.23-1.28.23c-.51,0-1.02-.07-1.53-.22-.5-.15-.94-.33-1.3-.57l-.73,1.43c.37.25.87.47,1.48.64.61.18,1.26.26,1.95.26.76,0,1.4-.1,1.94-.31s.96-.49,1.25-.86c.3-.37.45-.81.45-1.32,0-.45-.09-.82-.27-1.1-.18-.28-.42-.5-.72-.66Z"/>
        <path class="cls-2" d="m358.6,79.63c-.64,0-1.26.09-1.86.26-.59.17-1.11.42-1.56.75l.74,1.37c.31-.25.68-.45,1.12-.59.43-.14.87-.21,1.32-.21.68,0,1.19.15,1.53.46.34.31.51.74.51,1.29v.12h-2.1c-.81,0-1.47.11-1.96.32-.49.21-.85.5-1.06.86-.22.36-.33.77-.33,1.22s.12.88.37,1.25c.25.37.6.66,1.05.86.45.21.98.31,1.59.31.73,0,1.32-.13,1.78-.39.33-.19.57-.45.75-.75v1.04h1.78v-4.73c0-1.17-.32-2.03-.95-2.6s-1.54-.85-2.72-.85Zm.99,6.59c-.37.21-.78.32-1.25.32s-.86-.1-1.13-.3c-.27-.2-.41-.47-.41-.8,0-.31.11-.57.34-.78.23-.21.66-.31,1.29-.31h1.96v.94c-.17.41-.44.72-.81.94Z"/>
        <path class="cls-2" d="m371.74,80c-.5-.25-1.08-.38-1.73-.38-.71,0-1.33.14-1.87.42-.37.19-.65.46-.9.77v-1.08h-1.8v8.06h1.87v-4.08c0-.54.09-.99.28-1.35.19-.36.45-.63.79-.81.34-.18.73-.27,1.18-.27.61,0,1.09.18,1.42.53.33.35.5.89.5,1.6v4.38h1.89v-4.62c0-.82-.15-1.49-.45-2.01-.3-.52-.69-.91-1.19-1.16Z"/>
        <path class="cls-2" d="m379.81,86.35c-.36,0-.64-.11-.85-.32s-.3-.51-.3-.89v-3.84h2.18v-1.51h-2.18v-1.84h-1.87v1.84h-1.33v1.51h1.33v3.9c0,.89.24,1.56.73,2.02.48.46,1.17.69,2.05.69.33,0,.66-.05.98-.14.32-.09.6-.23.83-.41l-.54-1.34c-.27.22-.61.33-1.03.33Z"/>
        <path class="cls-2" d="m384.65,76.14c-.35,0-.64.11-.87.33s-.34.48-.34.79c0,.32.11.59.34.81.23.22.52.33.87.33s.65-.11.88-.34.33-.5.33-.82-.11-.59-.34-.79c-.23-.21-.52-.31-.87-.31Z"/>
        <rect class="cls-2" x="383.71" y="79.73" width="1.87" height="8.06"/>
        <path class="cls-2" d="m397.41,76.59h-1.8c-.58.9-1.04,1.95-1.36,3.16-.32,1.21-.48,2.51-.48,3.9s.16,2.69.48,3.89c.32,1.2.78,2.26,1.36,3.18h1.8c-.61-1.1-1.06-2.23-1.35-3.38-.29-1.16-.43-2.39-.43-3.68s.14-2.53.43-3.68c.29-1.16.74-2.29,1.35-3.38Z"/>
        <polygon class="cls-2" points="406.8 83.24 411.91 83.24 411.91 81.62 406.8 81.62 406.8 78.89 412.56 78.89 412.56 77.22 404.84 77.22 404.84 87.8 412.77 87.8 412.77 86.13 406.8 86.13 406.8 83.24"/>
        <rect class="cls-2" x="415.55" y="76.59" width="1.87" height="11.21"/>
        <path class="cls-2" d="m421.6,76.14c-.35,0-.64.11-.87.33s-.34.48-.34.79c0,.32.11.59.34.81.23.22.52.33.87.33s.65-.11.88-.34.33-.5.33-.82-.11-.59-.34-.79c-.23-.21-.52-.31-.87-.31Z"/>
        <rect class="cls-2" x="420.67" y="79.73" width="1.87" height="8.06"/>
        <path class="cls-2" d="m431.58,76.59h-1.8c.62,1.1,1.08,2.23,1.37,3.38.29,1.16.43,2.39.43,3.68s-.14,2.53-.43,3.68c-.29,1.16-.74,2.29-1.37,3.38h1.8c.6-.92,1.07-1.98,1.38-3.18.32-1.2.48-2.5.48-3.89s-.16-2.69-.48-3.9c-.32-1.21-.78-2.27-1.38-3.16Z"/>
      </g>
      <path class="cls-1" d="m214.53,18.85c-24.91,4.91-31.9,6.73-31.9,10.71,0,5.62,20.13,28.05,40.66,38.76,1.28.71,1.59.88,1.59,1.46,0,.44-.18.71-.66.71-.62,0-1.73-.4-3.5-1.24-18.98-8.76-40.53-32.87-40.53-39.82,0-4.03.4-4.42,2.3-7.74,2.21-3.85,3.14-5.53,3.14-5.71-.18,0-26.19,34.51-27.48,36.77-.31.62-.71.84-1.06.84-.49,0-.88-.49-.88-.97,0-.35.18-.75.58-1.5.84-1.46,26.41-35.62,30.53-40.71,3.32-4.11,4.6-5.53,5.4-5.53.31,0,.53.22.8.58.09.13.13.22.13.35,0,.58-.62,1.64-2.74,5.31-3.85,6.5-7.43,12.74-7.43,12.74l-.58.93,1.81-.88c11.68-5.8,64.95-12.03,64.95-16.68,0-1.5-6.86-3.54-14.87-4.47-3.19-.35-11.55-.62-18.8-.62-19.2,0-46.9,4.11-46.9,5.53,0,.31.53.93.75,1.15.31.22.44.49.44.8s-.13.58-.4.8c-.13.09-.27.13-.4.13-1.02,0-2.61-2.26-2.61-3.23,0-1.11,1.42-1.86,4.69-2.61,11.95-2.83,31.15-4.69,47.87-4.69,14.95,0,32.87,1.99,32.87,7.3,0,4.65-17.7,7.57-37.79,11.55Zm2.76,28.45c0-3.45,7.57-7.43,11.28-7.43,1.46,0,1.86.71,1.86,1.37,0,.53-.31,1.02-.53,1.02l-.18,1.64c0,1.19.35,2.61,2.04,2.61,3.58,0,11.55-4.25,11.55-4.25.27,0,1.06.8,1.06,1.19,0,.53-9.03,5.04-12.74,5.04-3.5,0-3.72-3.1-3.72-3.85v-.13c-1.99,1.59-5.04,5.31-8.5,5.31-1.46,0-2.12-1.33-2.12-2.52Zm10.31-5h-.04c-2.43,0-8.27,2.43-8.27,5.04,0,.22.31.44.71.44,1.95-.09,6.42-4.42,7.61-5.49Zm25.64,5.8c0-1.64,2.08-5.04,2.08-5.4-.66,0-8.32,6.59-9.73,6.59-.66,0-1.19-.53-1.19-1.06,0-1.19,1.19-3.05,2.12-4.25.8-1.06,2.04-2.96,2.96-2.96.27,0,.8.27.8.8,0,.49-2.17,3.05-2.17,3.36,4.82-3.01,6.81-5.4,8.41-5.4.53,0,1.33.66,1.33,1.46,0,1.46-1.42,4.11-1.42,4.51,0,0,8.36-6.11,9.25-6.11.4,0,1.46.66,1.46,1.59,0,.4-1.64,2.48-1.64,4.03,0,.88.58,1.59,2.52,1.59,2.79,0,10.09-4.6,10.09-4.6.4,0,.4.4.4.8,0,1.81-8.14,5.57-11.02,5.57s-3.89-1.5-3.89-3.1c0-1.28.58-2.61,1.06-3.19-3.23,1.9-8.5,6.42-9.96,6.95-.62,0-1.46-.27-1.46-1.19Z"/>
    </g>
  </g>
</svg>