<?xml version="1.0" encoding="UTF-8"?>
<!DOCTYPE svg PUBLIC "-//W3C//DTD SVG 1.1//EN" "http://www.w3.org/Graphics/SVG/1.1/DTD/svg11.dtd">
<!-- Creator: CorelDRAW -->
<svg xmlns="http://www.w3.org/2000/svg" xml:space="preserve" width="210mm" height="297mm" version="1.1" style="shape-rendering:geometricPrecision; text-rendering:geometricPrecision; image-rendering:optimizeQuality; fill-rule:evenodd; clip-rule:evenodd"
viewBox="0 0 21000 29700"
 xmlns:xlink="http://www.w3.org/1999/xlink"
 xmlns:xodm="http://www.corel.com/coreldraw/odm/2003">
 <defs>
  <style type="text/css">
   <![CDATA[
    .fil0 {fill:#332C2B;fill-rule:nonzero}
   ]]>
  </style>
 </defs>
 <g id="Layer_x0020_1">
  <metadata id="CorelCorpID_0Corel-Layer"/>
  <g id="_2763900904416">
   <g>
    <path class="fil0" d="M9697.13 14460.07c10.28,110.32 4.89,278.31 6.12,390.46 -1.1,112.65 4.04,279.53 -6.12,390.47 -10.17,-110.32 -5.03,-278.31 -6.13,-390.47 1.23,-112.64 -4.16,-279.53 6.13,-390.46l0 0z"/>
    <path class="fil0" d="M11125.15 14460.07c10.29,110.32 4.9,278.31 6.13,390.46 -1.1,112.65 4.04,279.54 -6.13,390.47 -10.16,-110.32 -5.02,-278.31 -6.12,-390.47 1.23,-112.64 -4.16,-279.53 6.12,-390.46l0 0z"/>
   </g>
   <g>
    <path class="fil0" d="M8603.13 14669.47c24.29,0 47.51,8.52 69.54,25.66 22.14,17.14 39.68,39.28 52.8,66.61 13.13,27.23 19.69,55.34 19.69,84.43 0,55.54 -12.64,100.31 -38.01,134.39 -25.36,34 -60.04,51.04 -104.02,51.04 -43.69,0 -77.97,-15.87 -102.95,-47.61 -24.88,-31.83 -37.42,-72.97 -37.42,-123.71 0,-34.29 6.07,-65.93 18.12,-95.02 12.05,-29.09 28.9,-52.3 50.45,-69.74 21.65,-17.34 45.55,-26.05 71.8,-26.05zm-24.59 324.42c7.74,15.57 16.55,23.31 26.25,23.31 9.8,0 18.61,-7.54 26.45,-22.63 7.84,-15.08 13.71,-34.67 17.73,-58.87 4.11,-24.09 6.07,-49.95 6.07,-77.67 0,-31.06 -1.76,-59.36 -5.29,-85.03 -3.52,-25.57 -9.3,-46.82 -17.24,-63.57 -7.93,-16.75 -17.43,-25.08 -28.5,-25.08 -5.19,0 -10.58,3.92 -16.26,11.76 -5.68,7.83 -10.97,18.8 -15.97,32.72 -4.9,14 -9.01,32.32 -12.14,55.14 -3.14,22.73 -4.7,47.41 -4.7,74.06 0,26.93 1.95,52.4 5.97,76.4 4.02,24 9.89,43.88 17.63,59.46zm406.51 -195.91c-9.01,0 -16.85,-2.64 -23.51,-7.84 -6.66,-5.29 -10.09,-10.28 -10.09,-15.08 0,-0.2 0.78,-0.98 2.15,-2.45 1.48,-1.47 2.94,-4.12 4.32,-8.03 1.46,-3.92 2.15,-8.92 2.15,-15.09 0,-21.65 -3.23,-37.51 -9.89,-47.6 -6.57,-10.19 -14.5,-15.28 -23.61,-15.28 -5.58,0 -11.17,1.27 -16.85,3.81 -5.58,2.46 -11.56,7.06 -17.73,13.72 -6.26,6.76 -11.75,15.18 -16.46,25.56 -4.6,10.29 -8.51,24.2 -11.55,41.64 -3.04,17.34 -4.61,37.12 -4.61,59.06 0,55.35 8.43,97.76 25.28,127.34 16.85,29.48 37.9,44.28 63.08,44.28 14.01,0 26.94,-9.51 38.79,-28.51 11.85,-19.1 19.1,-41.04 21.84,-65.92 1.08,0 3.92,0 8.52,-0.1 4.61,-0.09 8.23,-0.2 10.98,-0.2 -0.98,10.58 -2.84,21.16 -5.49,31.74 -2.64,10.68 -6.66,21.65 -12.05,33.01 -5.38,11.37 -11.75,21.36 -19.1,29.98 -7.35,8.62 -16.65,15.67 -27.92,21.25 -11.36,5.58 -23.8,8.33 -37.32,8.33 -25.27,0 -47.99,-4.41 -68.17,-13.32 -20.18,-8.92 -36.73,-21.26 -49.57,-36.93 -12.73,-15.67 -22.52,-33.89 -29.19,-54.66 -6.76,-20.77 -10.09,-43.2 -10.09,-67.29 0,-25.96 3.63,-50.45 10.88,-73.47 7.34,-22.92 17.53,-43.1 30.56,-60.44 13.12,-17.23 29.68,-30.95 49.66,-40.94 19.98,-10.09 42.02,-15.08 65.92,-15.08 13.72,0 27.24,2.64 40.46,8.02 13.22,5.29 24.39,12.15 33.59,20.48 9.12,8.32 16.56,17.63 22.24,28.01 5.59,10.29 8.42,20.48 8.42,30.37 0,12.05 -4.5,22.04 -13.61,29.87 -9.11,7.84 -19.79,11.76 -32.03,11.76zm69.45 -128.51l282.4 0 0 81.49 -14.1 0c-0.69,-5.78 -2.65,-11.56 -5.69,-17.53 -3.03,-5.98 -7.64,-12.05 -13.61,-18.32 -6.08,-6.36 -14.6,-11.56 -25.76,-15.57 -11.07,-4.02 -23.91,-5.98 -38.4,-5.98l0 298.76c0,6.27 1.66,12.05 4.99,17.34 3.33,5.29 8.72,7.83 15.97,7.83l0 14.11 -128.91 0 0 -14.11c6.76,0 11.66,-2.15 14.99,-6.56 3.23,-4.41 5.09,-9.7 5.68,-15.77l0 -301.6c-14.5,0 -27.33,1.96 -38.4,5.98 -11.16,4.01 -19.69,9.21 -25.76,15.57 -5.97,6.27 -10.48,12.34 -13.61,18.32 -3.04,5.97 -4.9,11.75 -5.69,17.53l-14.1 0 0 -81.49z"/>
    <path class="fil0" d="M11360.17 14965.58c4.8,-4.6 16.36,-7.05 34.87,-7.45 18.42,-0.39 37.52,0.49 57.11,2.55 19.59,2.16 39.67,4.41 60.24,6.76 20.57,2.45 33.6,3.62 39.18,3.62 8.03,0 15.28,-0.49 21.65,-1.27 6.47,-0.88 11.36,-1.86 14.79,-3.03 3.43,-1.18 6.27,-2.36 8.62,-3.43 2.25,-1.18 4.02,-2.16 5.19,-3.04 1.08,-0.88 1.96,-1.28 2.55,-1.28 0,9.02 -0.88,17.44 -2.74,25.47 -1.77,8.14 -4.61,15.78 -8.33,23.12 -3.72,7.45 -9.11,13.23 -16.16,17.53 -7.15,4.31 -15.38,6.47 -24.69,6.47 -11.65,0 -39.08,-2.35 -82.28,-7.05 -43.1,-4.71 -75.32,-7.06 -96.58,-7.06 -19.88,0 -31.05,4.71 -33.5,14.11l-16.95 0c-2.54,-18.22 -1.07,-35.46 4.31,-51.82 5.29,-16.36 13.23,-30.76 23.51,-43.29 10.29,-12.54 22.04,-24.59 35.17,-36.05 13.13,-11.46 26.45,-22.53 40.16,-33.31 13.71,-10.67 26.15,-21.35 37.42,-31.93 11.36,-10.67 20.57,-22.43 27.92,-35.36 7.24,-12.93 10.87,-26.25 10.87,-39.96 0,-20.87 -4.21,-38.31 -12.54,-52.31 -8.23,-13.91 -19,-20.96 -32.23,-20.96 -12.63,0 -23.41,5.09 -32.32,15.28 -8.92,10.09 -13.33,25.95 -13.33,47.6 0,6.17 0.69,11.17 2.16,15.09 1.47,3.91 2.84,6.56 4.31,8.03 1.47,1.47 2.16,2.25 2.16,2.45 0,4.8 -3.43,9.79 -10.19,15.08 -6.76,5.2 -14.69,7.84 -23.71,7.84 -12.24,0 -22.82,-3.92 -31.83,-11.76 -9.01,-7.83 -13.52,-17.82 -13.52,-29.87 0,-9.89 2.94,-20.08 8.82,-30.37 5.78,-10.38 13.71,-19.69 23.6,-28.01 9.99,-8.33 22.54,-15.19 37.62,-20.48 15.08,-5.38 31.15,-8.02 47.9,-8.02 24,0 44.67,2.54 62,7.73 17.44,5.2 31.15,12.54 41.24,22.04 9.99,9.6 17.34,20.38 22.04,32.43 4.7,12.04 7.05,25.66 7.05,40.74 0,12.84 -3.72,25.18 -11.07,36.93 -7.34,11.76 -17.14,22.24 -29.29,31.44 -12.14,9.21 -25.56,18.03 -40.45,26.55 -14.79,8.52 -30.17,16.65 -46.04,24.49 -15.87,7.83 -30.75,15.47 -44.57,23.02 -13.9,7.44 -26.34,15.57 -37.22,24.39 -10.87,8.72 -18.51,17.53 -22.92,26.35zm408.37 -296.11c24.29,0 47.51,8.52 69.55,25.66 22.13,17.14 39.67,39.28 52.79,66.61 13.13,27.23 19.69,55.34 19.69,84.43 0,55.54 -12.63,100.31 -38,134.39 -25.37,34 -60.05,51.04 -104.03,51.04 -43.69,0 -77.97,-15.87 -102.95,-47.61 -24.88,-31.83 -37.42,-72.97 -37.42,-123.71 0,-34.29 6.07,-65.93 18.12,-95.02 12.05,-29.09 28.9,-52.3 50.45,-69.74 21.65,-17.34 45.55,-26.05 71.8,-26.05zm-24.59 324.42c7.74,15.57 16.56,23.31 26.26,23.31 9.79,0 18.6,-7.54 26.44,-22.63 7.84,-15.08 13.72,-34.67 17.73,-58.87 4.12,-24.09 6.07,-49.95 6.07,-77.67 0,-31.06 -1.76,-59.36 -5.29,-85.03 -3.52,-25.57 -9.3,-46.82 -17.23,-63.57 -7.94,-16.75 -17.44,-25.08 -28.51,-25.08 -5.19,0 -10.58,3.92 -16.26,11.76 -5.68,7.83 -10.97,18.8 -15.96,32.72 -4.9,14 -9.02,32.32 -12.15,55.14 -3.13,22.73 -4.7,47.41 -4.7,74.06 0,26.93 1.95,52.4 5.97,76.4 4.02,24 9.9,43.88 17.63,59.46zm228.63 -28.31c4.8,-4.6 16.36,-7.05 34.87,-7.45 18.41,-0.39 37.51,0.49 57.11,2.55 19.59,2.16 39.67,4.41 60.24,6.76 20.57,2.45 33.59,3.62 39.18,3.62 8.03,0 15.28,-0.49 21.65,-1.27 6.46,-0.88 11.36,-1.86 14.79,-3.03 3.43,-1.18 6.26,-2.36 8.61,-3.43 2.26,-1.18 4.02,-2.16 5.2,-3.04 1.08,-0.88 1.96,-1.28 2.55,-1.28 0,9.02 -0.89,17.44 -2.75,25.47 -1.76,8.14 -4.6,15.78 -8.32,23.12 -3.73,7.45 -9.11,13.23 -16.17,17.53 -7.15,4.31 -15.37,6.47 -24.68,6.47 -11.66,0 -39.08,-2.35 -82.28,-7.05 -43.1,-4.71 -75.33,-7.06 -96.58,-7.06 -19.89,0 -31.06,4.71 -33.5,14.11l-16.95 0c-2.55,-18.22 -1.08,-35.46 4.31,-51.82 5.29,-16.36 13.22,-30.76 23.51,-43.29 10.28,-12.54 22.04,-24.59 35.16,-36.05 13.13,-11.46 26.45,-22.53 40.17,-33.31 13.71,-10.67 26.15,-21.35 37.41,-31.93 11.37,-10.67 20.57,-22.43 27.92,-35.36 7.25,-12.93 10.87,-26.25 10.87,-39.96 0,-20.87 -4.21,-38.31 -12.53,-52.31 -8.23,-13.91 -19.01,-20.96 -32.23,-20.96 -12.64,0 -23.41,5.09 -32.33,15.28 -8.91,10.09 -13.32,25.95 -13.32,47.6 0,6.17 0.69,11.17 2.16,15.09 1.47,3.91 2.84,6.56 4.31,8.03 1.47,1.47 2.15,2.25 2.15,2.45 0,4.8 -3.43,9.79 -10.18,15.08 -6.76,5.2 -14.7,7.84 -23.71,7.84 -12.24,0 -22.82,-3.92 -31.84,-11.76 -9.01,-7.83 -13.51,-17.82 -13.51,-29.87 0,-9.89 2.94,-20.08 8.81,-30.37 5.78,-10.38 13.72,-19.69 23.61,-28.01 9.99,-8.33 22.53,-15.19 37.61,-20.48 15.09,-5.38 31.15,-8.02 47.9,-8.02 24,0 44.67,2.54 62.01,7.73 17.43,5.2 31.15,12.54 41.24,22.04 9.99,9.6 17.33,20.38 22.04,32.43 4.7,12.04 7.05,25.66 7.05,40.74 0,12.84 -3.72,25.18 -11.07,36.93 -7.34,11.76 -17.14,22.24 -29.29,31.44 -12.14,9.21 -25.56,18.03 -40.45,26.55 -14.8,8.52 -30.17,16.65 -46.04,24.49 -15.87,7.83 -30.76,15.47 -44.57,23.02 -13.91,7.44 -26.35,15.57 -37.22,24.39 -10.87,8.72 -18.51,17.53 -22.92,26.35zm402.59 -155.55c24.87,0 47.01,3.13 66.41,9.3 19.49,6.27 34.87,14.5 46.43,24.88 11.46,10.29 20.18,21.65 26.05,33.9 5.98,12.24 8.92,24.88 8.92,38.1 0,35.46 -12.74,63.48 -38.3,84.24 -25.57,20.76 -62.3,31.15 -110.39,31.15 -20.09,0 -38.7,-2.65 -55.94,-7.94 -17.24,-5.19 -31.34,-12.14 -42.41,-20.66 -11.17,-8.43 -19.79,-17.83 -26.06,-27.92 -6.17,-10.19 -9.3,-20.28 -9.3,-30.46 0,-12.25 4.5,-22.24 13.52,-30.07 9.01,-7.84 19.58,-11.76 31.83,-11.76 9.01,0 16.85,2.55 23.51,7.84 6.76,5.29 10.09,10.28 10.09,15.08 0,0.2 -0.79,0.98 -2.16,2.45 -1.47,1.47 -2.84,4.11 -4.31,8.03 -1.47,3.92 -2.15,8.92 -2.15,15.09 0,11.07 2.05,20.96 6.17,29.48 4.11,8.62 9.4,15.28 15.77,19.88 6.37,4.51 12.93,7.94 19.69,10.19 6.66,2.16 13.22,3.23 19.78,3.23 5.69,0 11.47,-0.78 17.05,-2.44 5.68,-1.57 11.36,-4.41 17.24,-8.43 5.88,-4.01 10.97,-9.01 15.48,-15.08 4.5,-5.98 8.13,-14.01 10.87,-24 2.84,-9.9 4.21,-21.06 4.21,-33.5 0,-26.25 -8.42,-47.51 -25.27,-63.87 -16.85,-16.35 -38.1,-24.58 -63.96,-24.58 -14.21,0 -28.7,2.25 -43.69,6.75 -14.89,4.51 -27.82,11.56 -38.69,21.16l-24.98 0 23.21 -125.77 14.11 -74.83 152.71 0c20.77,0 34.87,0.78 42.12,2.54 7.24,1.76 11.36,4.61 12.34,8.62l18.41 75.23c-1.37,-0.79 -3.32,-1.86 -6.07,-3.23 -2.64,-1.28 -9.21,-3.04 -19.49,-5.09 -10.29,-2.16 -22.04,-3.24 -34.97,-3.24l-154.18 0 -16.85 90.7c23.9,-16.65 58.29,-24.97 103.25,-24.97z"/>
    <g>
     <path class="fil0" d="M10144.57 14457.75c0,6.85 2.54,13.32 7.7,19.19 5.16,5.94 11.89,11.23 20.12,15.81 8.22,4.57 17.3,9.08 27.36,13.51 9.99,4.38 19.98,9.02 30.04,13.85 9.99,4.83 19.13,9.99 27.36,15.48 8.23,5.48 14.89,12.14 20.05,19.91 5.15,7.77 7.77,16.26 7.77,25.47 0,13.78 -4.9,25.86 -14.76,36.31 -9.8,10.51 -22.07,18.28 -36.9,23.38 -14.82,5.09 -30.62,7.64 -47.47,7.64 -14.63,0 -28.86,-2.55 -42.58,-7.58 -13.65,-5.02 -24.88,-11.95 -33.57,-20.83 -8.61,-8.88 -12.99,-18.28 -12.99,-28.21 0,-9.34 2.94,-16.52 8.69,-21.61 5.81,-5.1 12.99,-7.64 21.55,-7.64 5.22,0 10.25,1.56 15.08,4.63 4.9,3.14 7.32,6.66 7.32,10.65 0,0.52 -0.46,1.24 -1.37,2.28 -0.86,1.04 -1.84,2.68 -2.75,4.9 -0.98,2.22 -1.44,5.03 -1.44,8.49 0,12.41 3.79,23.05 11.5,31.93 7.64,8.95 17.69,13.39 30.17,13.39 11.23,0 20.96,-3.85 29.19,-11.56 8.23,-7.7 12.34,-17.44 12.34,-29.19 0,-5.09 -1.89,-9.79 -5.61,-14.24 -3.79,-4.37 -8.69,-8.16 -14.77,-11.36 -6.07,-3.2 -12.99,-6.6 -20.83,-10.12 -7.83,-3.59 -15.8,-6.99 -23.9,-10.25 -8.1,-3.27 -16.06,-7.25 -23.9,-11.95 -7.9,-4.7 -14.82,-9.8 -20.89,-15.15 -6.08,-5.36 -10.98,-12.02 -14.7,-19.99 -3.78,-7.96 -5.68,-16.65 -5.68,-26.12 0,-6.33 1.24,-12.79 3.66,-19.39 2.42,-6.6 6.27,-13 11.49,-19.33 5.23,-6.33 11.5,-11.95 18.81,-16.91 7.31,-4.97 16.45,-8.95 27.3,-11.96 10.83,-3 22.59,-4.5 35.39,-4.5 10.84,0 21.42,1.89 31.8,5.61 10.45,3.79 19.27,8.5 26.51,14.17 7.32,5.69 13.13,11.96 17.64,18.88 4.44,6.85 6.65,13.38 6.65,19.46 0,8.03 -3,14.69 -8.94,19.92 -6.01,5.22 -13.13,7.83 -21.29,7.83 -6.33,0 -11.69,-1.83 -16.06,-5.55 -4.31,-3.66 -6.47,-6.92 -6.47,-9.73 0,-0.13 0.46,-0.72 1.44,-1.76 0.91,-0.98 1.89,-2.81 2.87,-5.36 0.92,-2.55 1.44,-5.81 1.44,-9.92 0,-10.97 -3.59,-20.77 -10.78,-29.39 -7.11,-8.56 -17.11,-12.86 -29.97,-12.86 -12.15,0 -22.46,3.85 -30.96,11.62 -8.42,7.77 -12.66,17.17 -12.66,28.15zm311.63 -41.54l0 -9.34 48.19 0 0 9.34c-10.19,0 -15.28,4.9 -15.28,14.76l0 157.25c0,4.44 -0.79,9.14 -2.29,13.98 -1.57,4.83 -4.38,10.05 -8.56,15.67 -4.11,5.61 -9.33,10.64 -15.54,15.02 -6.27,4.37 -14.62,8.1 -25.2,11.04 -10.52,2.93 -22.4,4.37 -35.66,4.37 -25.66,0 -46.56,-6.07 -62.76,-18.16 -16.19,-12.14 -24.29,-26.12 -24.29,-41.92l0 -157.05c-0.39,-4.12 -1.69,-7.58 -3.92,-10.52 -2.21,-2.94 -5.61,-4.44 -10.05,-4.44l0 -9.34 85.94 0 0 9.34c-4.77,0 -8.23,1.9 -10.58,5.55 -2.29,3.73 -3.4,7.45 -3.4,11.3l0 155.16c0,10.97 4.77,20.51 14.3,28.6 9.61,8.1 21.43,12.15 35.4,12.15 12.41,0 23.64,-4.05 33.82,-12.21 10.13,-8.17 15.16,-17.7 15.16,-28.54l0 -157.25c0,-4.11 -1.18,-7.57 -3.53,-10.45 -2.35,-2.87 -6.27,-4.31 -11.75,-4.31zm219.41 0l0 -9.34 48.19 0 0 9.34c-5.22,0 -9.07,1.64 -11.55,4.83 -2.49,3.14 -3.73,6.47 -3.73,9.93l0 217.33 -57.99 0c-10.97,-21.42 -29.19,-57.14 -54.72,-107.16 -25.47,-49.96 -39.77,-77.91 -42.84,-83.79l0 166.66c0,4.05 1.18,7.57 3.53,10.51 2.35,2.94 6.27,4.37 11.75,4.37l0 9.41 -48.19 0 0 -9.41c5.49,0 9.4,-1.24 11.69,-3.72 2.28,-2.48 3.52,-6.01 3.59,-10.57l0 -193.63c0,-9.86 -5.09,-14.76 -15.28,-14.76l0 -9.34 73.27 0c5.75,11.37 20.57,40.49 44.47,87.45 23.97,46.88 41.66,81.69 53.09,104.22l0 -167.57c0,-4.11 -1.17,-7.57 -3.59,-10.45 -2.42,-2.87 -6.34,-4.31 -11.69,-4.31z"/>
     <path class="fil0" d="M10069.7 15206.35c6.4,-6.14 21.81,-9.4 46.5,-9.93 24.55,-0.52 50.02,0.66 76.14,3.4 26.12,2.88 52.9,5.88 80.32,9.01 27.43,3.27 44.8,4.84 52.24,4.84 10.72,0 20.38,-0.65 28.87,-1.7 8.62,-1.18 15.15,-2.48 19.72,-4.05 4.57,-1.57 8.36,-3.13 11.49,-4.57 3.01,-1.57 5.36,-2.88 6.92,-4.05 1.44,-1.18 2.62,-1.7 3.4,-1.7 0,12.02 -1.18,23.25 -3.66,33.96 -2.35,10.84 -6.13,21.03 -11.1,30.82 -4.96,9.93 -12.15,17.64 -21.55,23.38 -9.53,5.75 -20.5,8.62 -32.91,8.62 -15.54,0 -52.11,-3.13 -109.71,-9.4 -57.46,-6.27 -100.43,-9.41 -128.77,-9.41 -26.52,0 -41.41,6.27 -44.67,18.81l-22.6 0c-3.39,-24.29 -1.43,-47.28 5.75,-69.09 7.05,-21.81 17.63,-41.01 31.34,-57.73 13.72,-16.71 29.39,-32.78 46.89,-48.06 17.5,-15.28 35.27,-30.04 53.55,-44.4 18.28,-14.24 34.87,-28.47 49.89,-42.58 15.15,-14.24 27.43,-29.91 37.22,-47.15 9.67,-17.24 14.5,-35 14.5,-53.29 0,-27.82 -5.61,-51.06 -16.71,-69.74 -10.98,-18.54 -25.34,-27.95 -42.97,-27.95 -16.85,0 -31.22,6.79 -43.11,20.37 -11.88,13.46 -17.76,34.62 -17.76,63.48 0,8.23 0.92,14.89 2.88,20.11 1.95,5.23 3.78,8.75 5.74,10.71 1.96,1.96 2.88,3.01 2.88,3.27 0,6.4 -4.57,13.06 -13.59,20.11 -9.01,6.92 -19.59,10.45 -31.6,10.45 -16.33,0 -30.43,-5.23 -42.45,-15.68 -12.02,-10.44 -18.02,-23.76 -18.02,-39.83 0,-13.19 3.92,-26.77 11.75,-40.49 7.71,-13.84 18.29,-26.25 31.48,-37.35 13.32,-11.1 30.04,-20.24 50.15,-27.29 20.11,-7.19 41.53,-10.71 63.86,-10.71 32,0 59.56,3.39 82.68,10.31 23.25,6.93 41.53,16.72 54.98,29.39 13.32,12.8 23.12,27.16 29.39,43.23 6.27,16.06 9.4,34.22 9.4,54.33 0,17.11 -4.96,33.56 -14.76,49.24 -9.79,15.67 -22.85,29.64 -39.05,41.92 -16.19,12.28 -34.08,24.03 -53.94,35.39 -19.72,11.37 -40.22,22.21 -61.38,32.66 -21.16,10.45 -41.01,20.63 -59.42,30.69 -18.55,9.93 -35.14,20.77 -49.64,32.52 -14.49,11.62 -24.68,23.38 -30.56,35.13zm536.79 -207.4c33.17,0 62.69,4.18 88.55,12.41 25.99,8.36 46.49,19.33 61.9,33.17 15.28,13.72 26.91,28.87 34.74,45.19 7.97,16.33 11.89,33.17 11.89,50.81 0,47.28 -16.98,84.63 -51.07,112.32 -34.09,27.68 -83.06,41.53 -147.19,41.53 -26.78,0 -51.59,-3.53 -74.58,-10.58 -22.98,-6.92 -41.79,-16.2 -56.55,-27.56 -14.88,-11.23 -26.38,-23.77 -34.74,-37.22 -8.23,-13.58 -12.4,-27.03 -12.4,-40.62 0,-16.32 6,-29.65 18.02,-40.09 12.01,-10.45 26.12,-15.67 42.45,-15.67 12.01,0 22.46,3.39 31.34,10.45 9.01,7.05 13.45,13.71 13.45,20.11 0,0.26 -1.04,1.3 -2.87,3.26 -1.96,1.96 -3.79,5.49 -5.75,10.71 -1.96,5.22 -2.87,11.89 -2.87,20.12 0,14.75 2.74,27.94 8.23,39.31 5.48,11.49 12.54,20.37 21.02,26.51 8.49,6.01 17.24,10.58 26.26,13.58 8.88,2.88 17.63,4.31 26.38,4.31 7.57,0 15.28,-1.05 22.72,-3.26 7.58,-2.09 15.15,-5.88 22.99,-11.23 7.84,-5.36 14.63,-12.02 20.63,-20.12 6.01,-7.96 10.85,-18.67 14.5,-32 3.79,-13.19 5.62,-28.08 5.62,-44.66 0,-35.01 -11.24,-63.35 -33.7,-85.16 -22.46,-21.81 -50.8,-32.78 -85.28,-32.78 -18.94,0 -38.27,3 -58.25,9.01 -19.86,6.01 -37.09,15.41 -51.59,28.21l-33.3 0 30.95 -167.69 18.8 -99.78 203.62 0c27.69,0 46.49,1.04 56.16,3.39 9.66,2.35 15.15,6.14 16.45,11.49l24.56 100.31c-1.83,-1.05 -4.45,-2.48 -8.1,-4.31 -3.53,-1.7 -12.28,-4.05 -25.99,-6.79 -13.71,-2.88 -29.39,-4.31 -46.63,-4.31l-205.57 0 -22.46 120.94c31.87,-22.21 77.71,-33.31 137.66,-33.31z"/>
    </g>
   </g>
  </g>
 </g>
</svg>
