<?xml version="1.0" encoding="UTF-8"?>
<!DOCTYPE svg PUBLIC "-//W3C//DTD SVG 1.1//EN" "http://www.w3.org/Graphics/SVG/1.1/DTD/svg11.dtd">
<!-- Creator: CorelDRAW -->
<svg xmlns="http://www.w3.org/2000/svg" xml:space="preserve" width="210mm" height="297mm" version="1.1" style="shape-rendering:geometricPrecision; text-rendering:geometricPrecision; image-rendering:optimizeQuality; fill-rule:evenodd; clip-rule:evenodd"
viewBox="0 0 21000 29700"
 xmlns:xlink="http://www.w3.org/1999/xlink"
 xmlns:xodm="http://www.corel.com/coreldraw/odm/2003">
 <defs>
  <style type="text/css">
   <![CDATA[
    .fil0 {fill:#FEFEFE;fill-rule:nonzero}
   ]]>
  </style>
 </defs>
 <g id="Layer_x0020_1">
  <metadata id="CorelCorpID_0Corel-Layer"/>
  <g id="_2517348331440">
   <g id="_2763743183936">
    <path class="fil0" d="M36893.68 4983.75c0,11.3 4.2,21.96 12.7,31.65 8.5,9.79 19.59,18.51 33.15,26.04 13.57,7.54 28.52,14.96 45.11,22.28 16.47,7.21 32.93,14.86 49.51,22.82 16.46,7.97 31.54,16.47 45.1,25.51 13.56,9.04 24.54,20.02 33.04,32.83 8.5,12.81 12.81,26.8 12.81,41.98 0,22.7 -8.08,42.62 -24.32,59.84 -16.15,17.33 -36.39,30.14 -60.82,38.53 -24.43,8.4 -50.48,12.59 -78.25,12.59 -24.11,0 -47.58,-4.19 -70.18,-12.48 -22.5,-8.29 -41.01,-19.7 -55.32,-34.33 -14.21,-14.64 -21.42,-30.14 -21.42,-46.51 0,-15.38 4.84,-27.22 14.31,-35.62 9.58,-8.4 21.42,-12.6 35.52,-12.6 8.61,0 16.9,2.59 24.86,7.65 8.07,5.16 12.06,10.98 12.06,17.55 0,0.86 -0.75,2.04 -2.26,3.76 -1.4,1.72 -3.01,4.41 -4.52,8.07 -1.62,3.66 -2.37,8.29 -2.37,14 0,20.45 6.25,37.99 18.94,52.63 12.6,14.74 29.17,22.06 49.73,22.06 18.51,0 34.55,-6.35 48.12,-19.05 13.56,-12.7 20.34,-28.74 20.34,-48.11 0,-8.39 -3.12,-16.14 -9.26,-23.47 -6.24,-7.2 -14.31,-13.45 -24.32,-18.72 -10.01,-5.28 -21.42,-10.87 -34.34,-16.69 -12.92,-5.92 -26.05,-11.51 -39.4,-16.9 -13.34,-5.38 -26.47,-11.94 -39.39,-19.69 -13.02,-7.75 -24.43,-16.14 -34.44,-24.97 -10.01,-8.83 -18.08,-19.81 -24.22,-32.94 -6.24,-13.13 -9.36,-27.44 -9.36,-43.05 0,-10.44 2.04,-21.09 6.02,-31.97 3.99,-10.87 10.34,-21.42 18.95,-31.86 8.61,-10.44 18.94,-19.69 31,-27.88 12.05,-8.17 27.12,-14.74 44.98,-19.69 17.87,-4.95 37.25,-7.43 58.34,-7.43 17.88,0 35.31,3.13 52.42,9.26 17.23,6.24 31.76,13.99 43.7,23.36 12.06,9.36 21.64,19.69 29.07,31.1 7.31,11.3 10.98,22.07 10.98,32.07 0,13.25 -4.96,24.22 -14.75,32.83 -9.9,8.61 -21.64,12.92 -35.09,12.92 -10.44,0 -19.27,-3.01 -26.48,-9.15 -7.1,-6.03 -10.66,-11.41 -10.66,-16.04 0,-0.21 0.76,-1.18 2.37,-2.9 1.51,-1.62 3.13,-4.63 4.74,-8.83 1.51,-4.19 2.37,-9.58 2.37,-16.36 0,-18.08 -5.92,-34.22 -17.76,-48.43 -11.73,-14.1 -28.2,-21.2 -49.41,-21.2 -20.02,0 -37.03,6.34 -51.02,19.15 -13.88,12.81 -20.88,28.31 -20.88,46.39zm521.49 271.78c0.21,6.99 2.15,13.23 5.92,18.61 3.66,5.5 9.36,8.19 17.11,8.19l0 15.49 -118.5 0 0 -52.95c-26.37,35.3 -55.65,52.95 -88.04,52.95 -25.84,0 -45.75,-6.24 -59.64,-18.62 -13.77,-12.37 -20.77,-30.67 -20.77,-54.89 0,-13.24 3.12,-24.75 9.37,-34.66 6.13,-9.9 14.2,-17.65 24.11,-23.46 9.89,-5.81 20.77,-10.87 32.61,-15.18 11.84,-4.3 23.79,-8.18 35.62,-11.83 11.84,-3.56 22.72,-7.33 32.62,-11.52 9.9,-4.1 17.97,-9.48 24.11,-16.15 6.24,-6.78 9.36,-14.74 9.36,-24 0,-7.97 -0.32,-14.53 -0.97,-19.59 -0.65,-5.06 -2.04,-10.22 -4.3,-15.61 -2.15,-5.38 -5.71,-9.36 -10.66,-11.94 -4.95,-2.58 -11.3,-3.99 -19.05,-3.99 -2.8,0 -6.03,0.76 -9.79,2.05 -3.77,1.4 -7.97,3.66 -12.38,6.67 -4.41,3.02 -8.08,7.54 -10.98,13.56 -2.9,5.93 -4.41,12.81 -4.41,20.67 0,6.03 0.75,10.98 2.37,14.64 1.61,3.66 3.11,6.24 4.73,7.53 1.51,1.4 2.37,2.26 2.37,2.69 0,3.98 -3.45,8.83 -10.44,14.32 -6.89,5.6 -15.83,8.39 -26.81,8.39 -13.23,0 -24.85,-3.87 -34.87,-11.51 -9.9,-7.64 -14.95,-17.44 -14.95,-29.49 0,-18.95 10.76,-34.02 32.18,-45.21 21.41,-11.3 48.75,-16.9 82.01,-16.9 17.22,0 32.72,1.19 46.61,3.44 13.88,2.37 25.5,5.71 34.87,10.02 9.36,4.3 17.33,9.15 24,14.42 6.57,5.38 11.74,11.41 15.39,18.19 3.66,6.67 6.35,13.34 8.07,19.8 1.73,6.57 2.48,13.35 2.48,20.56 0.43,37.03 0.65,85.46 0.65,145.31zm-147.57 9.14c16.04,0 33.37,-13.88 52.1,-41.54 0,-12.06 -0.11,-29.93 -0.22,-53.6 -0.1,-23.79 -0.1,-40.26 -0.1,-49.52 -4.64,6.03 -11.84,13.13 -21.54,21.21 -9.57,8.18 -18.18,15.28 -25.5,21.53 -7.32,6.13 -13.99,15.17 -20.02,26.9 -6.03,11.74 -8.94,25.08 -8.94,40.04 0,12.59 2.59,21.64 7.86,27.02 5.27,5.27 10.66,7.96 16.36,7.96zm383.5 -225.38l0 -15.5 79.75 0 0 15.5c-9.47,0 -15.82,1.51 -19.26,4.74 -3.34,3.11 -7.11,10.76 -11.31,22.92 -51.55,148.43 -78.25,225.39 -80.07,230.87l-82.99 0c-8.18,-22.92 -23.89,-67.05 -47.25,-132.28 -23.35,-65.22 -37.13,-103.64 -41.33,-115.27 -3.12,-7.32 -7.96,-10.98 -14.53,-10.98l-8.5 0 0 -15.5 141.64 0 0 15.5c-0.86,0 -1.94,0 -3.23,0.11 -1.18,0.11 -2.15,0.21 -2.79,0.21 -8.61,0 -10.88,6.79 -6.68,20.46 27.99,83.63 47.57,140.02 58.66,168.98l57.69 -166.19c5.27,-15.5 2.05,-23.25 -9.68,-23.25 -0.65,0 -2.27,-0.1 -4.74,-0.21 -2.59,-0.11 -4.31,-0.11 -5.38,-0.11zm248.73 223.23c15.39,0 29.38,-4.62 41.98,-13.78 12.59,-9.15 20.77,-22.49 24.54,-40.14l15.82 0c-13.24,59.52 -54.89,89.22 -124.85,89.22 -19.8,0 -37.66,-3.01 -53.49,-9.15 -15.93,-6.13 -28.63,-13.77 -38.31,-23.14 -9.69,-9.36 -17.77,-20.12 -24.11,-32.18 -6.46,-12.05 -10.88,-23.57 -13.25,-34.55 -2.47,-10.98 -3.65,-21.52 -3.65,-31.86 0,-12.59 1.4,-25.18 4.3,-37.78 2.8,-12.7 7.75,-25.4 14.75,-38.21 7.1,-12.8 15.82,-24.11 26.26,-33.9 10.33,-9.79 23.9,-17.76 40.47,-23.9 16.57,-6.24 35.09,-9.36 55.54,-9.36 15.5,0 29.7,2.37 42.4,7.11 12.69,4.73 23.03,10.65 30.89,17.65 7.86,7.1 14.74,15.5 20.44,25.18 5.82,9.8 10.12,18.84 12.81,27.13 2.69,8.39 4.96,17.11 6.57,26.26 1.72,9.04 2.69,15.61 2.91,19.48 0.21,3.88 0.32,7.21 0.32,9.9l-159.93 0c4.2,32.4 13.67,58.12 28.31,77.29 14.52,19.15 30.99,28.73 49.28,28.73zm-79.75 -140.35c0,3.76 0.22,9.25 0.65,16.47l76.62 0c1.62,-14.53 1.62,-28.42 -0.21,-41.55 -1.72,-13.13 -4.52,-23.79 -8.17,-32.18 -3.66,-8.29 -7.64,-14.86 -11.95,-19.81 -4.31,-4.95 -8.39,-7.43 -12.16,-7.43 -10.12,0 -18.73,5.17 -25.83,15.5 -7.21,10.23 -12.17,21.53 -14.86,33.7 -2.69,12.16 -4.09,24 -4.09,35.3zm188.56 -222.27l310.31 0 0 89.55 -15.5 0c-0.75,-6.34 -2.91,-12.69 -6.24,-19.26 -3.34,-6.57 -8.4,-13.24 -14.96,-20.13 -6.68,-7 -16.04,-12.7 -28.31,-17.11 -12.16,-4.41 -26.26,-6.57 -42.19,-6.57l0 328.28c0,6.89 1.83,13.24 5.49,19.06 3.66,5.81 9.58,8.61 17.54,8.61l0 15.49 -141.64 0 0 -15.49c7.42,0 12.8,-2.37 16.46,-7.21 3.56,-4.85 5.6,-10.66 6.25,-17.34l0 -331.4c-15.93,0 -30.03,2.16 -42.19,6.57 -12.28,4.41 -21.64,10.11 -28.31,17.11 -6.57,6.89 -11.52,13.56 -14.97,20.13 -3.33,6.57 -5.38,12.92 -6.24,19.26l-15.5 0 0 -89.55zm607.7 355.95c0.22,6.99 2.16,13.13 5.82,18.51 3.65,5.38 9.47,7.97 17.22,7.97l0 15.49 -141.54 0 0 -15.49c7.97,0 13.77,-2.8 17.44,-8.61 3.66,-5.82 5.48,-12.17 5.48,-19.06 0,-70.71 -0.21,-126.36 -0.54,-167.15 0,-7.97 -0.32,-14.53 -0.96,-19.69 -0.65,-5.17 -1.94,-10.34 -3.77,-15.62 -1.93,-5.27 -4.84,-9.25 -8.82,-11.83 -4.09,-2.58 -9.05,-3.99 -15.18,-3.99 -2.69,0 -5.81,1.08 -9.15,3.23 -3.34,2.05 -7.1,6.03 -11.3,11.73 -4.31,5.82 -8.07,13.03 -11.41,21.53 -3.34,8.5 -6.24,20.02 -8.5,34.66 -2.37,14.64 -3.45,31 -3.45,49.3l0 97.83c0,6.89 1.83,13.24 5.49,19.06 3.66,5.81 9.47,8.61 17.55,8.61l0 15.49 -141.65 0 0 -15.49c7.54,0 13.24,-2.48 16.9,-7.65 3.66,-5.16 5.7,-11.08 6.13,-17.87l0 -298.89c-0.43,-6.78 -2.47,-12.59 -6.13,-17.65 -3.66,-5.06 -9.36,-7.65 -16.9,-7.65l0 -15.39 23.03 0c14.96,0 30.25,-2.04 46.07,-6.03 15.72,-3.97 28.31,-10.33 37.78,-18.94 6.57,4.63 10.44,7.22 11.73,7.64l0 148.22c4.63,-5.92 9.9,-10.66 16.04,-14.43 6.14,-3.65 12.92,-6.13 20.56,-7.32 7.53,-1.29 12.92,-2.04 16.03,-2.25 3.13,-0.22 7.86,-0.33 14.21,-0.33 19.48,0 36.27,2.58 50.16,7.53 13.88,5.06 24.32,12.06 31.32,20.88 7.11,8.83 12.05,17.87 15.18,27.24 3.01,9.36 4.51,19.59 4.51,30.78 0.44,37.03 0.65,85.57 0.65,145.63zm224.52 6.67c15.4,0 29.39,-4.62 41.98,-13.78 12.59,-9.15 20.77,-22.49 24.54,-40.14l15.82 0c-13.24,59.52 -54.89,89.22 -124.85,89.22 -19.81,0 -37.67,-3.01 -53.5,-9.15 -15.92,-6.13 -28.63,-13.77 -38.31,-23.14 -9.69,-9.36 -17.76,-20.12 -24.11,-32.18 -6.46,-12.05 -10.87,-23.57 -13.24,-34.55 -2.48,-10.98 -3.66,-21.52 -3.66,-31.86 0,-12.59 1.4,-25.18 4.3,-37.78 2.8,-12.7 7.75,-25.4 14.75,-38.21 7.1,-12.8 15.82,-24.11 26.26,-33.9 10.34,-9.79 23.9,-17.76 40.47,-23.9 16.58,-6.24 35.09,-9.36 55.54,-9.36 15.5,0 29.71,2.37 42.41,7.11 12.7,4.73 23.03,10.65 30.89,17.65 7.86,7.1 14.75,15.5 20.45,25.18 5.81,9.8 10.12,18.84 12.81,27.13 2.69,8.39 4.95,17.11 6.56,26.26 1.73,9.04 2.69,15.61 2.91,19.48 0.22,3.88 0.32,7.21 0.32,9.9l-159.94 0c4.2,32.4 13.67,58.12 28.31,77.29 14.53,19.15 31,28.73 49.29,28.73zm-79.75 -140.35c0,3.76 0.21,9.25 0.64,16.47l76.64 0c1.61,-14.53 1.61,-28.42 -0.22,-41.55 -1.72,-13.13 -4.52,-23.79 -8.18,-32.18 -3.66,-8.29 -7.64,-14.86 -11.95,-19.81 -4.3,-4.95 -8.39,-7.43 -12.16,-7.43 -10.12,0 -18.73,5.17 -25.83,15.5 -7.21,10.23 -12.16,21.53 -14.85,33.7 -2.69,12.16 -4.09,24 -4.09,35.3zm356.68 -222.27c43.92,0 78.57,17.77 103.97,53.28 25.51,35.53 38.21,84.07 38.21,145.63 0,65.01 -12.59,114.42 -37.67,148.21 -25.18,33.9 -59.95,50.8 -104.51,50.8l-168.11 0 0 -15.49c15.39,0 23.03,-8.19 23.03,-24.55l0 -317.83c-0.64,-6.79 -2.79,-12.49 -6.46,-17.33 -3.66,-4.85 -9.25,-7.32 -16.57,-7.32l0 -15.4 168.11 0zm-20.23 382.43c11.4,0 22.17,-9.16 32.29,-27.56 10.22,-18.4 18.19,-41.66 23.99,-69.85 5.82,-28.2 8.73,-56.83 8.73,-86.11 0,-32.07 -3.02,-62.32 -8.83,-90.63 -5.92,-28.3 -13.89,-50.8 -23.89,-67.59 -9.91,-16.9 -20.67,-25.29 -32.29,-25.29l-29.28 0 0 367.03 29.28 0zm452.49 -26.8c0.21,6.99 2.15,13.23 5.92,18.61 3.66,5.5 9.36,8.19 17.11,8.19l0 15.49 -118.5 0 0 -52.95c-26.37,35.3 -55.65,52.95 -88.04,52.95 -25.85,0 -45.76,-6.24 -59.64,-18.62 -13.78,-12.37 -20.77,-30.67 -20.77,-54.89 0,-13.24 3.12,-24.75 9.36,-34.66 6.14,-9.9 14.21,-17.65 24.11,-23.46 9.9,-5.81 20.77,-10.87 32.62,-15.18 11.84,-4.3 23.79,-8.18 35.62,-11.83 11.84,-3.56 22.72,-7.33 32.62,-11.52 9.9,-4.1 17.97,-9.48 24.11,-16.15 6.24,-6.78 9.36,-14.74 9.36,-24 0,-7.97 -0.32,-14.53 -0.97,-19.59 -0.64,-5.06 -2.04,-10.22 -4.3,-15.61 -2.15,-5.38 -5.71,-9.36 -10.66,-11.94 -4.95,-2.58 -11.3,-3.99 -19.05,-3.99 -2.8,0 -6.03,0.76 -9.79,2.05 -3.77,1.4 -7.97,3.66 -12.38,6.67 -4.41,3.02 -8.07,7.54 -10.98,13.56 -2.9,5.93 -4.41,12.81 -4.41,20.67 0,6.03 0.75,10.98 2.37,14.64 1.61,3.66 3.12,6.24 4.73,7.53 1.51,1.4 2.37,2.26 2.37,2.69 0,3.98 -3.44,8.83 -10.44,14.32 -6.89,5.6 -15.82,8.39 -26.8,8.39 -13.25,0 -24.87,-3.87 -34.88,-11.51 -9.9,-7.64 -14.96,-17.44 -14.96,-29.49 0,-18.95 10.76,-34.02 32.18,-45.21 21.43,-11.3 48.77,-16.9 82.02,-16.9 17.22,0 32.72,1.19 46.61,3.44 13.88,2.37 25.51,5.71 34.87,10.02 9.37,4.3 17.33,9.15 24,14.42 6.57,5.38 11.74,11.41 15.4,18.19 3.65,6.67 6.34,13.34 8.07,19.8 1.72,6.57 2.47,13.35 2.47,20.56 0.44,37.03 0.65,85.46 0.65,145.31zm-147.57 9.14c16.04,0 33.37,-13.88 52.1,-41.54 0,-12.06 -0.11,-29.93 -0.22,-53.6 -0.1,-23.79 -0.1,-40.26 -0.1,-49.52 -4.63,6.03 -11.84,13.13 -21.53,21.21 -9.58,8.18 -18.19,15.28 -25.51,21.53 -7.32,6.13 -13.99,15.17 -20.02,26.9 -6.03,11.74 -8.93,25.08 -8.93,40.04 0,12.59 2.58,21.64 7.85,27.02 5.28,5.27 10.66,7.96 16.36,7.96zm365.1 0c0.64,1.08 0.43,2.91 -0.76,5.39 -1.18,2.58 -3.22,5.38 -6.35,8.5 -3.01,3.23 -6.78,6.24 -11.3,9.15 -4.52,3.01 -10.22,5.38 -17.22,7.32 -6.89,1.83 -14.32,2.79 -22.39,2.79 -18.83,0 -36.38,-3.44 -52.41,-10.22 -16.15,-6.89 -29.17,-16.9 -39.29,-30.14 -10.12,-13.23 -15.18,-28.41 -15.18,-45.42l0 -172.21 -35.62 0 0 -16.04c15.39,-3.34 30.13,-9.37 44.34,-18.08 14.21,-8.72 26.26,-18.51 36.27,-29.17 9.9,-10.76 18.3,-21.31 25.08,-31.53 6.68,-10.34 11.3,-19.59 13.78,-27.78 5.92,4.42 9.79,6.89 11.73,7.54l0 99.02 69.32 0 0 16.04 -69.32 0 0 175.65c0,10.77 1.18,19.7 3.45,27.02 2.36,7.21 5.38,12.38 9.14,15.4 3.77,3.11 8.08,5.38 12.81,6.99 4.74,1.62 9.47,1.94 14.21,1.29 4.63,-0.75 9.15,-1.29 13.56,-1.62 4.3,-0.32 7.86,-0.75 10.66,-1.39 2.8,-0.65 4.73,-0.11 5.49,1.5zm188.89 -2.15c15.4,0 29.39,-4.62 41.98,-13.78 12.59,-9.15 20.77,-22.49 24.54,-40.14l15.82 0c-13.24,59.52 -54.89,89.22 -124.86,89.22 -19.8,0 -37.66,-3.01 -53.49,-9.15 -15.92,-6.13 -28.63,-13.77 -38.31,-23.14 -9.69,-9.36 -17.76,-20.12 -24.11,-32.18 -6.46,-12.05 -10.87,-23.57 -13.24,-34.55 -2.48,-10.98 -3.66,-21.52 -3.66,-31.86 0,-12.59 1.4,-25.18 4.3,-37.78 2.8,-12.7 7.75,-25.4 14.75,-38.21 7.1,-12.8 15.82,-24.11 26.26,-33.9 10.34,-9.79 23.9,-17.76 40.47,-23.9 16.58,-6.24 35.09,-9.36 55.54,-9.36 15.5,0 29.71,2.37 42.41,7.11 12.7,4.73 23.03,10.65 30.89,17.65 7.86,7.1 14.75,15.5 20.45,25.18 5.81,9.8 10.12,18.84 12.81,27.13 2.69,8.39 4.95,17.11 6.56,26.26 1.73,9.04 2.69,15.61 2.91,19.48 0.22,3.88 0.32,7.21 0.32,9.9l-159.94 0c4.2,32.4 13.67,58.12 28.31,77.29 14.52,19.15 31,28.73 49.29,28.73zm-79.75 -140.35c0,3.76 0.21,9.25 0.64,16.47l76.64 0c1.61,-14.53 1.61,-28.42 -0.22,-41.55 -1.72,-13.13 -4.52,-23.79 -8.18,-32.18 -3.66,-8.29 -7.64,-14.86 -11.95,-19.81 -4.3,-4.95 -8.39,-7.43 -12.16,-7.43 -10.12,0 -18.73,5.17 -25.83,15.5 -7.21,10.23 -12.16,21.53 -14.85,33.7 -2.69,12.16 -4.09,24 -4.09,35.3z"/>
    <path class="fil0" d="M36660.44 5806.94l166.13 0 0 47.95 -8.3 0c-0.4,-3.41 -1.55,-6.81 -3.34,-10.32 -1.78,-3.52 -4.49,-7.09 -8.01,-10.78 -3.57,-3.74 -8.59,-6.8 -15.15,-9.16 -6.52,-2.36 -14.06,-3.52 -22.59,-3.52l0 175.76c0,3.69 0.98,7.09 2.94,10.2 1.96,3.11 5.13,4.61 9.39,4.61l0 8.3 -75.83 0 0 -8.3c3.98,0 6.86,-1.26 8.82,-3.86 1.9,-2.59 2.99,-5.7 3.34,-9.27l0 -177.44c-8.53,0 -16.08,1.16 -22.59,3.52 -6.57,2.36 -11.58,5.42 -15.15,9.16 -3.52,3.69 -6.17,7.26 -8.01,10.78 -1.79,3.51 -2.89,6.91 -3.35,10.32l-8.3 0 0 -47.95zm385.24 0l75.84 0 0 8.24c-4.32,0 -7.43,1.55 -9.39,4.67 -1.96,3.11 -2.94,6.51 -2.94,10.2l0 166.82c0,3.69 0.98,7.09 2.94,10.2 1.96,3.11 5.07,4.61 9.39,4.61l0 8.3 -75.84 0 0 -8.3c3.98,0 6.92,-1.26 8.88,-3.86 1.96,-2.59 3.11,-5.7 3.46,-9.27l0 -77.34 -51.81 0 0 75.66c0,3.69 0.98,7.09 2.94,10.2 1.96,3.11 5.07,4.61 9.39,4.61l0 8.3 -75.83 0 0 -8.3c3.92,0 6.91,-1.26 8.87,-3.86 1.96,-2.59 3.11,-5.7 3.46,-9.27l0 -168.5c0,-3.69 -0.98,-7.09 -2.94,-10.2 -1.96,-3.12 -5.13,-4.67 -9.39,-4.67l0 -8.24 75.83 0 0 8.24c-4.32,0 -7.43,1.55 -9.39,4.67 -1.96,3.11 -2.94,6.51 -2.94,10.2l0 76.81 51.81 0 0 -76.81c0,-3.69 -0.98,-7.09 -2.94,-10.2 -1.96,-3.12 -5.13,-4.67 -9.4,-4.67l0 -8.24zm193.65 0l166.13 0 0 47.95 -8.29 0c-0.87,-6.75 -4.5,-14.07 -10.78,-21.96 -6.28,-7.9 -13.02,-11.82 -20.11,-11.82l-63.45 0 0 71.57 38.96 0c8.81,0 13.19,-4.72 13.19,-14.17l8.3 0 0 42.7 -8.3 0c0,-9.45 -4.38,-14.18 -13.19,-14.18l-38.96 0 0 89.84 0 8.76 63.45 0c7.09,0 13.83,-3.91 20.11,-11.81 6.28,-7.9 9.91,-15.21 10.78,-21.96l8.29 0 0 48.12 -166.13 0 0 -8.3c3.92,0 6.91,-1.26 8.87,-3.86 1.96,-2.59 3.11,-5.7 3.46,-9.27l0 -170.18c-0.35,-3.63 -1.5,-6.68 -3.46,-9.27 -1.96,-2.6 -4.95,-3.92 -8.87,-3.92l0 -8.24zm627.62 0l42.75 0 0 8.24c-4.49,0 -7.89,0.98 -10.25,2.88 -2.31,1.9 -4.1,5.36 -5.48,10.31l-52.32 191.61 -53.01 0 -26.51 -97.27 -26.33 97.27 -53.19 0 -52.85 -194.14c-1.78,-7.09 -4.95,-10.66 -9.45,-10.66l-4.55 0 0 -8.24 75.84 0 0 8.24 -3.23 0c-1.9,0 -3.51,1.04 -4.84,3.05 -1.27,2.02 -1.44,4.67 -0.58,7.95l44.26 162.22 26.51 -97.04 -17.92 -65.35c-1.91,-7.2 -5.08,-10.83 -9.45,-10.83l-4.56 0 0 -8.24 75.78 0 0 8.24 -3.17 0c-1.9,0 -3.51,1.04 -4.84,3.05 -1.27,2.02 -1.5,4.67 -0.57,7.95l44.25 162.22 43.85 -161.06c1.04,-3.58 0.87,-6.51 -0.45,-8.76 -1.39,-2.25 -3.29,-3.4 -5.77,-3.4l-3.92 0 0 -8.24zm156.64 0l166.14 0 0 47.95 -8.3 0c-0.87,-6.75 -4.5,-14.07 -10.78,-21.96 -6.28,-7.9 -13.02,-11.82 -20.11,-11.82l-63.44 0 0 71.57 38.95 0c8.82,0 13.2,-4.72 13.2,-14.17l8.29 0 0 42.7 -8.29 0c0,-9.45 -4.38,-14.18 -13.2,-14.18l-38.95 0 0 89.84 0 8.76 63.44 0c7.09,0 13.83,-3.91 20.11,-11.81 6.28,-7.9 9.91,-15.21 10.78,-21.96l8.3 0 0 48.12 -166.14 0 0 -8.3c3.92,0 6.92,-1.26 8.87,-3.86 1.96,-2.59 3.12,-5.7 3.46,-9.27l0 -170.18c-0.34,-3.63 -1.5,-6.68 -3.46,-9.27 -1.95,-2.6 -4.95,-3.92 -8.87,-3.92l0 -8.24zm373.96 0c23.51,0 42.07,9.51 55.66,28.52 13.66,19.02 20.46,45.01 20.46,77.97 0,34.81 -6.74,61.26 -20.17,79.35 -13.48,18.16 -32.09,27.2 -55.95,27.2l-90.01 0 0 -8.3c8.24,0 12.33,-4.37 12.33,-13.13l0 -170.18c-0.35,-3.63 -1.5,-6.68 -3.46,-9.27 -1.96,-2.6 -4.95,-3.92 -8.87,-3.92l0 -8.24 90.01 0zm-10.84 204.74c6.11,0 11.88,-4.89 17.29,-14.75 5.48,-9.85 9.74,-22.3 12.85,-37.4 3.11,-15.1 4.67,-30.42 4.67,-46.1 0,-17.17 -1.61,-33.36 -4.72,-48.52 -3.17,-15.15 -7.44,-27.2 -12.8,-36.19 -5.3,-9.04 -11.06,-13.54 -17.29,-13.54l-15.67 0 0 196.5 15.67 0zm294.78 -204.74c23.51,0 42.07,9.51 55.67,28.52 13.66,19.02 20.46,45.01 20.46,77.97 0,34.81 -6.74,61.26 -20.17,79.35 -13.49,18.16 -32.1,27.2 -55.96,27.2l-90.01 0 0 -8.3c8.24,0 12.33,-4.37 12.33,-13.13l0 -170.18c-0.34,-3.63 -1.5,-6.68 -3.46,-9.27 -1.95,-2.6 -4.95,-3.92 -8.87,-3.92l0 -8.24 90.01 0zm-10.83 204.74c6.11,0 11.87,-4.89 17.29,-14.75 5.47,-9.85 9.74,-22.3 12.85,-37.4 3.11,-15.1 4.67,-30.42 4.67,-46.1 0,-17.17 -1.62,-33.36 -4.73,-48.52 -3.17,-15.15 -7.43,-27.2 -12.79,-36.19 -5.3,-9.04 -11.07,-13.54 -17.29,-13.54l-15.67 0 0 196.5 15.67 0zm204.77 -204.74l75.83 0 0 8.24c-4.32,0 -7.43,1.55 -9.39,4.67 -1.96,3.11 -2.94,6.51 -2.94,10.2l0 166.82c0,3.69 0.98,7.09 2.94,10.2 1.96,3.11 5.07,4.61 9.39,4.61l0 8.3 -75.83 0 0 -8.3c3.92,0 6.91,-1.26 8.87,-3.86 1.96,-2.59 3.11,-5.7 3.46,-9.27l0 -170.18c-0.35,-3.63 -1.5,-6.68 -3.46,-9.27 -1.96,-2.6 -4.95,-3.92 -8.87,-3.92l0 -8.24zm330.89 8.24l0 -8.24 42.53 0 0 8.24c-4.61,0 -8.01,1.44 -10.2,4.26 -2.19,2.77 -3.28,5.71 -3.28,8.76l0 191.78 -51.18 0c-9.67,-18.9 -25.75,-50.42 -48.29,-94.56 -22.47,-44.08 -35.09,-68.75 -37.8,-73.94l0 147.07c0,3.57 1.04,6.68 3.11,9.27 2.08,2.6 5.54,3.86 10.38,3.86l0 8.3 -42.53 0 0 -8.3c4.84,0 8.3,-1.09 10.31,-3.28 2.02,-2.19 3.11,-5.3 3.17,-9.34l0 -170.86c0,-8.7 -4.49,-13.02 -13.48,-13.02l0 -8.24 64.65 0c5.08,10.02 18.16,35.73 39.25,77.16 21.15,41.38 36.77,72.09 46.85,91.97l0 -147.87c0,-3.63 -1.04,-6.68 -3.17,-9.22 -2.13,-2.53 -5.59,-3.8 -10.32,-3.8zm288.67 93.87l37.81 0 0 8.3c-4.27,0 -7.38,1.56 -9.4,4.61 -1.96,3.11 -2.94,6.51 -2.94,10.26l0 73.93c-3.28,-0.8 -6.91,-0.58 -10.94,0.64 -4.1,1.26 -8.02,2.88 -11.82,4.89 -3.86,2.08 -9.28,3.92 -16.25,5.71 -6.97,1.73 -14.46,2.59 -22.41,2.59 -14.87,0 -28.24,-2.59 -40.11,-7.83 -11.88,-5.25 -21.62,-12.51 -29.16,-21.73 -7.5,-9.22 -13.26,-19.94 -17.17,-32.16 -3.98,-12.21 -5.94,-25.41 -5.94,-39.58 0,-15.28 2.13,-29.68 6.4,-43.23 4.32,-13.48 10.31,-25.35 17.97,-35.55 7.73,-10.14 17.47,-18.21 29.22,-24.09 11.76,-5.93 24.72,-8.87 38.79,-8.87 10.77,0 21.03,2.65 30.71,7.89 9.68,5.3 17.29,11.87 22.76,19.71 5.53,7.78 8.3,15.68 8.3,23.51 0,6.92 -2.54,12.68 -7.61,17.4 -5.07,4.73 -11.41,7.09 -19.07,7.09 -5.42,0 -10.03,-1.55 -13.95,-4.72 -3.86,-3.17 -5.82,-6.05 -5.82,-8.76 0,-0.11 0.46,-0.58 1.27,-1.44 0.86,-0.87 1.73,-2.42 2.53,-4.73 0.87,-2.3 1.27,-5.24 1.27,-8.87 0,-11.59 -1.84,-20.63 -5.47,-27.2 -3.69,-6.51 -8.88,-9.8 -15.62,-9.8 -3.28,0 -6.51,0.75 -9.79,2.25 -3.29,1.44 -6.69,4.15 -10.2,8.07 -3.58,3.97 -6.63,8.93 -9.28,15.04 -2.65,6.05 -4.84,14.23 -6.63,24.49 -1.73,10.2 -2.59,21.84 -2.59,34.75 0,18.03 1.96,35.61 5.82,52.84 3.86,17.23 8.81,31.06 14.87,41.55 5.99,10.49 11.98,15.67 17.98,15.67 4.95,0 8.93,-3.05 11.98,-9.16 3.06,-6.17 4.55,-14 4.55,-23.57 0,-4.96 -0.05,-12.79 -0.17,-23.45 -0.11,-10.72 -0.17,-18.5 -0.17,-23.46 0,-3.74 -0.92,-7.08 -2.88,-10.14 -1.9,-3.05 -5.01,-4.55 -9.28,-4.55l0 -8.3 32.44 0zm330.68 -102.11c14.29,0 27.95,5.01 40.92,15.1 13.02,10.08 23.34,23.11 31.05,39.18 7.73,16.02 11.59,32.56 11.59,49.68 0,32.67 -7.44,59 -22.36,79.06 -14.92,20 -35.32,30.02 -61.2,30.02 -25.7,0 -45.87,-9.33 -60.56,-28 -14.64,-18.73 -22.02,-42.94 -22.02,-72.78 0,-20.17 3.57,-38.79 10.66,-55.9 7.09,-17.12 17,-30.78 29.68,-41.03 12.74,-10.2 26.8,-15.33 42.24,-15.33zm-14.46 190.85c4.55,9.17 9.74,13.72 15.44,13.72 5.76,0 10.95,-4.44 15.56,-13.31 4.61,-8.87 8.07,-20.4 10.43,-34.63 2.42,-14.18 3.57,-29.4 3.57,-45.7 0,-18.27 -1.03,-34.92 -3.11,-50.02 -2.07,-15.04 -5.47,-27.55 -10.14,-37.4 -4.67,-9.86 -10.26,-14.75 -16.77,-14.75 -3.05,0 -6.22,2.3 -9.57,6.91 -3.34,4.61 -6.45,11.07 -9.39,19.25 -2.88,8.24 -5.3,19.02 -7.15,32.44 -1.84,13.37 -2.76,27.89 -2.76,43.57 0,15.85 1.15,30.83 3.52,44.95 2.36,14.12 5.81,25.82 10.37,34.97zm215.83 -190.85l166.12 0 0 47.95 -8.29 0c-0.87,-6.75 -4.5,-14.07 -10.78,-21.96 -6.28,-7.9 -13.02,-11.82 -20.11,-11.82l-63.44 0 0 76.99 38.96 0c8.81,0 13.19,-4.72 13.19,-14.17l8.29 0 0 42.53 -8.29 0c0,-9.46 -4.38,-14.18 -13.19,-14.18l-38.96 0 0 84.59c0,3.69 0.98,7.09 2.94,10.2 1.96,3.11 5.07,4.61 9.4,4.61l0 8.3 -75.84 0 0 -8.3c4.26,0 7.43,-1.5 9.39,-4.61 1.96,-3.11 2.94,-6.51 2.94,-10.2l0 -168.5c-0.35,-3.63 -1.5,-6.68 -3.46,-9.27 -1.96,-2.6 -4.95,-3.92 -8.87,-3.92l0 -8.24z"/>
    <path class="fil0" d="M36201.89 5552.38c628.61,-27.85 1585.84,-13.26 2224.91,-16.57 641.87,2.98 1592.8,-10.94 2224.92,16.57 -628.61,27.5 -1585.84,13.59 -2224.92,16.57 -641.87,-3.32 -1592.8,11.27 -2224.91,-16.57l0 0z"/>
   </g>
  </g>
 </g>
</svg>
