<?xml version="1.0" encoding="utf-8"?>
<!-- Generator: Adobe Illustrator 27.9.0, SVG Export Plug-In . SVG Version: 6.00 Build 0)  -->
<svg version="1.1" id="Layer_1" xmlns:xodm="http://www.corel.com/coreldraw/odm/2003"
	 xmlns="http://www.w3.org/2000/svg" xmlns:xlink="http://www.w3.org/1999/xlink" x="0px" y="0px" viewBox="0 0 126.1 32"
	 style="enable-background:new 0 0 126.1 32;" xml:space="preserve">
<g id="Layer_x0020_1">
	<g id="_2517511418912">
		<g id="_2763736874784">
			<path d="M19.6,2.6c0,0.3,0.1,0.6,0.4,0.9c0.2,0.3,0.6,0.5,0.9,0.7c0.4,0.2,0.8,0.4,1.3,0.6c0.5,0.2,0.9,0.4,1.4,0.6
				c0.5,0.2,0.9,0.5,1.3,0.7c0.4,0.3,0.7,0.6,0.9,0.9c0.2,0.4,0.4,0.8,0.4,1.2c0,0.6-0.2,1.2-0.7,1.7c-0.5,0.5-1,0.9-1.7,1.1
				c-0.7,0.2-1.4,0.4-2.2,0.4c-0.7,0-1.3-0.1-2-0.4c-0.6-0.2-1.2-0.6-1.6-1c-0.4-0.4-0.6-0.9-0.6-1.3c0-0.4,0.1-0.8,0.4-1
				c0.3-0.2,0.6-0.4,1-0.4c0.2,0,0.5,0.1,0.7,0.2c0.2,0.1,0.3,0.3,0.3,0.5c0,0,0,0.1-0.1,0.1c0,0-0.1,0.1-0.1,0.2
				c0,0.1-0.1,0.2-0.1,0.4c0,0.6,0.2,1.1,0.5,1.5c0.4,0.4,0.8,0.6,1.4,0.6c0.5,0,1-0.2,1.4-0.5c0.4-0.4,0.6-0.8,0.6-1.4
				c0-0.2-0.1-0.5-0.3-0.7c-0.2-0.2-0.4-0.4-0.7-0.5c-0.3-0.1-0.6-0.3-1-0.5c-0.4-0.2-0.7-0.3-1.1-0.5c-0.4-0.2-0.8-0.3-1.1-0.6
				c-0.4-0.2-0.7-0.5-1-0.7s-0.5-0.6-0.7-0.9c-0.2-0.4-0.3-0.8-0.3-1.2c0-0.3,0.1-0.6,0.2-0.9c0.1-0.3,0.3-0.6,0.5-0.9
				S18.6,1.2,19,1c0.3-0.2,0.8-0.4,1.3-0.6c0.5-0.1,1.1-0.2,1.7-0.2c0.5,0,1,0.1,1.5,0.3c0.5,0.2,0.9,0.4,1.2,0.7
				C25,1.4,25.2,1.7,25.4,2c0.2,0.3,0.3,0.6,0.3,0.9c0,0.4-0.1,0.7-0.4,0.9c-0.3,0.2-0.6,0.4-1,0.4c-0.3,0-0.5-0.1-0.8-0.3
				c-0.2-0.2-0.3-0.3-0.3-0.5c0,0,0,0,0.1-0.1c0,0,0.1-0.1,0.1-0.3c0-0.1,0.1-0.3,0.1-0.5c0-0.5-0.2-1-0.5-1.4
				c-0.3-0.4-0.8-0.6-1.4-0.6c-0.6,0-1,0.2-1.4,0.5C19.8,1.6,19.6,2.1,19.6,2.6L19.6,2.6z M34.4,10.3c0,0.2,0.1,0.4,0.2,0.5
				c0.1,0.2,0.3,0.2,0.5,0.2v0.4h-3.4V10c-0.7,1-1.6,1.5-2.5,1.5c-0.7,0-1.3-0.2-1.7-0.5c-0.4-0.4-0.6-0.9-0.6-1.6
				c0-0.4,0.1-0.7,0.3-1c0.2-0.3,0.4-0.5,0.7-0.7c0.3-0.2,0.6-0.3,0.9-0.4c0.3-0.1,0.7-0.2,1-0.3c0.3-0.1,0.6-0.2,0.9-0.3
				c0.3-0.1,0.5-0.3,0.7-0.5c0.2-0.2,0.3-0.4,0.3-0.7c0-0.2,0-0.4,0-0.6c0-0.1-0.1-0.3-0.1-0.4c-0.1-0.2-0.2-0.3-0.3-0.3
				c-0.1-0.1-0.3-0.1-0.5-0.1c-0.1,0-0.2,0-0.3,0.1c-0.1,0-0.2,0.1-0.4,0.2c-0.1,0.1-0.2,0.2-0.3,0.4c-0.1,0.2-0.1,0.4-0.1,0.6
				c0,0.2,0,0.3,0.1,0.4c0,0.1,0.1,0.2,0.1,0.2c0,0,0.1,0.1,0.1,0.1c0,0.1-0.1,0.3-0.3,0.4c-0.2,0.2-0.4,0.2-0.8,0.2
				c-0.4,0-0.7-0.1-1-0.3c-0.3-0.2-0.4-0.5-0.4-0.8c0-0.5,0.3-1,0.9-1.3c0.6-0.3,1.4-0.5,2.3-0.5c0.5,0,0.9,0,1.3,0.1
				c0.4,0.1,0.7,0.2,1,0.3c0.3,0.1,0.5,0.3,0.7,0.4C33.8,4.7,34,4.8,34.1,5c0.1,0.2,0.2,0.4,0.2,0.6c0,0.2,0.1,0.4,0.1,0.6
				C34.4,7.2,34.4,8.6,34.4,10.3L34.4,10.3z M30.2,10.6c0.5,0,0.9-0.4,1.5-1.2c0-0.3,0-0.8,0-1.5c0-0.7,0-1.1,0-1.4
				c-0.1,0.2-0.3,0.4-0.6,0.6c-0.3,0.2-0.5,0.4-0.7,0.6c-0.2,0.2-0.4,0.4-0.6,0.8c-0.2,0.3-0.3,0.7-0.3,1.1c0,0.4,0.1,0.6,0.2,0.8
				C29.9,10.5,30,10.6,30.2,10.6L30.2,10.6z M41.1,4.2V3.7h2.3v0.4c-0.3,0-0.4,0-0.5,0.1c-0.1,0.1-0.2,0.3-0.3,0.6
				c-1.5,4.2-2.2,6.4-2.3,6.5h-2.4c-0.2-0.6-0.7-1.9-1.3-3.7c-0.7-1.8-1.1-2.9-1.2-3.3c-0.1-0.2-0.2-0.3-0.4-0.3h-0.2V3.7h4v0.4
				c0,0-0.1,0-0.1,0c0,0-0.1,0-0.1,0c-0.2,0-0.3,0.2-0.2,0.6c0.8,2.4,1.3,4,1.7,4.8l1.6-4.7c0.1-0.4,0.1-0.7-0.3-0.7
				c0,0-0.1,0-0.1,0C41.2,4.2,41.1,4.2,41.1,4.2L41.1,4.2z M48.1,10.5c0.4,0,0.8-0.1,1.2-0.4C49.7,9.8,49.9,9.5,50,9h0.4
				c-0.4,1.7-1.6,2.5-3.5,2.5c-0.6,0-1.1-0.1-1.5-0.3c-0.5-0.2-0.8-0.4-1.1-0.7c-0.3-0.3-0.5-0.6-0.7-0.9c-0.2-0.3-0.3-0.7-0.4-1
				c-0.1-0.3-0.1-0.6-0.1-0.9c0-0.4,0-0.7,0.1-1.1c0.1-0.4,0.2-0.7,0.4-1.1c0.2-0.4,0.4-0.7,0.7-1c0.3-0.3,0.7-0.5,1.1-0.7
				c0.5-0.2,1-0.3,1.6-0.3c0.4,0,0.8,0.1,1.2,0.2c0.4,0.1,0.7,0.3,0.9,0.5c0.2,0.2,0.4,0.4,0.6,0.7c0.2,0.3,0.3,0.5,0.4,0.8
				c0.1,0.2,0.1,0.5,0.2,0.7c0,0.3,0.1,0.4,0.1,0.6c0,0.1,0,0.2,0,0.3h-4.5c0.1,0.9,0.4,1.6,0.8,2.2C47.1,10.2,47.6,10.5,48.1,10.5
				L48.1,10.5z M45.9,6.5c0,0.1,0,0.3,0,0.5h2.2c0-0.4,0-0.8,0-1.2c0-0.4-0.1-0.7-0.2-0.9c-0.1-0.2-0.2-0.4-0.3-0.6
				c-0.1-0.1-0.2-0.2-0.3-0.2c-0.3,0-0.5,0.1-0.7,0.4c-0.2,0.3-0.3,0.6-0.4,1C45.9,5.9,45.9,6.2,45.9,6.5L45.9,6.5z M51.2,0.2H60
				v2.5h-0.4c0-0.2-0.1-0.4-0.2-0.5C59.3,2,59.2,1.8,59,1.6c-0.2-0.2-0.5-0.4-0.8-0.5C57.8,1,57.4,1,57,1v9.3c0,0.2,0.1,0.4,0.2,0.5
				c0.1,0.2,0.3,0.2,0.5,0.2v0.4h-4v-0.4c0.2,0,0.4-0.1,0.5-0.2c0.1-0.1,0.2-0.3,0.2-0.5V1c-0.5,0-0.9,0.1-1.2,0.2
				c-0.3,0.1-0.6,0.3-0.8,0.5c-0.2,0.2-0.3,0.4-0.4,0.6c-0.1,0.2-0.2,0.4-0.2,0.5h-0.4V0.2z M68.4,10.3c0,0.2,0.1,0.4,0.2,0.5
				c0.1,0.2,0.3,0.2,0.5,0.2v0.4h-4v-0.4c0.2,0,0.4-0.1,0.5-0.2c0.1-0.2,0.2-0.3,0.2-0.5c0-2,0-3.6,0-4.7c0-0.2,0-0.4,0-0.6
				c0-0.1-0.1-0.3-0.1-0.4c-0.1-0.1-0.1-0.3-0.3-0.3c-0.1-0.1-0.3-0.1-0.4-0.1c-0.1,0-0.2,0-0.3,0.1c-0.1,0.1-0.2,0.2-0.3,0.3
				c-0.1,0.2-0.2,0.4-0.3,0.6c-0.1,0.2-0.2,0.6-0.2,1c-0.1,0.4-0.1,0.9-0.1,1.4v2.8c0,0.2,0.1,0.4,0.2,0.5c0.1,0.2,0.3,0.2,0.5,0.2
				v0.4h-4v-0.4c0.2,0,0.4-0.1,0.5-0.2c0.1-0.1,0.2-0.3,0.2-0.5V1.9c0-0.2-0.1-0.4-0.2-0.5c-0.1-0.1-0.3-0.2-0.5-0.2V0.7H61
				c0.4,0,0.9-0.1,1.3-0.2c0.4-0.1,0.8-0.3,1.1-0.5c0.2,0.1,0.3,0.2,0.3,0.2v4.2c0.1-0.2,0.3-0.3,0.5-0.4c0.2-0.1,0.4-0.2,0.6-0.2
				c0.2,0,0.4-0.1,0.5-0.1c0.1,0,0.2,0,0.4,0c0.6,0,1,0.1,1.4,0.2c0.4,0.1,0.7,0.3,0.9,0.6c0.2,0.3,0.3,0.5,0.4,0.8
				c0.1,0.3,0.1,0.6,0.1,0.9C68.4,7.2,68.4,8.6,68.4,10.3L68.4,10.3z M74.8,10.5c0.4,0,0.8-0.1,1.2-0.4c0.4-0.3,0.6-0.6,0.7-1.1h0.4
				c-0.4,1.7-1.6,2.5-3.5,2.5c-0.6,0-1.1-0.1-1.5-0.3c-0.5-0.2-0.8-0.4-1.1-0.7c-0.3-0.3-0.5-0.6-0.7-0.9c-0.2-0.3-0.3-0.7-0.4-1
				c-0.1-0.3-0.1-0.6-0.1-0.9c0-0.4,0-0.7,0.1-1.1C70,6.4,70.2,6,70.4,5.6c0.2-0.4,0.4-0.7,0.7-1c0.3-0.3,0.7-0.5,1.1-0.7
				c0.5-0.2,1-0.3,1.6-0.3c0.4,0,0.8,0.1,1.2,0.2c0.4,0.1,0.7,0.3,0.9,0.5c0.2,0.2,0.4,0.4,0.6,0.7c0.2,0.3,0.3,0.5,0.4,0.8
				C76.9,6.2,77,6.4,77,6.7c0,0.3,0.1,0.4,0.1,0.6c0,0.1,0,0.2,0,0.3h-4.5c0.1,0.9,0.4,1.6,0.8,2.2C73.8,10.2,74.3,10.5,74.8,10.5
				L74.8,10.5z M72.5,6.5c0,0.1,0,0.3,0,0.5h2.2c0-0.4,0-0.8,0-1.2c0-0.4-0.1-0.7-0.2-0.9c-0.1-0.2-0.2-0.4-0.3-0.6
				c-0.1-0.1-0.2-0.2-0.3-0.2c-0.3,0-0.5,0.1-0.7,0.4c-0.2,0.3-0.3,0.6-0.4,1C72.6,5.9,72.5,6.2,72.5,6.5L72.5,6.5z M82.7,0.2
				c1.2,0,2.2,0.5,2.9,1.5c0.7,1,1.1,2.4,1.1,4.1c0,1.8-0.4,3.2-1.1,4.2c-0.7,1-1.7,1.4-3,1.4h-4.8v-0.4c0.4,0,0.7-0.2,0.7-0.7v-9
				c0-0.2-0.1-0.4-0.2-0.5c-0.1-0.1-0.3-0.2-0.5-0.2V0.2L82.7,0.2L82.7,0.2z M82.1,11.1c0.3,0,0.6-0.3,0.9-0.8
				c0.3-0.5,0.5-1.2,0.7-2c0.2-0.8,0.2-1.6,0.2-2.4c0-0.9-0.1-1.8-0.3-2.6c-0.2-0.8-0.4-1.4-0.7-1.9c-0.3-0.5-0.6-0.7-0.9-0.7h-0.8
				v10.4L82.1,11.1L82.1,11.1z M94.9,10.3c0,0.2,0.1,0.4,0.2,0.5c0.1,0.2,0.3,0.2,0.5,0.2v0.4h-3.4V10c-0.7,1-1.6,1.5-2.5,1.5
				c-0.7,0-1.3-0.2-1.7-0.5c-0.4-0.4-0.6-0.9-0.6-1.6c0-0.4,0.1-0.7,0.3-1c0.2-0.3,0.4-0.5,0.7-0.7c0.3-0.2,0.6-0.3,0.9-0.4
				c0.3-0.1,0.7-0.2,1-0.3c0.3-0.1,0.6-0.2,0.9-0.3c0.3-0.1,0.5-0.3,0.7-0.5c0.2-0.2,0.3-0.4,0.3-0.7c0-0.2,0-0.4,0-0.6
				c0-0.1-0.1-0.3-0.1-0.4c-0.1-0.2-0.2-0.3-0.3-0.3c-0.1-0.1-0.3-0.1-0.5-0.1c-0.1,0-0.2,0-0.3,0.1c-0.1,0-0.2,0.1-0.4,0.2
				c-0.1,0.1-0.2,0.2-0.3,0.4c-0.1,0.2-0.1,0.4-0.1,0.6c0,0.2,0,0.3,0.1,0.4c0,0.1,0.1,0.2,0.1,0.2c0,0,0.1,0.1,0.1,0.1
				c0,0.1-0.1,0.3-0.3,0.4c-0.2,0.2-0.4,0.2-0.8,0.2c-0.4,0-0.7-0.1-1-0.3c-0.3-0.2-0.4-0.5-0.4-0.8c0-0.5,0.3-1,0.9-1.3
				c0.6-0.3,1.4-0.5,2.3-0.5c0.5,0,0.9,0,1.3,0.1c0.4,0.1,0.7,0.2,1,0.3c0.3,0.1,0.5,0.3,0.7,0.4c0.2,0.2,0.3,0.3,0.4,0.5
				c0.1,0.2,0.2,0.4,0.2,0.6c0,0.2,0.1,0.4,0.1,0.6C94.9,7.2,94.9,8.6,94.9,10.3L94.9,10.3z M90.7,10.6c0.5,0,0.9-0.4,1.5-1.2
				c0-0.3,0-0.8,0-1.5c0-0.7,0-1.1,0-1.4c-0.1,0.2-0.3,0.4-0.6,0.6c-0.3,0.2-0.5,0.4-0.7,0.6c-0.2,0.2-0.4,0.4-0.6,0.8
				C90.1,8.8,90,9.1,90,9.6c0,0.4,0.1,0.6,0.2,0.8C90.4,10.5,90.6,10.6,90.7,10.6L90.7,10.6z M101.1,10.6c0,0,0,0.1,0,0.2
				c0,0.1-0.1,0.2-0.2,0.2c-0.1,0.1-0.2,0.2-0.3,0.3c-0.1,0.1-0.3,0.2-0.5,0.2c-0.2,0.1-0.4,0.1-0.6,0.1c-0.5,0-1-0.1-1.5-0.3
				c-0.5-0.2-0.8-0.5-1.1-0.9c-0.3-0.4-0.4-0.8-0.4-1.3V4.2h-1V3.7c0.4-0.1,0.9-0.3,1.3-0.5c0.4-0.2,0.7-0.5,1-0.8
				c0.3-0.3,0.5-0.6,0.7-0.9c0.2-0.3,0.3-0.6,0.4-0.8c0.2,0.1,0.3,0.2,0.3,0.2v2.8h2v0.5h-2v5c0,0.3,0,0.6,0.1,0.8
				c0.1,0.2,0.2,0.4,0.3,0.4c0.1,0.1,0.2,0.2,0.4,0.2c0.1,0,0.3,0.1,0.4,0c0.1,0,0.3,0,0.4,0c0.1,0,0.2,0,0.3,0
				C101,10.5,101.1,10.5,101.1,10.6L101.1,10.6z M106.4,10.5c0.4,0,0.8-0.1,1.2-0.4c0.4-0.3,0.6-0.6,0.7-1.1h0.4
				c-0.4,1.7-1.6,2.5-3.5,2.5c-0.6,0-1.1-0.1-1.5-0.3c-0.5-0.2-0.8-0.4-1.1-0.7c-0.3-0.3-0.5-0.6-0.7-0.9c-0.2-0.3-0.3-0.7-0.4-1
				c-0.1-0.3-0.1-0.6-0.1-0.9c0-0.4,0-0.7,0.1-1.1c0.1-0.4,0.2-0.7,0.4-1.1c0.2-0.4,0.4-0.7,0.7-1c0.3-0.3,0.7-0.5,1.1-0.7
				c0.5-0.2,1-0.3,1.6-0.3c0.4,0,0.8,0.1,1.2,0.2c0.4,0.1,0.7,0.3,0.9,0.5c0.2,0.2,0.4,0.4,0.6,0.7c0.2,0.3,0.3,0.5,0.4,0.8
				c0.1,0.2,0.1,0.5,0.2,0.7c0,0.3,0.1,0.4,0.1,0.6c0,0.1,0,0.2,0,0.3h-4.5c0.1,0.9,0.4,1.6,0.8,2.2
				C105.4,10.2,105.9,10.5,106.4,10.5z M104.2,6.5c0,0.1,0,0.3,0,0.5h2.2c0-0.4,0-0.8,0-1.2c0-0.4-0.1-0.7-0.2-0.9
				c-0.1-0.2-0.2-0.4-0.3-0.6c-0.1-0.1-0.2-0.2-0.3-0.2c-0.3,0-0.5,0.1-0.7,0.4c-0.2,0.3-0.3,0.6-0.4,1
				C104.2,5.9,104.2,6.2,104.2,6.5L104.2,6.5z"/>
			<path d="M13,25.9h4.7v1.4h-0.2c0-0.1,0-0.2-0.1-0.3c-0.1-0.1-0.1-0.2-0.2-0.3c-0.1-0.1-0.2-0.2-0.4-0.3c-0.2-0.1-0.4-0.1-0.6-0.1
				v5c0,0.1,0,0.2,0.1,0.3s0.1,0.1,0.3,0.1V32h-2.1v-0.2c0.1,0,0.2,0,0.3-0.1c0.1-0.1,0.1-0.2,0.1-0.3v-5c-0.2,0-0.5,0-0.6,0.1
				c-0.2,0.1-0.3,0.2-0.4,0.3c-0.1,0.1-0.2,0.2-0.2,0.3c-0.1,0.1-0.1,0.2-0.1,0.3H13V25.9z M23.9,25.9h2.1v0.2c-0.1,0-0.2,0-0.3,0.1
				c-0.1,0.1-0.1,0.2-0.1,0.3v4.7c0,0.1,0,0.2,0.1,0.3s0.1,0.1,0.3,0.1V32h-2.1v-0.2c0.1,0,0.2,0,0.3-0.1c0.1-0.1,0.1-0.2,0.1-0.3
				v-2.2h-1.5v2.1c0,0.1,0,0.2,0.1,0.3s0.1,0.1,0.3,0.1V32H21v-0.2c0.1,0,0.2,0,0.3-0.1c0.1-0.1,0.1-0.2,0.1-0.3v-4.8
				c0-0.1,0-0.2-0.1-0.3c-0.1-0.1-0.1-0.1-0.3-0.1v-0.2h2.1v0.2c-0.1,0-0.2,0-0.3,0.1c-0.1,0.1-0.1,0.2-0.1,0.3v2.2h1.5v-2.2
				c0-0.1,0-0.2-0.1-0.3c-0.1-0.1-0.1-0.1-0.3-0.1V25.9L23.9,25.9z M29.4,25.9h4.7v1.4h-0.2c0-0.2-0.1-0.4-0.3-0.6
				c-0.2-0.2-0.4-0.3-0.6-0.3h-1.8v2h1.1c0.2,0,0.4-0.1,0.4-0.4h0.2v1.2h-0.2c0-0.3-0.1-0.4-0.4-0.4h-1.1v2.5v0.2H33
				c0.2,0,0.4-0.1,0.6-0.3c0.2-0.2,0.3-0.4,0.3-0.6h0.2V32h-4.7v-0.2c0.1,0,0.2,0,0.3-0.1c0.1-0.1,0.1-0.2,0.1-0.3v-4.8
				c0-0.1,0-0.2-0.1-0.3c-0.1-0.1-0.1-0.1-0.3-0.1V25.9L29.4,25.9z M47.2,25.9h1.2v0.2c-0.1,0-0.2,0-0.3,0.1
				c-0.1,0.1-0.1,0.2-0.2,0.3L46.5,32H45l-0.8-2.8L43.5,32H42l-1.5-5.5c-0.1-0.2-0.1-0.3-0.3-0.3h-0.1v-0.2h2.1v0.2h-0.1
				c-0.1,0-0.1,0-0.1,0.1c0,0.1,0,0.1,0,0.2l1.3,4.6l0.8-2.8l-0.5-1.9c-0.1-0.2-0.1-0.3-0.3-0.3h-0.1v-0.2h2.1v0.2h-0.1
				c-0.1,0-0.1,0-0.1,0.1c0,0.1,0,0.1,0,0.2l1.3,4.6l1.2-4.6c0-0.1,0-0.2,0-0.2c0-0.1-0.1-0.1-0.2-0.1h-0.1V25.9z M51.6,25.9h4.7
				v1.4h-0.2c0-0.2-0.1-0.4-0.3-0.6c-0.2-0.2-0.4-0.3-0.6-0.3h-1.8v2h1.1c0.3,0,0.4-0.1,0.4-0.4h0.2v1.2h-0.2c0-0.3-0.1-0.4-0.4-0.4
				h-1.1v2.5v0.2h1.8c0.2,0,0.4-0.1,0.6-0.3c0.2-0.2,0.3-0.4,0.3-0.6h0.2V32h-4.7v-0.2c0.1,0,0.2,0,0.3-0.1c0.1-0.1,0.1-0.2,0.1-0.3
				v-4.8c0-0.1,0-0.2-0.1-0.3c-0.1-0.1-0.1-0.1-0.3-0.1V25.9L51.6,25.9z M62.2,25.9c0.7,0,1.2,0.3,1.6,0.8c0.4,0.5,0.6,1.3,0.6,2.2
				c0,1-0.2,1.7-0.6,2.2c-0.4,0.5-0.9,0.8-1.6,0.8h-2.6v-0.2c0.2,0,0.3-0.1,0.3-0.4v-4.8c0-0.1,0-0.2-0.1-0.3
				c-0.1-0.1-0.1-0.1-0.3-0.1v-0.2H62.2L62.2,25.9z M61.9,31.7c0.2,0,0.3-0.1,0.5-0.4c0.2-0.3,0.3-0.6,0.4-1.1
				c0.1-0.4,0.1-0.9,0.1-1.3c0-0.5,0-0.9-0.1-1.4c-0.1-0.4-0.2-0.8-0.4-1c-0.2-0.3-0.3-0.4-0.5-0.4h-0.4v5.6H61.9L61.9,31.7z
				 M70.3,25.9c0.7,0,1.2,0.3,1.6,0.8c0.4,0.5,0.6,1.3,0.6,2.2c0,1-0.2,1.7-0.6,2.2C71.5,31.7,71,32,70.3,32h-2.6v-0.2
				c0.2,0,0.3-0.1,0.3-0.4v-4.8c0-0.1,0-0.2-0.1-0.3c-0.1-0.1-0.1-0.1-0.3-0.1v-0.2H70.3L70.3,25.9z M70,31.7c0.2,0,0.3-0.1,0.5-0.4
				c0.2-0.3,0.3-0.6,0.4-1.1c0.1-0.4,0.1-0.9,0.1-1.3c0-0.5,0-0.9-0.1-1.4c-0.1-0.4-0.2-0.8-0.4-1c-0.2-0.3-0.3-0.4-0.5-0.4h-0.4
				v5.6H70L70,31.7z M75.8,25.9h2.1v0.2c-0.1,0-0.2,0-0.3,0.1c-0.1,0.1-0.1,0.2-0.1,0.3v4.7c0,0.1,0,0.2,0.1,0.3
				c0.1,0.1,0.1,0.1,0.3,0.1V32h-2.1v-0.2c0.1,0,0.2,0,0.3-0.1c0.1-0.1,0.1-0.2,0.1-0.3v-4.8c0-0.1,0-0.2-0.1-0.3
				c-0.1-0.1-0.1-0.1-0.3-0.1V25.9L75.8,25.9z M85.2,26.2v-0.2h1.2v0.2c-0.1,0-0.2,0-0.3,0.1C86,26.4,86,26.4,86,26.5V32h-1.5
				c-0.3-0.5-0.7-1.4-1.4-2.7c-0.6-1.2-1-1.9-1.1-2.1v4.2c0,0.1,0,0.2,0.1,0.3c0.1,0.1,0.2,0.1,0.3,0.1V32h-1.2v-0.2
				c0.1,0,0.2,0,0.3-0.1c0.1-0.1,0.1-0.2,0.1-0.3v-4.8c0-0.2-0.1-0.4-0.4-0.4v-0.2h1.8c0.1,0.3,0.5,1,1.1,2.2c0.6,1.2,1,2,1.3,2.6
				v-4.2c0-0.1,0-0.2-0.1-0.3C85.4,26.2,85.3,26.2,85.2,26.2L85.2,26.2z M93.3,28.8h1.1v0.2c-0.1,0-0.2,0-0.3,0.1
				c-0.1,0.1-0.1,0.2-0.1,0.3v2.1c-0.1,0-0.2,0-0.3,0c-0.1,0-0.2,0.1-0.3,0.1c-0.1,0.1-0.3,0.1-0.5,0.2c-0.2,0-0.4,0.1-0.6,0.1
				c-0.4,0-0.8-0.1-1.1-0.2c-0.3-0.1-0.6-0.4-0.8-0.6c-0.2-0.3-0.4-0.6-0.5-0.9c-0.1-0.3-0.2-0.7-0.2-1.1c0-0.4,0.1-0.8,0.2-1.2
				c0.1-0.4,0.3-0.7,0.5-1c0.2-0.3,0.5-0.5,0.8-0.7c0.3-0.2,0.7-0.3,1.1-0.3c0.3,0,0.6,0.1,0.9,0.2c0.3,0.2,0.5,0.3,0.6,0.6
				c0.2,0.2,0.2,0.4,0.2,0.7c0,0.2-0.1,0.4-0.2,0.5c-0.1,0.1-0.3,0.2-0.5,0.2c-0.2,0-0.3,0-0.4-0.1c-0.1-0.1-0.2-0.2-0.2-0.2
				c0,0,0,0,0,0c0,0,0-0.1,0.1-0.1c0-0.1,0-0.1,0-0.3c0-0.3-0.1-0.6-0.2-0.8c-0.1-0.2-0.3-0.3-0.4-0.3c-0.1,0-0.2,0-0.3,0.1
				c-0.1,0-0.2,0.1-0.3,0.2c-0.1,0.1-0.2,0.3-0.3,0.4c-0.1,0.2-0.1,0.4-0.2,0.7c0,0.3-0.1,0.6-0.1,1c0,0.5,0.1,1,0.2,1.5
				c0.1,0.5,0.2,0.9,0.4,1.2c0.2,0.3,0.3,0.4,0.5,0.4c0.1,0,0.3-0.1,0.3-0.3c0.1-0.2,0.1-0.4,0.1-0.7c0-0.1,0-0.4,0-0.7
				c0-0.3,0-0.5,0-0.7c0-0.1,0-0.2-0.1-0.3c-0.1-0.1-0.1-0.1-0.3-0.1v-0.2L93.3,28.8L93.3,28.8z M102.7,25.9c0.4,0,0.8,0.1,1.2,0.4
				c0.4,0.3,0.7,0.7,0.9,1.1c0.2,0.5,0.3,0.9,0.3,1.4c0,0.9-0.2,1.7-0.6,2.2c-0.4,0.6-1,0.9-1.7,0.9c-0.7,0-1.3-0.3-1.7-0.8
				c-0.4-0.5-0.6-1.2-0.6-2.1c0-0.6,0.1-1.1,0.3-1.6c0.2-0.5,0.5-0.9,0.8-1.2C101.9,26.1,102.3,25.9,102.7,25.9L102.7,25.9z
				 M102.3,31.3c0.1,0.3,0.3,0.4,0.4,0.4c0.2,0,0.3-0.1,0.4-0.4c0.1-0.3,0.2-0.6,0.3-1c0.1-0.4,0.1-0.8,0.1-1.3c0-0.5,0-1-0.1-1.4
				c-0.1-0.4-0.2-0.8-0.3-1.1c-0.1-0.3-0.3-0.4-0.5-0.4c-0.1,0-0.2,0.1-0.3,0.2c-0.1,0.1-0.2,0.3-0.3,0.5c-0.1,0.2-0.2,0.5-0.2,0.9
				c-0.1,0.4-0.1,0.8-0.1,1.2c0,0.4,0,0.9,0.1,1.3C102.1,30.7,102.2,31.1,102.3,31.3L102.3,31.3z M108.4,25.9h4.7v1.4h-0.2
				c0-0.2-0.1-0.4-0.3-0.6c-0.2-0.2-0.4-0.3-0.6-0.3h-1.8v2.2h1.1c0.2,0,0.4-0.1,0.4-0.4h0.2v1.2h-0.2c0-0.3-0.1-0.4-0.4-0.4h-1.1
				v2.4c0,0.1,0,0.2,0.1,0.3c0.1,0.1,0.1,0.1,0.3,0.1V32h-2.1v-0.2c0.1,0,0.2,0,0.3-0.1c0.1-0.1,0.1-0.2,0.1-0.3v-4.8
				c0-0.1,0-0.2-0.1-0.3c-0.1-0.1-0.1-0.1-0.3-0.1V25.9L108.4,25.9z"/>
			<path d="M0,18.7c17.8-0.8,45-0.4,63.1-0.5c18.2,0.1,45.2-0.3,63.1,0.5c-17.8,0.8-45,0.4-63.1,0.5C44.9,19.1,17.9,19.5,0,18.7
				L0,18.7z"/>
		</g>
	</g>
</g>
</svg>
