<?xml version="1.0" encoding="UTF-8"?>
<!DOCTYPE svg PUBLIC "-//W3C//DTD SVG 1.1//EN" "http://www.w3.org/Graphics/SVG/1.1/DTD/svg11.dtd">
<!-- Creator: CorelDRAW -->
<svg xmlns="http://www.w3.org/2000/svg" xml:space="preserve" width="48mm" height="19mm" version="1.1" style="shape-rendering:geometricPrecision; text-rendering:geometricPrecision; image-rendering:optimizeQuality; fill-rule:evenodd; clip-rule:evenodd"
viewBox="0 0 4800 1900"
 xmlns:xlink="http://www.w3.org/1999/xlink"
 xmlns:xodm="http://www.corel.com/coreldraw/odm/2003"
 data-name="Layer 2">
 <defs>
  <style type="text/css">
   <![CDATA[
    .fil0 {fill:#0A0A0A;fill-rule:nonzero}
   ]]>
  </style>
 </defs>
 <g id="Layer_x0020_1">
  <metadata id="CorelCorpID_0Corel-Layer"/>
  <g id="_2181514326800">
   <g id="Layer_1-2" data-name="Layer 1">
    <g>
     <g>
      <path class="fil0" d="M1878.08 449.66l3.7 0 0 10.05 -55.83 0c-42.86,0 -73.29,-24.34 -91.55,-73.03l-50.27 -133.88 -124.35 0.01 -45.77 157.43c-7.67,26.19 5.29,39.42 38.63,39.42l5.82 0 0 10.05 -99.75 0 0 -10.05 9.53 0c9.79,0 17.2,-3.44 22.23,-10.05 5.03,-6.88 9.26,-16.4 12.7,-29.1l100.28 -345.55c2.91,-10.05 0,-19.31 -9,-27.25 -9,-7.94 -18.79,-12.17 -29.9,-12.17l-5.82 -0.01 0 -10.32 79.37 0c29.63,0 51.33,18.79 65.35,56.62l129.65 346.6c3.7,9.79 9.53,17.46 17.46,22.75 7.94,5.56 16.93,8.2 26.99,8.2l0.53 0.28zm-315.65 -206.9l118 0 -66.68 -177.8 -51.33 177.8 0.01 0z"/>
      <path class="fil0" d="M1898.19 459.71l0 -10.05 5.82 0c10.58,0 19.58,-3.7 27.25,-11.38 7.67,-7.68 11.38,-16.93 11.38,-28.05l0 -345.54c0,-11.11 -3.44,-20.37 -10.58,-28.05 -6.88,-7.67 -15.88,-11.38 -26.46,-11.38l-5.83 0.01 0 -10.06 56.62 0c20.37,0 36.78,5.82 49.21,17.46 12.44,11.64 26.46,30.16 41.54,55.56l194.2 320.68 0.01 -344.22c0,-11.11 -3.7,-20.37 -11.38,-28.05 -7.67,-7.67 -16.93,-11.38 -28.05,-11.38l-5.81 0.01 0 -10.06 99.74 0 0 10.05 -5.82 0.01c-10.58,0 -19.58,3.7 -27.25,11.38 -7.67,7.67 -11.38,16.93 -11.38,28.05l0 345.55c0,11.11 3.7,20.37 11.38,28.05 7.67,7.67 16.67,11.38 27.25,11.38l5.82 -0.02 0 10.05 -79.37 0c-13.49,0 -24.87,-4.5 -33.87,-13.23 -9,-9 -19.58,-23.28 -31.49,-43.13l-198.17 -327.55 0 334.7c0,11.11 3.7,20.37 11.38,28.05 7.68,7.68 16.67,11.38 27.25,11.38l5.82 0 0 10.05 -99.74 0 0.53 -0.27z"/>
      <path class="fil0" d="M2329.99 459.71l0 -10.05 5.82 0c10.58,0 19.58,-3.7 27.25,-11.38 7.67,-7.68 11.38,-16.93 11.38,-28.05l0 -345.54c0,-11.11 -3.7,-20.37 -11.38,-28.05 -7.68,-7.68 -16.67,-11.38 -27.25,-11.38l-5.82 0.01 0 -10.06 178.32 0 0 10.05 -5.82 0.01c-11.11,0 -20.37,3.7 -28.05,11.38 -7.67,7.67 -11.38,16.93 -11.38,28.05l0 345.55c0,11.11 3.7,20.37 11.38,28.05 7.67,7.67 16.93,11.38 28.05,11.38l5.82 -0.02 0 10.05 -178.32 0z"/>
      <path class="fil0" d="M2846.97 139.57l-3.18 9 -15.34 -7.67 8.99 -21.7c3.7,-11.91 5.29,-22.23 4.5,-31.22 -0.79,-9 -4.5,-16.93 -11.1,-23.81 -6.61,-6.88 -14.02,-12.7 -22.23,-17.46 -8.2,-4.76 -17.73,-8.47 -28.58,-11.64 -10.85,-3.18 -20.9,-5.56 -30.16,-6.88 -9.26,-1.59 -18.52,-2.38 -27.25,-2.91 -19.05,-0.79 -35.72,2.12 -50.27,8.47 -14.55,6.35 -24.87,14.82 -31.22,25.14 -6.35,10.05 -8.73,21.7 -6.88,34.66 1.59,12.96 7.94,24.61 19.05,35.19 9.79,9.26 23.28,19.05 41.01,29.63 17.46,10.32 34.93,19.58 52.12,28.05 17.2,8.2 34.93,17.99 53.71,29.1 18.52,11.11 34.93,22.49 48.67,33.6 13.76,11.11 25.14,25.14 33.87,41.54 9,16.4 13.23,34.4 13.23,53.45 -0.53,19.84 -5.56,37.57 -15.35,53.45 -9.79,15.61 -22.23,28.05 -37.84,37.57 -15.34,9.26 -32.27,16.4 -50.53,20.9 -18.26,4.5 -36.51,6.88 -55.3,6.88 -12.17,0 -26.46,-0.79 -42.33,-2.65 -15.88,-1.59 -33.34,-4.5 -52.12,-8.47 -18.79,-3.97 -35.19,-10.05 -49.21,-17.99 -14.02,-7.94 -21.96,-17.46 -24.08,-28.58l-17.73 -84.4 17.75 -0.01 11.38 21.7c34.66,68.53 84.4,103.98 149.23,106.1 22.75,0.79 41.8,-2.91 57.15,-11.11 15.35,-8.2 25.14,-18.52 29.9,-31.22 4.76,-12.44 5.82,-25.93 3.18,-40.22 -2.65,-14.29 -8.73,-27.78 -18.52,-39.95 -9,-11.11 -21.7,-22.23 -38.63,-33.34 -16.93,-11.11 -34.4,-21.17 -52.39,-29.63 -17.99,-8.47 -36.51,-18.26 -55.83,-29.1 -19.31,-11.11 -36.25,-21.96 -51.06,-32.81 -14.82,-10.85 -26.99,-23.81 -36.78,-39.16 -9.79,-15.35 -14.55,-31.49 -14.55,-48.95 0,-17.46 5.29,-34.4 15.88,-48.15 10.58,-14.02 24.61,-24.61 41.8,-31.75 17.19,-7.14 35.19,-12.44 53.45,-15.88 18.26,-3.44 37.04,-5.03 56.62,-5.03 21.17,0 42.07,2.12 62.97,6.61 20.64,4.5 36.51,8.47 47.1,12.17 10.57,3.7 21.42,4.5 32.27,2.91 11.11,-1.59 20.9,-7.94 29.9,-18.52l15.85 0c-1.32,2.12 -6.35,11.38 -14.82,28.05 -8.73,16.4 -14.82,28.31 -18.52,35.45 -3.7,7.14 -8.47,16.93 -14.29,29.63 -5.82,12.44 -10.32,23.02 -13.23,31.49l-0.26 -0.53z"/>
      <path class="fil0" d="M3328.25 449.66l3.7 0 0 10.05 -55.82 0c-42.86,0 -73.29,-24.34 -91.55,-73.03l-50.27 -133.88 -124.36 0.01 -45.77 157.43c-7.67,26.19 5.29,39.42 38.63,39.42l5.82 0 0 10.05 -99.75 0 0 -10.05 9.53 0c9.79,0 17.2,-3.44 22.23,-10.05 5.03,-6.88 9.26,-16.4 12.7,-29.1l100.28 -345.55c2.91,-10.05 0,-19.31 -9,-27.25 -9,-7.94 -18.79,-12.17 -29.9,-12.17l-5.82 -0.01 0 -10.32 79.37 0c29.63,0 51.33,18.79 65.35,56.62l129.65 346.6c3.7,9.79 9.53,17.46 17.46,22.75 7.94,5.56 16.93,8.2 26.99,8.2l0.53 0.28zm-315.65 -206.9l118 0 -66.68 -177.8 -51.33 177.8 0.01 0z"/>
     </g>
     <path class="fil0" d="M2484.24 988.08c12.96,29.63 17.2,55.03 12.44,76.73 -4.76,21.43 -16.93,38.36 -37.04,50.54 -20.11,12.18 -45.51,18.26 -76.73,18.26 -37.31,0 -69.32,-7.14 -95.78,-21.7 -26.46,-14.55 -42.07,-35.19 -46.57,-61.91 -2.38,-12.44 -1.59,-24.87 2.65,-37.31 4.23,-12.44 10.85,-24.08 19.84,-34.93 9,-10.58 18.79,-20.37 29.37,-28.83 10.58,-8.47 22.23,-16.4 34.93,-23.81 -19.31,-7.14 -34.93,-18.26 -47.1,-33.34 -12.17,-14.82 -16.67,-30.69 -14.02,-47.63 2.12,-11.64 7.41,-21.7 16.4,-30.16 8.73,-8.2 19.58,-14.29 32.28,-18.26 12.7,-3.97 25.4,-6.61 37.84,-8.47 12.44,-1.59 25.4,-2.38 38.89,-2.12 41.8,0.53 73.29,9.53 94.46,27.25 16.93,14.29 20.9,28.84 11.64,44.45 -9.53,16.4 -32.28,29.1 -67.73,38.36 12.7,-7.41 21.96,-15.88 27.78,-25.4 5.82,-9.52 7.94,-18.26 6.61,-26.72 -1.59,-8.47 -5.29,-16.4 -11.64,-23.55 -6.09,-7.14 -15.08,-12.96 -26.46,-17.46 -11.38,-4.23 -24.08,-6.61 -38.1,-6.61 -14.02,0 -27.52,2.91 -39.16,8.47 -11.64,5.82 -20.11,12.96 -25.66,21.7 -5.56,8.73 -7.41,18.79 -5.82,29.9 1.59,11.11 7.14,21.43 17.2,31.22 4.5,4.5 9.26,8.47 14.02,11.64 4.76,3.44 10.05,6.09 15.61,8.2 5.56,2.12 10.32,3.7 14.29,5.03 3.97,1.32 9.26,2.12 16.14,2.38 6.88,0.53 11.38,0.79 14.02,0.79 2.65,0 7.67,0 15.35,0 7.67,0 12.17,0 13.23,0 -9.79,4.23 -16.14,7.14 -19.58,8.47 -3.44,1.33 -10.58,4.76 -21.43,9.79 -10.85,5.03 -19.31,9.53 -25.66,13.76 -6.09,4.23 -13.76,9.25 -22.49,15.34 -9,6.09 -16.4,12.7 -22.75,19.58 -6.35,6.88 -11.64,14.55 -15.88,22.49 -5.82,10.05 -8.73,20.64 -9.26,31.75 -0.53,11.11 1.32,21.7 5.56,31.49 3.97,9.79 9.79,18.79 16.93,27.25 7.14,8.46 16.14,14.82 26.99,19.84 10.58,5.03 21.96,7.67 33.6,8.47 23.28,0.79 43.39,-3.44 60.85,-12.7 17.46,-9.26 29.1,-23.55 35.45,-42.33 6.35,-18.78 2.65,-42.6 -10.85,-71.17 -1.32,0.53 -5.56,3.18 -13.23,7.94 -7.67,4.76 -12.96,7.94 -16.4,9.79 -8.47,4.76 -15.35,9 -20.9,12.96 -5.56,3.7 -11.38,8.47 -17.2,14.02 -5.82,5.56 -10.05,10.85 -12.7,16.14 -2.65,5.03 -3.7,11.11 -3.44,17.73 0.26,6.88 2.65,13.76 7.14,20.64 -10.58,-3.44 -19.31,-9.53 -26.46,-19.05 -7.14,-9.26 -10.05,-18.79 -9.26,-28.58 0.53,-5.56 2.65,-11.11 6.35,-16.67 3.7,-5.82 7.67,-10.58 11.91,-14.82 4.5,-4.23 10.32,-9 17.73,-14.02 7.41,-5.03 13.49,-9 18.52,-11.91 5.03,-2.91 11.64,-6.61 19.84,-11.38 8.2,-4.76 14.02,-7.67 16.93,-9.26 1.59,-0.79 3.97,-2.38 7.14,-3.97 6.09,-3.7 10.85,-6.35 14.29,-8.47 3.44,-2.12 8.47,-5.28 14.82,-9.25 6.35,-3.97 11.11,-7.67 14.82,-10.58 3.44,-2.91 7.41,-6.88 11.91,-11.38 4.5,-4.5 7.41,-8.73 8.73,-12.7 1.32,-3.97 2.12,-8.2 2.38,-12.7 0.26,-4.5 -1.06,-9 -3.97,-13.49 -2.91,-4.5 -6.88,-9 -12.44,-13.49 16.93,5.56 29.1,12.17 36.51,20.11 7.41,7.94 10.32,16.14 8.73,24.61 -1.59,8.47 -5.56,17.2 -12.17,26.19 -6.61,9 -14.82,17.19 -24.34,24.33 -9.53,7.14 -19.84,13.49 -30.43,18.52l0.53 0z"/>
     <g>
      <path class="fil0" d="M605.18 1890.84l5.82 0c10.58,0 19.58,-3.7 27.25,-11.38 7.67,-7.68 11.38,-16.93 11.38,-28.05l0 -345.55c0,-11.11 -3.7,-20.37 -11.38,-28.05 -7.68,-7.68 -16.67,-11.38 -27.25,-11.38l-5.82 0.01 0 -10.05 229.13 0c22.49,0 43.39,5.03 62.44,14.82 19.05,9.79 34.66,24.34 46.04,42.86 11.1,18.52 16.39,38.89 16.39,60.85 0,21.96 -5.56,42.6 -16.39,61.65 -17.46,28.31 -45.77,45.77 -85.2,52.12 42.33,0 72.5,24.34 90.22,73.03l25.39 69.32c0,0 0.79,2.38 1.32,4.5 5.56,14.82 9.53,25.4 12.44,31.49 2.65,6.09 6.35,11.64 10.58,16.4 4.23,4.76 9.26,7.41 15.35,7.41l5.82 0 0 10.05 -57.68 0c-29.09,0 -51.05,-18.79 -65.34,-56.62l-26.72 -68.53c-0.79,-2.12 -1.85,-5.03 -3.18,-9 -4.23,-10.05 -7.41,-17.73 -9.26,-22.75 -1.85,-5.03 -4.76,-11.38 -9,-19.05 -4.24,-7.67 -7.94,-13.23 -11.38,-16.93 -3.7,-3.7 -7.94,-6.88 -13.23,-9.79 -5.29,-2.91 -11.11,-4.5 -17.46,-4.5l-66.67 0 0 157.43c0,11.11 3.7,20.37 11.38,28.05 7.67,7.67 16.93,11.38 28.05,11.38l5.82 -0.01 0 10.05 -178.33 0.01 0 -10.05 -0.53 0.26zm205.05 -424.13l-32.28 0c-11.11,0 -20.37,3.7 -28.05,11.38 -7.67,7.67 -11.38,16.93 -11.38,28.05l0 177.8 71.71 -0.01c15.61,0 29.37,-5.29 41.28,-16.14 11.91,-10.85 20.37,-24.34 25.4,-40.22 5.03,-16.14 7.67,-33.34 7.67,-52.12 0,-18.78 -2.65,-35.98 -7.67,-52.12 -5.02,-16.14 -13.49,-29.63 -25.4,-40.22 -11.91,-10.85 -25.66,-16.14 -41.28,-16.14l0 -0.26z"/>
      <path class="fil0" d="M1443.9 1890.84l3.7 0 0 10.05 -55.83 0c-42.86,0 -73.29,-24.34 -91.55,-73.03l-50.27 -133.88 -124.35 0.01 -45.77 157.43c-7.67,26.19 5.29,39.42 38.63,39.42l5.82 0 0 10.05 -99.75 0 0 -10.05 9.53 0c9.79,0 17.2,-3.44 22.23,-10.05 5.03,-6.88 9.26,-16.4 12.7,-29.1l100.28 -345.55c2.91,-10.05 0,-19.31 -9,-27.25 -9,-7.94 -18.79,-12.17 -29.9,-12.17l-5.83 -0.01 0 -10.05 79.38 -0.01c29.63,0 51.33,18.79 65.35,56.62l129.65 346.6c3.7,9.79 9.53,17.46 17.46,22.75 7.94,5.56 16.93,8.2 26.99,8.2l0.53 0.02zm-315.65 -206.91l118 0 -66.68 -177.8 -51.33 177.8 0.01 0z"/>
      <path class="fil0" d="M1464.27 1900.89l0 -10.05 5.82 0c10.58,0 19.58,-3.7 27.25,-11.38 7.67,-7.68 11.38,-16.93 11.38,-28.05l0 -345.55c0,-9.79 -4.23,-18.79 -12.44,-26.99 -8.2,-8.2 -16.93,-12.44 -26.46,-12.44l-5.82 0.01 0 -10.05 52.13 0c21.7,0 39.42,6.35 53.71,19.05 14.29,12.7 26.46,30.69 37.04,53.98l118 258.5 120.65 -331.52 123.3 -0.01 0 10.05 -5.82 0c-10.58,0 -19.84,3.7 -27.52,11.38 -7.68,7.68 -11.64,16.93 -11.64,28.05l0 345.55c0,11.11 3.97,20.37 11.64,28.05 7.67,7.68 16.93,11.38 27.52,11.38l5.82 -0.01 0 10.05 -178.33 0 0 -10.05 5.82 0c10.58,0 19.58,-3.7 27.25,-11.38 7.67,-7.68 11.38,-16.93 11.38,-28.05l0 -336.55 -136 375.97 -11.37 0.01 -168.28 -372 0 332.85c0,11.11 3.7,20.37 11.38,28.05 7.68,7.68 16.67,11.38 27.25,11.38l5.82 -0.02 0 10.05 -99.75 0 0.27 -0.26z"/>
      <path class="fil0" d="M2405.39 1890.84l3.71 0 0 10.05 -55.83 0c-42.86,0 -73.29,-24.34 -91.55,-73.03l-50.27 -133.88 -124.35 0.01 -45.77 157.43c-7.67,26.19 5.29,39.42 38.63,39.42l5.82 0 0 10.05 -99.75 0 0 -10.05 9.52 0c9.79,0 17.2,-3.44 22.23,-10.05 5.03,-6.88 9.26,-16.4 12.7,-29.1l100.28 -345.55c2.91,-10.05 0,-19.31 -9,-27.25 -9,-7.94 -18.79,-12.17 -29.9,-12.17l-5.82 -0.01 0 -10.05 79.37 -0.01c29.63,0 51.33,18.79 65.35,56.62l129.65 346.6c3.7,9.79 9.53,17.46 17.46,22.75 7.94,5.56 16.93,8.2 26.99,8.2l0.53 0.02zm-315.65 -206.91l118.01 0 -66.68 -177.8 -51.33 177.8z"/>
      <path class="fil0" d="M2604.09 1900.89l-178.33 0 0 -10.05 5.83 0c10.58,0 19.58,-3.7 27.25,-11.38 7.67,-7.68 11.38,-16.93 11.38,-28.05l0 -345.55c0,-11.11 -3.7,-20.37 -11.38,-28.05 -7.68,-7.68 -16.67,-11.38 -27.25,-11.38l-5.83 0.01 0 -10.05 178.33 0c34.4,0 65.62,6.35 93.66,19.05 28.05,12.7 50.8,29.63 68,50.54 17.2,20.91 30.43,44.71 39.95,71.17 9.53,26.46 14.29,53.71 14.55,81.49 0,28.05 -4.23,55.03 -13.76,81.49 -9.53,26.46 -22.75,50.27 -39.95,71.17 -17.46,20.9 -40.22,37.84 -68.26,50.54 -28.05,12.7 -59.53,19.05 -94.19,19.05zm0 -434.45l-5.82 0c-11.11,0 -20.37,3.7 -28.05,11.38 -7.67,7.67 -11.38,16.93 -11.38,28.05l0 345.55c0,11.11 3.7,20.37 11.38,28.05 7.67,7.67 16.93,11.38 28.05,11.38l5.82 -0.01c21.17,0 40.48,-6.09 57.68,-18.52 17.46,-12.17 31.22,-28.31 41.8,-47.89 10.58,-19.58 18.79,-42.33 24.34,-67.73 5.82,-25.4 8.47,-51.33 8.47,-78.05 0,-26.72 -2.91,-52.65 -8.47,-78.05 -5.56,-25.4 -13.76,-47.89 -24.34,-67.73 -10.58,-19.58 -24.61,-35.72 -41.8,-47.89 -17.46,-12.17 -36.51,-18.52 -57.68,-18.52l0 -0.02z"/>
      <path class="fil0" d="M2847.24 1900.89l0 -10.05 5.82 0c10.58,0 19.58,-3.7 27.25,-11.38 7.67,-7.68 11.38,-16.93 11.38,-28.05l0 -345.55c0,-11.11 -3.7,-20.37 -11.38,-28.05 -7.68,-7.68 -16.67,-11.38 -27.25,-11.38l-5.82 0.01 0 -10.05 178.33 0 0 10.05 -5.83 0c-11.11,0 -20.37,3.7 -28.05,11.38 -7.67,7.67 -11.38,16.93 -11.38,28.05l0 177.8 216.44 0 0 -177.8c0,-11.11 -3.7,-20.37 -11.38,-28.05 -7.68,-7.68 -16.67,-11.38 -27.25,-11.38l-5.82 0 0 -10.05 178.33 0 0 10.05 -5.82 0c-11.11,0 -20.37,3.7 -28.05,11.38 -7.68,7.68 -11.38,16.93 -11.38,28.05l0 345.55c0,11.11 3.7,20.37 11.38,28.05 7.68,7.68 16.93,11.38 28.05,11.38l5.82 -0.01 0 10.05 -178.33 0 0 -10.05 5.82 0c10.58,0 19.58,-3.7 27.25,-11.38 7.67,-7.68 11.38,-16.93 11.38,-28.05l0 -157.43 -216.43 0.01 0 157.43c0,11.11 3.7,20.37 11.38,28.05 7.67,7.67 16.93,11.38 28.05,11.38l5.82 -0.01 0 10.05 -178.33 0z"/>
      <path class="fil0" d="M3767.46 1890.84l3.7 0 0 10.05 -55.83 0c-42.86,0 -73.29,-24.34 -91.55,-73.03l-50.27 -133.88 -124.35 0.01 -45.77 157.43c-7.67,26.19 5.29,39.42 38.63,39.42l5.82 0 0 10.05 -99.75 0 0 -10.05 9.53 0c9.79,0 17.2,-3.44 22.23,-10.05 5.03,-6.88 9.26,-16.4 12.7,-29.1l100.28 -345.55c2.91,-10.05 0,-19.31 -9,-27.25 -9,-7.94 -18.79,-12.17 -29.9,-12.17l-5.83 -0.01 0 -10.05 79.38 -0.01c29.63,0 51.33,18.79 65.35,56.62l129.65 346.6c3.7,9.79 9.53,17.46 17.46,22.75 7.94,5.56 16.93,8.2 26.99,8.2l0.53 0.02zm-315.65 -206.91l118 0 -66.68 -177.8 -51.33 177.8 0.01 0z"/>
      <path class="fil0" d="M3787.57 1900.89l0 -10.05 5.82 0c10.58,0 19.58,-3.7 27.25,-11.38 7.67,-7.68 11.38,-16.93 11.38,-28.05l0 -345.55c0,-11.11 -3.44,-20.37 -10.58,-28.05 -6.88,-7.67 -15.88,-11.38 -26.46,-11.38l-5.83 0.01 0 -10.05 56.62 0c20.37,0 36.78,5.82 49.21,17.46 12.44,11.64 26.46,30.16 41.54,55.56l194.2 320.68 0 -344.22c0,-11.11 -3.7,-20.37 -11.38,-28.05 -7.67,-7.67 -16.93,-11.38 -28.05,-11.38l-5.8 0 0 -10.05 99.74 0 0 10.05 -5.82 0c-10.58,0 -19.58,3.7 -27.25,11.38 -7.67,7.67 -11.38,16.93 -11.38,28.05l0 345.55c0,11.11 3.7,20.37 11.38,28.05 7.67,7.67 16.67,11.38 27.25,11.38l5.82 -0.01 0 10.05 -79.37 0c-13.49,0 -24.87,-4.5 -33.87,-13.23 -9,-9 -19.58,-23.28 -31.49,-43.13l-198.17 -327.55 0 334.7c0,11.11 3.7,20.37 11.38,28.05 7.68,7.68 16.67,11.38 27.25,11.38l5.82 -0.01 0 10.05 -99.74 0 0.53 -0.26z"/>
     </g>
     <g>
      <path class="fil0" d="M8.81 959.77c238.39,-22.22 601.4,-10.57 843.76,-13.22 243.41,2.38 604.03,-8.73 843.75,13.22 -238.39,21.96 -601.4,10.85 -843.75,13.23 -243.42,-2.65 -604.04,9 -843.76,-13.23l0 0z"/>
      <path class="fil0" d="M3094.62 959.77c238.39,-22.22 601.4,-10.57 843.76,-13.22 243.42,2.38 604.04,-8.73 843.75,13.22 -238.38,21.96 -601.39,10.85 -843.75,13.23 -243.42,-2.65 -604.04,9 -843.76,-13.23l0 0z"/>
     </g>
    </g>
   </g>
  </g>
 </g>
</svg>
