<?xml version="1.0" encoding="UTF-8"?>
<svg id="Layer_2" data-name="Layer 2" xmlns="http://www.w3.org/2000/svg" xmlns:xlink="http://www.w3.org/1999/xlink" viewBox="0 0 456.94 90.73">
  <defs>
    <style>
      .cls-1 {
        fill: url(#linear-gradient);
      }

      .cls-1, .cls-2 {
        stroke-width: 0px;
      }

      .cls-2 {
        fill: #fff;
      }
    </style>
    <linearGradient id="linear-gradient" x1="191.76" y1="94.47" x2="282.94" y2="3.28" gradientUnits="userSpaceOnUse">
      <stop offset="0" stop-color="#58c2b0"/>
      <stop offset=".32" stop-color="#4685b6"/>
      <stop offset=".72" stop-color="#3cc0c6"/>
      <stop offset="1" stop-color="#199ba0"/>
    </linearGradient>
  </defs>
  <g id="Layer_1-2" data-name="Layer 1">
    <g>
      <g>
        <path class="cls-2" d="m13.59,32.41v.65h8.48v-.65l-.59-.31c-.65-.41-1.25-1.12-1.56-1.81l-7.7-19.82h-3.68v.62l.03.03c.5.59.65,1.4.37,2.12L2.12,30.29c-.25.69-.9,1.4-1.53,1.78l-.59.34v.65h5.02v-.65l-.28-.19c-.56-.47-.75-1.25-.5-1.93l.75-1.84h8.66l.72,1.84c.31.69.06,1.46-.5,1.93l-.28.19Zm-7.82-5.89l3.62-9.1,3.55,9.1h-7.17Z"/>
        <path class="cls-2" d="m31.54,32.41l-.31-.22c-.56-.47-1-1.25-1-1.99v-7.76c.22-2.06,1.28-3.4,2.74-3.4,1.56,0,2.43,1.37,2.43,3.65v7.11c0,2.46,1.25,3.58,3.3,3.58,2.34,0,3.49-1.47,3.49-2.24-.28.44-.75.44-.75.44-.62,0-.87-.31-.87-1.12v-8.07c0-3.46-1.81-5.8-5.14-5.8-2.21,0-4.08,1.06-5.21,2.8v-2.46h-1.28l-5.17.97v.65l.28.22c.62.44,1.03,1.25,1.03,1.99v9.44c0,.75-.41,1.53-1.03,1.99l-.28.22v.65h7.76v-.65Z"/>
        <path class="cls-2" d="m47.93,16.08c1.65,0,2.99-1.34,2.99-2.96s-1.34-2.99-2.99-2.99-2.96,1.37-2.96,2.99,1.34,2.96,2.96,2.96Z"/>
        <path class="cls-2" d="m51.82,32.41l-.31-.22c-.56-.47-1-1.25-1-1.99v-13.28h-1.28l-5.17.97v.65l.28.22c.62.44,1.03,1.25,1.03,1.99v9.44c0,.75-.4,1.53-1.03,1.99l-.28.22v.65h7.76v-.65Z"/>
        <path class="cls-2" d="m60.89,33.37c4.24,0,6.76-1.75,6.76-4.68,0-5.24-8.07-6.05-8.07-8.94,0-.9.81-1.65,2.24-1.65.9,0,1.75.28,1.99.56-.5.37-.81,1.03-.81,1.71,0,1.22.97,2.18,2.21,2.18s2.18-.97,2.18-2.24c0-1.84-2.06-3.74-6.14-3.74s-6.61,1.78-6.61,4.58c0,4.8,8.04,5.8,8.04,8.79,0,1-.84,1.71-2.71,1.71-1.18,0-1.74-.28-2.06-.5.53-.47.9-1.12.9-1.9,0-1.37-1.12-2.49-2.46-2.49s-2.49,1.12-2.49,2.56c0,2.12,2.52,4.05,7.01,4.05Z"/>
        <path class="cls-2" d="m82.89,33.37c2.34,0,3.46-1.47,3.46-2.24-.25.44-.72.44-.72.44-.62,0-.87-.31-.87-1.12v-7.79c0-4.86-3.93-6.08-7.42-6.08-3.93,0-6.27,1.53-6.27,3.68,0,1.43,1.09,2.52,2.46,2.52s2.46-1.09,2.46-2.4c0-.78-.37-1.46-.9-1.9.16-.12.47-.22.9-.22,1.09,0,2.74.69,3.37,2.74-.22,2.59-9.35,1.96-9.35,7.7,0,2.8,2.21,4.68,5.08,4.68,1.87,0,3.55-.81,4.58-2.37.34,1.59,1.53,2.37,3.21,2.37Zm-3.3-6.26c-.19,1.84-1.31,3.05-2.43,3.05-1,0-1.96-.97-1.96-2.52,0-2.68,2.84-3.21,4.39-4.33v3.8Z"/>
        <path class="cls-2" d="m97.54,10.47l-.66,5.14h.66l.22-.41c.84-1.68,2.65-2.8,4.52-2.8h1.4v17.8c0,.75-.44,1.53-1.03,1.99l-.28.22v.65h7.76v-.65l-.28-.22c-.62-.47-1.03-1.25-1.03-1.99V12.4h1.37c1.9,0,3.71,1.12,4.55,2.8l.19.41h.65l-.65-5.14h-17.39Z"/>
        <path class="cls-2" d="m124.24,32.41l-.31-.22c-.56-.47-1-1.25-1-1.99v-9.23c.06-1.09.47-1.59.97-1.68-.16,1.84.72,2.59,1.31,2.93.5.28,1.09.44,1.71.44,1.06,0,2.12-.47,2.74-1.5,1.18-2.12-.31-4.58-3.15-4.58-1.4,0-2.71.62-3.58,1.65v-1.31h-1.28l-5.17.97v.65l.28.22c.62.44,1.03,1.25,1.03,1.99v9.44c0,.75-.4,1.53-1.03,1.99l-.28.22v.65h7.76v-.65Z"/>
        <path class="cls-2" d="m139.57,32.41l-.31-.22c-.56-.47-1-1.25-1-1.99v-13.28h-1.28l-5.17.97v.65l.28.22c.62.44,1.03,1.25,1.03,1.99v9.44c0,.75-.4,1.53-1.03,1.99l-.28.22v.65h7.76v-.65Z"/>
        <path class="cls-2" d="m135.68,16.08c1.65,0,2.99-1.34,2.99-2.96s-1.34-2.99-2.99-2.99-2.96,1.37-2.96,2.99,1.34,2.96,2.96,2.96Z"/>
        <path class="cls-2" d="m164.22,32.19l-.28.22v.65h7.73v-.65l-.25-.22c-.62-.47-1.03-1.25-1.03-1.99V13.33c0-.75.4-1.56,1.03-1.99l.25-.25v-.62h-7.73v.62l.28.25c.62.44,1,1.25,1,1.99v7.45h-7.73v-7.45c0-.75.44-1.56,1-1.99l.31-.25v-.62h-7.76v.62l.28.25c.62.44,1.03,1.25,1.03,1.99v16.86c0,.75-.4,1.53-1.03,1.99l-.28.22v.65h7.76v-.65l-.31-.22c-.56-.47-1-1.25-1-1.99v-7.48h7.73v7.48c0,.75-.37,1.53-1,1.99Z"/>
        <path class="cls-2" d="m186.82,33.37c2.34,0,3.46-1.47,3.46-2.24-.25.44-.72.44-.72.44-.62,0-.87-.31-.87-1.12v-7.79c0-4.86-3.93-6.08-7.42-6.08-3.93,0-6.27,1.53-6.27,3.68,0,1.43,1.09,2.52,2.46,2.52s2.46-1.09,2.46-2.4c0-.78-.37-1.46-.9-1.9.16-.12.47-.22.9-.22,1.09,0,2.74.69,3.37,2.74-.22,2.59-9.35,1.96-9.35,7.7,0,2.8,2.21,4.68,5.08,4.68,1.87,0,3.55-.81,4.58-2.37.34,1.59,1.53,2.37,3.21,2.37Zm-3.3-6.26c-.19,1.84-1.31,3.05-2.43,3.05-1,0-1.96-.97-1.96-2.52,0-2.68,2.84-3.21,4.39-4.33v3.8Z"/>
        <path class="cls-2" d="m209.85,31.57c-.62,0-.87-.31-.87-1.12v-8.07c0-3.46-1.81-5.8-5.14-5.8-2.21,0-4.08,1.06-5.21,2.8v-2.46h-1.28l-5.17.97v.65l.28.22c.62.44,1.03,1.25,1.03,1.99v9.44c0,.75-.4,1.53-1.03,1.99l-.28.22v.65h7.76v-.65l-.31-.22c-.56-.47-1-1.25-1-1.99v-7.76c.22-2.06,1.28-3.4,2.74-3.4,1.56,0,2.43,1.37,2.43,3.65v7.11c0,2.46,1.25,3.58,3.3,3.58,2.34,0,3.49-1.47,3.49-2.24-.28.44-.75.44-.75.44Z"/>
        <path class="cls-2" d="m230.75,31.13c-.28.44-.75.44-.75.44-.62,0-.87-.31-.87-1.12V10.47h-1.31l-5.14.97v.62l.28.25c.62.44,1,1.25,1,1.99v3.74c-.9-.9-2.15-1.47-3.96-1.47-4.55,0-7.67,3.4-7.67,8.48s2.99,8.32,7.35,8.32c2.09,0,3.49-.75,4.46-2.03.47,1.4,1.56,2.03,3.12,2.03,2.34,0,3.49-1.47,3.49-2.24Zm-6.79-5.27c-.19,3.4-1.46,5.58-3.27,5.58-1.9,0-3.18-2.52-3.18-6.54,0-3.77,1.12-6.36,3.12-6.36,1.84,0,3.15,2.15,3.33,5.58v1.75Z"/>
        <path class="cls-2" d="m248.3,31.57c-.62,0-.87-.31-.87-1.12v-7.79c0-4.86-3.93-6.08-7.42-6.08-3.93,0-6.27,1.53-6.27,3.68,0,1.43,1.09,2.52,2.46,2.52s2.46-1.09,2.46-2.4c0-.78-.37-1.46-.9-1.9.16-.12.47-.22.9-.22,1.09,0,2.74.69,3.37,2.74-.22,2.59-9.35,1.96-9.35,7.7,0,2.8,2.21,4.68,5.08,4.68,1.87,0,3.55-.81,4.58-2.37.34,1.59,1.53,2.37,3.21,2.37,2.34,0,3.46-1.47,3.46-2.24-.25.44-.72.44-.72.44Zm-6.05-4.46c-.19,1.84-1.31,3.05-2.43,3.05-1,0-1.96-.97-1.96-2.52,0-2.68,2.84-3.21,4.39-4.33v3.8Z"/>
        <path class="cls-2" d="m265.31,21.9c.25-5.2-1.34-5.98-2.56-5.98-1.43,0-2.46,1-2.46,2.21,0,1.4,1.37,2.52,3.15,2.31.09,6.33-1.9,10.5-4.92,10.5-1.65,0-2.06-1.31-2.06-4.3v-9.72h-6.45v.65l.28.22c.62.44,1,1.25,1,1.99v7.17c0,3.99,2.09,6.42,5.36,6.42,1.56,0,3.02-.56,4.24-1.56-1.87,3.4-4.46,6.61-6.61,6.61-.34,0-.56-.06-.69-.19.53-.47.94-1.15.94-1.96,0-1.4-1.15-2.52-2.56-2.52s-2.52,1.12-2.52,2.84c0,2.06,1.68,3.58,4.36,3.58,5.89,0,11-9.41,11.5-18.26Z"/>
        <path class="cls-2" d="m284.04,31.13c-.25.44-.72.44-.72.44-.62,0-.87-.31-.87-1.12v-7.79c0-4.86-3.93-6.08-7.42-6.08-3.93,0-6.27,1.53-6.27,3.68,0,1.43,1.09,2.52,2.46,2.52s2.46-1.09,2.46-2.4c0-.78-.37-1.46-.9-1.9.16-.12.47-.22.9-.22,1.09,0,2.74.69,3.37,2.74-.22,2.59-9.35,1.96-9.35,7.7,0,2.8,2.21,4.68,5.08,4.68,1.87,0,3.55-.81,4.58-2.37.34,1.59,1.53,2.37,3.21,2.37,2.34,0,3.46-1.47,3.46-2.24Zm-6.76-4.02c-.19,1.84-1.31,3.05-2.43,3.05-1,0-1.96-.97-1.96-2.52,0-2.68,2.84-3.21,4.39-4.33v3.8Z"/>
        <path class="cls-2" d="m304.36,31.13c-.28.44-.75.44-.75.44-.62,0-.87-.31-.87-1.12v-8.07c0-3.46-1.81-5.8-5.14-5.8-2.21,0-4.08,1.06-5.21,2.8v-2.46h-1.28l-5.17.97v.65l.28.22c.62.44,1.03,1.25,1.03,1.99v9.44c0,.75-.4,1.53-1.03,1.99l-.28.22v.65h7.76v-.65l-.31-.22c-.56-.47-1-1.25-1-1.99v-7.76c.22-2.06,1.28-3.4,2.74-3.4,1.56,0,2.43,1.37,2.43,3.65v7.11c0,2.46,1.25,3.58,3.3,3.58,2.34,0,3.49-1.47,3.49-2.24Z"/>
        <path class="cls-2" d="m312.68,30.19v-13.28h-1.28l-5.17.97v.65l.28.22c.62.44,1.03,1.25,1.03,1.99v9.44c0,.75-.4,1.53-1.03,1.99l-.28.22v.65h7.76v-.65l-.31-.22c-.56-.47-1-1.25-1-1.99Z"/>
        <path class="cls-2" d="m310.09,16.08c1.65,0,2.99-1.34,2.99-2.96s-1.34-2.99-2.99-2.99-2.96,1.37-2.96,2.99,1.34,2.96,2.96,2.96Z"/>
        <path class="cls-2" d="m6.67,57.18c.97,0,1.79-.16,2.49-.48.69-.32,1.22-.76,1.6-1.34.37-.58.56-1.26.56-2.06s-.19-1.51-.56-2.09c-.37-.58-.91-1.03-1.6-1.33-.69-.31-1.52-.46-2.49-.46H2.18v10.91h2.03v-3.15h2.46Zm-2.46-6.05h2.37c.89,0,1.57.19,2.02.57s.68.91.68,1.6-.23,1.22-.68,1.6c-.45.38-1.12.57-2.02.57h-2.37v-4.33Z"/>
        <path class="cls-2" d="m15.74,60.04c.54.27,1.16.4,1.87.4.64,0,1.24-.15,1.78-.44.37-.2.66-.47.9-.79v1.11h1.85v-8.32h-1.95v4.21c0,.55-.09,1.01-.28,1.39s-.45.65-.8.84c-.34.19-.74.28-1.2.28-.61,0-1.09-.18-1.43-.55-.34-.37-.51-.92-.51-1.66v-4.5h-1.96v4.75c0,.83.15,1.52.46,2.06.31.55.73.95,1.27,1.22Z"/>
        <path class="cls-2" d="m26.49,59.73c.5.47,1.2.71,2.12.71.34,0,.68-.05,1.01-.14.33-.09.62-.23.86-.42l-.56-1.39c-.28.23-.63.34-1.06.34-.37,0-.66-.11-.87-.33s-.31-.52-.31-.92v-3.96h2.24v-1.56h-2.24v-1.9h-1.93v1.9h-1.37v1.56h1.37v4.02c0,.91.25,1.61.75,2.08Z"/>
        <path class="cls-2" d="m37.44,53.73c.07,0,.14.01.22.02v-1.85c-.78,0-1.44.15-1.98.44-.42.23-.71.56-.95.94v-1.28h-1.85v8.32h1.93v-4.02c0-.87.22-1.52.65-1.95.44-.43,1.03-.64,1.78-.64.06,0,.13,0,.2,0Z"/>
        <path class="cls-2" d="m41.09,48.3c-.36,0-.66.11-.9.34-.23.23-.35.5-.35.81,0,.33.12.61.35.84.23.23.53.34.9.34s.67-.12.9-.35c.23-.23.34-.52.34-.85s-.12-.6-.35-.82c-.23-.21-.53-.32-.9-.32Z"/>
        <rect class="cls-2" x="40.12" y="52.01" width="1.93" height="8.32"/>
        <path class="cls-2" d="m58.62,60.33v-11.56h-1.96v4.25c-.23-.26-.49-.49-.8-.66-.55-.31-1.17-.46-1.87-.46-.8,0-1.52.18-2.16.53s-1.14.85-1.5,1.5c-.36.64-.55,1.39-.55,2.24s.18,1.61.55,2.25c.36.64.86,1.14,1.5,1.49.64.35,1.36.53,2.16.53.73,0,1.36-.15,1.91-.46.34-.19.62-.47.86-.78v1.13h1.85Zm-2.25-2.78c-.22.4-.52.71-.89.92-.37.21-.79.32-1.25.32s-.89-.11-1.25-.32c-.37-.21-.67-.52-.89-.92-.22-.4-.33-.86-.33-1.38s.11-.99.33-1.38c.22-.39.52-.69.89-.9s.79-.32,1.25-.32.89.11,1.25.32.66.51.89.9c.22.39.33.85.33,1.38s-.11.98-.33,1.38Z"/>
        <path class="cls-2" d="m66.3,60.03c.34-.19.59-.47.78-.77v1.07h1.84v-4.88c0-1.21-.33-2.1-.98-2.68-.65-.58-1.59-.87-2.8-.87-.66,0-1.3.09-1.92.27-.61.18-1.15.44-1.61.78l.76,1.42c.32-.26.71-.46,1.15-.61.45-.15.9-.22,1.36-.22.71,0,1.23.16,1.58.47.35.32.52.76.52,1.33v.12h-2.17c-.84,0-1.52.11-2.03.33s-.87.51-1.1.89-.33.8-.33,1.26.13.91.38,1.29c.25.38.61.68,1.08.89.47.21,1.01.32,1.64.32.75,0,1.36-.14,1.84-.41Zm-3.02-2.15c0-.32.12-.59.35-.8.23-.21.68-.32,1.33-.32h2.03v.97c-.18.43-.46.75-.83.97-.38.22-.81.33-1.29.33s-.89-.1-1.17-.31c-.28-.21-.42-.48-.42-.83Z"/>
        <path class="cls-2" d="m76.77,53.73c.07,0,.15.01.22.02v-1.85c-.78,0-1.44.15-1.98.44-.42.23-.71.56-.95.94v-1.28h-1.85v8.32h1.93v-4.02c0-.87.22-1.52.65-1.95.44-.43,1.03-.64,1.78-.64.06,0,.13,0,.2,0Z"/>
        <path class="cls-2" d="m80.41,50.64c.37,0,.67-.12.9-.35.23-.23.34-.52.34-.85s-.12-.6-.35-.82c-.23-.21-.53-.32-.9-.32s-.66.11-.9.34c-.23.23-.35.5-.35.81,0,.33.12.61.35.84.23.23.53.34.9.34Z"/>
        <rect class="cls-2" x="79.45" y="52.01" width="1.93" height="8.32"/>
        <path class="cls-2" d="m10.28,82.07c-.13-.06-.28-.09-.42-.14.43-.22.78-.53,1.04-.92.27-.41.41-.91.41-1.49,0-.86-.34-1.55-1.03-2.06-.69-.51-1.68-.77-2.98-.77H2.18v10.91h5.44c1.4,0,2.46-.26,3.17-.78.71-.52,1.07-1.25,1.07-2.18,0-.63-.14-1.16-.42-1.59-.28-.43-.66-.75-1.15-.97Zm-6.08-3.79h2.87c.7,0,1.24.12,1.62.37.38.25.58.63.58,1.14s-.19.87-.58,1.12-.92.37-1.62.37h-2.87v-3.01Zm5.02,7.35c-.4.25-.98.37-1.73.37h-3.29v-3.15h3.29c.75,0,1.32.13,1.73.38.41.25.61.65.61,1.19s-.2.95-.61,1.2Z"/>
        <path class="cls-2" d="m21.41,79.7c-.63-.35-1.36-.53-2.17-.53-.7,0-1.32.15-1.89.46-.34.18-.61.45-.86.75v-1.1h-1.85v11.34h1.93v-4.06c.24.28.5.51.81.68.55.31,1.17.46,1.85.46.81,0,1.53-.18,2.17-.53.63-.35,1.13-.85,1.5-1.49.37-.64.55-1.39.55-2.25s-.18-1.6-.55-2.24c-.37-.64-.87-1.14-1.5-1.5Zm-.25,5.11c-.22.39-.51.7-.88.92-.37.22-.79.33-1.27.33s-.87-.11-1.25-.33-.67-.52-.89-.92-.33-.85-.33-1.37.11-.99.33-1.38c.22-.39.51-.69.89-.9s.79-.32,1.25-.32.9.11,1.27.32c.37.21.66.51.88.9.22.39.33.85.33,1.38s-.11.98-.33,1.37Z"/>
        <polygon class="cls-2" points="34.42 79.27 32.08 79.27 28.05 83.01 28.05 76.03 26.11 76.03 26.11 87.59 28.05 87.59 28.05 85.4 29.48 84.03 32.39 87.59 34.75 87.59 30.93 82.76 34.42 79.27"/>
        <path class="cls-2" d="m37.58,85.12c-.36,0-.67.12-.92.35-.25.23-.37.54-.37.93s.12.7.37.94c.25.24.56.37.92.37.34,0,.64-.12.89-.37.25-.24.37-.56.37-.94s-.13-.69-.37-.93c-.25-.23-.55-.35-.89-.35Z"/>
        <path class="cls-2" d="m53.76,77.15c-.69-.31-1.52-.46-2.49-.46h-4.49v10.91h2.03v-3.15h2.46c.97,0,1.79-.16,2.49-.48s1.22-.76,1.6-1.34c.37-.58.56-1.26.56-2.06s-.19-1.51-.56-2.09c-.37-.58-.91-1.03-1.6-1.33Zm-.56,5.02c-.45.38-1.12.57-2.02.57h-2.37v-4.33h2.37c.89,0,1.57.19,2.02.57.45.38.68.91.68,1.6s-.23,1.22-.68,1.6Z"/>
        <path class="cls-2" d="m59.67,75.57c-.36,0-.66.11-.9.34-.23.23-.35.5-.35.81,0,.33.12.61.35.84.23.23.53.34.9.34s.67-.12.9-.35c.23-.23.34-.52.34-.85s-.12-.6-.35-.82c-.23-.21-.53-.32-.9-.32Z"/>
        <rect class="cls-2" x="58.71" y="79.27" width="1.93" height="8.32"/>
        <path class="cls-2" d="m70.75,79.7c-.63-.35-1.36-.53-2.17-.53-.7,0-1.33.15-1.89.46-.34.18-.61.45-.86.75v-1.1h-1.85v11.34h1.93v-4.06c.24.27.5.51.81.68.55.31,1.17.46,1.85.46.81,0,1.53-.18,2.17-.53.63-.35,1.13-.85,1.5-1.49.37-.64.55-1.39.55-2.25s-.19-1.6-.55-2.24c-.37-.64-.87-1.14-1.5-1.5Zm-.25,5.11c-.22.39-.51.7-.88.92s-.79.33-1.27.33-.87-.11-1.25-.33c-.37-.22-.67-.52-.89-.92s-.33-.85-.33-1.37.11-.99.33-1.38c.22-.39.51-.69.89-.9.37-.21.79-.32,1.25-.32s.9.11,1.27.32.66.51.88.9c.22.39.33.85.33,1.38s-.11.98-.33,1.37Z"/>
        <path class="cls-2" d="m76.42,75.57c-.36,0-.66.11-.9.34-.23.23-.35.5-.35.81,0,.33.12.61.35.84.23.23.53.34.9.34s.67-.12.9-.35c.23-.23.34-.52.34-.85s-.12-.6-.35-.82c-.23-.21-.53-.32-.9-.32Z"/>
        <rect class="cls-2" x="75.46" y="79.27" width="1.93" height="8.32"/>
        <path class="cls-2" d="m87.23,79.56c-.51-.26-1.11-.39-1.78-.39-.73,0-1.37.15-1.92.44-.38.2-.67.48-.93.79v-1.12h-1.85v8.32h1.93v-4.21c0-.56.1-1.03.29-1.39.19-.37.46-.65.82-.83.35-.19.76-.28,1.22-.28.63,0,1.12.18,1.46.55.34.36.51.91.51,1.65v4.52h1.95v-4.77c0-.84-.15-1.53-.46-2.07-.31-.54-.72-.94-1.23-1.2Z"/>
        <path class="cls-2" d="m100.81,76.69l-4.91,10.91h2.07l1.08-2.52h5.46l1.08,2.52h2.13l-4.92-10.91h-1.99Zm-1.07,6.79l2.05-4.77,2.04,4.77h-4.09Z"/>
        <path class="cls-2" d="m111.57,80.55v-1.28h-1.85v8.32h1.93v-4.02c0-.87.22-1.52.65-1.95.44-.43,1.03-.64,1.78-.64.06,0,.13,0,.2,0,.07,0,.15.01.22.02v-1.85c-.78,0-1.44.15-1.98.44-.42.23-.71.56-.95.94Z"/>
        <rect class="cls-2" x="116.96" y="79.27" width="1.93" height="8.32"/>
        <path class="cls-2" d="m117.93,75.57c-.36,0-.66.11-.9.34-.23.23-.35.5-.35.81,0,.33.12.61.35.84.23.23.53.34.9.34s.67-.12.9-.35c.23-.23.34-.52.34-.85s-.12-.6-.35-.82c-.23-.21-.53-.32-.9-.32Z"/>
        <path class="cls-2" d="m129.01,79.7c-.63-.35-1.36-.53-2.17-.53-.7,0-1.33.15-1.89.46-.34.18-.61.45-.86.75v-1.1h-1.85v11.34h1.93v-4.06c.24.27.5.51.81.68.55.31,1.17.46,1.85.46.81,0,1.53-.18,2.17-.53.63-.35,1.13-.85,1.5-1.49.37-.64.55-1.39.55-2.25s-.19-1.6-.55-2.24c-.37-.64-.87-1.14-1.5-1.5Zm-.25,5.11c-.22.39-.51.7-.88.92s-.79.33-1.27.33-.87-.11-1.25-.33c-.37-.22-.67-.52-.89-.92s-.33-.85-.33-1.37.11-.99.33-1.38c.22-.39.51-.69.89-.9.37-.21.79-.32,1.25-.32s.9.11,1.27.32.66.51.88.9c.22.39.33.85.33,1.38s-.11.98-.33,1.37Z"/>
        <rect class="cls-2" x="133.71" y="79.27" width="1.93" height="8.32"/>
        <path class="cls-2" d="m134.68,75.57c-.36,0-.66.11-.9.34-.23.23-.35.5-.35.81,0,.33.12.61.35.84.23.23.53.34.9.34s.67-.12.9-.35c.23-.23.34-.52.34-.85s-.12-.6-.35-.82c-.23-.21-.53-.32-.9-.32Z"/>
        <path class="cls-2" d="m145.49,79.56c-.51-.26-1.11-.39-1.78-.39-.73,0-1.37.15-1.92.44-.38.2-.67.48-.93.79v-1.12h-1.85v8.32h1.93v-4.21c0-.56.1-1.03.29-1.39.19-.37.46-.65.82-.83.35-.19.76-.28,1.22-.28.63,0,1.12.18,1.46.55.34.36.51.91.51,1.65v4.52h1.95v-4.77c0-.84-.15-1.53-.46-2.07-.31-.54-.72-.94-1.23-1.2Z"/>
        <path class="cls-2" d="m159.3,76.03h-1.86c-.6.92-1.07,2.01-1.4,3.26-.33,1.25-.5,2.59-.5,4.03s.17,2.77.5,4.01c.33,1.24.8,2.33,1.4,3.28h1.86c-.63-1.13-1.1-2.3-1.39-3.49-.3-1.19-.44-2.46-.44-3.8s.15-2.61.44-3.8c.3-1.19.76-2.36,1.39-3.49Z"/>
        <path class="cls-2" d="m173.93,77.15c-.69-.31-1.52-.46-2.49-.46h-4.49v10.91h2.03v-3.15h2.46c.97,0,1.79-.16,2.49-.48s1.22-.76,1.6-1.34c.37-.58.56-1.26.56-2.06s-.19-1.51-.56-2.09c-.37-.58-.91-1.03-1.6-1.33Zm-.56,5.02c-.45.38-1.12.57-2.02.57h-2.37v-4.33h2.37c.89,0,1.57.19,2.02.57.45.38.68.91.68,1.6s-.23,1.22-.68,1.6Z"/>
        <path class="cls-2" d="m179.85,75.57c-.36,0-.66.11-.9.34-.23.23-.35.5-.35.81,0,.33.12.61.35.84.23.23.53.34.9.34s.67-.12.9-.35c.23-.23.34-.52.34-.85s-.12-.6-.35-.82c-.23-.21-.53-.32-.9-.32Z"/>
        <rect class="cls-2" x="178.88" y="79.27" width="1.93" height="8.32"/>
        <path class="cls-2" d="m190.93,79.7c-.63-.35-1.36-.53-2.17-.53-.7,0-1.33.15-1.89.46-.34.18-.61.45-.86.75v-1.1h-1.85v11.34h1.93v-4.06c.24.27.5.51.81.68.55.31,1.17.46,1.85.46.81,0,1.53-.18,2.17-.53.63-.35,1.13-.85,1.5-1.49.37-.64.55-1.39.55-2.25s-.19-1.6-.55-2.24c-.37-.64-.87-1.14-1.5-1.5Zm-.25,5.11c-.22.39-.51.7-.88.92s-.79.33-1.27.33-.87-.11-1.25-.33c-.37-.22-.67-.52-.89-.92s-.33-.85-.33-1.37.11-.99.33-1.38c.22-.39.51-.69.89-.9.37-.21.79-.32,1.25-.32s.9.11,1.27.32.66.51.88.9c.22.39.33.85.33,1.38s-.11.98-.33,1.37Z"/>
        <rect class="cls-2" x="195.63" y="79.27" width="1.93" height="8.32"/>
        <path class="cls-2" d="m196.6,75.57c-.36,0-.66.11-.9.34-.23.23-.35.5-.35.81,0,.33.12.61.35.84.23.23.53.34.9.34s.67-.12.9-.35c.23-.23.34-.52.34-.85s-.12-.6-.35-.82c-.23-.21-.53-.32-.9-.32Z"/>
        <path class="cls-2" d="m207.4,79.56c-.51-.26-1.11-.39-1.78-.39-.73,0-1.37.15-1.92.44-.38.2-.67.48-.93.79v-1.12h-1.85v8.32h1.93v-4.21c0-.56.1-1.03.29-1.39.19-.37.46-.65.82-.83.35-.19.76-.28,1.22-.28.63,0,1.12.18,1.46.55.34.36.51.91.51,1.65v4.52h1.95v-4.77c0-.84-.15-1.53-.46-2.07-.31-.54-.72-.94-1.23-1.2Z"/>
        <path class="cls-2" d="m218.35,76.03h-1.86c.64,1.13,1.11,2.3,1.41,3.49.3,1.19.45,2.46.45,3.8s-.15,2.61-.45,3.8c-.3,1.19-.77,2.36-1.41,3.49h1.86c.62-.95,1.1-2.04,1.43-3.28.33-1.24.49-2.58.49-4.01s-.16-2.78-.49-4.03c-.33-1.25-.8-2.34-1.43-3.26Z"/>
        <path class="cls-2" d="m237.75,82.69l-1.56-.5c-.13.71-.36,1.3-.63,1.83l-2.34-2.24c.34-.19.64-.37.89-.55.47-.33.81-.68,1.02-1.05.21-.37.32-.77.32-1.21,0-.5-.12-.92-.37-1.28-.24-.35-.58-.63-1.02-.82-.44-.19-.95-.29-1.53-.29-.63,0-1.19.11-1.67.32-.48.21-.85.51-1.11.9s-.38.83-.38,1.34c0,.29.05.57.14.84.09.27.25.55.47.85.16.22.38.46.62.71-.42.24-.8.47-1.11.71-.49.38-.85.78-1.08,1.19-.23.42-.34.89-.34,1.42,0,.56.17,1.06.52,1.5.35.44.82.78,1.42,1.03.6.25,1.27.37,2.03.37.98,0,1.86-.2,2.63-.61.37-.19.71-.43,1.02-.7l1.38,1.32,1.08-1.26-1.39-1.33c.45-.71.79-1.53.98-2.49Zm-6.22-4.42c.24-.21.58-.32,1.02-.32.41,0,.72.1.94.29s.33.44.33.76c0,.23-.07.45-.21.65-.14.21-.38.43-.73.65-.19.13-.44.27-.72.42-.2-.21-.39-.4-.52-.55-.19-.21-.31-.39-.37-.56-.06-.17-.09-.34-.09-.53,0-.33.12-.61.37-.82Zm2.48,7.46c-.55.29-1.15.44-1.81.44-.45,0-.84-.06-1.17-.19s-.59-.31-.77-.55c-.18-.23-.27-.5-.27-.8s.07-.56.22-.81.38-.5.72-.74c.21-.15.47-.31.77-.48l2.86,2.75c-.17.14-.34.29-.54.39Z"/>
        <rect class="cls-2" x="245.75" y="76.69" width="2.03" height="10.91"/>
        <path class="cls-2" d="m258.09,79.7c-.63-.35-1.36-.53-2.17-.53-.69,0-1.3.15-1.85.46-.31.17-.57.41-.81.68v-4.27h-1.93v11.56h1.85v-1.1c.25.3.52.56.86.75.56.31,1.19.46,1.89.46.81,0,1.53-.18,2.17-.53.63-.35,1.13-.85,1.5-1.49.37-.64.55-1.39.55-2.25s-.19-1.6-.55-2.24c-.37-.64-.87-1.14-1.5-1.5Zm-.25,5.12c-.22.4-.51.71-.88.92-.37.21-.79.32-1.27.32s-.87-.11-1.25-.32c-.37-.21-.67-.52-.89-.92-.22-.4-.33-.86-.33-1.38s.11-.99.33-1.38c.22-.39.51-.69.89-.9.37-.21.79-.32,1.25-.32s.9.11,1.27.32.66.51.88.9c.22.39.33.85.33,1.38s-.11.98-.33,1.38Z"/>
        <path class="cls-2" d="m268.89,83.48c0,.55-.09,1.01-.28,1.39-.19.37-.45.65-.79.84-.34.19-.74.28-1.2.28-.61,0-1.09-.18-1.43-.55-.34-.37-.51-.92-.51-1.66v-4.5h-1.96v4.75c0,.83.15,1.52.46,2.06.31.55.73.95,1.27,1.22.54.27,1.16.4,1.87.4.64,0,1.24-.15,1.78-.44.37-.2.65-.47.9-.79v1.11h1.86v-8.32h-1.95v4.21Z"/>
        <polygon class="cls-2" points="287.12 84.09 281.11 76.69 279.44 76.69 279.44 87.59 281.45 87.59 281.45 80.2 287.45 87.59 289.12 87.59 289.12 76.69 287.12 76.69 287.12 84.09"/>
        <path class="cls-2" d="m298.43,79.7c-.63-.36-1.36-.54-2.17-.54s-1.57.18-2.22.55-1.16.87-1.53,1.51c-.37.64-.55,1.37-.55,2.2s.19,1.57.57,2.21c.38.64.91,1.14,1.61,1.51.69.37,1.5.55,2.42.55.73,0,1.37-.11,1.94-.34.57-.23,1.04-.56,1.43-1l-1.06-1.21c-.29.3-.62.53-1,.69s-.8.23-1.26.23c-.55,0-1.03-.11-1.45-.32s-.74-.51-.96-.9c-.14-.24-.22-.51-.27-.8h6.51c.01-.08.02-.18.02-.29s0-.2,0-.27c0-.88-.18-1.65-.55-2.29s-.86-1.14-1.5-1.5Zm-4.52,3.06c.04-.3.12-.59.25-.84.2-.37.48-.66.85-.86.37-.2.79-.3,1.25-.3s.89.1,1.25.3c.35.2.63.49.83.86.14.26.21.55.25.85h-4.68Z"/>
        <path class="cls-2" d="m309.63,79.56c-.51-.26-1.11-.39-1.78-.39-.73,0-1.37.15-1.92.44-.38.2-.67.48-.93.79v-1.12h-1.85v8.32h1.93v-4.21c0-.56.1-1.03.29-1.39.19-.37.46-.65.82-.83.35-.19.76-.28,1.22-.28.63,0,1.12.18,1.46.55.34.36.51.91.51,1.65v4.52h1.95v-4.77c0-.84-.15-1.53-.46-2.07-.31-.54-.72-.94-1.23-1.2Z"/>
        <path class="cls-2" d="m315.56,75.57c-.36,0-.66.11-.9.34-.23.23-.35.5-.35.81,0,.33.12.61.35.84.23.23.53.34.9.34s.67-.12.9-.35c.23-.23.34-.52.34-.85s-.12-.6-.35-.82c-.23-.21-.53-.32-.9-.32Z"/>
        <rect class="cls-2" x="314.59" y="79.27" width="1.93" height="8.32"/>
        <path class="cls-2" d="m331.63,82.21c-.38-.22-.8-.41-1.26-.55-.46-.14-.92-.26-1.39-.37-.47-.1-.89-.21-1.27-.33-.38-.11-.69-.27-.92-.47-.23-.2-.35-.47-.35-.8,0-.27.08-.52.24-.74.16-.22.42-.4.77-.54.35-.14.81-.2,1.36-.2.48,0,.98.07,1.5.21s1.02.36,1.51.65l.64-1.57c-.48-.31-1.04-.55-1.68-.72-.64-.17-1.29-.25-1.95-.25-1,0-1.82.15-2.47.44-.65.3-1.13.69-1.45,1.18-.32.49-.48,1.04-.48,1.63s.12,1.06.35,1.43c.23.37.54.67.93.9.38.22.81.41,1.27.55.46.15.93.27,1.39.37.46.1.88.21,1.26.33.38.12.69.28.93.48.24.2.36.47.36.8,0,.27-.08.51-.25.72-.17.21-.43.38-.78.51-.35.12-.82.19-1.39.19-.68,0-1.34-.11-1.98-.34s-1.18-.51-1.62-.86l-.7,1.57c.47.38,1.09.7,1.86.94.77.24,1.59.37,2.44.37,1,0,1.82-.15,2.48-.44s1.14-.69,1.46-1.18.48-1.03.48-1.61-.12-1.04-.35-1.41c-.23-.37-.54-.66-.93-.89Z"/>
        <path class="cls-2" d="m341.62,83.48c0,.55-.09,1.01-.28,1.39-.19.37-.45.65-.79.84-.34.19-.74.28-1.2.28-.61,0-1.09-.18-1.43-.55-.34-.37-.51-.92-.51-1.66v-4.5h-1.96v4.75c0,.83.15,1.52.46,2.06.31.55.73.95,1.27,1.22.54.27,1.16.4,1.87.4.64,0,1.24-.15,1.78-.44.37-.2.65-.47.9-.79v1.11h1.86v-8.32h-1.95v4.21Z"/>
        <path class="cls-2" d="m348.77,80.55v-1.28h-1.85v8.32h1.93v-4.02c0-.87.22-1.52.65-1.95.44-.43,1.03-.64,1.78-.64.06,0,.13,0,.2,0,.07,0,.15.01.22.02v-1.85c-.78,0-1.44.15-1.98.44-.42.23-.71.56-.95.94Z"/>
        <path class="cls-2" d="m357.75,85.45l-2.64-6.17h-2.01l3.63,8.34-.14.33c-.19.43-.39.73-.61.9-.22.18-.5.27-.86.27-.27,0-.53-.05-.77-.16-.24-.1-.47-.24-.66-.41l-.76,1.42c.26.24.59.43,1,.56.4.14.82.2,1.23.2.46,0,.88-.08,1.27-.23.39-.15.74-.41,1.06-.76.32-.36.6-.84.86-1.46l3.9-9.01h-1.87l-2.63,6.17Z"/>
        <path class="cls-2" d="m367.16,79.17c-.66,0-1.3.09-1.92.27-.61.18-1.15.44-1.61.78l.76,1.42c.32-.26.71-.46,1.15-.61.45-.15.9-.22,1.36-.22.71,0,1.23.16,1.58.47.35.32.52.76.52,1.33v.12h-2.17c-.84,0-1.52.11-2.03.33s-.87.51-1.1.89-.33.8-.33,1.26.13.91.38,1.29c.25.38.61.68,1.08.89.47.21,1.01.32,1.64.32.75,0,1.36-.14,1.84-.41.34-.19.59-.47.78-.77v1.07h1.84v-4.88c0-1.21-.33-2.1-.98-2.68-.65-.58-1.59-.87-2.8-.87Zm1.86,5.83c-.18.43-.46.75-.83.97-.38.22-.81.33-1.29.33s-.89-.1-1.17-.31c-.28-.21-.42-.48-.42-.83,0-.32.12-.59.35-.8.23-.21.68-.32,1.33-.32h2.03v.97Z"/>
        <path class="cls-2" d="m380.72,79.56c-.51-.26-1.11-.39-1.78-.39-.73,0-1.37.15-1.92.44-.38.2-.67.48-.93.79v-1.12h-1.85v8.32h1.93v-4.21c0-.56.1-1.03.29-1.39.19-.37.46-.65.82-.83.35-.19.76-.28,1.22-.28.63,0,1.12.18,1.46.55.34.36.51.91.51,1.65v4.52h1.95v-4.77c0-.84-.15-1.53-.46-2.07-.31-.54-.72-.94-1.23-1.2Z"/>
        <path class="cls-2" d="m386.65,75.57c-.36,0-.66.11-.9.34-.23.23-.35.5-.35.81,0,.33.12.61.35.84.23.23.53.34.9.34s.67-.12.9-.35c.23-.23.34-.52.34-.85s-.12-.6-.35-.82c-.23-.21-.53-.32-.9-.32Z"/>
        <rect class="cls-2" x="385.69" y="79.27" width="1.93" height="8.32"/>
        <path class="cls-2" d="m399.82,76.03h-1.86c-.6.92-1.07,2.01-1.4,3.26-.33,1.25-.5,2.59-.5,4.03s.17,2.77.5,4.01c.33,1.24.8,2.33,1.4,3.28h1.86c-.63-1.13-1.1-2.3-1.39-3.49-.3-1.19-.44-2.46-.44-3.8s.15-2.61.44-3.8c.3-1.19.76-2.36,1.39-3.49Z"/>
        <polygon class="cls-2" points="407.24 82 404.02 76.69 401.87 76.69 406.15 83.74 406.15 87.59 408.16 87.59 408.16 83.76 412.45 76.69 410.45 76.69 407.24 82"/>
        <path class="cls-2" d="m416.53,79.17c-.66,0-1.3.09-1.92.27-.61.18-1.15.44-1.61.78l.76,1.42c.32-.26.71-.46,1.15-.61.45-.15.9-.22,1.36-.22.71,0,1.23.16,1.58.47.35.32.52.76.52,1.33v.12h-2.17c-.84,0-1.52.11-2.03.33s-.87.51-1.1.89-.33.8-.33,1.26.13.91.38,1.29c.25.38.61.68,1.08.89.47.21,1.01.32,1.64.32.75,0,1.36-.14,1.84-.41.34-.19.59-.47.78-.77v1.07h1.84v-4.88c0-1.21-.33-2.1-.98-2.68-.65-.58-1.59-.87-2.8-.87Zm1.86,5.83c-.18.43-.46.75-.83.97-.38.22-.81.33-1.29.33s-.89-.1-1.17-.31c-.28-.21-.42-.48-.42-.83,0-.32.12-.59.35-.8.23-.21.68-.32,1.33-.32h2.03v.97Z"/>
        <path class="cls-2" d="m426.72,85.45l-2.64-6.17h-2.01l3.63,8.34-.14.33c-.19.43-.39.73-.61.9-.22.18-.5.27-.86.27-.27,0-.53-.05-.77-.16-.24-.1-.47-.24-.66-.41l-.76,1.42c.26.24.59.43,1,.56.4.14.82.2,1.23.2.46,0,.88-.08,1.27-.23.39-.15.74-.41,1.06-.76.32-.36.6-.84.86-1.46l3.9-9.01h-1.87l-2.63,6.17Z"/>
        <path class="cls-2" d="m436.13,79.17c-.66,0-1.3.09-1.92.27-.61.18-1.15.44-1.61.78l.76,1.42c.32-.26.71-.46,1.15-.61.45-.15.9-.22,1.36-.22.71,0,1.23.16,1.58.47.35.32.52.76.52,1.33v.12h-2.17c-.84,0-1.52.11-2.03.33s-.87.51-1.1.89-.33.8-.33,1.26.13.91.38,1.29c.25.38.61.68,1.08.89.47.21,1.01.32,1.64.32.75,0,1.36-.14,1.84-.41.34-.19.59-.47.78-.77v1.07h1.84v-4.88c0-1.21-.33-2.1-.98-2.68-.65-.58-1.59-.87-2.8-.87Zm1.86,5.83c-.18.43-.46.75-.83.97-.38.22-.81.33-1.29.33s-.89-.1-1.17-.31c-.28-.21-.42-.48-.42-.83,0-.32.12-.59.35-.8.23-.21.68-.32,1.33-.32h2.03v.97Z"/>
        <path class="cls-2" d="m449.69,79.56c-.51-.26-1.11-.39-1.78-.39-.73,0-1.37.15-1.92.44-.38.2-.67.48-.93.79v-1.12h-1.85v8.32h1.93v-4.21c0-.56.1-1.03.29-1.39.19-.37.46-.65.82-.83.35-.19.76-.28,1.22-.28.63,0,1.12.18,1.46.55.34.36.51.91.51,1.65v4.52h1.95v-4.77c0-.84-.15-1.53-.46-2.07-.31-.54-.72-.94-1.23-1.2Z"/>
        <path class="cls-2" d="m456.45,79.3c-.33-1.25-.8-2.34-1.43-3.26h-1.86c.64,1.13,1.11,2.3,1.41,3.49.3,1.19.45,2.46.45,3.8s-.15,2.61-.45,3.8c-.3,1.19-.77,2.36-1.41,3.49h1.86c.62-.95,1.1-2.04,1.43-3.28.33-1.24.49-2.58.49-4.01s-.16-2.78-.49-4.03Z"/>
      </g>
      <path class="cls-1" d="m224.51,65.18c-1,0-1.92-.78-1.92-1.96,0-1.1,8.9-38.98,8.9-38.98l-.09-.14s-4.88,5.98-13.1,18.26c-17.25,25.61-21.96,27.02-28.35,27.02-6.98,0-32.23-9.04-34.74-11.46-.64-.59-.96-1.19-.96-1.78,0-.55.27-1.1.91-1.64,5.07-4.47,43.36-4.88,47.11-6.8.23-.09.46-.14.64-.14.59,0,1.05.59,1.05,1.19,0,.55-.37,1.14-1.42,1.32-7.53,1.46-45.33,3.24-45.33,6.3.82,1.46,26.38,10.45,33.23,10.45,10.36,0,21.64-20.31,38.12-43.27,3.29-4.56,4.75-6.66,5.2-7.94,2.1-5.57,3.29-8.31,3.79-8.63.23-.18.46-.23.64-.23.55,0,.96.41.96,1.05,0,.32-1.46,4.84-3.2,10,0,0-10.13,40.08-10.13,42.91,2.05-.05,22.28-36.06,23.42-37.84,8.31-12.83,13.69-22.87,29.44-22.87,1.14,0,1.64.5,1.64,1s-.46,1-1.19,1.05c-14.38.96-17.71,5.93-26.2,19.08-2.19,3.38-24.33,44.05-28.44,44.05Zm23.71-11.78c0-1.69.64-3.1,1.83-4.29.41-.68,1.6-1.78,2.83-1.78.55,0,1.28.32,1.28,1.28s-2.05,1.83-3.01,2.37c0,0-.73.5-.73,2.37,0,.32.41,1,1.42,1,3.93,0,11.14-3.65,13.6-5.16.27,0,.41.27.41.55,0,.55-.14,1.1-.41,1.23-2.74,1.92-9.31,5.25-14.33,5.25-2.19,0-2.88-1.83-2.88-2.83Zm7.67-10.13c0-.5.41-.73.87-.73.64,0,1.46.5,1.46,1.51,0,.59-.59.78-.87.78-.5,0-1.46-.87-1.46-1.55Zm9.24,12.83c0-3.06,5.25-3.2,5.25-3.2-.05-.41-.64-2.51-.64-3.65,0-3.65,3.33-4.06,4.2-4.06,1.23,0,1.73,1,1.73,1.42,0,.96-.55,1.55-1.83,2.37-.82.59-1.42.91-1.42.91-.32.82.37,1.87.37,2.88,4.34-.32,6.53-.87,11.55-3.56.37,0,.91.32.91.82,0,.55-.5.68-.96,1.05-2.51,2.15-7.49,3.38-11.5,3.61-.32,1.55-1.32,3.7-4.93,3.7-1.28,0-2.74-.78-2.74-2.28Zm5.25-1.37c-1.46-.05-2.83.46-2.83.87,0,.27.18.64.68.64,1.23,0,2.15-.68,2.15-1.51Zm13.99-.32c0-3.56,7.81-7.67,11.64-7.67,1.51,0,1.92.73,1.92,1.42,0,.55-.32,1.05-.55,1.05l-.18,1.69c0,1.23.37,2.69,2.1,2.69,3.7,0,11.91-4.38,11.91-4.38.27,0,1.1.82,1.1,1.23,0,.55-9.31,5.2-13.15,5.2-3.61,0-3.83-3.2-3.83-3.97v-.14c-2.05,1.64-5.2,5.48-8.76,5.48-1.51,0-2.19-1.37-2.19-2.6Zm10.64-5.16h-.05c-2.51,0-8.54,2.51-8.54,5.2,0,.23.32.46.73.46,2.01-.09,6.62-4.56,7.85-5.66Z"/>
    </g>
  </g>
</svg>