<?xml version="1.0" encoding="utf-8"?>
<!-- Generator: Adobe Illustrator 27.9.0, SVG Export Plug-In . SVG Version: 6.00 Build 0)  -->
<svg version="1.1" id="Layer_1" xmlns:xodm="http://www.corel.com/coreldraw/odm/2003"
	 xmlns="http://www.w3.org/2000/svg" xmlns:xlink="http://www.w3.org/1999/xlink" x="0px" y="0px" viewBox="0 0 126.3 42.7"
	 style="enable-background:new 0 0 126.3 42.7;" xml:space="preserve">
<style type="text/css">
	.st0{fill:#FEFEFE;}
</style>
<g id="Layer_x0020_1">
	<g id="_2517348214160">
		<g id="_2763736869840">
			<g>
				<g>
					<path class="st0" d="M19.2,29.4l0.7-1.6c0.1-0.3,0.3-0.3,0.4-0.4c0,0,0-0.1,0-0.1h-0.6c-0.1,0-0.1,0.1,0,0.1
						c0.1,0,0.3,0.1,0.1,0.4l-0.6,1.4l-0.8-1.5c0-0.1,0-0.2,0.1-0.2c0.1,0,0.1-0.1,0.1-0.1c0,0,0-0.1-0.1-0.1h-1.3
						c0,0-0.1,0-0.1,0.1c0,0.1,0.2,0.1,0.3,0.2c0,0,0,0,0,0.1l1,1.8v0.3c0,0.3-0.2,0.3-0.3,0.4c0,0,0,0.1,0,0.1h1.3
						c0.1,0,0.1-0.1,0-0.1c-0.1-0.1-0.3,0-0.3-0.4L19.2,29.4L19.2,29.4z M21.3,30.4c1.7,0,1.6-2.2,0-2.2
						C19.7,28.1,19.6,30.4,21.3,30.4z M21.3,28.3c0.6,0,0.6,2,0,2C20.7,30.3,20.7,28.3,21.3,28.3z M23.9,30.1
						c-0.2,0-0.3-0.2-0.3-0.4c0-0.3,0.1-0.7,0.1-1c0-0.3-0.1-0.5-0.5-0.5c-0.1,0-0.3,0-0.6,0.1c-0.1,0-0.1,0.1,0,0.1
						c0.1,0.1,0.3,0,0.3,0.3v0.6c0,0.5,0.1,1,0.7,1c0.4,0,0.6-0.2,0.8-0.7c0,0.2,0,0.3,0.1,0.5c0.1,0.1,0.2,0.2,0.5,0.2
						c0.2,0,0.3,0,0.5-0.1c0.1,0,0.1-0.1,0-0.1c-0.1-0.1-0.3,0-0.3-0.3v-1.1c0-0.3,0-0.5-0.4-0.5c-0.2,0-0.4,0-0.6,0.1
						c-0.1,0-0.1,0.1,0,0.1c0.1,0.1,0.3,0,0.3,0.3v0.4C24.4,29.6,24.1,30.1,23.9,30.1L23.9,30.1z M26.6,28.7c0-0.2,0-0.3-0.1-0.4
						c-0.1-0.1-0.2-0.1-0.3-0.1c-0.2,0-0.5,0.1-0.6,0.1c-0.1,0-0.1,0.1,0,0.1c0.1,0.1,0.3,0,0.3,0.3v1.1c0,0.3-0.2,0.3-0.3,0.4
						c0,0,0,0.1,0,0.1h1.3c0.1,0,0.1-0.1,0-0.1c0,0-0.1,0-0.1-0.1c-0.2-0.1-0.3-0.2-0.3-0.5c0-0.5,0.2-1.1,0.4-1.2
						c0.1-0.1,0.1-0.2,0.2-0.2l0,0c0,0.1-0.1,0.1-0.1,0.2c0,0.2,0.2,0.4,0.4,0.4c0.3,0,0.4-0.2,0.4-0.4c0-0.2-0.2-0.4-0.4-0.4
						C27.1,28.1,26.8,28.4,26.6,28.7z M30.1,28.4c1,0,1,1.8,0.3,1.8c-0.2,0-0.4-0.2-0.4-0.5v-1c0-0.2,0-0.2,0-0.3
						C30,28.4,30,28.4,30.1,28.4L30.1,28.4z M29.2,30.7c0,0.3-0.2,0.3-0.3,0.4c0,0,0,0.1,0,0.1h1.3c0.1,0,0.1-0.1,0-0.1
						c-0.1-0.1-0.3,0-0.3-0.4v-0.4c0.1,0,0.3,0.1,0.5,0.1c1.6,0,1.6-2.2,0-2.2c-0.2,0-0.4,0.1-0.6,0.1c-0.1-0.1-0.2-0.1-0.3-0.1
						c-0.2,0-0.4,0-0.6,0.1c-0.1,0-0.1,0.1,0,0.1c0.1,0.1,0.3,0,0.3,0.3L29.2,30.7L29.2,30.7z M32.8,28.7c0-0.2,0-0.3-0.1-0.4
						c-0.1-0.1-0.2-0.1-0.3-0.1c-0.2,0-0.5,0.1-0.6,0.1c-0.1,0-0.1,0.1,0,0.1c0.1,0.1,0.3,0,0.3,0.3v1.1c0,0.3-0.2,0.3-0.3,0.4
						c0,0,0,0.1,0,0.1H33c0.1,0,0.1-0.1,0-0.1c0,0-0.1,0-0.1-0.1c-0.2-0.1-0.3-0.2-0.3-0.5c0-0.5,0.2-1.1,0.4-1.2
						c0.1-0.1,0.1-0.2,0.2-0.2l0,0c0,0.1-0.1,0.1-0.1,0.2c0,0.2,0.2,0.4,0.4,0.4c0.3,0,0.4-0.2,0.4-0.4c0-0.2-0.2-0.4-0.4-0.4
						C33.3,28.1,33,28.4,32.8,28.7z M34.9,29c0-0.4,0.2-0.7,0.5-0.7c0.3,0,0.4,0.3,0.3,0.6c0,0,0,0.1-0.1,0.1H34.9z M35.3,30.4
						c0.4,0,0.8-0.2,1-0.4c0,0,0-0.1-0.1-0.1c0,0,0,0,0,0c-0.1,0.1-0.3,0.2-0.5,0.2c-0.5,0-0.8-0.5-0.8-1h1c0.3,0,0.4-0.1,0.4-0.3
						c0-0.4-0.4-0.7-1-0.7C33.7,28.1,33.8,30.4,35.3,30.4z M38.6,29.7c0-0.7-1.4-0.7-1.4-1.2c0-0.2,0.1-0.3,0.3-0.3
						c0.4,0,0.3,0.6,0.7,0.6c0.1,0,0.3-0.1,0.3-0.2c0-0.3-0.4-0.5-0.9-0.5c-0.5,0-1,0.2-1,0.6c0,0.7,1.4,0.8,1.4,1.2
						c0,0.1-0.1,0.2-0.3,0.2c-0.5,0-0.5-0.4-0.6-0.5c-0.1-0.1-0.1-0.1-0.2-0.1c-0.2,0-0.3,0.1-0.3,0.3c0,0.3,0.5,0.5,1.1,0.5
						C38.1,30.4,38.6,30.2,38.6,29.7z M39.5,29c0-0.4,0.2-0.7,0.5-0.7c0.3,0,0.4,0.3,0.3,0.6c0,0,0,0.1-0.1,0.1H39.5z M40,30.4
						c0.4,0,0.8-0.2,1-0.4c0,0,0-0.1-0.1-0.1c0,0,0,0,0,0c-0.1,0.1-0.3,0.2-0.5,0.2c-0.5,0-0.8-0.5-0.8-1h1c0.3,0,0.4-0.1,0.4-0.3
						c0-0.4-0.4-0.7-1-0.7C38.4,28.1,38.4,30.4,40,30.4z M41.3,29.8c0,0.3-0.2,0.3-0.3,0.4c0,0,0,0.1,0,0.1h1.3c0.1,0,0.1-0.1,0-0.1
						c-0.1-0.1-0.3,0-0.3-0.4v-0.5c0-0.5,0.2-0.9,0.5-0.9c0.2,0,0.3,0.2,0.3,0.4c0,0.3-0.1,0.7-0.1,1c0,0.4,0.2,0.6,0.6,0.6
						c0.2,0,0.3,0,0.5-0.1c0.1,0,0.1-0.1,0-0.1c-0.1-0.1-0.3,0-0.3-0.3v-0.7c0-0.5-0.1-1-0.7-1c-0.4,0-0.6,0.2-0.8,0.7
						c0-0.2,0-0.4-0.1-0.5c-0.1,0-0.2-0.1-0.3-0.1c-0.2,0-0.4,0-0.6,0.1c-0.1,0-0.1,0.1,0,0.1c0.1,0.1,0.3,0,0.3,0.3
						C41.3,28.7,41.3,29.8,41.3,29.8z M45.3,28.3c0.3,0,0.2,0.4,0.3,0.6c0,0.1,0.2,0.2,0.3,0.2c0.2,0,0.3-0.1,0.3-0.3
						c0-0.3-0.4-0.6-0.9-0.6c-1.6,0-1.6,2.2,0,2.2c0.5,0,0.8-0.2,1-0.4c0,0,0-0.1-0.1-0.1c0,0,0,0,0,0c-0.1,0.2-0.3,0.2-0.5,0.2
						C44.6,30.1,44.6,28.3,45.3,28.3L45.3,28.3z M47.1,29c0-0.4,0.2-0.7,0.5-0.7c0.3,0,0.4,0.3,0.3,0.6c0,0,0,0.1-0.1,0.1H47.1
						L47.1,29z M47.5,30.4c0.4,0,0.8-0.2,1-0.4c0,0,0-0.1-0.1-0.1c0,0,0,0,0,0c-0.1,0.1-0.3,0.2-0.5,0.2c-0.5,0-0.8-0.5-0.8-1h1
						c0.3,0,0.4-0.1,0.4-0.3c0-0.4-0.4-0.7-1-0.7C46,28.1,46,30.4,47.5,30.4L47.5,30.4z M50.9,28.4c0,0.1,0.2,0,0.3,0.2l0.2,0.3
						l-0.3,0.5l-0.6-1.1c-0.1-0.2-0.2-0.2-0.4-0.2c-0.2,0-0.4,0-0.6,0.1c0,0-0.1,0-0.1,0.1c0,0.1,0.2,0,0.3,0.2l0.9,1.7
						c0,0,0,0,0.1,0c0,0,0.1,0,0.1,0l0.6-1.3l0.6,1.3c0,0,0,0,0.1,0c0,0,0.1,0,0.1,0l0.8-1.7c0.1-0.1,0.2-0.3,0.2-0.5
						c0-0.2-0.2-0.3-0.3-0.3c-0.2,0-0.3,0.1-0.3,0.3c0,0.2,0.2,0.4,0.2,0.6c0,0.2-0.1,0.4-0.2,0.6L52,28.4c-0.1-0.2-0.2-0.2-0.4-0.2
						C51.4,28.2,51.2,28.2,50.9,28.4C51,28.3,50.9,28.3,50.9,28.4L50.9,28.4z M54.6,30.4c1.7,0,1.6-2.2,0-2.2
						C53,28.1,52.9,30.4,54.6,30.4z M54.6,28.3c0.6,0,0.6,2,0,2C53.9,30.3,53.9,28.3,54.6,28.3z M57.2,30.1c-0.2,0-0.3-0.2-0.3-0.4
						c0-0.3,0.1-0.7,0.1-1c0-0.3-0.1-0.5-0.5-0.5c-0.1,0-0.3,0-0.6,0.1c-0.1,0-0.1,0.1,0,0.1c0.1,0.1,0.3,0,0.3,0.3v0.6
						c0,0.5,0.1,1,0.7,1c0.4,0,0.6-0.2,0.8-0.7c0,0.2,0,0.3,0.1,0.5c0.1,0.1,0.2,0.2,0.5,0.2c0.2,0,0.3,0,0.5-0.1
						c0.1,0,0.1-0.1,0-0.1c-0.1-0.1-0.3,0-0.3-0.3v-1.1c0-0.3,0-0.5-0.4-0.5c-0.2,0-0.4,0-0.6,0.1c-0.1,0-0.1,0.1,0,0.1
						c0.1,0.1,0.3,0,0.3,0.3v0.4C57.7,29.6,57.4,30.1,57.2,30.1L57.2,30.1z M59.9,27.8c0-0.3,0-0.5-0.4-0.5c-0.2,0-0.4,0-0.6,0.1
						c-0.1,0-0.1,0.1,0,0.1c0.1,0.1,0.3,0,0.3,0.3v2c0,0.3,0.2,0.5,0.6,0.5c0.2,0,0.3,0,0.5-0.1c0.1,0,0.1-0.1,0-0.1
						c-0.1-0.1-0.3,0-0.3-0.3V27.8z M61.8,30.1c-1,0-1-1.8-0.3-1.8c0.2,0,0.4,0.2,0.4,0.5v1.1c0,0.1,0,0.2,0,0.2
						C61.9,30.1,61.9,30.1,61.8,30.1L61.8,30.1z M62.7,27.8c0-0.3,0-0.5-0.4-0.5c-0.2,0-0.4,0-0.6,0.1c-0.1,0-0.1,0.1,0,0.1
						c0.1,0.1,0.3,0,0.3,0.3l0,0.4c-0.1-0.1-0.3-0.1-0.5-0.1c-1.6,0-1.6,2.2,0,2.2c0.2,0,0.4-0.1,0.6-0.2c0.1,0.1,0.2,0.2,0.5,0.2
						c0.2,0,0.3,0,0.5-0.1c0.1,0,0.1-0.1,0-0.1c-0.1-0.1-0.3,0-0.3-0.3C62.7,29.8,62.7,27.8,62.7,27.8z M65.7,29.8
						c0,0.3-0.2,0.3-0.3,0.4c0,0,0,0.1,0,0.1h1.3c0.1,0,0.1-0.1,0-0.1c-0.1-0.1-0.3,0-0.3-0.4V29c0.1-0.3,0.3-0.6,0.5-0.6
						c0.2,0,0.3,0.2,0.3,0.4c0,0.3-0.1,0.7-0.1,1c0,0.4,0.2,0.6,0.6,0.6c0.2,0,0.3,0,0.5-0.1c0.1,0,0.1-0.1,0-0.1
						c-0.1-0.1-0.3,0-0.3-0.3v-0.7c0-0.5-0.1-1-0.7-1c-0.4,0-0.6,0.2-0.8,0.6c0-0.4-0.2-0.6-0.6-0.6c-0.4,0-0.6,0.2-0.8,0.6
						c0-0.2,0-0.4-0.1-0.4c-0.1-0.1-0.2-0.1-0.3-0.1c-0.2,0-0.5,0.1-0.6,0.1c-0.1,0-0.1,0.1,0,0.1c0.1,0.1,0.3,0,0.3,0.3v1.1
						c0,0.3-0.2,0.3-0.3,0.4c0,0,0,0.1,0,0.1h1.3c0.1,0,0.1-0.1,0-0.1c-0.1-0.1-0.3,0-0.3-0.4V29c0.1-0.3,0.3-0.6,0.4-0.6
						c0.2,0,0.2,0.3,0.2,0.5L65.7,29.8L65.7,29.8z M69.1,29c0-0.4,0.2-0.7,0.5-0.7c0.3,0,0.4,0.3,0.3,0.6c0,0,0,0.1-0.1,0.1H69.1z
						 M69.5,30.4c0.4,0,0.8-0.2,1-0.4c0,0,0-0.1-0.1-0.1c0,0,0,0,0,0c-0.1,0.1-0.3,0.2-0.5,0.2c-0.5,0-0.8-0.5-0.8-1h1
						c0.3,0,0.4-0.1,0.4-0.3c0-0.4-0.4-0.7-1-0.7C68,28.1,68,30.4,69.5,30.4L69.5,30.4z M72.1,29.9c-0.1,0.1-0.2,0.2-0.4,0.2
						c-0.2,0-0.3-0.1-0.3-0.4c0-0.5,0.5-0.6,0.7-0.8C72.1,29.2,72,29.6,72.1,29.9L72.1,29.9z M72.1,30.1c0.1,0.2,0.3,0.3,0.6,0.3
						c0.2,0,0.3,0,0.5-0.1c0.1,0,0.1-0.1,0-0.1c-0.1-0.1-0.3,0-0.3-0.3v-0.7c0-0.8-0.3-1-1-1c-0.6,0-1,0.2-1,0.5
						c0,0.2,0.2,0.3,0.3,0.3c0.1,0,0.2,0,0.2-0.1c0.1-0.2,0.2-0.5,0.4-0.5c0.2,0,0.3,0.2,0.3,0.4c0,0.6-1.5,0.4-1.5,1.2
						c0,0.3,0.3,0.6,0.7,0.6C71.7,30.4,72,30.3,72.1,30.1L72.1,30.1z M73.6,29.8c0,0.3-0.2,0.3-0.3,0.4c0,0,0,0.1,0,0.1h1.3
						c0.1,0,0.1-0.1,0-0.1c-0.1-0.1-0.3,0-0.3-0.4v-0.5c0-0.5,0.2-0.9,0.5-0.9c0.2,0,0.3,0.2,0.3,0.4c0,0.3-0.1,0.7-0.1,1
						c0,0.4,0.2,0.6,0.6,0.6c0.2,0,0.3,0,0.5-0.1c0.1,0,0.1-0.1,0-0.1c-0.1-0.1-0.3,0-0.3-0.3v-0.7c0-0.5-0.1-1-0.7-1
						c-0.4,0-0.6,0.2-0.8,0.7c0-0.2,0-0.4-0.1-0.5c-0.1,0-0.2-0.1-0.3-0.1c-0.2,0-0.4,0-0.6,0.1c-0.1,0-0.1,0.1,0,0.1
						c0.1,0.1,0.3,0,0.3,0.3L73.6,29.8L73.6,29.8z M78.7,29.9c-0.1,0.1-0.2,0.2-0.3,0.2c-0.2,0-0.2-0.3-0.2-0.5v-1.3h0.3
						c0.1,0,0.1-0.1,0-0.1h-0.4c0,0,0-0.1,0-0.1v-0.4c0,0,0-0.1-0.1-0.1c0,0,0,0-0.1,0c-0.2,0.3-0.5,0.5-0.9,0.5
						c-0.1,0-0.1,0.1,0,0.1h0.2v1c0,0.5,0.1,1,0.7,1c0.3,0,0.5-0.1,0.7-0.4C78.8,29.9,78.8,29.8,78.7,29.9
						C78.7,29.8,78.7,29.9,78.7,29.9z M79.1,29.8c0,0.3-0.2,0.3-0.3,0.4c0,0,0,0.1,0,0.1h1.3c0.1,0,0.1-0.1,0-0.1
						c-0.1-0.1-0.3,0-0.3-0.4v-0.5c0-0.5,0.2-0.9,0.5-0.9c0.2,0,0.3,0.2,0.3,0.4c0,0.3-0.1,0.7-0.1,1c0,0.4,0.2,0.6,0.6,0.6
						c0.2,0,0.3,0,0.5-0.1c0.1,0,0.1-0.1,0-0.1c-0.1-0.1-0.3,0-0.3-0.3v-0.7c0-0.5-0.1-1-0.7-1c-0.4,0-0.6,0.2-0.8,0.7l0-1
						c0-0.3,0-0.5-0.4-0.5c-0.2,0-0.4,0-0.6,0.1c-0.1,0-0.1,0.1,0,0.1c0.1,0.1,0.3,0,0.3,0.3C79.1,27.8,79.1,29.8,79.1,29.8z
						 M82.5,29c0-0.4,0.2-0.7,0.5-0.7c0.3,0,0.4,0.3,0.3,0.6c0,0,0,0.1-0.1,0.1H82.5L82.5,29z M83,30.4c0.4,0,0.8-0.2,1-0.4
						c0,0,0-0.1-0.1-0.1c0,0,0,0,0,0c-0.1,0.1-0.3,0.2-0.5,0.2c-0.5,0-0.8-0.5-0.8-1h1c0.3,0,0.4-0.1,0.4-0.3c0-0.4-0.4-0.7-1-0.7
						C81.4,28.1,81.4,30.4,83,30.4L83,30.4z M86.4,28.4c0,0.1,0.2,0,0.3,0.2l0.2,0.3l-0.3,0.5L86,28.4c-0.1-0.2-0.2-0.2-0.4-0.2
						c-0.2,0-0.4,0-0.6,0.1c0,0-0.1,0-0.1,0.1c0,0.1,0.2,0,0.3,0.2l0.9,1.7c0,0,0,0,0.1,0c0,0,0.1,0,0.1,0l0.6-1.3l0.6,1.3
						c0,0,0,0,0.1,0c0,0,0.1,0,0.1,0l0.8-1.7c0.1-0.1,0.2-0.3,0.2-0.5c0-0.2-0.2-0.3-0.3-0.3c-0.2,0-0.3,0.1-0.3,0.3
						c0,0.2,0.2,0.4,0.2,0.6c0,0.2-0.1,0.4-0.2,0.6l-0.5-1.1c-0.1-0.2-0.2-0.2-0.4-0.2C86.9,28.2,86.6,28.2,86.4,28.4
						C86.4,28.3,86.4,28.3,86.4,28.4L86.4,28.4z M90,30.4c1.7,0,1.6-2.2,0-2.2C88.4,28.1,88.3,30.4,90,30.4z M90,28.3
						c0.6,0,0.6,2,0,2C89.4,30.3,89.4,28.3,90,28.3z M92.4,28.7c0-0.2,0-0.3-0.1-0.4c-0.1-0.1-0.2-0.1-0.3-0.1
						c-0.2,0-0.5,0.1-0.6,0.1c-0.1,0-0.1,0.1,0,0.1c0.1,0.1,0.3,0,0.3,0.3v1.1c0,0.3-0.2,0.3-0.3,0.4c0,0,0,0.1,0,0.1h1.3
						c0.1,0,0.1-0.1,0-0.1c0,0-0.1,0-0.1-0.1c-0.2-0.1-0.3-0.2-0.3-0.5c0-0.5,0.2-1.1,0.4-1.2c0.1-0.1,0.1-0.2,0.2-0.2l0,0
						c0,0.1-0.1,0.1-0.1,0.2c0,0.2,0.2,0.4,0.4,0.4c0.3,0,0.4-0.2,0.4-0.4c0-0.2-0.2-0.4-0.4-0.4C92.9,28.1,92.6,28.4,92.4,28.7
						L92.4,28.7z M94.8,27.8c0-0.3,0-0.5-0.4-0.5c-0.2,0-0.4,0-0.6,0.1c-0.1,0-0.1,0.1,0,0.1c0.1,0.1,0.3,0,0.3,0.3v2
						c0,0.3,0.2,0.5,0.6,0.5c0.2,0,0.3,0,0.5-0.1c0.1,0,0.1-0.1,0-0.1c-0.1-0.1-0.3,0-0.3-0.3C94.8,29.8,94.8,27.8,94.8,27.8z
						 M96.7,30.1c-1,0-1-1.8-0.3-1.8c0.2,0,0.4,0.2,0.4,0.5v1.1c0,0.1,0,0.2,0,0.2C96.8,30.1,96.8,30.1,96.7,30.1L96.7,30.1z
						 M97.6,27.8c0-0.3,0-0.5-0.4-0.5c-0.2,0-0.4,0-0.6,0.1c-0.1,0-0.1,0.1,0,0.1c0.1,0.1,0.3,0,0.3,0.3l0,0.4
						c-0.1-0.1-0.3-0.1-0.5-0.1c-1.6,0-1.6,2.2,0,2.2c0.2,0,0.4-0.1,0.6-0.2c0.1,0.1,0.2,0.2,0.5,0.2c0.2,0,0.3,0,0.5-0.1
						c0.1,0,0.1-0.1,0-0.1c-0.1-0.1-0.3,0-0.3-0.3C97.6,29.8,97.6,27.8,97.6,27.8z M100.4,29.9c-0.1,0.1-0.2,0.2-0.3,0.2
						c-0.2,0-0.2-0.3-0.2-0.5v-1.3h0.3c0.1,0,0.1-0.1,0-0.1h-0.4c0,0,0-0.1,0-0.1v-0.4c0,0,0-0.1-0.1-0.1c0,0,0,0-0.1,0
						c-0.2,0.3-0.5,0.5-0.9,0.5c-0.1,0-0.1,0.1,0,0.1h0.2v1c0,0.5,0.1,1,0.7,1c0.3,0,0.5-0.1,0.7-0.4
						C100.6,29.9,100.6,29.8,100.4,29.9C100.5,29.8,100.5,29.9,100.4,29.9L100.4,29.9z M101.9,30.4c1.7,0,1.6-2.2,0-2.2
						C100.3,28.1,100.2,30.4,101.9,30.4z M101.9,28.3c0.6,0,0.6,2,0,2C101.3,30.3,101.3,28.3,101.9,28.3z M105.4,30.1
						c-0.2,0-0.3-0.2-0.3-0.4c0-0.3,0.1-0.7,0.1-1c0-0.3-0.1-0.5-0.5-0.5c-0.1,0-0.3,0-0.6,0.1c-0.1,0-0.1,0.1,0,0.1
						c0.1,0.1,0.3,0,0.3,0.3v0.6c0,0.5,0.1,1,0.7,1c0.4,0,0.6-0.2,0.8-0.7c0,0.2,0,0.3,0.1,0.5c0.1,0.1,0.2,0.2,0.5,0.2
						c0.2,0,0.3,0,0.5-0.1c0.1,0,0.1-0.1,0-0.1c-0.1-0.1-0.3,0-0.3-0.3v-1.1c0-0.3,0-0.5-0.4-0.5c-0.2,0-0.4,0-0.6,0.1
						c-0.1,0-0.1,0.1,0,0.1c0.1,0.1,0.3,0,0.3,0.3v0.4C105.9,29.6,105.7,30.1,105.4,30.1z M109.2,29.7c0-0.7-1.4-0.7-1.4-1.2
						c0-0.2,0.1-0.3,0.3-0.3c0.4,0,0.3,0.6,0.7,0.6c0.1,0,0.3-0.1,0.3-0.2c0-0.3-0.4-0.5-0.9-0.5c-0.5,0-1,0.2-1,0.6
						c0,0.7,1.4,0.8,1.4,1.2c0,0.1-0.1,0.2-0.3,0.2c-0.5,0-0.5-0.4-0.6-0.5c-0.1-0.1-0.1-0.1-0.2-0.1c-0.2,0-0.3,0.1-0.3,0.3
						c0,0.3,0.5,0.5,1.1,0.5C108.7,30.4,109.2,30.2,109.2,29.7L109.2,29.7z M28.9,35.4c-0.1,0.1-0.2,0.2-0.4,0.2
						c-0.2,0-0.3-0.1-0.3-0.4c0-0.5,0.5-0.6,0.7-0.8C28.9,34.7,28.8,35.1,28.9,35.4z M28.9,35.6c0.1,0.2,0.3,0.3,0.6,0.3
						c0.2,0,0.3,0,0.5-0.1c0.1,0,0.1-0.1,0-0.1c-0.1-0.1-0.3,0-0.3-0.3v-0.7c0-0.8-0.3-1-1-1c-0.6,0-1,0.2-1,0.5
						c0,0.2,0.2,0.3,0.3,0.3c0.1,0,0.2,0,0.2-0.1c0.1-0.2,0.2-0.5,0.4-0.5c0.2,0,0.3,0.2,0.3,0.4c0,0.6-1.5,0.4-1.5,1.2
						c0,0.3,0.3,0.6,0.7,0.6C28.5,35.9,28.8,35.8,28.9,35.6z M32.3,35.2c0-0.7-1.4-0.7-1.4-1.2c0-0.2,0.1-0.3,0.3-0.3
						c0.4,0,0.3,0.6,0.7,0.6c0.1,0,0.3-0.1,0.3-0.2c0-0.3-0.4-0.5-0.9-0.5c-0.5,0-1,0.2-1,0.6c0,0.7,1.4,0.8,1.4,1.2
						c0,0.1-0.1,0.2-0.3,0.2c-0.5,0-0.5-0.4-0.6-0.5c-0.1-0.1-0.1-0.1-0.2-0.1c-0.2,0-0.3,0.1-0.3,0.3c0,0.3,0.5,0.5,1.1,0.5
						C31.7,35.9,32.3,35.7,32.3,35.2z M34.7,33.9c0,0.1,0.2,0,0.3,0.2l0.2,0.3L34.9,35l-0.6-1.1c-0.1-0.2-0.2-0.2-0.4-0.2
						c-0.2,0-0.4,0-0.6,0.1c0,0-0.1,0-0.1,0.1c0,0.1,0.2,0,0.3,0.2l0.9,1.7c0,0,0,0,0.1,0c0,0,0.1,0,0.1,0l0.6-1.3l0.6,1.3
						c0,0,0,0,0.1,0s0.1,0,0.1,0l0.8-1.7c0.1-0.1,0.2-0.3,0.2-0.5c0-0.2-0.2-0.3-0.3-0.3c-0.2,0-0.3,0.1-0.3,0.3
						c0,0.2,0.2,0.4,0.2,0.6c0,0.2-0.1,0.4-0.2,0.6l-0.5-1.1c-0.1-0.2-0.2-0.2-0.4-0.2C35.1,33.7,34.9,33.7,34.7,33.9
						C34.7,33.8,34.7,33.8,34.7,33.9L34.7,33.9z"/>
					<path class="st0" d="M37.8,34.5c0-0.4,0.2-0.7,0.5-0.7c0.3,0,0.4,0.3,0.3,0.6c0,0,0,0.1-0.1,0.1C38.5,34.5,37.8,34.5,37.8,34.5
						z M38.2,35.9c0.4,0,0.8-0.2,1-0.4c0,0,0-0.1-0.1-0.1c0,0,0,0,0,0c-0.1,0.1-0.3,0.2-0.5,0.2c-0.5,0-0.8-0.5-0.8-1h1
						c0.3,0,0.4-0.1,0.4-0.3c0-0.4-0.4-0.7-1-0.7C36.6,33.6,36.6,35.9,38.2,35.9z M42,35.4c0,0.3-0.2,0.3-0.3,0.4c0,0,0,0.1,0,0.1
						H43c0.1,0,0.1-0.1,0-0.1c-0.1-0.1-0.3,0-0.3-0.4v-0.8c0.1-0.3,0.3-0.6,0.5-0.6c0.2,0,0.3,0.2,0.3,0.4c0,0.3-0.1,0.7-0.1,1
						c0,0.4,0.2,0.6,0.6,0.6c0.2,0,0.3,0,0.5-0.1c0.1,0,0.1-0.1,0-0.1c-0.1-0.1-0.3,0-0.3-0.3v-0.7c0-0.5-0.1-1-0.7-1
						c-0.4,0-0.6,0.2-0.8,0.6c0-0.4-0.2-0.6-0.6-0.6c-0.4,0-0.6,0.2-0.8,0.6c0-0.2,0-0.4-0.1-0.4c-0.1-0.1-0.2-0.1-0.3-0.1
						c-0.2,0-0.5,0.1-0.6,0.1c-0.1,0-0.1,0.1,0,0.1c0.1,0.1,0.3,0,0.3,0.3v1.1c0,0.3-0.2,0.3-0.3,0.4c0,0,0,0.1,0,0.1h1.3
						c0.1,0,0.1-0.1,0-0.1c-0.1-0.1-0.3,0-0.3-0.4v-0.8c0.1-0.3,0.3-0.6,0.4-0.6c0.2,0,0.2,0.3,0.2,0.5L42,35.4L42,35.4z M46,35.4
						c-0.1,0.1-0.2,0.2-0.4,0.2c-0.2,0-0.3-0.1-0.3-0.4c0-0.5,0.5-0.6,0.7-0.8C46,34.7,45.9,35.1,46,35.4z M46,35.6
						c0.1,0.2,0.3,0.3,0.6,0.3c0.2,0,0.3,0,0.5-0.1c0.1,0,0.1-0.1,0-0.1c-0.1-0.1-0.3,0-0.3-0.3v-0.7c0-0.8-0.3-1-1-1
						c-0.6,0-1,0.2-1,0.5c0,0.2,0.2,0.3,0.3,0.3c0.1,0,0.2,0,0.2-0.1c0.1-0.2,0.2-0.5,0.4-0.5c0.2,0,0.3,0.2,0.3,0.4
						c0,0.6-1.5,0.4-1.5,1.2c0,0.3,0.3,0.6,0.7,0.6C45.6,35.9,45.9,35.8,46,35.6z M48.3,34.2c0-0.2,0-0.3-0.1-0.4
						c-0.1-0.1-0.2-0.1-0.3-0.1c-0.2,0-0.5,0.1-0.6,0.1c-0.1,0-0.1,0.1,0,0.1c0.1,0.1,0.3,0,0.3,0.3v1.1c0,0.3-0.2,0.3-0.3,0.4
						c0,0,0,0.1,0,0.1h1.3c0.1,0,0.1-0.1,0-0.1c0,0-0.1,0-0.1-0.1c-0.2-0.1-0.3-0.2-0.3-0.5c0-0.5,0.2-1.1,0.4-1.2
						c0.1-0.1,0.1-0.2,0.2-0.2l0,0c0,0.1-0.1,0.1-0.1,0.2c0,0.2,0.2,0.4,0.4,0.4c0.3,0,0.4-0.2,0.4-0.4s-0.2-0.4-0.4-0.4
						C48.7,33.6,48.4,33.9,48.3,34.2L48.3,34.2z M50.7,34.4c0-0.2,0.2-0.4,0.4-0.4c0.4,0,0.4,0.7-0.1,0.7
						C50.9,34.6,50.8,34.5,50.7,34.4z M51.8,35.9c0.2,0,0.3,0,0.4-0.1c0.1,0,0.1-0.1,0-0.1c0,0-0.1,0-0.3-0.2
						c-0.1-0.2-0.3-0.6-0.7-0.7c0.8-0.1,0.8-1.1,0.1-1.1c-0.3,0-0.6,0.2-0.8,0.5l0-0.8c0-0.3,0-0.5-0.4-0.5c-0.2,0-0.4,0-0.6,0.1
						c-0.1,0-0.1,0.1,0,0.1c0.1,0.1,0.3,0,0.3,0.3v2c0,0.3-0.2,0.3-0.3,0.4c0,0,0,0.1,0,0.1h1.3c0.1,0,0.1-0.1,0-0.1
						c-0.1-0.1-0.3,0-0.3-0.4v-0.8c0.2,0.2,0.3,0.2,0.4,0.5C51.1,35.4,51.2,35.9,51.8,35.9z M54.8,35.4c-0.1,0.1-0.2,0.2-0.3,0.2
						c-0.2,0-0.2-0.3-0.2-0.5v-1.3h0.3c0.1,0,0.1-0.1,0-0.1h-0.4c0,0,0-0.1,0-0.1v-0.4c0,0,0-0.1-0.1-0.1c0,0,0,0-0.1,0
						c-0.2,0.3-0.5,0.5-0.9,0.5c-0.1,0-0.1,0.1,0,0.1h0.2v1c0,0.5,0.1,1,0.7,1c0.3,0,0.5-0.1,0.7-0.4C55,35.4,54.9,35.3,54.8,35.4
						C54.9,35.3,54.9,35.4,54.8,35.4L54.8,35.4z M55.3,35.4c0,0.3-0.2,0.3-0.3,0.4c0,0,0,0.1,0,0.1h1.3c0.1,0,0.1-0.1,0-0.1
						c-0.1-0.1-0.3,0-0.3-0.4v-0.5c0-0.5,0.2-0.9,0.5-0.9c0.2,0,0.3,0.2,0.3,0.4c0,0.3-0.1,0.7-0.1,1c0,0.4,0.2,0.6,0.6,0.6
						c0.2,0,0.3,0,0.5-0.1c0.1,0,0.1-0.1,0-0.1c-0.1-0.1-0.3,0-0.3-0.3v-0.7c0-0.5-0.1-1-0.7-1c-0.4,0-0.6,0.2-0.8,0.7l0-1
						c0-0.3,0-0.5-0.4-0.5c-0.2,0-0.4,0-0.6,0.1C55,32.9,55,33,55,33c0.1,0.1,0.3,0,0.3,0.3V35.4L55.3,35.4z M58.1,33
						c0,0.2,0.2,0.4,0.4,0.4c0.3,0,0.4-0.2,0.4-0.4c0-0.2-0.2-0.4-0.4-0.4S58.1,32.8,58.1,33z M59,34.2c0-0.3,0-0.5-0.4-0.5
						c-0.2,0-0.4,0-0.6,0.1c-0.1,0-0.1,0.1,0,0.1c0.1,0.1,0.3,0,0.3,0.3v1.1c0,0.3,0.2,0.5,0.6,0.5c0.2,0,0.3,0,0.5-0.1
						c0.1,0,0.1-0.1,0-0.1c-0.1-0.1-0.3,0-0.3-0.3C59,35.3,59,34.2,59,34.2z M61.6,35.2c0-0.7-1.4-0.7-1.4-1.2
						c0-0.2,0.1-0.3,0.3-0.3c0.4,0,0.3,0.6,0.7,0.6c0.1,0,0.3-0.1,0.3-0.2c0-0.3-0.4-0.5-0.9-0.5c-0.5,0-1,0.2-1,0.6
						c0,0.7,1.4,0.8,1.4,1.2c0,0.1-0.1,0.2-0.3,0.2c-0.5,0-0.5-0.4-0.6-0.5c-0.1-0.1-0.1-0.1-0.2-0.1c-0.2,0-0.3,0.1-0.3,0.3
						c0,0.3,0.5,0.5,1.1,0.5C61,35.9,61.6,35.7,61.6,35.2L61.6,35.2z M64.8,35.2c0-0.7-1.4-0.7-1.4-1.2c0-0.2,0.1-0.3,0.3-0.3
						c0.4,0,0.3,0.6,0.7,0.6c0.1,0,0.3-0.1,0.3-0.2c0-0.3-0.4-0.5-0.9-0.5c-0.5,0-1,0.2-1,0.6c0,0.7,1.4,0.8,1.4,1.2
						c0,0.1-0.1,0.2-0.3,0.2c-0.5,0-0.5-0.4-0.6-0.5c-0.1-0.1-0.1-0.1-0.2-0.1c-0.2,0-0.3,0.1-0.3,0.3c0,0.3,0.5,0.5,1.1,0.5
						C64.2,35.9,64.8,35.7,64.8,35.2L64.8,35.2z M66.1,33.9c1,0,1,1.8,0.3,1.8c-0.2,0-0.4-0.2-0.4-0.5v-1c0-0.2,0-0.2,0-0.3
						C66,33.9,66,33.9,66.1,33.9z M65.2,36.2c0,0.3-0.2,0.3-0.3,0.4c0,0,0,0.1,0,0.1h1.3c0.1,0,0.1-0.1,0-0.1
						c-0.1-0.1-0.3,0-0.3-0.4v-0.4c0.1,0,0.3,0.1,0.5,0.1c1.6,0,1.6-2.2,0-2.2c-0.2,0-0.4,0.1-0.6,0.1c-0.1-0.1-0.2-0.1-0.3-0.1
						c-0.2,0-0.4,0-0.6,0.1c-0.1,0-0.1,0.1,0,0.1c0.1,0.1,0.3,0,0.3,0.3L65.2,36.2L65.2,36.2z M68.5,34.5c0-0.4,0.2-0.7,0.5-0.7
						c0.3,0,0.4,0.3,0.3,0.6c0,0,0,0.1-0.1,0.1C69.3,34.5,68.5,34.5,68.5,34.5z M68.9,35.9c0.4,0,0.8-0.2,1-0.4c0,0,0-0.1-0.1-0.1
						c0,0,0,0,0,0c-0.1,0.1-0.3,0.2-0.5,0.2c-0.5,0-0.8-0.5-0.8-1h1c0.3,0,0.4-0.1,0.4-0.3c0-0.4-0.4-0.7-1-0.7
						C67.4,33.6,67.4,35.9,68.9,35.9L68.9,35.9z M71.3,33.8c0.3,0,0.2,0.4,0.3,0.6c0,0.1,0.2,0.2,0.3,0.2c0.2,0,0.3-0.1,0.3-0.3
						c0-0.3-0.4-0.6-0.9-0.6c-1.6,0-1.6,2.2,0,2.2c0.5,0,0.8-0.2,1-0.4c0,0,0-0.1-0.1-0.1c0,0,0,0,0,0c-0.1,0.2-0.3,0.2-0.5,0.2
						C70.6,35.6,70.6,33.8,71.3,33.8L71.3,33.8z M72.6,33c0,0.2,0.2,0.4,0.4,0.4c0.3,0,0.4-0.2,0.4-0.4c0-0.2-0.2-0.4-0.4-0.4
						S72.6,32.8,72.6,33z M73.5,34.2c0-0.3,0-0.5-0.4-0.5c-0.2,0-0.4,0-0.6,0.1c-0.1,0-0.1,0.1,0,0.1c0.1,0.1,0.3,0,0.3,0.3v1.1
						c0,0.3,0.2,0.5,0.6,0.5c0.2,0,0.3,0,0.5-0.1c0.1,0,0.1-0.1,0-0.1c-0.1-0.1-0.3,0-0.3-0.3C73.5,35.3,73.5,34.2,73.5,34.2z
						 M75.2,35.4c-0.1,0.1-0.2,0.2-0.4,0.2c-0.2,0-0.3-0.1-0.3-0.4c0-0.5,0.5-0.6,0.7-0.8C75.3,34.7,75.2,35.1,75.2,35.4L75.2,35.4z
						 M75.3,35.6c0.1,0.2,0.3,0.3,0.6,0.3c0.2,0,0.3,0,0.5-0.1c0.1,0,0.1-0.1,0-0.1c-0.1-0.1-0.3,0-0.3-0.3v-0.7c0-0.8-0.3-1-1-1
						c-0.6,0-1,0.2-1,0.5c0,0.2,0.2,0.3,0.3,0.3c0.1,0,0.2,0,0.2-0.1c0.1-0.2,0.2-0.5,0.4-0.5c0.2,0,0.3,0.2,0.3,0.4
						c0,0.6-1.5,0.4-1.5,1.2c0,0.3,0.3,0.6,0.7,0.6C74.8,35.9,75.1,35.8,75.3,35.6z M77.5,33.3c0-0.3,0-0.5-0.4-0.5
						c-0.2,0-0.4,0-0.6,0.1c-0.1,0-0.1,0.1,0,0.1c0.1,0.1,0.3,0,0.3,0.3v2c0,0.3,0.2,0.5,0.6,0.5c0.2,0,0.3,0,0.5-0.1
						c0.1,0,0.1-0.1,0-0.1c-0.1-0.1-0.3,0-0.3-0.3C77.5,35.3,77.5,33.3,77.5,33.3z M80,35.9c1.7,0,1.6-2.2,0-2.2
						C78.4,33.6,78.4,35.9,80,35.9z M80,33.8c0.6,0,0.6,2,0,2C79.4,35.8,79.4,33.8,80,33.8z M82.7,33.8c0.3,0,0.2,0.4,0.3,0.6
						c0,0.1,0.2,0.2,0.3,0.2c0.2,0,0.3-0.1,0.3-0.3c0-0.3-0.4-0.6-0.9-0.6c-1.6,0-1.6,2.2,0,2.2c0.5,0,0.8-0.2,1-0.4
						c0,0,0-0.1-0.1-0.1c0,0,0,0,0,0c-0.1,0.2-0.3,0.2-0.5,0.2C82,35.6,82,33.8,82.7,33.8L82.7,33.8z M85,33.8
						c0.3,0,0.2,0.4,0.3,0.6c0,0.1,0.2,0.2,0.3,0.2c0.2,0,0.3-0.1,0.3-0.3c0-0.3-0.4-0.6-0.9-0.6c-1.6,0-1.6,2.2,0,2.2
						c0.5,0,0.8-0.2,1-0.4c0,0,0-0.1-0.1-0.1c0,0,0,0,0,0c-0.1,0.2-0.3,0.2-0.5,0.2C84.3,35.6,84.3,33.8,85,33.8z M87.5,35.4
						c-0.1,0.1-0.2,0.2-0.4,0.2c-0.2,0-0.3-0.1-0.3-0.4c0-0.5,0.5-0.6,0.7-0.8C87.5,34.7,87.4,35.1,87.5,35.4L87.5,35.4z M87.5,35.6
						c0.1,0.2,0.3,0.3,0.6,0.3c0.2,0,0.3,0,0.5-0.1c0.1,0,0.1-0.1,0-0.1c-0.1-0.1-0.3,0-0.3-0.3v-0.7c0-0.8-0.3-1-1-1
						c-0.6,0-1,0.2-1,0.5c0,0.2,0.2,0.3,0.3,0.3c0.1,0,0.2,0,0.2-0.1c0.1-0.2,0.2-0.5,0.4-0.5c0.2,0,0.3,0.2,0.3,0.4
						c0,0.6-1.5,0.4-1.5,1.2c0,0.3,0.3,0.6,0.7,0.6C87.1,35.9,87.4,35.8,87.5,35.6L87.5,35.6z M90.9,35.2c0-0.7-1.4-0.7-1.4-1.2
						c0-0.2,0.1-0.3,0.3-0.3c0.4,0,0.3,0.6,0.7,0.6c0.1,0,0.3-0.1,0.3-0.2c0-0.3-0.4-0.5-0.9-0.5c-0.5,0-1,0.2-1,0.6
						c0,0.7,1.4,0.8,1.4,1.2c0,0.1-0.1,0.2-0.3,0.2c-0.5,0-0.5-0.4-0.6-0.5c-0.1-0.1-0.1-0.1-0.2-0.1c-0.2,0-0.3,0.1-0.3,0.3
						c0,0.3,0.5,0.5,1.1,0.5C90.3,35.9,90.9,35.7,90.9,35.2L90.9,35.2z M91.2,33c0,0.2,0.2,0.4,0.4,0.4c0.3,0,0.4-0.2,0.4-0.4
						c0-0.2-0.2-0.4-0.4-0.4S91.2,32.8,91.2,33z M92,34.2c0-0.3,0-0.5-0.4-0.5c-0.2,0-0.4,0-0.6,0.1c-0.1,0-0.1,0.1,0,0.1
						c0.1,0.1,0.3,0,0.3,0.3v1.1c0,0.3,0.2,0.5,0.6,0.5c0.2,0,0.3,0,0.5-0.1c0.1,0,0.1-0.1,0-0.1c-0.1-0.1-0.3,0-0.3-0.3
						C92,35.3,92,34.2,92,34.2z M93.7,35.9c1.7,0,1.6-2.2,0-2.2C92.1,33.6,92,35.9,93.7,35.9z M93.7,33.8c0.6,0,0.6,2,0,2
						C93.1,35.8,93.1,33.8,93.7,33.8z M95.3,35.4c0,0.3-0.2,0.3-0.3,0.4c0,0,0,0.1,0,0.1h1.3c0.1,0,0.1-0.1,0-0.1
						c-0.1-0.1-0.3,0-0.3-0.4v-0.5c0-0.5,0.2-0.9,0.5-0.9c0.2,0,0.3,0.2,0.3,0.4c0,0.3-0.1,0.7-0.1,1c0,0.4,0.2,0.6,0.6,0.6
						c0.2,0,0.3,0,0.5-0.1c0.1,0,0.1-0.1,0-0.1c-0.1-0.1-0.3,0-0.3-0.3v-0.7c0-0.5-0.1-1-0.7-1c-0.4,0-0.6,0.2-0.8,0.7
						c0-0.2,0-0.4-0.1-0.5c-0.1,0-0.2-0.1-0.3-0.1c-0.2,0-0.4,0-0.6,0.1c-0.1,0-0.1,0.1,0,0.1c0.1,0.1,0.3,0,0.3,0.3V35.4L95.3,35.4
						z M98,35.5c0,0.2,0.2,0.4,0.4,0.4c0.2,0,0.4-0.2,0.4-0.4c0-0.2-0.2-0.4-0.4-0.4C98.2,35.1,98,35.3,98,35.5z"/>
				</g>
				<g>
					<path class="st0" d="M13.3,6.8c0-0.3,0.2-0.3,0.3-0.4c0,0,0-0.1,0-0.1h-1.3c-0.1,0-0.1,0.1,0,0.1c0.1,0.1,0.3,0,0.3,0.4v2
						c0,0.3-0.2,0.3-0.3,0.4c0,0,0,0.1,0,0.1h1.3c0.1,0,0.1-0.1,0-0.1c-0.1-0.1-0.3,0-0.3-0.4c0-0.5,0-0.9,0.3-0.9
						c0.4,0,0,1.4,1,1.4c0.2,0,0.3,0,0.4-0.1c0.1,0,0.1-0.1,0-0.1c0,0-0.1,0-0.2-0.2c-0.2-0.2-0.3-1.2-1.1-1.2c-0.1,0-0.1,0-0.2,0
						c0.2-0.3,0.3-0.6,0.4-0.7c0.3-0.3,0.6,0,0.8-0.3c0.1-0.1,0.1-0.2,0.1-0.3c0-0.2-0.2-0.4-0.4-0.4c-0.1,0-0.2,0-0.3,0.1
						c-0.2,0.2-0.6,0.9-0.9,1.6L13.3,6.8L13.3,6.8z M15.8,7.9c0-0.4,0.2-0.7,0.5-0.7c0.3,0,0.4,0.3,0.3,0.6c0,0,0,0.1-0.1,0.1H15.8z
						 M16.2,9.3c0.4,0,0.8-0.2,1-0.4c0,0,0-0.1-0.1-0.1c0,0,0,0,0,0C17,8.9,16.8,9,16.6,9c-0.5,0-0.8-0.5-0.8-1h1
						c0.3,0,0.4-0.1,0.4-0.3c0-0.4-0.4-0.7-1-0.7C14.7,7,14.7,9.3,16.2,9.3z M17.6,8.8c0,0.3-0.2,0.3-0.3,0.4c0,0,0,0.1,0,0.1h1.3
						c0.1,0,0.1-0.1,0-0.1c-0.1-0.1-0.3,0-0.3-0.4V8.3c0-0.5,0.2-0.9,0.5-0.9c0.2,0,0.3,0.2,0.3,0.4c0,0.3-0.1,0.7-0.1,1
						c0,0.4,0.2,0.6,0.6,0.6c0.2,0,0.3,0,0.5-0.1c0.1,0,0.1-0.1,0-0.1c-0.1-0.1-0.3,0-0.3-0.3V8.1c0-0.5-0.1-1-0.7-1
						c-0.4,0-0.6,0.2-0.8,0.7l0-1c0-0.3,0-0.5-0.4-0.5c-0.2,0-0.4,0-0.6,0.1c-0.1,0-0.1,0.1,0,0.1c0.1,0.1,0.3,0,0.3,0.3V8.8z
						 M21.7,8.9C21.6,8.9,21.4,9,21.3,9C21.1,9,21,8.9,21,8.7c0-0.5,0.5-0.6,0.7-0.8C21.7,8.1,21.6,8.5,21.7,8.9L21.7,8.9z M21.7,9
						c0.1,0.2,0.3,0.3,0.6,0.3c0.2,0,0.3,0,0.5-0.1c0.1,0,0.1-0.1,0-0.1c-0.1-0.1-0.3,0-0.3-0.3V8.1c0-0.8-0.3-1-1-1
						c-0.6,0-1,0.2-1,0.5c0,0.2,0.2,0.3,0.3,0.3c0.1,0,0.2,0,0.2-0.1c0.1-0.2,0.2-0.5,0.4-0.5c0.2,0,0.3,0.2,0.3,0.4
						c0,0.6-1.5,0.4-1.5,1.2c0,0.3,0.3,0.6,0.7,0.6C21.3,9.3,21.5,9.2,21.7,9z M24.4,9c-1,0-1-1.8-0.3-1.8c0.2,0,0.4,0.2,0.4,0.5
						v1.1c0,0.1,0,0.2,0,0.2C24.5,9,24.5,9,24.4,9z M25.3,6.7c0-0.3,0-0.5-0.4-0.5c-0.2,0-0.4,0-0.6,0.1c-0.1,0-0.1,0.1,0,0.1
						c0.1,0.1,0.3,0,0.3,0.3l0,0.4C24.4,7.1,24.2,7,24.1,7c-1.6,0-1.6,2.2,0,2.2c0.2,0,0.4-0.1,0.6-0.2c0.1,0.1,0.2,0.2,0.5,0.2
						c0.2,0,0.3,0,0.5-0.1c0.1,0,0.1-0.1,0-0.1c-0.1-0.1-0.3,0-0.3-0.3L25.3,6.7L25.3,6.7z M25.9,6.4c0,0.2,0.2,0.4,0.4,0.4
						c0.3,0,0.4-0.2,0.4-0.4c0-0.2-0.2-0.4-0.4-0.4C26,6,25.9,6.2,25.9,6.4z M26.8,7.6c0-0.3,0-0.5-0.4-0.5c-0.2,0-0.4,0-0.6,0.1
						c-0.1,0-0.1,0.1,0,0.1c0.1,0.1,0.3,0,0.3,0.3v1.1c0,0.3,0.2,0.5,0.6,0.5c0.2,0,0.3,0,0.5-0.1c0.1,0,0.1-0.1,0-0.1
						c-0.1-0.1-0.3,0-0.3-0.3L26.8,7.6L26.8,7.6z M28.2,7.6c0-0.2,0-0.3-0.1-0.4c-0.1-0.1-0.2-0.1-0.3-0.1c-0.2,0-0.5,0.1-0.6,0.1
						c-0.1,0-0.1,0.1,0,0.1c0.1,0.1,0.3,0,0.3,0.3v1.1c0,0.3-0.2,0.3-0.3,0.4c0,0,0,0.1,0,0.1h1.3c0.1,0,0.1-0.1,0-0.1
						c0,0-0.1,0-0.1-0.1c-0.2-0.1-0.3-0.2-0.3-0.5c0-0.5,0.2-1.1,0.4-1.2c0.1-0.1,0.1-0.2,0.2-0.2l0,0c0,0.1-0.1,0.1-0.1,0.2
						c0,0.2,0.2,0.4,0.4,0.4c0.3,0,0.4-0.2,0.4-0.4S29.3,7,29.1,7C28.7,7,28.4,7.3,28.2,7.6z M30.9,8.9C30.8,8.9,30.7,9,30.6,9
						c-0.2,0-0.3-0.1-0.3-0.4c0-0.5,0.5-0.6,0.7-0.8C31,8.1,30.9,8.5,30.9,8.9z M31,9c0.1,0.2,0.3,0.3,0.6,0.3c0.2,0,0.3,0,0.5-0.1
						c0.1,0,0.1-0.1,0-0.1c-0.1-0.1-0.3,0-0.3-0.3V8.1c0-0.8-0.3-1-1-1c-0.6,0-1,0.2-1,0.5c0,0.2,0.2,0.3,0.3,0.3
						c0.1,0,0.2,0,0.2-0.1c0.1-0.2,0.2-0.5,0.4-0.5c0.2,0,0.3,0.2,0.3,0.4c0,0.6-1.5,0.4-1.5,1.2c0,0.3,0.3,0.6,0.7,0.6
						C30.5,9.3,30.8,9.2,31,9L31,9z M32.4,8.8c0,0.3-0.2,0.3-0.3,0.4c0,0,0,0.1,0,0.1h1.3c0.1,0,0.1-0.1,0-0.1
						c-0.1-0.1-0.3,0-0.3-0.4V8.3c0-0.5,0.2-0.9,0.5-0.9c0.2,0,0.3,0.2,0.3,0.4c0,0.3-0.1,0.7-0.1,1c0,0.4,0.2,0.6,0.6,0.6
						c0.2,0,0.3,0,0.5-0.1c0.1,0,0.1-0.1,0-0.1c-0.1-0.1-0.3,0-0.3-0.3V8.1c0-0.5-0.1-1-0.7-1c-0.4,0-0.6,0.2-0.8,0.7
						c0-0.2,0-0.4-0.1-0.5c-0.1,0-0.2-0.1-0.3-0.1c-0.2,0-0.4,0-0.6,0.1c-0.1,0-0.1,0.1,0,0.1c0.1,0.1,0.3,0,0.3,0.3
						C32.4,7.6,32.4,8.8,32.4,8.8z M37.3,7.9h-0.5L37,7.3L37.3,7.9z M37.4,6.3C37.4,6.2,37.3,6.2,37.4,6.3c-0.1,0-0.1,0-0.1,0
						l-0.9,2.5c-0.1,0.3-0.3,0.3-0.4,0.4c0,0,0,0.1,0,0.1h0.6c0.1,0,0.1-0.1,0-0.1c-0.1-0.1-0.3-0.1-0.2-0.4L36.8,8h0.6
						c0.2,0.3,0.3,0.7,0.4,0.9c0,0.1,0,0.2-0.1,0.2c-0.1,0-0.1,0.1-0.1,0.1c0,0,0,0.1,0.1,0.1h1.3c0,0,0.1,0,0.1-0.1
						c0-0.1-0.1-0.1-0.2-0.1c-0.1,0-0.1-0.1-0.2-0.2L37.4,6.3L37.4,6.3z M39.2,8.8c0,0.3-0.2,0.3-0.3,0.4c0,0,0,0.1,0,0.1h1.3
						c0.1,0,0.1-0.1,0-0.1c-0.1-0.1-0.3,0-0.3-0.4V8.3c0-0.5,0.2-0.9,0.5-0.9c0.2,0,0.3,0.2,0.3,0.4c0,0.3-0.1,0.7-0.1,1
						c0,0.4,0.2,0.6,0.6,0.6c0.2,0,0.3,0,0.5-0.1c0.1,0,0.1-0.1,0-0.1c-0.1-0.1-0.3,0-0.3-0.3V8.1c0-0.5-0.1-1-0.7-1
						c-0.4,0-0.6,0.2-0.8,0.7c0-0.2,0-0.4-0.1-0.5c-0.1,0-0.2-0.1-0.3-0.1c-0.2,0-0.4,0-0.6,0.1c-0.1,0-0.1,0.1,0,0.1
						c0.1,0.1,0.3,0,0.3,0.3C39.2,7.6,39.2,8.8,39.2,8.8z M43.4,9c-1,0-1-1.8-0.3-1.8c0.2,0,0.4,0.2,0.4,0.5v1.1c0,0.1,0,0.2,0,0.2
						C43.5,9,43.5,9,43.4,9L43.4,9z M44.3,6.7c0-0.3,0-0.5-0.4-0.5c-0.2,0-0.4,0-0.6,0.1c-0.1,0-0.1,0.1,0,0.1
						c0.1,0.1,0.3,0,0.3,0.3l0,0.4C43.4,7.1,43.3,7,43.1,7c-1.6,0-1.6,2.2,0,2.2c0.2,0,0.4-0.1,0.6-0.2c0.1,0.1,0.2,0.2,0.5,0.2
						c0.2,0,0.3,0,0.5-0.1c0.1,0,0.1-0.1,0-0.1c-0.1-0.1-0.3,0-0.3-0.3C44.3,8.7,44.3,6.7,44.3,6.7z M46.1,8.9C46,8.9,45.9,9,45.8,9
						c-0.2,0-0.3-0.1-0.3-0.4c0-0.5,0.5-0.6,0.7-0.8C46.2,8.1,46.1,8.5,46.1,8.9z M46.2,9c0.1,0.2,0.3,0.3,0.6,0.3
						c0.2,0,0.3,0,0.5-0.1c0.1,0,0.1-0.1,0-0.1c-0.1-0.1-0.3,0-0.3-0.3V8.1c0-0.8-0.3-1-1-1c-0.6,0-1,0.2-1,0.5
						c0,0.2,0.2,0.3,0.3,0.3c0.1,0,0.2,0,0.2-0.1c0.1-0.2,0.2-0.5,0.4-0.5c0.2,0,0.3,0.2,0.3,0.4c0,0.6-1.5,0.4-1.5,1.2
						c0,0.3,0.3,0.6,0.7,0.6C45.7,9.3,46,9.2,46.2,9L46.2,9z M49.7,8.9C49.6,8.9,49.4,9,49.3,9C49.1,9,49,8.9,49,8.7
						c0-0.5,0.5-0.6,0.7-0.8C49.7,8.1,49.6,8.5,49.7,8.9L49.7,8.9z M49.7,9c0.1,0.2,0.3,0.3,0.6,0.3c0.2,0,0.3,0,0.5-0.1
						c0.1,0,0.1-0.1,0-0.1c-0.1-0.1-0.3,0-0.3-0.3V8.1c0-0.8-0.3-1-1-1c-0.6,0-1,0.2-1,0.5c0,0.2,0.2,0.3,0.3,0.3
						c0.1,0,0.2,0,0.2-0.1c0.1-0.2,0.2-0.5,0.4-0.5c0.2,0,0.3,0.2,0.3,0.4c0,0.6-1.5,0.4-1.5,1.2c0,0.3,0.3,0.6,0.7,0.6
						C49.3,9.3,49.5,9.2,49.7,9L49.7,9z M51.9,7.8c0-0.2,0.2-0.4,0.4-0.4c0.4,0,0.4,0.7-0.1,0.7C52.2,8,52,7.9,51.9,7.8z M53.1,9.3
						c0.2,0,0.3,0,0.4-0.1c0.1,0,0.1-0.1,0-0.1c0,0-0.1,0-0.3-0.2c-0.1-0.2-0.3-0.6-0.7-0.7C53.5,8.1,53.4,7,52.7,7
						c-0.3,0-0.6,0.2-0.8,0.5l0-0.8c0-0.3,0-0.5-0.4-0.5c-0.2,0-0.4,0-0.6,0.1c-0.1,0-0.1,0.1,0,0.1c0.1,0.1,0.3,0,0.3,0.3v2
						c0,0.3-0.2,0.3-0.3,0.4c0,0,0,0.1,0,0.1h1.3c0.1,0,0.1-0.1,0-0.1c-0.1-0.1-0.3,0-0.3-0.4V8c0.2,0.2,0.3,0.2,0.4,0.5
						C52.4,8.8,52.4,9.3,53.1,9.3L53.1,9.3z M55,8.9C55,8.9,54.8,9,54.7,9c-0.2,0-0.3-0.1-0.3-0.4c0-0.5,0.5-0.6,0.7-0.8
						C55.1,8.1,55,8.5,55,8.9L55,8.9z M55.1,9c0.1,0.2,0.3,0.3,0.6,0.3c0.2,0,0.3,0,0.5-0.1c0.1,0,0.1-0.1,0-0.1
						c-0.1-0.1-0.3,0-0.3-0.3V8.1c0-0.8-0.3-1-1-1c-0.6,0-1,0.2-1,0.5c0,0.2,0.2,0.3,0.3,0.3c0.1,0,0.2,0,0.2-0.1
						c0.1-0.2,0.2-0.5,0.4-0.5c0.2,0,0.3,0.2,0.3,0.4c0,0.6-1.5,0.4-1.5,1.2c0,0.3,0.3,0.6,0.7,0.6C54.6,9.3,54.9,9.2,55.1,9L55.1,9
						z M56.5,8.8c0,0.3-0.2,0.3-0.3,0.4c0,0,0,0.1,0,0.1h1.3c0.1,0,0.1-0.1,0-0.1c-0.1-0.1-0.3,0-0.3-0.4V8.3c0-0.5,0.2-0.9,0.5-0.9
						c0.2,0,0.3,0.2,0.3,0.4c0,0.3-0.1,0.7-0.1,1c0,0.4,0.2,0.6,0.6,0.6c0.2,0,0.3,0,0.5-0.1c0.1,0,0.1-0.1,0-0.1
						c-0.1-0.1-0.3,0-0.3-0.3V8.1c0-0.5-0.1-1-0.7-1c-0.4,0-0.6,0.2-0.8,0.7c0-0.2,0-0.4-0.1-0.5c-0.1,0-0.2-0.1-0.3-0.1
						c-0.2,0-0.4,0-0.6,0.1c-0.1,0-0.1,0.1,0,0.1c0.1,0.1,0.3,0,0.3,0.3C56.5,7.6,56.5,8.8,56.5,8.8z M62.3,8.6
						c0-0.7-1.4-0.7-1.4-1.2c0-0.2,0.1-0.3,0.3-0.3c0.4,0,0.3,0.6,0.7,0.6c0.1,0,0.3-0.1,0.3-0.2c0-0.3-0.4-0.5-0.9-0.5
						c-0.5,0-1,0.2-1,0.6c0,0.7,1.4,0.8,1.4,1.2c0,0.1-0.1,0.2-0.3,0.2c-0.5,0-0.5-0.4-0.6-0.5c-0.1-0.1-0.1-0.1-0.2-0.1
						c-0.2,0-0.3,0.1-0.3,0.3c0,0.3,0.5,0.5,1.1,0.5C61.7,9.3,62.3,9.1,62.3,8.6L62.3,8.6z M63.8,8.9C63.7,8.9,63.6,9,63.4,9
						c-0.2,0-0.3-0.1-0.3-0.4c0-0.5,0.5-0.6,0.7-0.8C63.9,8.1,63.8,8.5,63.8,8.9L63.8,8.9z M63.8,9c0.1,0.2,0.3,0.3,0.6,0.3
						c0.2,0,0.3,0,0.5-0.1c0.1,0,0.1-0.1,0-0.1c-0.1-0.1-0.3,0-0.3-0.3V8.1c0-0.8-0.3-1-1-1c-0.6,0-1,0.2-1,0.5
						c0,0.2,0.2,0.3,0.3,0.3c0.1,0,0.2,0,0.2-0.1c0.1-0.2,0.2-0.5,0.4-0.5c0.2,0,0.3,0.2,0.3,0.4c0,0.6-1.5,0.4-1.5,1.2
						c0,0.3,0.3,0.6,0.7,0.6C63.4,9.3,63.7,9.2,63.8,9L63.8,9z M65.3,8.8c0,0.3-0.2,0.3-0.3,0.4c0,0,0,0.1,0,0.1h1.3
						c0.1,0,0.1-0.1,0-0.1c-0.1-0.1-0.3,0-0.3-0.4V8.3c0-0.5,0.2-0.9,0.5-0.9c0.2,0,0.3,0.2,0.3,0.4c0,0.3-0.1,0.7-0.1,1
						c0,0.4,0.2,0.6,0.6,0.6c0.2,0,0.3,0,0.5-0.1c0.1,0,0.1-0.1,0-0.1c-0.1-0.1-0.3,0-0.3-0.3V8.1c0-0.5-0.1-1-0.7-1
						c-0.4,0-0.6,0.2-0.8,0.7c0-0.2,0-0.4-0.1-0.5c-0.1,0-0.2-0.1-0.3-0.1c-0.2,0-0.4,0-0.6,0.1c-0.1,0-0.1,0.1,0,0.1
						c0.1,0.1,0.3,0,0.3,0.3C65.3,7.6,65.3,8.8,65.3,8.8z M69.2,7.2c0.5,0,0.5,1.6,0,1.6C68.7,8.8,68.7,7.2,69.2,7.2z M69.9,9.6
						c0,0.3-0.3,0.5-0.6,0.5c-0.3,0-0.7-0.1-0.7-0.5c0-0.6,0.8-0.6,1.2-0.8c0.8-0.3,0.7-1.3-0.1-1.6c0.2,0,0.3,0,0.4,0
						c0.2,0,0.4-0.1,0.4-0.3c0-0.2-0.1-0.3-0.3-0.3c-0.1,0-0.2,0-0.2,0.1C70,6.8,69.9,6.9,69.8,7c-0.1,0-0.2,0.1-0.2,0.1
						c-0.1,0-0.2,0-0.3,0c-1.5,0-1.6,1.8-0.1,1.9c-0.8,0.1-1.3,0.2-1.3,0.6c0,0.4,0.7,0.6,1.4,0.6c0.9,0,1.4-0.2,1.4-0.6
						c0-0.3-0.4-0.5-1.1-0.6c0,0,0,0,0,0c-0.1,0-0.1,0.1,0,0.1C69.8,9.2,69.9,9.3,69.9,9.6L69.9,9.6z M72.1,8.9
						C72,8.9,71.8,9,71.7,9c-0.2,0-0.3-0.1-0.3-0.4c0-0.5,0.5-0.6,0.7-0.8C72.1,8.1,72,8.5,72.1,8.9L72.1,8.9z M72.1,9
						c0.1,0.2,0.3,0.3,0.6,0.3c0.2,0,0.3,0,0.5-0.1c0.1,0,0.1-0.1,0-0.1c-0.1-0.1-0.3,0-0.3-0.3V8.1c0-0.8-0.3-1-1-1
						c-0.6,0-1,0.2-1,0.5c0,0.2,0.2,0.3,0.3,0.3c0.1,0,0.2,0,0.2-0.1c0.1-0.2,0.2-0.5,0.4-0.5c0.2,0,0.3,0.2,0.3,0.4
						c0,0.6-1.5,0.4-1.5,1.2c0,0.3,0.3,0.6,0.7,0.6C71.6,9.3,71.9,9.2,72.1,9L72.1,9z M74.8,8.8C74.7,8.9,74.6,9,74.5,9
						c-0.2,0-0.2-0.3-0.2-0.5V7.2h0.3c0.1,0,0.1-0.1,0-0.1h-0.4c0,0,0-0.1,0-0.1V6.6c0,0,0-0.1-0.1-0.1c0,0,0,0-0.1,0
						c-0.2,0.3-0.5,0.5-0.9,0.5c-0.1,0-0.1,0.1,0,0.1h0.2v1c0,0.5,0.1,1,0.7,1c0.3,0,0.5-0.1,0.7-0.4C74.9,8.8,74.9,8.7,74.8,8.8
						C74.8,8.7,74.8,8.8,74.8,8.8L74.8,8.8z M76.9,7.3C77,7.3,77,7.3,76.9,7.3c1.1,0,1.1,1.8,0.4,1.8c-0.2,0-0.4-0.2-0.4-0.5
						L76.9,7.3L76.9,7.3z M76.9,6.7c0-0.3,0-0.5-0.4-0.5c-0.2,0-0.4,0-0.6,0.1c-0.1,0-0.1,0.1,0,0.1c0.1,0.1,0.3,0,0.3,0.3v1.9
						c0,0.2,0,0.4,0,0.5c0,0.1,0,0.1,0.1,0.1c0.1,0,0.1-0.1,0.4-0.1c0.2,0,0.4,0.1,0.9,0.1C79,9.3,79,7,77.4,7c-0.2,0-0.3,0-0.5,0.1
						L76.9,6.7z M79.5,7.9c0-0.4,0.2-0.7,0.5-0.7c0.3,0,0.4,0.3,0.3,0.6c0,0,0,0.1-0.1,0.1H79.5L79.5,7.9z M79.9,9.3
						c0.4,0,0.8-0.2,1-0.4c0,0,0-0.1-0.1-0.1c0,0,0,0,0,0C80.7,8.9,80.5,9,80.3,9c-0.5,0-0.8-0.5-0.8-1h1c0.3,0,0.4-0.1,0.4-0.3
						c0-0.4-0.4-0.7-1-0.7C78.3,7,78.4,9.3,79.9,9.3z M82.1,7.6c0-0.2,0-0.3-0.1-0.4c-0.1-0.1-0.2-0.1-0.3-0.1
						c-0.2,0-0.5,0.1-0.6,0.1c-0.1,0-0.1,0.1,0,0.1c0.1,0.1,0.3,0,0.3,0.3v1.1c0,0.3-0.2,0.3-0.3,0.4c0,0,0,0.1,0,0.1h1.3
						c0.1,0,0.1-0.1,0-0.1c0,0-0.1,0-0.1-0.1C82.1,9,82,8.9,82,8.6c0-0.5,0.2-1.1,0.4-1.2c0.1-0.1,0.1-0.2,0.2-0.2l0,0
						c0,0.1-0.1,0.1-0.1,0.2c0,0.2,0.2,0.4,0.4,0.4c0.3,0,0.4-0.2,0.4-0.4S83.2,7,82.9,7C82.6,7,82.3,7.3,82.1,7.6L82.1,7.6z
						 M84.8,8.9C84.7,8.9,84.6,9,84.4,9c-0.2,0-0.3-0.1-0.3-0.4c0-0.5,0.5-0.6,0.7-0.8C84.8,8.1,84.7,8.5,84.8,8.9L84.8,8.9z
						 M84.8,9c0.1,0.2,0.3,0.3,0.6,0.3c0.2,0,0.3,0,0.5-0.1c0.1,0,0.1-0.1,0-0.1c-0.1-0.1-0.3,0-0.3-0.3V8.1c0-0.8-0.3-1-1-1
						c-0.6,0-1,0.2-1,0.5c0,0.2,0.2,0.3,0.3,0.3c0.1,0,0.2,0,0.2-0.1c0.1-0.2,0.2-0.5,0.4-0.5c0.2,0,0.3,0.2,0.3,0.4
						c0,0.6-1.5,0.4-1.5,1.2c0,0.3,0.3,0.6,0.7,0.6C84.4,9.3,84.7,9.2,84.8,9z M87.1,7.6c0-0.2,0-0.3-0.1-0.4
						c-0.1-0.1-0.2-0.1-0.3-0.1c-0.2,0-0.5,0.1-0.6,0.1c-0.1,0-0.1,0.1,0,0.1c0.1,0.1,0.3,0,0.3,0.3v1.1c0,0.3-0.2,0.3-0.3,0.4
						c0,0,0,0.1,0,0.1h1.3c0.1,0,0.1-0.1,0-0.1c0,0-0.1,0-0.1-0.1C87,9,87,8.9,87,8.6c0-0.5,0.2-1.1,0.4-1.2
						c0.1-0.1,0.1-0.2,0.2-0.2l0,0c0,0.1-0.1,0.1-0.1,0.2c0,0.2,0.2,0.4,0.4,0.4c0.3,0,0.4-0.2,0.4-0.4S88.2,7,87.9,7
						C87.5,7,87.2,7.3,87.1,7.6L87.1,7.6z M89.9,8.8C89.8,8.9,89.7,9,89.6,9c-0.2,0-0.2-0.3-0.2-0.5V7.2h0.3c0.1,0,0.1-0.1,0-0.1
						h-0.4c0,0,0-0.1,0-0.1V6.6c0,0,0-0.1-0.1-0.1c0,0,0,0-0.1,0c-0.2,0.3-0.5,0.5-0.9,0.5c-0.1,0-0.1,0.1,0,0.1h0.2v1
						c0,0.5,0.1,1,0.7,1c0.3,0,0.5-0.1,0.7-0.4C90.1,8.8,90,8.7,89.9,8.8C90,8.7,89.9,8.8,89.9,8.8z M90.3,6.4
						c0,0.2,0.2,0.4,0.4,0.4c0.3,0,0.4-0.2,0.4-0.4S90.9,6,90.7,6C90.4,6,90.3,6.2,90.3,6.4z M91.2,7.6c0-0.3,0-0.5-0.4-0.5
						c-0.2,0-0.4,0-0.6,0.1c-0.1,0-0.1,0.1,0,0.1c0.1,0.1,0.3,0,0.3,0.3v1.1c0,0.3,0.2,0.5,0.6,0.5c0.2,0,0.3,0,0.5-0.1
						c0.1,0,0.1-0.1,0-0.1c-0.1-0.1-0.3,0-0.3-0.3L91.2,7.6L91.2,7.6z M93.5,7.3C93.6,7.3,93.6,7.3,93.5,7.3c1.1,0,1.1,1.8,0.4,1.8
						c-0.2,0-0.4-0.2-0.4-0.5C93.5,8.7,93.5,7.3,93.5,7.3z M93.5,6.7c0-0.3,0-0.5-0.4-0.5c-0.2,0-0.4,0-0.6,0.1
						c-0.1,0-0.1,0.1,0,0.1c0.1,0.1,0.3,0,0.3,0.3v1.9c0,0.2,0,0.4,0,0.5c0,0.1,0,0.1,0.1,0.1c0.1,0,0.1-0.1,0.4-0.1
						c0.2,0,0.4,0.1,0.9,0.1c1.6,0,1.6-2.2,0-2.2c-0.2,0-0.3,0-0.5,0.1L93.5,6.7z"/>
					<path class="st0" d="M96.7,8.9C96.6,8.9,96.5,9,96.4,9c-0.2,0-0.3-0.1-0.3-0.4c0-0.5,0.5-0.6,0.7-0.8
						C96.8,8.1,96.7,8.5,96.7,8.9L96.7,8.9z M96.8,9c0.1,0.2,0.3,0.3,0.6,0.3c0.2,0,0.3,0,0.5-0.1c0.1,0,0.1-0.1,0-0.1
						c-0.1-0.1-0.3,0-0.3-0.3V8.1c0-0.8-0.3-1-1-1c-0.6,0-1,0.2-1,0.5c0,0.2,0.2,0.3,0.3,0.3c0.1,0,0.2,0,0.2-0.1
						c0.1-0.2,0.2-0.5,0.4-0.5c0.2,0,0.3,0.2,0.3,0.4c0,0.6-1.5,0.4-1.5,1.2c0,0.3,0.3,0.6,0.7,0.6C96.3,9.3,96.6,9.2,96.8,9z
						 M99.2,7.2c0.5,0,0.5,1.6,0,1.6C98.7,8.8,98.7,7.2,99.2,7.2z M99.9,9.6c0,0.3-0.3,0.5-0.6,0.5c-0.3,0-0.7-0.1-0.7-0.5
						c0-0.6,0.8-0.6,1.2-0.8c0.8-0.3,0.7-1.3-0.1-1.6c0.2,0,0.3,0,0.4,0c0.2,0,0.4-0.1,0.4-0.3c0-0.2-0.1-0.3-0.3-0.3
						c-0.1,0-0.2,0-0.2,0.1C100,6.8,99.9,6.9,99.7,7c-0.1,0-0.2,0.1-0.2,0.1c-0.1,0-0.2,0-0.3,0c-1.5,0-1.6,1.8-0.1,1.9
						c-0.8,0.1-1.3,0.2-1.3,0.6c0,0.4,0.7,0.6,1.4,0.6c0.9,0,1.4-0.2,1.4-0.6c0-0.3-0.4-0.5-1.1-0.6c0,0,0,0,0,0
						c-0.1,0-0.1,0.1,0,0.1C99.8,9.2,99.9,9.3,99.9,9.6z M100.8,6.4c0,0.2,0.2,0.4,0.4,0.4c0.3,0,0.4-0.2,0.4-0.4S101.5,6,101.2,6
						C101,6,100.8,6.2,100.8,6.4z M101.7,7.6c0-0.3,0-0.5-0.4-0.5c-0.2,0-0.4,0-0.6,0.1c-0.1,0-0.1,0.1,0,0.1c0.1,0.1,0.3,0,0.3,0.3
						v1.1c0,0.3,0.2,0.5,0.6,0.5c0.2,0,0.3,0,0.5-0.1c0.1,0,0.1-0.1,0-0.1c-0.1-0.1-0.3,0-0.3-0.3V7.6z M104.1,7.8
						c0-0.2,0.2-0.4,0.4-0.4c0.4,0,0.4,0.7-0.1,0.7C104.3,8,104.2,7.9,104.1,7.8z M105.2,9.3c0.2,0,0.3,0,0.4-0.1
						c0.1,0,0.1-0.1,0-0.1c0,0-0.1,0-0.3-0.2c-0.1-0.2-0.3-0.6-0.7-0.7c0.8-0.1,0.8-1.1,0.1-1.1c-0.3,0-0.6,0.2-0.8,0.5l0-0.8
						c0-0.3,0-0.5-0.4-0.5c-0.2,0-0.4,0-0.6,0.1c-0.1,0-0.1,0.1,0,0.1c0.1,0.1,0.3,0,0.3,0.3v2c0,0.3-0.2,0.3-0.3,0.4
						c0,0,0,0.1,0,0.1h1.3c0.1,0,0.1-0.1,0-0.1c-0.1-0.1-0.3,0-0.3-0.4V8c0.2,0.2,0.3,0.2,0.4,0.5C104.5,8.8,104.6,9.3,105.2,9.3
						L105.2,9.3z M107.2,8.9C107.1,8.9,107,9,106.8,9c-0.2,0-0.3-0.1-0.3-0.4c0-0.5,0.5-0.6,0.7-0.8C107.3,8.1,107.1,8.5,107.2,8.9
						L107.2,8.9z M107.2,9c0.1,0.2,0.3,0.3,0.6,0.3c0.2,0,0.3,0,0.5-0.1c0.1,0,0.1-0.1,0-0.1c-0.1-0.1-0.3,0-0.3-0.3V8.1
						c0-0.8-0.3-1-1-1c-0.6,0-1,0.2-1,0.5c0,0.2,0.2,0.3,0.3,0.3c0.1,0,0.2,0,0.2-0.1c0.1-0.2,0.2-0.5,0.4-0.5
						c0.2,0,0.3,0.2,0.3,0.4c0,0.6-1.5,0.4-1.5,1.2c0,0.3,0.3,0.6,0.7,0.6C106.8,9.3,107.1,9.2,107.2,9L107.2,9z M110.1,8.8
						c0,0.3-0.2,0.3-0.3,0.4c0,0,0,0.1,0,0.1h1.3c0.1,0,0.1-0.1,0-0.1c-0.1-0.1-0.3,0-0.3-0.4V7.9c0.1-0.3,0.3-0.6,0.5-0.6
						c0.2,0,0.3,0.2,0.3,0.4c0,0.3-0.1,0.7-0.1,1c0,0.4,0.2,0.6,0.6,0.6c0.2,0,0.3,0,0.5-0.1c0.1,0,0.1-0.1,0-0.1
						c-0.1-0.1-0.3,0-0.3-0.3V8.1c0-0.5-0.1-1-0.7-1c-0.4,0-0.6,0.2-0.8,0.6c0-0.4-0.2-0.6-0.6-0.6c-0.4,0-0.6,0.2-0.8,0.6
						c0-0.2,0-0.4-0.1-0.4c-0.1-0.1-0.2-0.1-0.3-0.1c-0.2,0-0.5,0.1-0.6,0.1c-0.1,0-0.1,0.1,0,0.1c0.1,0.1,0.3,0,0.3,0.3v1.1
						c0,0.3-0.2,0.3-0.3,0.4c0,0,0,0.1,0,0.1h1.3c0.1,0,0.1-0.1,0-0.1c-0.1-0.1-0.3,0-0.3-0.4V7.9c0.1-0.3,0.3-0.6,0.4-0.6
						c0.2,0,0.2,0.3,0.2,0.5C110.1,7.8,110.1,8.8,110.1,8.8z M112.9,6.4c0,0.2,0.2,0.4,0.4,0.4c0.3,0,0.4-0.2,0.4-0.4
						S113.6,6,113.3,6C113.1,6,112.9,6.2,112.9,6.4z M113.8,7.6c0-0.3,0-0.5-0.4-0.5c-0.2,0-0.4,0-0.6,0.1c-0.1,0-0.1,0.1,0,0.1
						c0.1,0.1,0.3,0,0.3,0.3v1.1c0,0.3,0.2,0.5,0.6,0.5c0.2,0,0.3,0,0.5-0.1c0.1,0,0.1-0.1,0-0.1c-0.1-0.1-0.3,0-0.3-0.3V7.6z
						 M19.8,14.1c0-0.7-1.4-0.7-1.4-1.2c0-0.2,0.1-0.3,0.3-0.3c0.4,0,0.3,0.6,0.7,0.6c0.1,0,0.3-0.1,0.3-0.2c0-0.3-0.4-0.5-0.9-0.5
						c-0.5,0-1,0.2-1,0.6c0,0.7,1.4,0.8,1.4,1.2c0,0.1-0.1,0.2-0.3,0.2c-0.5,0-0.5-0.4-0.6-0.5C18.1,14,18.1,14,18,14
						c-0.2,0-0.3,0.1-0.3,0.3c0,0.3,0.5,0.5,1.1,0.5C19.3,14.8,19.8,14.6,19.8,14.1z M21.3,14.4c-0.1,0.1-0.2,0.2-0.4,0.2
						c-0.2,0-0.3-0.1-0.3-0.4c0-0.5,0.5-0.6,0.7-0.8C21.4,13.6,21.3,14,21.3,14.4z M21.4,14.5c0.1,0.2,0.3,0.3,0.6,0.3
						c0.2,0,0.3,0,0.5-0.1c0.1,0,0.1-0.1,0-0.1c-0.1-0.1-0.3,0-0.3-0.3v-0.7c0-0.8-0.3-1-1-1c-0.6,0-1,0.2-1,0.5
						c0,0.2,0.2,0.3,0.3,0.3c0.1,0,0.2,0,0.2-0.1c0.1-0.2,0.2-0.5,0.4-0.5c0.2,0,0.3,0.2,0.3,0.4c0,0.6-1.5,0.4-1.5,1.2
						c0,0.3,0.3,0.6,0.7,0.6C20.9,14.8,21.2,14.7,21.4,14.5L21.4,14.5z M23.9,14.4c-0.1,0.1-0.2,0.2-0.4,0.2c-0.2,0-0.3-0.1-0.3-0.4
						c0-0.5,0.5-0.6,0.7-0.8C24,13.6,23.9,14,23.9,14.4z M24,14.5c0.1,0.2,0.3,0.3,0.6,0.3c0.2,0,0.3,0,0.5-0.1c0.1,0,0.1-0.1,0-0.1
						c-0.1-0.1-0.3,0-0.3-0.3v-0.7c0-0.8-0.3-1-1-1c-0.6,0-1,0.2-1,0.5c0,0.2,0.2,0.3,0.3,0.3c0.1,0,0.2,0,0.2-0.1
						c0.1-0.2,0.2-0.5,0.4-0.5c0.2,0,0.3,0.2,0.3,0.4c0,0.6-1.5,0.4-1.5,1.2c0,0.3,0.3,0.6,0.7,0.6C23.5,14.8,23.8,14.7,24,14.5
						L24,14.5z M26.7,14.3c-0.1,0.1-0.2,0.2-0.3,0.2c-0.2,0-0.2-0.3-0.2-0.5v-1.3h0.3c0.1,0,0.1-0.1,0-0.1h-0.4c0,0,0-0.1,0-0.1
						v-0.4c0,0,0-0.1-0.1-0.1c0,0,0,0-0.1,0c-0.2,0.3-0.5,0.5-0.9,0.5c-0.1,0-0.1,0.1,0,0.1h0.2v1c0,0.5,0.1,1,0.7,1
						c0.3,0,0.5-0.1,0.7-0.4C26.8,14.3,26.8,14.2,26.7,14.3C26.7,14.2,26.7,14.3,26.7,14.3L26.7,14.3z M28.9,13.3
						c0-0.2,0.2-0.4,0.4-0.4c0.4,0,0.4,0.7-0.1,0.7C29.1,13.5,28.9,13.4,28.9,13.3z M30,14.8c0.2,0,0.3,0,0.4-0.1
						c0.1,0,0.1-0.1,0-0.1c0,0-0.1,0-0.3-0.2c-0.1-0.2-0.3-0.6-0.7-0.7c0.8-0.1,0.8-1.1,0.1-1.1c-0.3,0-0.6,0.2-0.8,0.5l0-0.8
						c0-0.3,0-0.5-0.4-0.5c-0.2,0-0.4,0-0.6,0.1c-0.1,0-0.1,0.1,0,0.1c0.1,0.1,0.3,0,0.3,0.3v2c0,0.3-0.2,0.3-0.3,0.4
						c0,0,0,0.1,0,0.1h1.3c0.1,0,0.1-0.1,0-0.1c-0.1-0.1-0.3,0-0.3-0.4v-0.8c0.2,0.2,0.3,0.2,0.4,0.5C29.3,14.3,29.4,14.8,30,14.8z
						 M32,14.4c-0.1,0.1-0.2,0.2-0.4,0.2c-0.2,0-0.3-0.1-0.3-0.4c0-0.5,0.5-0.6,0.7-0.8C32,13.6,31.9,14,32,14.4z M32,14.5
						c0.1,0.2,0.3,0.3,0.6,0.3c0.2,0,0.3,0,0.5-0.1c0.1,0,0.1-0.1,0-0.1c-0.1-0.1-0.3,0-0.3-0.3v-0.7c0-0.8-0.3-1-1-1
						c-0.6,0-1,0.2-1,0.5c0,0.2,0.2,0.3,0.3,0.3c0.1,0,0.2,0,0.2-0.1c0.1-0.2,0.2-0.5,0.4-0.5c0.2,0,0.3,0.2,0.3,0.4
						c0,0.6-1.5,0.4-1.5,1.2c0,0.3,0.3,0.6,0.7,0.6C31.6,14.8,31.8,14.7,32,14.5L32,14.5z M34.9,14.3c0,0.3-0.2,0.3-0.3,0.4
						c0,0,0,0.1,0,0.1h1.3c0.1,0,0.1-0.1,0-0.1c-0.1-0.1-0.3,0-0.3-0.4v-0.8c0.1-0.3,0.3-0.6,0.5-0.6c0.2,0,0.3,0.2,0.3,0.4
						c0,0.3-0.1,0.7-0.1,1c0,0.4,0.2,0.6,0.6,0.6c0.2,0,0.3,0,0.5-0.1c0.1,0,0.1-0.1,0-0.1c-0.1-0.1-0.3,0-0.3-0.3v-0.7
						c0-0.5-0.1-1-0.7-1c-0.4,0-0.6,0.2-0.8,0.6c0-0.4-0.2-0.6-0.6-0.6c-0.4,0-0.6,0.2-0.8,0.6c0-0.2,0-0.4-0.1-0.4
						c-0.1-0.1-0.2-0.1-0.3-0.1c-0.2,0-0.5,0.1-0.6,0.1c-0.1,0-0.1,0.1,0,0.1c0.1,0.1,0.3,0,0.3,0.3v1.1c0,0.3-0.2,0.3-0.3,0.4
						c0,0,0,0.1,0,0.1h1.3c0.1,0,0.1-0.1,0-0.1c-0.1-0.1-0.3,0-0.3-0.4v-0.8c0.1-0.3,0.3-0.6,0.4-0.6c0.2,0,0.2,0.3,0.2,0.5
						L34.9,14.3L34.9,14.3z M37.7,11.9c0,0.2,0.2,0.4,0.4,0.4c0.3,0,0.4-0.2,0.4-0.4s-0.2-0.4-0.4-0.4
						C37.9,11.5,37.7,11.7,37.7,11.9z M38.6,13.1c0-0.3,0-0.5-0.4-0.5c-0.2,0-0.4,0-0.6,0.1c-0.1,0-0.1,0.1,0,0.1
						c0.1,0.1,0.3,0,0.3,0.3v1.1c0,0.3,0.2,0.5,0.6,0.5c0.2,0,0.3,0,0.5-0.1c0.1,0,0.1-0.1,0-0.1c-0.1-0.1-0.3,0-0.3-0.3L38.6,13.1
						L38.6,13.1z M41.6,14.3c0,0.3-0.2,0.3-0.3,0.4c0,0,0,0.1,0,0.1h1.3c0.1,0,0.1-0.1,0-0.1c-0.1-0.1-0.3,0-0.3-0.4v-0.8
						c0.1-0.3,0.3-0.6,0.5-0.6c0.2,0,0.3,0.2,0.3,0.4c0,0.3-0.1,0.7-0.1,1c0,0.4,0.2,0.6,0.6,0.6c0.2,0,0.3,0,0.5-0.1
						c0.1,0,0.1-0.1,0-0.1c-0.1-0.1-0.3,0-0.3-0.3v-0.7c0-0.5-0.1-1-0.7-1c-0.4,0-0.6,0.2-0.8,0.6c0-0.4-0.2-0.6-0.6-0.6
						c-0.4,0-0.6,0.2-0.8,0.6c0-0.2,0-0.4-0.1-0.4c-0.1-0.1-0.2-0.1-0.3-0.1c-0.2,0-0.5,0.1-0.6,0.1c-0.1,0-0.1,0.1,0,0.1
						c0.1,0.1,0.3,0,0.3,0.3v1.1c0,0.3-0.2,0.3-0.3,0.4c0,0,0,0.1,0,0.1h1.3c0.1,0,0.1-0.1,0-0.1c-0.1-0.1-0.3,0-0.3-0.4v-0.8
						c0.1-0.3,0.3-0.6,0.4-0.6c0.2,0,0.2,0.3,0.2,0.5L41.6,14.3L41.6,14.3z M45,13.4c0-0.4,0.2-0.7,0.5-0.7c0.3,0,0.4,0.3,0.3,0.6
						c0,0,0,0.1-0.1,0.1H45z M45.4,14.8c0.4,0,0.8-0.2,1-0.4c0,0,0-0.1-0.1-0.1c0,0,0,0,0,0c-0.1,0.1-0.3,0.2-0.5,0.2
						c-0.5,0-0.8-0.5-0.8-1h1c0.3,0,0.4-0.1,0.4-0.3c0-0.4-0.4-0.7-1-0.7C43.9,12.5,43.9,14.8,45.4,14.8z M48.3,14.3
						c0,0.3-0.2,0.3-0.3,0.4c0,0,0,0.1,0,0.1h1.3c0.1,0,0.1-0.1,0-0.1c-0.1-0.1-0.3,0-0.3-0.4v-0.8c0.1-0.3,0.3-0.6,0.5-0.6
						c0.2,0,0.3,0.2,0.3,0.4c0,0.3-0.1,0.7-0.1,1c0,0.4,0.2,0.6,0.6,0.6c0.2,0,0.3,0,0.5-0.1c0.1,0,0.1-0.1,0-0.1
						c-0.1-0.1-0.3,0-0.3-0.3v-0.7c0-0.5-0.1-1-0.7-1c-0.4,0-0.6,0.2-0.8,0.6c0-0.4-0.2-0.6-0.6-0.6c-0.4,0-0.6,0.2-0.8,0.6
						c0-0.2,0-0.4-0.1-0.4c-0.1-0.1-0.2-0.1-0.3-0.1c-0.2,0-0.5,0.1-0.6,0.1c-0.1,0-0.1,0.1,0,0.1c0.1,0.1,0.3,0,0.3,0.3v1.1
						c0,0.3-0.2,0.3-0.3,0.4c0,0,0,0.1,0,0.1h1.3c0.1,0,0.1-0.1,0-0.1c-0.1-0.1-0.3,0-0.3-0.4v-0.8c0.1-0.3,0.3-0.6,0.4-0.6
						c0.2,0,0.2,0.3,0.2,0.5L48.3,14.3L48.3,14.3z M52.1,12.8c1,0,1,1.8,0.3,1.8c-0.2,0-0.4-0.2-0.4-0.5v-1c0-0.2,0-0.2,0-0.3
						C52,12.8,52,12.8,52.1,12.8z M51.2,15.1c0,0.3-0.2,0.3-0.3,0.4c0,0,0,0.1,0,0.1h1.3c0.1,0,0.1-0.1,0-0.1
						c-0.1-0.1-0.3,0-0.3-0.4v-0.4c0.1,0,0.3,0.1,0.5,0.1c1.6,0,1.6-2.2,0-2.2c-0.2,0-0.4,0.1-0.6,0.1c-0.1-0.1-0.2-0.1-0.3-0.1
						c-0.2,0-0.4,0-0.6,0.1c-0.1,0-0.1,0.1,0,0.1c0.1,0.1,0.3,0,0.3,0.3L51.2,15.1L51.2,15.1z M54.5,13.4c0-0.4,0.2-0.7,0.5-0.7
						c0.3,0,0.4,0.3,0.3,0.6c0,0,0,0.1-0.1,0.1H54.5L54.5,13.4z M54.9,14.8c0.4,0,0.8-0.2,1-0.4c0,0,0-0.1-0.1-0.1c0,0,0,0,0,0
						c-0.1,0.1-0.3,0.2-0.5,0.2c-0.5,0-0.8-0.5-0.8-1h1c0.3,0,0.4-0.1,0.4-0.3c0-0.4-0.4-0.7-1-0.7C53.4,12.5,53.4,14.8,54.9,14.8
						L54.9,14.8z M57.1,13.1c0-0.2,0-0.3-0.1-0.4c-0.1-0.1-0.2-0.1-0.3-0.1c-0.2,0-0.5,0.1-0.6,0.1c-0.1,0-0.1,0.1,0,0.1
						c0.1,0.1,0.3,0,0.3,0.3v1.1c0,0.3-0.2,0.3-0.3,0.4c0,0,0,0.1,0,0.1h1.3c0.1,0,0.1-0.1,0-0.1c0,0-0.1,0-0.1-0.1
						c-0.2-0.1-0.3-0.2-0.3-0.5c0-0.5,0.2-1.1,0.4-1.2c0.1-0.1,0.1-0.2,0.2-0.2l0,0c0,0.1-0.1,0.1-0.1,0.2c0,0.2,0.2,0.4,0.4,0.4
						c0.3,0,0.4-0.2,0.4-0.4c0-0.2-0.2-0.4-0.4-0.4C57.6,12.5,57.3,12.8,57.1,13.1L57.1,13.1z M58.6,11.9c0,0.2,0.2,0.4,0.4,0.4
						c0.3,0,0.4-0.2,0.4-0.4s-0.2-0.4-0.4-0.4S58.6,11.7,58.6,11.9z M59.5,13.1c0-0.3,0-0.5-0.4-0.5c-0.2,0-0.4,0-0.6,0.1
						c-0.1,0-0.1,0.1,0,0.1c0.1,0.1,0.3,0,0.3,0.3v1.1c0,0.3,0.2,0.5,0.6,0.5c0.2,0,0.3,0,0.5-0.1c0.1,0,0.1-0.1,0-0.1
						c-0.1-0.1-0.3,0-0.3-0.3V13.1z M60.2,14.3c0,0.3-0.2,0.3-0.3,0.4c0,0,0,0.1,0,0.1h1.3c0.1,0,0.1-0.1,0-0.1
						c-0.1-0.1-0.3,0-0.3-0.4v-0.5c0-0.5,0.2-0.9,0.5-0.9c0.2,0,0.3,0.2,0.3,0.4c0,0.3-0.1,0.7-0.1,1c0,0.4,0.2,0.6,0.6,0.6
						c0.2,0,0.3,0,0.5-0.1c0.1,0,0.1-0.1,0-0.1c-0.1-0.1-0.3,0-0.3-0.3v-0.7c0-0.5-0.1-1-0.7-1c-0.4,0-0.6,0.2-0.8,0.7
						c0-0.2,0-0.4-0.1-0.5c-0.1,0-0.2-0.1-0.3-0.1c-0.2,0-0.4,0-0.6,0.1c-0.1,0-0.1,0.1,0,0.1c0.1,0.1,0.3,0,0.3,0.3L60.2,14.3
						L60.2,14.3z M64.1,12.7c0.5,0,0.5,1.6,0,1.6C63.6,14.3,63.6,12.7,64.1,12.7z M64.8,15.1c0,0.3-0.3,0.5-0.6,0.5
						c-0.3,0-0.7-0.1-0.7-0.5c0-0.6,0.8-0.6,1.2-0.8c0.8-0.3,0.7-1.3-0.1-1.6c0.2,0,0.3,0,0.4,0c0.2,0,0.4-0.1,0.4-0.3
						c0-0.2-0.1-0.3-0.3-0.3c-0.1,0-0.2,0-0.2,0.1c-0.1,0.1-0.2,0.2-0.3,0.3c-0.1,0-0.2,0.1-0.2,0.1c-0.1,0-0.2,0-0.3,0
						c-1.5,0-1.6,1.8-0.1,1.9c-0.8,0.1-1.3,0.2-1.3,0.6c0,0.4,0.7,0.6,1.4,0.6c0.9,0,1.4-0.2,1.4-0.6c0-0.3-0.4-0.5-1.1-0.6
						c0,0,0,0,0,0c-0.1,0-0.1,0.1,0,0.1C64.7,14.7,64.8,14.8,64.8,15.1L64.8,15.1z M66.9,14.4c-0.1,0.1-0.2,0.2-0.4,0.2
						c-0.2,0-0.3-0.1-0.3-0.4c0-0.5,0.5-0.6,0.7-0.8C67,13.6,66.9,14,66.9,14.4L66.9,14.4z M67,14.5c0.1,0.2,0.3,0.3,0.6,0.3
						c0.2,0,0.3,0,0.5-0.1c0.1,0,0.1-0.1,0-0.1c-0.1-0.1-0.3,0-0.3-0.3v-0.7c0-0.8-0.3-1-1-1c-0.6,0-1,0.2-1,0.5
						c0,0.2,0.2,0.3,0.3,0.3c0.1,0,0.2,0,0.2-0.1c0.1-0.2,0.2-0.5,0.4-0.5c0.2,0,0.3,0.2,0.3,0.4c0,0.6-1.5,0.4-1.5,1.2
						c0,0.3,0.3,0.6,0.7,0.6C66.5,14.8,66.8,14.7,67,14.5L67,14.5z M69.7,14.3c-0.1,0.1-0.2,0.2-0.3,0.2c-0.2,0-0.2-0.3-0.2-0.5
						v-1.3h0.3c0.1,0,0.1-0.1,0-0.1h-0.4c0,0,0-0.1,0-0.1v-0.4c0,0,0-0.1-0.1-0.1c0,0,0,0-0.1,0c-0.2,0.3-0.5,0.5-0.9,0.5
						c-0.1,0-0.1,0.1,0,0.1h0.2v1c0,0.5,0.1,1,0.7,1c0.3,0,0.5-0.1,0.7-0.4C69.8,14.3,69.8,14.2,69.7,14.3
						C69.7,14.2,69.7,14.3,69.7,14.3z M70,11.9c0,0.2,0.2,0.4,0.4,0.4c0.3,0,0.4-0.2,0.4-0.4s-0.2-0.4-0.4-0.4
						C70.2,11.5,70,11.7,70,11.9z M70.9,13.1c0-0.3,0-0.5-0.4-0.5c-0.2,0-0.4,0-0.6,0.1c-0.1,0-0.1,0.1,0,0.1c0.1,0.1,0.3,0,0.3,0.3
						v1.1c0,0.3,0.2,0.5,0.6,0.5c0.2,0,0.3,0,0.5-0.1c0.1,0,0.1-0.1,0-0.1c-0.1-0.1-0.3,0-0.3-0.3V13.1z M73.6,14.4
						c-0.1,0.1-0.2,0.2-0.4,0.2c-0.2,0-0.3-0.1-0.3-0.4c0-0.5,0.5-0.6,0.7-0.8C73.7,13.6,73.6,14,73.6,14.4L73.6,14.4z M73.7,14.5
						c0.1,0.2,0.3,0.3,0.6,0.3c0.2,0,0.3,0,0.5-0.1c0.1,0,0.1-0.1,0-0.1c-0.1-0.1-0.3,0-0.3-0.3v-0.7c0-0.8-0.3-1-1-1
						c-0.6,0-1,0.2-1,0.5c0,0.2,0.2,0.3,0.3,0.3c0.1,0,0.2,0,0.2-0.1c0.1-0.2,0.2-0.5,0.4-0.5c0.2,0,0.3,0.2,0.3,0.4
						c0,0.6-1.5,0.4-1.5,1.2c0,0.3,0.3,0.6,0.7,0.6C73.2,14.8,73.5,14.7,73.7,14.5z M76.1,12.7c0.3,0,0.2,0.4,0.3,0.6
						c0,0.1,0.2,0.2,0.3,0.2c0.2,0,0.3-0.1,0.3-0.3c0-0.3-0.4-0.6-0.9-0.6c-1.6,0-1.6,2.2,0,2.2c0.5,0,0.8-0.2,1-0.4
						c0,0,0-0.1-0.1-0.1c0,0,0,0,0,0c-0.1,0.2-0.3,0.2-0.5,0.2C75.4,14.5,75.4,12.7,76.1,12.7z"/>
					<path class="st0" d="M78.6,14.4c-0.1,0.1-0.2,0.2-0.4,0.2c-0.2,0-0.3-0.1-0.3-0.4c0-0.5,0.5-0.6,0.7-0.8
						C78.6,13.6,78.5,14,78.6,14.4L78.6,14.4z M78.6,14.5c0.1,0.2,0.3,0.3,0.6,0.3c0.2,0,0.3,0,0.5-0.1c0.1,0,0.1-0.1,0-0.1
						c-0.1-0.1-0.3,0-0.3-0.3v-0.7c0-0.8-0.3-1-1-1c-0.6,0-1,0.2-1,0.5c0,0.2,0.2,0.3,0.3,0.3c0.1,0,0.2,0,0.2-0.1
						c0.1-0.2,0.2-0.5,0.4-0.5c0.2,0,0.3,0.2,0.3,0.4c0,0.6-1.5,0.4-1.5,1.2c0,0.3,0.3,0.6,0.7,0.6C78.2,14.8,78.4,14.7,78.6,14.5
						L78.6,14.5z M80.8,13.1c0-0.2,0-0.3-0.1-0.4c-0.1-0.1-0.2-0.1-0.3-0.1c-0.2,0-0.5,0.1-0.6,0.1c-0.1,0-0.1,0.1,0,0.1
						c0.1,0.1,0.3,0,0.3,0.3v1.1c0,0.3-0.2,0.3-0.3,0.4c0,0,0,0.1,0,0.1h1.3c0.1,0,0.1-0.1,0-0.1c0,0-0.1,0-0.1-0.1
						c-0.2-0.1-0.3-0.2-0.3-0.5c0-0.5,0.2-1.1,0.4-1.2c0.1-0.1,0.1-0.2,0.2-0.2l0,0c0,0.1-0.1,0.1-0.1,0.2c0,0.2,0.2,0.4,0.4,0.4
						c0.3,0,0.4-0.2,0.4-0.4c0-0.2-0.2-0.4-0.4-0.4C81.3,12.5,81,12.8,80.8,13.1L80.8,13.1z M83.5,14.4c-0.1,0.1-0.2,0.2-0.4,0.2
						c-0.2,0-0.3-0.1-0.3-0.4c0-0.5,0.5-0.6,0.7-0.8C83.6,13.6,83.5,14,83.5,14.4L83.5,14.4z M83.6,14.5c0.1,0.2,0.3,0.3,0.6,0.3
						c0.2,0,0.3,0,0.5-0.1c0.1,0,0.1-0.1,0-0.1c-0.1-0.1-0.3,0-0.3-0.3v-0.7c0-0.8-0.3-1-1-1c-0.6,0-1,0.2-1,0.5
						c0,0.2,0.2,0.3,0.3,0.3c0.1,0,0.2,0,0.2-0.1c0.1-0.2,0.2-0.5,0.4-0.5c0.2,0,0.3,0.2,0.3,0.4c0,0.6-1.5,0.4-1.5,1.2
						c0,0.3,0.3,0.6,0.7,0.6C83.1,14.8,83.4,14.7,83.6,14.5z M87.8,14.1c0-0.7-1.4-0.7-1.4-1.2c0-0.2,0.1-0.3,0.3-0.3
						c0.4,0,0.3,0.6,0.7,0.6c0.1,0,0.3-0.1,0.3-0.2c0-0.3-0.4-0.5-0.9-0.5c-0.5,0-1,0.2-1,0.6c0,0.7,1.4,0.8,1.4,1.2
						c0,0.1-0.1,0.2-0.3,0.2c-0.5,0-0.5-0.4-0.6-0.5C86.2,14,86.1,14,86,14c-0.2,0-0.3,0.1-0.3,0.3c0,0.3,0.5,0.5,1.1,0.5
						C87.3,14.8,87.8,14.6,87.8,14.1L87.8,14.1z M89.1,12.8c1,0,1,1.8,0.3,1.8c-0.2,0-0.4-0.2-0.4-0.5v-1c0-0.2,0-0.2,0-0.3
						C89,12.8,89.1,12.8,89.1,12.8L89.1,12.8z M88.2,15.1c0,0.3-0.2,0.3-0.3,0.4c0,0,0,0.1,0,0.1h1.3c0.1,0,0.1-0.1,0-0.1
						c-0.1-0.1-0.3,0-0.3-0.4v-0.4c0.1,0,0.3,0.1,0.5,0.1c1.6,0,1.6-2.2,0-2.2c-0.2,0-0.4,0.1-0.6,0.1c-0.1-0.1-0.2-0.1-0.3-0.1
						s-0.4,0-0.6,0.1c-0.1,0-0.1,0.1,0,0.1c0.1,0.1,0.3,0,0.3,0.3L88.2,15.1L88.2,15.1z M91.6,13.4c0-0.4,0.2-0.7,0.5-0.7
						c0.3,0,0.4,0.3,0.3,0.6c0,0,0,0.1-0.1,0.1H91.6L91.6,13.4z M92,14.8c0.4,0,0.8-0.2,1-0.4c0,0,0-0.1-0.1-0.1c0,0,0,0,0,0
						c-0.1,0.1-0.3,0.2-0.5,0.2c-0.5,0-0.8-0.5-0.8-1h1c0.3,0,0.4-0.1,0.4-0.3c0-0.4-0.4-0.7-1-0.7C90.4,12.5,90.4,14.8,92,14.8z
						 M95.3,14.1c0-0.7-1.4-0.7-1.4-1.2c0-0.2,0.1-0.3,0.3-0.3c0.4,0,0.3,0.6,0.7,0.6c0.1,0,0.3-0.1,0.3-0.2c0-0.3-0.4-0.5-0.9-0.5
						c-0.5,0-1,0.2-1,0.6c0,0.7,1.4,0.8,1.4,1.2c0,0.1-0.1,0.2-0.3,0.2c-0.5,0-0.5-0.4-0.6-0.5C93.6,14,93.6,14,93.5,14
						c-0.2,0-0.3,0.1-0.3,0.3c0,0.3,0.5,0.5,1.1,0.5C94.8,14.8,95.3,14.6,95.3,14.1L95.3,14.1z M95.6,11.9c0,0.2,0.2,0.4,0.4,0.4
						c0.3,0,0.4-0.2,0.4-0.4s-0.2-0.4-0.4-0.4C95.8,11.5,95.6,11.7,95.6,11.9z M96.5,13.1c0-0.3,0-0.5-0.4-0.5c-0.2,0-0.4,0-0.6,0.1
						c-0.1,0-0.1,0.1,0,0.1c0.1,0.1,0.3,0,0.3,0.3v1.1c0,0.3,0.2,0.5,0.6,0.5c0.2,0,0.3,0,0.5-0.1c0.1,0,0.1-0.1,0-0.1
						c-0.1-0.1-0.3,0-0.3-0.3L96.5,13.1L96.5,13.1z M98.3,14.4c-0.1,0.1-0.2,0.2-0.4,0.2c-0.2,0-0.3-0.1-0.3-0.4
						c0-0.5,0.5-0.6,0.7-0.8C98.3,13.6,98.2,14,98.3,14.4L98.3,14.4z M98.3,14.5c0.1,0.2,0.3,0.3,0.6,0.3c0.2,0,0.3,0,0.5-0.1
						c0.1,0,0.1-0.1,0-0.1c-0.1-0.1-0.3,0-0.3-0.3v-0.7c0-0.8-0.3-1-1-1c-0.6,0-1,0.2-1,0.5c0,0.2,0.2,0.3,0.3,0.3
						c0.1,0,0.2,0,0.2-0.1c0.1-0.2,0.2-0.5,0.4-0.5c0.2,0,0.3,0.2,0.3,0.4c0,0.6-1.5,0.4-1.5,1.2c0,0.3,0.3,0.6,0.7,0.6
						C97.9,14.8,98.2,14.7,98.3,14.5L98.3,14.5z M100.5,12.2c0-0.3,0-0.5-0.4-0.5c-0.2,0-0.4,0-0.6,0.1c-0.1,0-0.1,0.1,0,0.1
						c0.1,0.1,0.3,0,0.3,0.3v2c0,0.3,0.2,0.5,0.6,0.5c0.2,0,0.3,0,0.5-0.1c0.1,0,0.1-0.1,0-0.1c-0.1-0.1-0.3,0-0.3-0.3V12.2z
						 M102,11.9c0,0.2,0.2,0.4,0.4,0.4c0.3,0,0.4-0.2,0.4-0.4c0-0.2-0.2-0.4-0.4-0.4S102,11.7,102,11.9z M102.9,13.1
						c0-0.3,0-0.5-0.4-0.5c-0.2,0-0.4,0-0.6,0.1c-0.1,0-0.1,0.1,0,0.1c0.1,0.1,0.3,0,0.3,0.3v1.1c0,0.3,0.2,0.5,0.6,0.5
						c0.2,0,0.3,0,0.5-0.1c0.1,0,0.1-0.1,0-0.1c-0.1-0.1-0.3,0-0.3-0.3V13.1z M103.6,14.3c0,0.3-0.2,0.3-0.3,0.4c0,0,0,0.1,0,0.1
						h1.3c0.1,0,0.1-0.1,0-0.1c-0.1-0.1-0.3,0-0.3-0.4v-0.5c0-0.5,0.2-0.9,0.5-0.9c0.2,0,0.3,0.2,0.3,0.4c0,0.3-0.1,0.7-0.1,1
						c0,0.4,0.2,0.6,0.6,0.6c0.2,0,0.3,0,0.5-0.1c0.1,0,0.1-0.1,0-0.1c-0.1-0.1-0.3,0-0.3-0.3v-0.7c0-0.5-0.1-1-0.7-1
						c-0.4,0-0.6,0.2-0.8,0.7c0-0.2,0-0.4-0.1-0.5c-0.1,0-0.2-0.1-0.3-0.1c-0.2,0-0.4,0-0.6,0.1c-0.1,0-0.1,0.1,0,0.1
						c0.1,0.1,0.3,0,0.3,0.3L103.6,14.3L103.6,14.3z M106.4,11.9c0,0.2,0.2,0.4,0.4,0.4c0.3,0,0.4-0.2,0.4-0.4s-0.2-0.4-0.4-0.4
						C106.6,11.5,106.4,11.7,106.4,11.9z M107.3,13.1c0-0.3,0-0.5-0.4-0.5c-0.2,0-0.4,0-0.6,0.1c-0.1,0-0.1,0.1,0,0.1
						c0.1,0.1,0.3,0,0.3,0.3v1.1c0,0.3,0.2,0.5,0.6,0.5c0.2,0,0.3,0,0.5-0.1c0.1,0,0.1-0.1,0-0.1c-0.1-0.1-0.3,0-0.3-0.3V13.1z
						 M107.8,14.4c0,0.2,0.2,0.4,0.4,0.4c0.2,0,0.4-0.2,0.4-0.4s-0.2-0.4-0.4-0.4C107.9,14,107.8,14.2,107.8,14.4z"/>
				</g>
				<path class="st0" d="M3.9,21.5c16.7-0.1,42.2-0.1,59.2-0.1c17.1,0,42.4-0.1,59.2,0.1c-16.7,0.1-42.2,0.1-59.2,0.1
					C46.1,21.6,20.8,21.6,3.9,21.5L3.9,21.5L3.9,21.5z"/>
			</g>
			<path class="st0" d="M0.9,0h124.5c0.2,0,0.5,0.1,0.6,0.3c0.2,0.2,0.3,0.4,0.3,0.6v41c0,0.2-0.1,0.5-0.3,0.6
				c-0.2,0.2-0.4,0.3-0.6,0.3H0.9c-0.2,0-0.5-0.1-0.6-0.3C0.1,42.3,0,42.1,0,41.9v-41c0-0.2,0.1-0.5,0.3-0.6C0.4,0.1,0.6,0,0.9,0z
				 M125.4,0.2H0.9c-0.2,0-0.3,0.1-0.5,0.2C0.3,0.5,0.2,0.7,0.2,0.9v41c0,0.2,0.1,0.3,0.2,0.5c0.1,0.1,0.3,0.2,0.5,0.2h124.5
				c0.2,0,0.3-0.1,0.5-0.2c0.1-0.1,0.2-0.3,0.2-0.5v-41c0-0.2-0.1-0.3-0.2-0.5S125.6,0.2,125.4,0.2z"/>
		</g>
	</g>
</g>
</svg>
