<?xml version="1.0" encoding="UTF-8"?>
<!DOCTYPE svg PUBLIC "-//W3C//DTD SVG 1.1//EN" "http://www.w3.org/Graphics/SVG/1.1/DTD/svg11.dtd">
<!-- Creator: CorelDRAW -->
<svg xmlns="http://www.w3.org/2000/svg" xml:space="preserve" width="210mm" height="297mm" version="1.1" style="shape-rendering:geometricPrecision; text-rendering:geometricPrecision; image-rendering:optimizeQuality; fill-rule:evenodd; clip-rule:evenodd"
viewBox="0 0 21000 29700"
 xmlns:xlink="http://www.w3.org/1999/xlink"
 xmlns:xodm="http://www.corel.com/coreldraw/odm/2003">
 <defs>
  <style type="text/css">
   <![CDATA[
    .fil0 {fill:#FEFEFE;fill-rule:nonzero}
   ]]>
  </style>
 </defs>
 <g id="Layer_x0020_1">
  <metadata id="CorelCorpID_0Corel-Layer"/>
  <g id="_2763736869840">
   <g>
    <g>
     <path class="fil0" d="M8940.72 15134.24l24.3 -56.07c4.89,-11.36 10.92,-9.78 14.23,-12.51 1.58,-1.44 1.15,-4.03 -1.15,-4.03l-22.43 0c-2.44,0 -2.44,3.02 -0.72,4.17 2.73,1.73 9.49,1.87 5.04,12.37l-22 50.89 -29.19 -54.06c-1.72,-3.3 -0.57,-6.18 1.87,-7.18 3.6,-1.59 5.04,-2.73 5.04,-4.03 0,-1.29 -1.01,-2.16 -2.3,-2.16l-44.43 0c-1.29,0 -2.3,0.87 -2.3,2.16 0,3.16 6.47,3.02 9.64,8.63 0.57,0.86 1.14,1.72 1.72,2.73l35.37 63.97 0 10.5c0,12.22 -7.91,10.78 -10.21,13.51 -1.15,1.44 -0.58,3.74 1.72,3.74l44.28 0c2.3,0 2.88,-2.3 1.73,-3.74 -2.3,-2.73 -10.21,-1.29 -10.21,-13.51l0 -15.38zm75.04 33.92c58.8,0 56.07,-78.92 0,-78.92 -56.35,0 -59.22,78.92 0,78.92zm0 -74.61c21.14,0 21.14,70.3 0,70.3 -21.56,0 -21.56,-70.3 0,-70.3zm92.16 63.98c-6.33,0 -10.06,-5.32 -10.06,-14.09 0,-9.49 4.31,-24.3 4.31,-34.36 0,-12.22 -4.89,-17.69 -16.25,-17.69 -4.88,0 -12.07,1.01 -21.85,3.02 -2.3,0.43 -2.87,2.88 -1.72,4.03 2.3,2.3 10.2,-0.86 10.2,11.36l0 21.56c0,16.82 2.16,36.66 25.59,36.66 12.66,0 20.99,-7.04 27.75,-23.29 -0.14,5.46 -0.86,11.64 2.3,16.53 3.02,4.6 8.63,6.76 17.25,6.76 6.04,0 12.08,-1.29 16.25,-3.45 2.15,-1.15 2.87,-3.02 1.72,-4.17 -2.3,-2.3 -10.2,0.86 -10.2,-11.36l0 -39.24c0,-11.22 0,-18.41 -14.38,-18.41 -5.32,0 -12.51,1.01 -22.29,3.02 -2.29,0.43 -2.87,2.88 -1.72,4.03 2.3,2.3 10.21,-0.86 10.21,11.36l0 14.8c0,17.4 -8.05,32.93 -17.11,32.93zm96.47 -47.73c1.29,-5.32 -0.15,-11.65 -3.31,-14.81 -2.73,-2.73 -7.19,-3.6 -12.22,-3.6 -7.62,0 -16.39,2.02 -21.13,3.02 -2.31,0.43 -2.88,2.88 -1.73,4.03 2.3,2.3 10.21,-0.86 10.21,11.36l0 39.82c0,12.22 -7.91,10.78 -10.21,13.51 -1.15,1.44 -0.58,3.74 1.73,3.74l45.14 0c2.3,0 2.87,-2.3 1.72,-3.74 -0.86,-1 -2.44,-1.44 -4.17,-2.3 -6.9,-3.3 -8.91,-7.33 -8.91,-16.82 0,-16.1 7.04,-37.81 13.51,-41.26 3.74,-2.01 4.17,-7.19 6.47,-7.19l0.15 0.15c-1.44,2.3 -2.3,5.17 -2.3,8.34 0,8.19 6.03,14.8 14.8,14.8 8.92,0 14.81,-6.75 14.81,-14.8 0,-8.06 -5.89,-14.81 -14.81,-14.81 -12.79,0 -24,7.62 -29.75,20.56zm121.33 -11.07c34.94,0 35.94,64.83 9.92,64.83 -8.19,0 -13.23,-6.61 -13.23,-17.39l0 -36.37c0,-5.9 -0.14,-8.34 -0.71,-10.5 1.29,-0.29 2.73,-0.57 4.02,-0.57zm-31.48 81.8c0,12.22 -7.91,10.78 -10.21,13.51 -1.15,1.44 -0.58,3.74 1.73,3.74l45.14 0c2.3,0 2.87,-2.3 1.72,-3.74 -2.3,-2.73 -10.21,-1.29 -10.21,-13.51l0 -15.24c4.75,1.72 10.07,2.73 16.25,2.73 55.35,0 54.92,-78.78 0,-78.78 -7.33,0 -14.23,1.87 -19.7,5.03 -2.15,-1.87 -5.46,-2.88 -10.78,-2.88 -5.32,0 -12.51,1.01 -22.42,3.02 -2.31,0.43 -2.88,2.88 -1.73,4.03 2.3,2.3 10.21,-0.86 10.21,11.36l0 70.73zm127.66 -70.73c1.29,-5.32 -0.14,-11.65 -3.31,-14.81 -2.73,-2.73 -7.18,-3.6 -12.22,-3.6 -7.61,0 -16.38,2.02 -21.13,3.02 -2.3,0.43 -2.87,2.88 -1.72,4.03 2.3,2.3 10.2,-0.86 10.2,11.36l0 39.82c0,12.22 -7.9,10.78 -10.2,13.51 -1.15,1.44 -0.58,3.74 1.72,3.74l45.14 0c2.3,0 2.88,-2.3 1.73,-3.74 -0.87,-1 -2.45,-1.44 -4.17,-2.3 -6.9,-3.3 -8.91,-7.33 -8.91,-16.82 0,-16.1 7.04,-37.81 13.51,-41.26 3.74,-2.01 4.17,-7.19 6.47,-7.19l0.14 0.15c-1.44,2.3 -2.3,5.17 -2.3,8.34 0,8.19 6.04,14.8 14.81,14.8 8.91,0 14.81,-6.75 14.81,-14.8 0,-8.06 -5.9,-14.81 -14.81,-14.81 -12.79,0 -24.01,7.62 -29.76,20.56zm73.9 8.77c0.71,-13.23 6.75,-24.88 17.1,-24.88 9.35,0 13.95,9.35 12.22,22.72 -0.14,1.15 -0.72,2.16 -2.3,2.16l-27.02 0zm14.95 49.45c15.81,0 27.74,-5.32 35.36,-15.67 1.15,-1.58 -0.57,-3.16 -2.01,-3.16 -0.58,0 -1.01,0.14 -1.44,0.57 -4.74,5.18 -10.64,7.48 -18.97,7.48 -18.41,0 -27.46,-17.69 -28.04,-34.36l35.08 0c9.78,0 13.95,-3.02 13.95,-10.07 0,-13.37 -14.67,-23.57 -33.93,-23.57 -55.35,0 -54.92,78.78 0,78.78zm117.17 -22.88c0,-26.38 -48.16,-25.95 -48.16,-42.65 0,-5.63 4.02,-9.23 10.06,-9.23 12.94,0 9.63,20.32 23,20.32 5.03,0 9.78,-3.33 9.78,-8.65 0,-10.52 -14.96,-15.98 -30.91,-15.98 -17.69,0 -36.52,7.19 -36.52,22.88 0,26.1 48.45,27.82 48.45,43.25 0,5.18 -4.17,8.48 -10.78,8.48 -18.4,0 -17.54,-12.38 -22.29,-18.85 -2.01,-2.9 -5.17,-4.2 -8.34,-4.2 -5.46,0 -10.63,4.05 -10.63,10.52 0,9.8 15.95,17.13 37.09,17.13 19.41,0 39.25,-6.9 39.25,-23.02zm32.2 -26.57c0.72,-13.23 6.76,-24.88 17.11,-24.88 9.34,0 13.94,9.35 12.22,22.72 -0.15,1.15 -0.72,2.16 -2.3,2.16l-27.03 0zm14.95 49.45c15.81,0 27.75,-5.32 35.37,-15.67 1.15,-1.58 -0.58,-3.16 -2.02,-3.16 -0.57,0 -1,0.14 -1.43,0.57 -4.75,5.18 -10.64,7.48 -18.98,7.48 -18.4,0 -27.46,-17.69 -28.03,-34.36l35.07 0c9.78,0 13.95,-3.02 13.95,-10.07 0,-13.37 -14.67,-23.57 -33.93,-23.57 -55.35,0 -54.92,78.78 0,78.78zm48.74 -18.4c0,12.22 -7.91,10.78 -10.21,13.51 -1.15,1.44 -0.58,3.74 1.73,3.74l45.14 0c2.3,0 2.87,-2.3 1.72,-3.74 -2.3,-2.73 -10.21,-1.29 -10.21,-13.51l0 -16.97c0,-17.39 8.2,-32.92 17.83,-32.92 5.75,0 9.35,5.32 9.35,14.09 0,9.49 -4.32,24.3 -4.32,34.36 0,13.23 7.34,19.84 21.86,19.84 6.03,0 12.07,-1.29 16.24,-3.45 2.16,-1.15 2.88,-3.02 1.73,-4.17 -2.3,-2.3 -10.21,0.86 -10.21,-11.36l0 -23.14c0,-16.82 -2.16,-36.66 -25.59,-36.66 -12.65,0 -20.99,7.04 -27.75,23.29 0,-5.47 1.73,-14.67 -2.87,-18.55 -2.02,-1.72 -5.32,-2.73 -10.35,-2.73 -5.32,0 -12.66,1.01 -22.57,3.16 -2.31,0.43 -2.88,2.88 -1.73,4.03 2.3,2.3 10.21,-0.86 10.21,11.36l0 39.82zm137.72 -55.93c11.22,0 8.05,14.24 11.22,20.99 1.72,3.74 5.75,5.61 9.63,5.61 5.32,0 10.64,-3.31 10.64,-10.35 -0.15,-12.08 -13.95,-20.7 -33.5,-20.7 -55.35,0 -54.92,78.78 0,78.78 15.96,0 27.75,-5.32 35.37,-15.67 1.15,-1.58 -0.58,-3.16 -2.02,-3.16 -0.57,0 -1,0.14 -1.43,0.57 -4.89,5.32 -10.79,7.48 -18.98,7.48 -35.22,0 -35.22,-63.55 -10.93,-63.55zm65.27 24.88c0.72,-13.23 6.76,-24.88 17.11,-24.88 9.35,0 13.95,9.35 12.22,22.72 -0.14,1.15 -0.72,2.16 -2.3,2.16l-27.03 0zm14.95 49.45c15.82,0 27.75,-5.32 35.37,-15.67 1.15,-1.58 -0.57,-3.16 -2.01,-3.16 -0.58,0 -1.01,0.14 -1.44,0.57 -4.74,5.18 -10.64,7.48 -18.98,7.48 -18.4,0 -27.45,-17.69 -28.03,-34.36l35.08 0c9.77,0 13.94,-3.02 13.94,-10.07 0,-13.37 -14.66,-23.57 -33.93,-23.57 -55.34,0 -54.91,78.78 0,78.78zm120.34 -71.02c0,3.88 6.46,0.15 10.63,8.48l5.9 11.79 -8.92 18.83 -19.55 -37.81c-3.02,-5.75 -8.48,-6.9 -14.52,-6.9 -6.75,0 -14.8,1.15 -21.27,3.02 -1.16,0.29 -2.3,1.3 -2.3,2.59 0,3.88 6.32,0.29 10.63,8.48l32.21 61.39c0.43,0.86 1.58,1.15 2.44,1.15 0.86,0 2.01,-0.29 2.44,-1.15l21.28 -44.71 22.43 44.71c0.43,0.86 1.58,1.15 2.44,1.15 0.87,0 2.02,-0.29 2.45,-1.15l28.03 -58.8c2.16,-4.46 5.61,-11.21 5.61,-15.96 0,-5.75 -5.75,-9.2 -11.36,-9.2 -6.47,0 -11.07,4.17 -11.07,9.92 0,6.9 6.33,14.09 6.33,22.14 0,6.9 -4.75,14.66 -7.62,21.13l-18.12 -37.81c-2.87,-5.89 -8.48,-6.9 -14.52,-6.9 -6.75,0 -14.8,1.15 -21.27,3.02 -1.16,0.29 -2.3,1.3 -2.3,2.59zm127.66 71.16c58.8,0 56.07,-78.92 0,-78.92 -56.36,0 -59.23,78.92 0,78.92zm0 -74.61c21.13,0 21.13,70.3 0,70.3 -21.57,0 -21.57,-70.3 0,-70.3zm92.15 63.98c-6.32,0 -10.06,-5.32 -10.06,-14.09 0,-9.49 4.31,-24.3 4.31,-34.36 0,-12.22 -4.89,-17.69 -16.24,-17.69 -4.89,0 -12.08,1.01 -21.86,3.02 -2.3,0.43 -2.87,2.88 -1.72,4.03 2.3,2.3 10.21,-0.86 10.21,11.36l0 21.56c0,16.82 2.15,36.66 25.59,36.66 12.65,0 20.98,-7.04 27.74,-23.29 -0.14,5.46 -0.86,11.64 2.3,16.53 3.02,4.6 8.63,6.76 17.26,6.76 6.03,0 12.07,-1.29 16.24,-3.45 2.16,-1.15 2.87,-3.02 1.73,-4.17 -2.31,-2.3 -10.21,0.86 -10.21,-11.36l0 -39.24c0,-11.22 0,-18.41 -14.38,-18.41 -5.32,0 -12.51,1.01 -22.28,3.02 -2.3,0.43 -2.88,2.88 -1.73,4.03 2.3,2.3 10.21,-0.86 10.21,11.36l0 14.8c0,17.4 -8.05,32.93 -17.11,32.93zm95.75 -78.76c0,-11.22 0,-18.43 -14.38,-18.43 -5.32,0 -12.5,1.01 -22.28,3.04 -2.3,0.44 -2.88,2.88 -1.73,4.03 2.3,2.3 10.21,-0.86 10.21,11.36l0 71.26c0,12.07 6.76,17.99 20.42,17.99 6.03,0 12.07,-1.29 16.24,-3.47 2.16,-1.15 2.88,-3.02 1.73,-4.17 -2.3,-2.3 -10.21,0.86 -10.21,-11.36l0 -70.25zm68 79.76c-34.94,0 -35.94,-64.84 -9.92,-64.84 8.05,0 13.23,6.33 13.23,17.4l0 38.96c0,3.02 0.43,5.46 1.29,7.76 -1.44,0.43 -3.16,0.72 -4.6,0.72zm31.48 -79.69c0,-11.26 0,-18.5 -14.37,-18.5 -5.32,0 -12.51,1.03 -22.29,3.04 -2.3,0.44 -2.87,2.9 -1.72,4.05 2.3,2.3 9.49,-0.86 10.21,11.41l0.86 13.42c-4.89,-2.02 -10.64,-3.02 -17.11,-3.02 -55.35,0 -54.92,78.78 0,78.78 7.62,0 14.81,-2.01 20.42,-5.46 3.3,3.59 8.77,5.46 16.24,5.46 6.04,0 12.08,-1.29 16.25,-3.45 2.15,-1.15 2.87,-3.02 1.72,-4.17 -2.3,-2.3 -10.21,0.86 -10.21,-11.36l0 -70.2zm107.11 70.78c0,12.22 -7.48,10.78 -9.78,13.51 -1.15,1.44 -0.57,3.74 1.73,3.74l44.71 0c2.3,0 2.87,-2.3 1.72,-3.74 -2.3,-2.73 -10.2,-1.29 -10.2,-13.51l0 -28.9c2.58,-11.93 8.91,-20.99 16.39,-20.99 5.75,0 9.48,5.32 9.48,14.09 0,9.49 -4.31,24.3 -4.31,34.36 0,13.23 7.33,19.84 21.85,19.84 6.04,0 12.08,-1.29 16.25,-3.45 2.16,-1.15 2.87,-3.02 1.72,-4.17 -2.3,-2.3 -10.2,0.86 -10.2,-11.36l0 -23.14c0,-16.82 -2.16,-36.66 -25.59,-36.66 -12.37,0 -20.56,6.61 -27.17,21.99 -0.58,-14.52 -8.06,-21.99 -22.43,-21.99 -13.08,0 -21.85,6.04 -27.75,19.41 0.43,-8.34 -0.29,-12.51 -3.02,-14.67 -2.3,-1.87 -6.18,-2.59 -10.78,-2.59 -8.05,0 -17.68,2.16 -22.14,3.02 -2.3,0.43 -2.87,2.88 -1.73,4.03 2.31,2.3 10.21,-0.86 10.21,11.36l0 39.82c0,12.22 -7.9,10.78 -10.21,13.51 -1.14,1.44 -0.57,3.74 1.73,3.74l45.14 0c2.3,0 2.88,-2.3 1.73,-3.74 -2.3,-2.73 -10.21,-1.29 -10.21,-13.51l0 -29.62c2.73,-11.64 8.91,-20.27 15.67,-20.27 7.04,0 7.19,9.35 7.19,15.96l0 33.93zm119.47 -31.05c0.72,-13.23 6.75,-24.88 17.11,-24.88 9.34,0 13.94,9.35 12.22,22.72 -0.15,1.15 -0.72,2.16 -2.31,2.16l-27.02 0zm14.95 49.45c15.81,0 27.75,-5.32 35.36,-15.67 1.16,-1.58 -0.57,-3.16 -2.01,-3.16 -0.57,0 -1,0.14 -1.44,0.57 -4.74,5.18 -10.63,7.48 -18.97,7.48 -18.4,0 -27.46,-17.69 -28.04,-34.36l35.08 0c9.78,0 13.95,-3.02 13.95,-10.07 0,-13.37 -14.67,-23.57 -33.93,-23.57 -55.35,0 -54.92,78.78 0,78.78zm89.13 -14.95c-2.73,3.16 -8.05,5.46 -12.65,5.46 -6.47,0 -10.06,-4.45 -10.06,-12.53 0,-18.02 18.26,-19.46 26.16,-29.54 -1.29,11.09 -5.32,25.8 -3.45,36.61zm1.44 4.74c3.02,6.9 9.63,10.21 19.98,10.21 6.04,0 12.08,-1.29 16.25,-3.45 2.15,-1.15 2.87,-3.02 1.72,-4.17 -2.3,-2.3 -10.2,0.86 -10.2,-11.38l0 -23.34c0,-26.81 -9.49,-36.73 -35.08,-36.73 -21.42,0 -36.95,6.9 -36.95,16.56 0,6.2 5.61,11.09 12.22,11.09 3.59,0 6.33,-1.44 8.19,-4.03 4.61,-6.49 7.34,-19.31 15.53,-19.31 5.75,0 10.35,5.47 10.35,12.39 0.15,21.04 -52.47,15.41 -52.47,42.94 0,11.81 9.63,19.43 24.3,19.43 10.49,0 20.41,-3.88 26.16,-10.21zm50.75 -8.19c0,12.22 -7.91,10.78 -10.21,13.51 -1.15,1.44 -0.57,3.74 1.73,3.74l45.14 0c2.3,0 2.87,-2.3 1.72,-3.74 -2.3,-2.73 -10.2,-1.29 -10.2,-13.51l0 -16.97c0,-17.39 8.19,-32.92 17.82,-32.92 5.75,0 9.35,5.32 9.35,14.09 0,9.49 -4.32,24.3 -4.32,34.36 0,13.23 7.34,19.84 21.86,19.84 6.04,0 12.07,-1.29 16.24,-3.45 2.16,-1.15 2.88,-3.02 1.73,-4.17 -2.3,-2.3 -10.21,0.86 -10.21,-11.36l0 -23.14c0,-16.82 -2.16,-36.66 -25.59,-36.66 -12.65,0 -20.99,7.04 -27.75,23.29 0,-5.47 1.73,-14.67 -2.87,-18.55 -2.01,-1.72 -5.32,-2.73 -10.35,-2.73 -5.32,0 -12.65,1.01 -22.57,3.16 -2.3,0.43 -2.88,2.88 -1.73,4.03 2.3,2.3 10.21,-0.86 10.21,11.36l0 39.82zm180.57 1.15c-3.02,4.6 -7.05,7.47 -10.79,7.47 -6.9,0 -7.04,-10.06 -7.04,-16.67l0 -45.14 11.64 0c2.88,0 2.88,-5.04 0,-5.04l-13.37 0c1.01,-0.86 1.73,-2.01 1.73,-4.02l0 -12.65c0,-1.44 -1.15,-2.16 -2.44,-2.16 -0.87,0 -1.73,0.29 -2.3,1.01 -6.91,9.05 -16.11,15.95 -30.05,17.82 -2.73,0.44 -2.59,5.04 0.14,5.04l6.47 0 0 34.93c0,16.82 2.16,36.66 25.59,36.66 10.21,0 18.12,-5.03 24.01,-14.95 1.29,-2.16 0.29,-3.74 -1.29,-3.74 -0.72,0 -1.59,0.43 -2.3,1.44zm15.81 -1.15c0,12.22 -7.91,10.78 -10.21,13.51 -1.15,1.44 -0.57,3.74 1.73,3.74l45.14 0c2.3,0 2.88,-2.3 1.72,-3.74 -2.29,-2.73 -10.2,-1.29 -10.2,-13.51l0 -16.97c0,-17.39 8.05,-32.92 17.68,-32.92 5.75,0 9.49,5.32 9.49,14.09 0,9.49 -4.31,24.3 -4.31,34.36 0,13.23 7.33,19.84 21.85,19.84 6.04,0 12.08,-1.29 16.24,-3.45 2.16,-1.15 2.88,-3.02 1.73,-4.17 -2.3,-2.3 -10.21,0.86 -10.21,-11.36l0 -23.14c0,-16.82 -2.15,-36.66 -25.59,-36.66 -12.65,0 -20.99,6.9 -27.74,23.29l0.86 -33.69c0.29,-11.26 0.14,-18.5 -14.23,-18.5 -5.32,0 -12.66,1.03 -22.43,3.04 -2.3,0.44 -2.88,2.9 -1.73,4.05 2.3,2.3 10.21,-0.86 10.21,11.41l0 70.78zm120.76 -31.05c0.72,-13.23 6.76,-24.88 17.11,-24.88 9.34,0 13.95,9.35 12.22,22.72 -0.14,1.15 -0.72,2.16 -2.3,2.16l-27.03 0zm14.95 49.45c15.82,0 27.75,-5.32 35.37,-15.67 1.15,-1.58 -0.57,-3.16 -2.01,-3.16 -0.58,0 -1.01,0.14 -1.44,0.57 -4.74,5.18 -10.64,7.48 -18.98,7.48 -18.4,0 -27.46,-17.69 -28.03,-34.36l35.08 0c9.77,0 13.94,-3.02 13.94,-10.07 0,-13.37 -14.66,-23.57 -33.93,-23.57 -55.35,0 -54.91,78.78 0,78.78zm120.33 -71.02c0,3.88 6.47,0.15 10.64,8.48l5.9 11.79 -8.92 18.83 -19.55 -37.81c-3.02,-5.75 -8.48,-6.9 -14.52,-6.9 -6.75,0 -14.81,1.15 -21.27,3.02 -1.16,0.29 -2.31,1.3 -2.31,2.59 0,3.88 6.33,0.29 10.64,8.48l32.21 61.39c0.43,0.86 1.58,1.15 2.44,1.15 0.86,0 2.01,-0.29 2.44,-1.15l21.28 -44.71 22.43 44.71c0.43,0.86 1.58,1.15 2.44,1.15 0.87,0 2.02,-0.29 2.45,-1.15l28.03 -58.8c2.16,-4.46 5.61,-11.21 5.61,-15.96 0,-5.75 -5.75,-9.2 -11.36,-9.2 -6.47,0 -11.07,4.17 -11.07,9.92 0,6.9 6.33,14.09 6.33,22.14 0,6.9 -4.75,14.66 -7.62,21.13l-18.12 -37.81c-2.87,-5.89 -8.48,-6.9 -14.52,-6.9 -6.76,0 -14.81,1.15 -21.27,3.02 -1.16,0.29 -2.31,1.3 -2.31,2.59zm127.67 71.16c58.8,0 56.07,-78.92 0,-78.92 -56.36,0 -59.23,78.92 0,78.92zm0 -74.61c21.13,0 21.13,70.3 0,70.3 -21.57,0 -21.57,-70.3 0,-70.3zm84.96 16.25c1.3,-5.32 -0.14,-11.65 -3.3,-14.81 -2.74,-2.73 -7.19,-3.6 -12.22,-3.6 -7.62,0 -16.39,2.02 -21.14,3.02 -2.3,0.43 -2.87,2.88 -1.72,4.03 2.3,2.3 10.2,-0.86 10.2,11.36l0 39.82c0,12.22 -7.9,10.78 -10.2,13.51 -1.15,1.44 -0.58,3.74 1.72,3.74l45.14 0c2.31,0 2.88,-2.3 1.73,-3.74 -0.86,-1 -2.44,-1.44 -4.17,-2.3 -6.9,-3.3 -8.91,-7.33 -8.91,-16.82 0,-16.1 7.04,-37.81 13.51,-41.26 3.74,-2.01 4.17,-7.19 6.47,-7.19l0.14 0.15c-1.43,2.3 -2.3,5.17 -2.3,8.34 0,8.19 6.04,14.8 14.81,14.8 8.92,0 14.81,-6.75 14.81,-14.8 0,-8.06 -5.89,-14.81 -14.81,-14.81 -12.79,0 -24.01,7.62 -29.76,20.56zm84.25 -31.03c0,-11.22 0,-18.43 -14.38,-18.43 -5.32,0 -12.51,1.01 -22.28,3.04 -2.3,0.44 -2.88,2.88 -1.73,4.03 2.3,2.3 10.21,-0.86 10.21,11.36l0 71.26c0,12.07 6.76,17.99 20.42,17.99 6.03,0 12.07,-1.29 16.24,-3.47 2.16,-1.15 2.88,-3.02 1.73,-4.17 -2.3,-2.3 -10.21,0.86 -10.21,-11.36l0 -70.25zm68 79.76c-34.94,0 -35.94,-64.84 -9.92,-64.84 8.05,0 13.23,6.33 13.23,17.4l0 38.96c0,3.02 0.43,5.46 1.29,7.76 -1.44,0.43 -3.16,0.72 -4.6,0.72zm31.48 -79.69c0,-11.26 0,-18.5 -14.37,-18.5 -5.32,0 -12.51,1.03 -22.29,3.04 -2.3,0.44 -2.87,2.9 -1.72,4.05 2.3,2.3 9.49,-0.86 10.21,11.41l0.86 13.42c-4.89,-2.02 -10.64,-3.02 -17.11,-3.02 -55.35,0 -54.92,78.78 0,78.78 7.62,0 14.81,-2.01 20.42,-5.46 3.3,3.59 8.77,5.46 16.24,5.46 6.04,0 12.08,-1.29 16.25,-3.45 2.15,-1.15 2.87,-3.02 1.72,-4.17 -2.3,-2.3 -10.21,0.86 -10.21,-11.36l0 -70.2zm99.92 71.93c-3.02,4.6 -7.04,7.47 -10.78,7.47 -6.9,0 -7.05,-10.06 -7.05,-16.67l0 -45.14 11.65 0c2.87,0 2.87,-5.04 0,-5.04l-13.37 0c1,-0.86 1.72,-2.01 1.72,-4.02l0 -12.65c0,-1.44 -1.15,-2.16 -2.44,-2.16 -0.86,0 -1.73,0.29 -2.3,1.01 -6.9,9.05 -16.1,15.95 -30.05,17.82 -2.73,0.44 -2.59,5.04 0.15,5.04l6.46 0 0 34.93c0,16.82 2.16,36.66 25.6,36.66 10.2,0 18.11,-5.03 24,-14.95 1.3,-2.16 0.29,-3.74 -1.29,-3.74 -0.72,0 -1.58,0.43 -2.3,1.44zm49.89 17.39c58.8,0 56.07,-78.92 0,-78.92 -56.36,0 -59.23,78.92 0,78.92zm0 -74.61c21.13,0 21.13,70.3 0,70.3 -21.57,0 -21.57,-70.3 0,-70.3zm125.21 63.98c-6.32,0 -10.06,-5.32 -10.06,-14.09 0,-9.49 4.32,-24.3 4.32,-34.36 0,-12.22 -4.89,-17.69 -16.25,-17.69 -4.89,0 -12.08,1.01 -21.85,3.02 -2.3,0.43 -2.88,2.88 -1.73,4.03 2.3,2.3 10.21,-0.86 10.21,11.36l0 21.56c0,16.82 2.16,36.66 25.59,36.66 12.65,0 20.99,-7.04 27.75,-23.29 -0.15,5.46 -0.87,11.64 2.3,16.53 3.01,4.6 8.62,6.76 17.25,6.76 6.04,0 12.07,-1.29 16.24,-3.45 2.16,-1.15 2.88,-3.02 1.73,-4.17 -2.3,-2.3 -10.21,0.86 -10.21,-11.36l0 -39.24c0,-11.22 0,-18.41 -14.37,-18.41 -5.32,0 -12.51,1.01 -22.29,3.02 -2.3,0.43 -2.87,2.88 -1.72,4.03 2.3,2.3 10.2,-0.86 10.2,11.36l0 14.8c0,17.4 -8.05,32.93 -17.11,32.93zm135.29 -12.39c0,-26.38 -48.16,-25.95 -48.16,-42.65 0,-5.63 4.02,-9.23 10.06,-9.23 12.94,0 9.63,20.32 23,20.32 5.03,0 9.78,-3.33 9.78,-8.65 0,-10.52 -14.95,-15.98 -30.91,-15.98 -17.68,0 -36.52,7.19 -36.52,22.88 0,26.1 48.45,27.82 48.45,43.25 0,5.18 -4.17,8.48 -10.78,8.48 -18.4,0 -17.54,-12.38 -22.28,-18.85 -2.02,-2.9 -5.18,-4.2 -8.34,-4.2 -5.47,0 -10.64,4.05 -10.64,10.52 0,9.8 15.96,17.13 37.09,17.13 19.41,0 39.25,-6.9 39.25,-23.02zm-2835.32 202.01c-2.73,3.16 -8.05,5.46 -12.65,5.46 -6.47,0 -10.07,-4.45 -10.07,-12.53 0,-18.01 18.26,-19.45 26.17,-29.54 -1.3,11.09 -5.32,25.81 -3.45,36.61zm1.43 4.75c3.02,6.9 9.64,10.2 19.99,10.2 6.04,0 12.07,-1.29 16.24,-3.45 2.16,-1.15 2.88,-3.02 1.73,-4.17 -2.3,-2.3 -10.21,0.87 -10.21,-11.38l0 -23.34c0,-26.81 -9.49,-36.73 -35.08,-36.73 -21.42,0 -36.94,6.9 -36.94,16.56 0,6.21 5.6,11.09 12.21,11.09 3.6,0 6.33,-1.43 8.2,-4.02 4.6,-6.5 7.33,-19.32 15.53,-19.32 5.75,0 10.35,5.47 10.35,12.39 0.14,21.04 -52.48,15.41 -52.48,42.94 0,11.81 9.64,19.43 24.3,19.43 10.49,0 20.41,-3.88 26.16,-10.2zm117.75 -12.68c0,-26.38 -48.16,-25.95 -48.16,-42.65 0,-5.63 4.02,-9.23 10.06,-9.23 12.94,0 9.63,20.32 23,20.32 5.03,0 9.78,-3.33 9.78,-8.65 0,-10.51 -14.95,-15.98 -30.91,-15.98 -17.68,0 -36.52,7.19 -36.52,22.89 0,26.09 48.45,27.81 48.45,43.24 0,5.18 -4.17,8.49 -10.78,8.49 -18.4,0 -17.54,-12.39 -22.28,-18.86 -2.02,-2.9 -5.18,-4.19 -8.34,-4.19 -5.47,0 -10.64,4.05 -10.64,10.52 0,9.79 15.96,17.13 37.09,17.13 19.41,0 39.25,-6.9 39.25,-23.03zm85.25 -48.14c0,3.89 6.47,0.15 10.64,8.49l5.89 11.78 -8.91 18.84 -19.55 -37.81c-3.02,-5.75 -8.49,-6.9 -14.52,-6.9 -6.76,0 -14.81,1.15 -21.28,3.02 -1.15,0.28 -2.3,1.29 -2.3,2.58 0,3.89 6.32,0.29 10.64,8.49l32.2 61.38c0.43,0.87 1.58,1.15 2.44,1.15 0.87,0 2.02,-0.28 2.45,-1.15l21.28 -44.71 22.42 44.71c0.43,0.87 1.59,1.15 2.45,1.15 0.86,0 2.01,-0.28 2.44,-1.15l28.04 -58.8c2.15,-4.45 5.6,-11.21 5.6,-15.95 0,-5.76 -5.75,-9.21 -11.36,-9.21 -6.47,0 -11.07,4.17 -11.07,9.92 0,6.91 6.33,14.09 6.33,22.14 0,6.9 -4.74,14.67 -7.62,21.14l-18.11 -37.81c-2.88,-5.9 -8.48,-6.9 -14.52,-6.9 -6.76,0 -14.81,1.15 -21.28,3.02 -1.15,0.28 -2.3,1.29 -2.3,2.58z"/>
     <path class="fil0" d="M9597.44 15312.65c0.72,-13.23 6.76,-24.87 17.11,-24.87 9.34,0 13.94,9.34 12.22,22.71 -0.15,1.15 -0.72,2.16 -2.3,2.16l-27.03 0zm14.95 49.45c15.81,0 27.75,-5.32 35.37,-15.67 1.15,-1.58 -0.58,-3.16 -2.02,-3.16 -0.57,0 -1,0.14 -1.43,0.58 -4.75,5.17 -10.64,7.47 -18.98,7.47 -18.4,0 -27.46,-17.68 -28.03,-34.36l35.07 0c9.78,0 13.95,-3.02 13.95,-10.06 0,-13.37 -14.67,-23.58 -33.93,-23.58 -55.35,0 -54.92,78.78 0,78.78zm132.84 -18.4c0,12.22 -7.48,10.78 -9.78,13.52 -1.15,1.43 -0.57,3.73 1.73,3.73l44.71 0c2.3,0 2.87,-2.3 1.72,-3.73 -2.3,-2.74 -10.2,-1.3 -10.2,-13.52l0 -28.9c2.58,-11.93 8.91,-20.98 16.39,-20.98 5.75,0 9.48,5.31 9.48,14.08 0,9.49 -4.31,24.3 -4.31,34.36 0,13.23 7.33,19.84 21.85,19.84 6.04,0 12.08,-1.29 16.25,-3.45 2.16,-1.15 2.87,-3.02 1.72,-4.17 -2.3,-2.3 -10.2,0.87 -10.2,-11.35l0 -23.15c0,-16.82 -2.16,-36.66 -25.59,-36.66 -12.37,0 -20.56,6.61 -27.17,22 -0.58,-14.52 -8.06,-22 -22.43,-22 -13.08,0 -21.85,6.04 -27.75,19.41 0.43,-8.34 -0.29,-12.51 -3.02,-14.67 -2.3,-1.86 -6.18,-2.58 -10.78,-2.58 -8.05,0 -17.68,2.15 -22.14,3.02 -2.3,0.43 -2.87,2.87 -1.72,4.02 2.3,2.3 10.2,-0.86 10.2,11.36l0 39.82c0,12.22 -7.9,10.78 -10.2,13.52 -1.15,1.43 -0.58,3.73 1.72,3.73l45.14 0c2.3,0 2.88,-2.3 1.73,-3.73 -2.3,-2.74 -10.21,-1.3 -10.21,-13.52l0 -29.61c2.73,-11.65 8.91,-20.27 15.67,-20.27 7.04,0 7.19,9.34 7.19,15.95l0 33.93zm142.04 3.45c-2.73,3.16 -8.05,5.46 -12.65,5.46 -6.47,0 -10.07,-4.45 -10.07,-12.53 0,-18.01 18.26,-19.45 26.17,-29.54 -1.3,11.09 -5.32,25.81 -3.45,36.61zm1.44 4.75c3.01,6.9 9.63,10.2 19.98,10.2 6.04,0 12.08,-1.29 16.24,-3.45 2.16,-1.15 2.88,-3.02 1.73,-4.17 -2.3,-2.3 -10.21,0.87 -10.21,-11.38l0 -23.34c0,-26.81 -9.49,-36.73 -35.08,-36.73 -21.42,0 -36.94,6.9 -36.94,16.56 0,6.21 5.6,11.09 12.22,11.09 3.59,0 6.32,-1.43 8.19,-4.02 4.6,-6.5 7.33,-19.32 15.53,-19.32 5.75,0 10.35,5.47 10.35,12.39 0.14,21.04 -52.48,15.41 -52.48,42.94 0,11.81 9.64,19.43 24.3,19.43 10.5,0 20.41,-3.88 26.17,-10.2zm78.92 -48.02c1.3,-5.32 -0.14,-11.65 -3.3,-14.81 -2.74,-2.73 -7.19,-3.59 -12.22,-3.59 -7.62,0 -16.39,2.01 -21.14,3.02 -2.3,0.43 -2.87,2.87 -1.72,4.02 2.3,2.3 10.2,-0.86 10.2,11.36l0 39.82c0,12.22 -7.9,10.78 -10.2,13.52 -1.15,1.43 -0.58,3.73 1.72,3.73l45.14 0c2.3,0 2.88,-2.3 1.73,-3.73 -0.86,-1.01 -2.44,-1.44 -4.17,-2.31 -6.9,-3.3 -8.91,-7.33 -8.91,-16.82 0,-16.1 7.04,-37.8 13.51,-41.26 3.74,-2.01 4.17,-7.18 6.47,-7.18l0.14 0.14c-1.43,2.3 -2.3,5.18 -2.3,8.34 0,8.19 6.04,14.81 14.81,14.81 8.92,0 14.81,-6.76 14.81,-14.81 0,-8.05 -5.89,-14.81 -14.81,-14.81 -12.79,0 -24.01,7.62 -29.76,20.56zm84.97 6.37c0.86,-7.28 8.05,-15.28 15.52,-15.28 13.09,0 14.67,23.28 -1.87,23.28 -5.46,0 -10.78,-3.42 -13.65,-8zm40.83 51.85c6.18,0 11.5,-1.29 15.23,-3.3 2.16,-1.15 2.88,-2.88 1.73,-4.03 -1.73,-1.58 -5.18,-0.72 -8.91,-5.89 -3.88,-5.32 -9.78,-19.56 -24.59,-25.31 29.62,-3.01 27.61,-40.54 2.88,-40.54 -11.5,0 -22.43,8.05 -27.89,18.36l0.72 -28.37c0.28,-11.34 0.14,-18.6 -14.24,-18.6 -5.32,0 -12.65,1.03 -22.42,3.07 -2.3,0.43 -2.88,2.9 -1.73,4.05 2.3,2.32 10.21,-0.86 10.21,11.48l0 70.68c0,12.22 -7.91,10.78 -10.21,13.52 -1.15,1.43 -0.57,3.73 1.73,3.73l45.14 0c2.3,0 2.87,-2.3 1.72,-3.73 -2.3,-2.74 -10.2,-1.3 -10.2,-13.52l0 -27.72c6.18,6.73 11.79,5.44 13.94,17.08 2.3,12.22 4.03,29.04 26.89,29.04zm105.95 -17.25c-3.02,4.6 -7.04,7.48 -10.78,7.48 -6.9,0 -7.05,-10.07 -7.05,-16.68l0 -45.14 11.65 0c2.87,0 2.87,-5.03 0,-5.03l-13.37 0c1,-0.87 1.72,-2.02 1.72,-4.03l0 -12.65c0,-1.44 -1.15,-2.16 -2.44,-2.16 -0.86,0 -1.73,0.29 -2.3,1.01 -6.9,9.06 -16.1,15.96 -30.05,17.83 -2.73,0.43 -2.59,5.03 0.15,5.03l6.46 0 0 34.93c0,16.82 2.16,36.66 25.6,36.66 10.2,0 18.11,-5.03 24,-14.95 1.3,-2.15 0.29,-3.74 -1.29,-3.74 -0.72,0 -1.58,0.44 -2.3,1.44zm15.81 -1.15c0,12.22 -7.9,10.78 -10.2,13.52 -1.15,1.43 -0.58,3.73 1.72,3.73l45.14 0c2.3,0 2.88,-2.3 1.73,-3.73 -2.3,-2.74 -10.21,-1.3 -10.21,-13.52l0 -16.96c0,-17.4 8.05,-32.92 17.68,-32.92 5.76,0 9.49,5.31 9.49,14.08 0,9.49 -4.31,24.3 -4.31,34.36 0,13.23 7.33,19.84 21.85,19.84 6.04,0 12.08,-1.29 16.25,-3.45 2.15,-1.15 2.87,-3.02 1.72,-4.17 -2.3,-2.3 -10.2,0.87 -10.2,-11.35l0 -23.15c0,-16.82 -2.16,-36.66 -25.59,-36.66 -12.66,0 -20.99,6.9 -27.75,23.29l0.86 -33.69c0.29,-11.26 0.15,-18.5 -14.23,-18.5 -5.32,0 -12.65,1.03 -22.43,3.05 -2.3,0.43 -2.87,2.9 -1.72,4.05 2.3,2.3 10.2,-0.87 10.2,11.4l0 70.78zm100.35 -81.51c0,8.19 6.04,14.8 14.81,14.8 8.91,0 14.81,-6.75 14.81,-14.8 0,-8.05 -5.9,-14.81 -14.81,-14.81 -8.91,0 -14.81,6.47 -14.81,14.81zm31.49 41.69c0,-11.22 0,-18.4 -14.38,-18.4 -5.32,0 -12.51,1 -22.28,3.02 -2.3,0.43 -2.88,2.87 -1.73,4.02 2.3,2.3 10.21,-0.86 10.21,11.36l0 40.25c0,12.08 6.76,17.97 20.41,17.97 6.04,0 12.08,-1.29 16.25,-3.45 2.15,-1.15 2.87,-3.02 1.72,-4.17 -2.3,-2.3 -10.2,0.87 -10.2,-11.35l0 -39.25zm89.99 35.34c0,-26.38 -48.16,-25.95 -48.16,-42.65 0,-5.63 4.03,-9.23 10.06,-9.23 12.94,0 9.64,20.32 23.01,20.32 5.03,0 9.77,-3.33 9.77,-8.65 0,-10.51 -14.95,-15.98 -30.91,-15.98 -17.68,0 -36.51,7.19 -36.51,22.89 0,26.09 48.45,27.81 48.45,43.24 0,5.18 -4.17,8.49 -10.79,8.49 -18.4,0 -17.54,-12.39 -22.28,-18.86 -2.01,-2.9 -5.18,-4.19 -8.34,-4.19 -5.46,0 -10.64,4.05 -10.64,10.52 0,9.79 15.96,17.13 37.09,17.13 19.41,0 39.25,-6.9 39.25,-23.03zm113.72 0c0,-26.38 -48.16,-25.95 -48.16,-42.65 0,-5.63 4.02,-9.23 10.06,-9.23 12.94,0 9.63,20.32 23,20.32 5.03,0 9.78,-3.33 9.78,-8.65 0,-10.51 -14.95,-15.98 -30.91,-15.98 -17.68,0 -36.52,7.19 -36.52,22.89 0,26.09 48.45,27.81 48.45,43.24 0,5.18 -4.17,8.49 -10.78,8.49 -18.4,0 -17.54,-12.39 -22.28,-18.86 -2.02,-2.9 -5.18,-4.19 -8.34,-4.19 -5.46,0 -10.64,4.05 -10.64,10.52 0,9.79 15.96,17.13 37.09,17.13 19.41,0 39.25,-6.9 39.25,-23.03zm45.14 -46.41c34.94,0 35.94,64.84 9.92,64.84 -8.2,0 -13.23,-6.62 -13.23,-17.4l0 -36.37c0,-5.9 -0.14,-8.34 -0.71,-10.5 1.29,-0.28 2.73,-0.57 4.02,-0.57zm-31.48 81.8c0,12.22 -7.91,10.78 -10.21,13.51 -1.15,1.44 -0.58,3.74 1.72,3.74l45.15 0c2.3,0 2.87,-2.3 1.72,-3.74 -2.3,-2.73 -10.21,-1.29 -10.21,-13.51l0 -15.24c4.75,1.73 10.07,2.73 16.25,2.73 55.35,0 54.92,-78.78 0,-78.78 -7.33,0 -14.23,1.87 -19.7,5.03 -2.15,-1.87 -5.46,-2.87 -10.78,-2.87 -5.32,0 -12.51,1 -22.43,3.02 -2.3,0.43 -2.87,2.87 -1.72,4.02 2.3,2.3 10.21,-0.86 10.21,11.36l0 70.73zm118.03 -61.96c0.72,-13.23 6.75,-24.87 17.1,-24.87 9.35,0 13.95,9.34 12.22,22.71 -0.14,1.15 -0.72,2.16 -2.3,2.16l-27.02 0zm14.95 49.45c15.81,0 27.74,-5.32 35.36,-15.67 1.15,-1.58 -0.57,-3.16 -2.01,-3.16 -0.57,0 -1.01,0.14 -1.44,0.58 -4.74,5.17 -10.63,7.47 -18.97,7.47 -18.4,0 -27.46,-17.68 -28.04,-34.36l35.08 0c9.78,0 13.95,-3.02 13.95,-10.06 0,-13.37 -14.67,-23.58 -33.93,-23.58 -55.35,0 -54.92,78.78 0,78.78zm84.24 -74.32c11.22,0 8.06,14.23 11.22,20.99 1.72,3.73 5.75,5.6 9.63,5.6 5.32,0 10.64,-3.3 10.64,-10.35 -0.14,-12.07 -13.95,-20.7 -33.5,-20.7 -55.35,0 -54.92,78.78 0,78.78 15.96,0 27.75,-5.32 35.37,-15.67 1.15,-1.58 -0.58,-3.16 -2.01,-3.16 -0.58,0 -1.01,0.14 -1.44,0.58 -4.89,5.31 -10.78,7.47 -18.98,7.47 -35.22,0 -35.22,-63.54 -10.93,-63.54zm43.42 -25.59c0,8.19 6.04,14.8 14.81,14.8 8.91,0 14.81,-6.75 14.81,-14.8 0,-8.05 -5.9,-14.81 -14.81,-14.81 -8.91,0 -14.81,6.47 -14.81,14.81zm31.49 41.69c0,-11.22 0,-18.4 -14.38,-18.4 -5.32,0 -12.51,1 -22.28,3.02 -2.3,0.43 -2.88,2.87 -1.73,4.02 2.3,2.3 10.21,-0.86 10.21,11.36l0 40.25c0,12.08 6.76,17.97 20.41,17.97 6.04,0 12.08,-1.29 16.25,-3.45 2.15,-1.15 2.87,-3.02 1.72,-4.17 -2.3,-2.3 -10.2,0.87 -10.2,-11.35l0 -39.25zm62.68 43.27c-2.73,3.16 -8.05,5.46 -12.65,5.46 -6.47,0 -10.07,-4.45 -10.07,-12.53 0,-18.01 18.26,-19.45 26.17,-29.54 -1.3,11.09 -5.32,25.81 -3.45,36.61zm1.43 4.75c3.02,6.9 9.64,10.2 19.99,10.2 6.04,0 12.07,-1.29 16.24,-3.45 2.16,-1.15 2.88,-3.02 1.73,-4.17 -2.3,-2.3 -10.21,0.87 -10.21,-11.38l0 -23.34c0,-26.81 -9.49,-36.73 -35.08,-36.73 -21.42,0 -36.94,6.9 -36.94,16.56 0,6.21 5.6,11.09 12.21,11.09 3.6,0 6.33,-1.43 8.2,-4.02 4.6,-6.5 7.33,-19.32 15.53,-19.32 5.75,0 10.35,5.47 10.35,12.39 0.14,21.04 -52.48,15.41 -52.48,42.94 0,11.81 9.64,19.43 24.3,19.43 10.49,0 20.41,-3.88 26.16,-10.2zm78.21 -79.05c0,-11.21 0,-18.43 -14.37,-18.43 -5.32,0 -12.51,1.01 -22.29,3.05 -2.3,0.43 -2.87,2.87 -1.72,4.02 2.3,2.3 10.2,-0.86 10.2,11.36l0 71.26c0,12.07 6.76,17.99 20.42,17.99 6.04,0 12.08,-1.29 16.24,-3.47 2.16,-1.15 2.88,-3.02 1.73,-4.17 -2.3,-2.3 -10.21,0.86 -10.21,-11.36l0 -70.25zm90.14 89.4c58.8,0 56.07,-78.93 0,-78.93 -56.35,0 -59.23,78.93 0,78.93zm0 -74.62c21.13,0 21.13,70.3 0,70.3 -21.56,0 -21.56,-70.3 0,-70.3zm92.3 0.15c11.21,0 8.05,14.23 11.21,20.99 1.73,3.73 5.75,5.6 9.63,5.6 5.32,0 10.64,-3.3 10.64,-10.35 -0.14,-12.07 -13.94,-20.7 -33.5,-20.7 -55.34,0 -54.91,78.78 0,78.78 15.96,0 27.75,-5.32 35.37,-15.67 1.15,-1.58 -0.57,-3.16 -2.01,-3.16 -0.58,0 -1.01,0.14 -1.44,0.58 -4.89,5.31 -10.78,7.47 -18.98,7.47 -35.22,0 -35.22,-63.54 -10.92,-63.54zm82.23 0c11.21,0 8.05,14.23 11.21,20.99 1.73,3.73 5.76,5.6 9.64,5.6 5.32,0 10.64,-3.3 10.64,-10.35 -0.15,-12.07 -13.95,-20.7 -33.5,-20.7 -55.35,0 -54.92,78.78 0,78.78 15.96,0 27.75,-5.32 35.36,-15.67 1.16,-1.58 -0.57,-3.16 -2.01,-3.16 -0.57,0 -1,0.14 -1.44,0.58 -4.88,5.31 -10.78,7.47 -18.97,7.47 -35.22,0 -35.22,-63.54 -10.93,-63.54zm87.84 59.37c-2.73,3.16 -8.05,5.46 -12.65,5.46 -6.47,0 -10.06,-4.45 -10.06,-12.53 0,-18.01 18.26,-19.45 26.16,-29.54 -1.29,11.09 -5.32,25.81 -3.45,36.61zm1.44 4.75c3.02,6.9 9.63,10.2 19.98,10.2 6.04,0 12.08,-1.29 16.25,-3.45 2.15,-1.15 2.87,-3.02 1.72,-4.17 -2.3,-2.3 -10.2,0.87 -10.2,-11.38l0 -23.34c0,-26.81 -9.49,-36.73 -35.08,-36.73 -21.42,0 -36.95,6.9 -36.95,16.56 0,6.21 5.61,11.09 12.22,11.09 3.59,0 6.33,-1.43 8.19,-4.02 4.61,-6.5 7.34,-19.32 15.53,-19.32 5.75,0 10.35,5.47 10.35,12.39 0.15,21.04 -52.47,15.41 -52.47,42.94 0,11.81 9.63,19.43 24.3,19.43 10.49,0 20.41,-3.88 26.16,-10.2zm117.74 -12.68c0,-26.38 -48.16,-25.95 -48.16,-42.65 0,-5.63 4.03,-9.23 10.06,-9.23 12.94,0 9.64,20.32 23.01,20.32 5.03,0 9.77,-3.33 9.77,-8.65 0,-10.51 -14.95,-15.98 -30.91,-15.98 -17.68,0 -36.51,7.19 -36.51,22.89 0,26.09 48.45,27.81 48.45,43.24 0,5.18 -4.17,8.49 -10.79,8.49 -18.4,0 -17.53,-12.39 -22.28,-18.86 -2.01,-2.9 -5.17,-4.19 -8.34,-4.19 -5.46,0 -10.64,4.05 -10.64,10.52 0,9.79 15.96,17.13 37.1,17.13 19.4,0 39.24,-6.9 39.24,-23.03zm10.35 -77.03c0,8.19 6.04,14.8 14.81,14.8 8.91,0 14.81,-6.75 14.81,-14.8 0,-8.05 -5.9,-14.81 -14.81,-14.81 -8.91,0 -14.81,6.47 -14.81,14.81zm31.49 41.69c0,-11.22 0,-18.4 -14.38,-18.4 -5.32,0 -12.51,1 -22.28,3.02 -2.3,0.43 -2.88,2.87 -1.73,4.02 2.3,2.3 10.21,-0.86 10.21,11.36l0 40.25c0,12.08 6.76,17.97 20.41,17.97 6.04,0 12.08,-1.29 16.25,-3.45 2.16,-1.15 2.88,-3.02 1.72,-4.17 -2.29,-2.3 -10.2,0.87 -10.2,-11.35l0 -39.25zm57.07 58.37c58.8,0 56.07,-78.93 0,-78.93 -56.35,0 -59.23,78.93 0,78.93zm0 -74.62c21.13,0 21.13,70.3 0,70.3 -21.56,0 -21.56,-70.3 0,-70.3zm56.79 56.07c0,12.22 -7.91,10.78 -10.21,13.52 -1.15,1.43 -0.57,3.73 1.73,3.73l45.14 0c2.3,0 2.88,-2.3 1.72,-3.73 -2.3,-2.74 -10.2,-1.3 -10.2,-13.52l0 -16.96c0,-17.4 8.19,-32.92 17.82,-32.92 5.75,0 9.35,5.31 9.35,14.08 0,9.49 -4.31,24.3 -4.31,34.36 0,13.23 7.33,19.84 21.85,19.84 6.04,0 12.08,-1.29 16.24,-3.45 2.16,-1.15 2.88,-3.02 1.73,-4.17 -2.3,-2.3 -10.21,0.87 -10.21,-11.35l0 -23.15c0,-16.82 -2.15,-36.66 -25.59,-36.66 -12.65,0 -20.99,7.05 -27.75,23.29 0,-5.46 1.73,-14.66 -2.87,-18.55 -2.01,-1.72 -5.32,-2.73 -10.35,-2.73 -5.32,0 -12.65,1.01 -22.57,3.17 -2.3,0.43 -2.88,2.87 -1.73,4.02 2.3,2.3 10.21,-0.86 10.21,11.36l0 39.82zm97.04 5.46c0,7.48 5.46,13.52 13.51,13.52 8.2,0 13.52,-6.18 13.52,-13.52 0,-7.33 -5.32,-13.51 -13.52,-13.51 -8.19,0 -13.51,5.89 -13.51,13.51z"/>
    </g>
    <g>
     <path class="fil0" d="M8733.57 14334.79c0,-12.22 7.91,-10.78 10.21,-13.51 1.15,-1.44 0.58,-3.74 -1.72,-3.74l-45.15 0c-2.3,0 -2.87,2.3 -1.72,3.74 2.3,2.73 10.21,1.29 10.21,13.51l0 70.73c0,12.23 -7.91,10.79 -10.21,13.52 -1.15,1.44 -0.58,3.74 1.72,3.74l45.15 0c2.3,0 2.87,-2.3 1.72,-3.74 -2.3,-2.73 -10.21,-1.44 -10.21,-13.66 0,-17.39 1.73,-32.06 9.92,-32.06 15.24,0 -1.72,50.61 34.22,50.61 5.89,0 11.21,-1.15 15.38,-3.45 2.3,-1.15 2.88,-3.02 1.73,-4.17 -1.58,-1.73 -5.18,-0.72 -8.77,-5.75 -5.61,-7.62 -11.65,-41.7 -38.24,-41.7 -2.59,0 -5.18,0.29 -7.33,1.01 5.46,-10.49 11.35,-19.55 15.52,-23.72 10.21,-10.21 20.85,-1.73 29.76,-10.49 3.02,-2.88 4.46,-6.33 4.46,-9.92 0.14,-7.91 -6.18,-13.66 -14.38,-13.66 -4.02,0 -7.47,1.58 -10.93,5.03 -8.48,8.48 -21.56,32.63 -31.34,57.51l0 -39.83zm88.99 39.68c0.72,-13.22 6.76,-24.87 17.11,-24.87 9.35,0 13.95,9.35 12.22,22.72 -0.14,1.14 -0.72,2.15 -2.3,2.15l-27.03 0zm14.96 49.46c15.81,0 27.74,-5.32 35.36,-15.67 1.15,-1.59 -0.57,-3.17 -2.01,-3.17 -0.58,0 -1.01,0.15 -1.44,0.58 -4.74,5.17 -10.64,7.47 -18.98,7.47 -18.4,0 -27.45,-17.68 -28.03,-34.36l35.08 0c9.77,0 13.95,-3.01 13.95,-10.06 0,-13.37 -14.67,-23.58 -33.93,-23.58 -55.35,0 -54.92,78.79 0,78.79zm48.73 -18.41c0,12.23 -7.9,10.79 -10.2,13.52 -1.15,1.44 -0.58,3.74 1.72,3.74l45.14 0c2.3,0 2.88,-2.3 1.73,-3.74 -2.3,-2.73 -10.21,-1.29 -10.21,-13.52l0 -16.96c0,-17.39 8.05,-32.92 17.68,-32.92 5.75,0 9.49,5.32 9.49,14.09 0,9.49 -4.31,24.29 -4.31,34.36 0,13.22 7.33,19.84 21.85,19.84 6.04,0 12.08,-1.3 16.25,-3.45 2.15,-1.15 2.87,-3.02 1.72,-4.17 -2.3,-2.3 -10.2,0.86 -10.2,-11.36l0 -23.15c0,-16.82 -2.16,-36.66 -25.6,-36.66 -12.65,0 -20.99,6.9 -27.74,23.29l0.86 -33.68c0.29,-11.27 0.14,-18.5 -14.23,-18.5 -5.32,0 -12.65,1.03 -22.43,3.04 -2.3,0.43 -2.87,2.9 -1.72,4.05 2.3,2.3 10.2,-0.86 10.2,11.41l0 70.77zm143.33 3.46c-2.73,3.16 -8.05,5.46 -12.65,5.46 -6.46,0 -10.06,-4.46 -10.06,-12.53 0,-18.02 18.26,-19.46 26.17,-29.55 -1.3,11.1 -5.32,25.81 -3.46,36.62zm1.44 4.74c3.02,6.9 9.64,10.21 19.99,10.21 6.03,0 12.07,-1.3 16.24,-3.45 2.16,-1.15 2.88,-3.02 1.73,-4.17 -2.3,-2.3 -10.21,0.86 -10.21,-11.38l0 -23.34c0,-26.81 -9.49,-36.73 -35.08,-36.73 -21.42,0 -36.95,6.9 -36.95,16.55 0,6.21 5.61,11.1 12.22,11.1 3.6,0 6.33,-1.44 8.2,-4.03 4.6,-6.49 7.33,-19.31 15.52,-19.31 5.76,0 10.36,5.46 10.36,12.39 0.14,21.04 -52.48,15.4 -52.48,42.93 0,11.82 9.63,19.44 24.3,19.44 10.49,0 20.41,-3.89 26.16,-10.21zm95.75 0.72c-34.93,0 -35.94,-64.84 -9.92,-64.84 8.05,0 13.23,6.33 13.23,17.4l0 38.96c0,3.02 0.43,5.46 1.29,7.76 -1.44,0.43 -3.16,0.72 -4.6,0.72zm31.48 -79.69c0,-11.27 0,-18.5 -14.37,-18.5 -5.32,0 -12.51,1.03 -22.29,3.04 -2.3,0.43 -2.87,2.9 -1.72,4.05 2.3,2.3 9.49,-0.86 10.21,11.41l0.86 13.41c-4.89,-2.01 -10.64,-3.02 -17.11,-3.02 -55.35,0 -54.92,78.79 0,78.79 7.62,0 14.81,-2.02 20.42,-5.47 3.3,3.6 8.77,5.47 16.24,5.47 6.04,0 12.08,-1.3 16.25,-3.45 2.15,-1.15 2.87,-3.02 1.72,-4.17 -2.3,-2.3 -10.21,0.86 -10.21,-11.36l0 -70.2zm19.7 -10.74c0,8.2 6.04,14.81 14.81,14.81 8.91,0 14.81,-6.76 14.81,-14.81 0,-8.05 -5.9,-14.81 -14.81,-14.81 -8.92,0 -14.81,6.47 -14.81,14.81zm31.49 41.69c0,-11.21 0,-18.4 -14.38,-18.4 -5.32,0 -12.51,1.01 -22.28,3.02 -2.31,0.43 -2.88,2.87 -1.73,4.03 2.3,2.29 10.21,-0.87 10.21,11.35l0 40.26c0,12.07 6.75,17.97 20.41,17.97 6.04,0 12.08,-1.3 16.25,-3.45 2.15,-1.15 2.87,-3.02 1.72,-4.17 -2.3,-2.3 -10.2,0.86 -10.2,-11.36l0 -39.25zm51.17 0c1.3,-5.32 -0.14,-11.64 -3.3,-14.81 -2.73,-2.73 -7.19,-3.59 -12.22,-3.59 -7.62,0 -16.39,2.01 -21.14,3.02 -2.3,0.43 -2.87,2.87 -1.72,4.03 2.3,2.29 10.21,-0.87 10.21,11.35l0 39.82c0,12.23 -7.91,10.79 -10.21,13.52 -1.15,1.44 -0.58,3.74 1.72,3.74l45.15 0c2.3,0 2.87,-2.3 1.72,-3.74 -0.86,-1.01 -2.44,-1.44 -4.17,-2.3 -6.9,-3.31 -8.91,-7.33 -8.91,-16.82 0,-16.1 7.04,-37.81 13.51,-41.26 3.74,-2.02 4.17,-7.19 6.47,-7.19l0.15 0.14c-1.44,2.3 -2.3,5.18 -2.3,8.34 0,8.2 6.03,14.81 14.8,14.81 8.92,0 14.81,-6.76 14.81,-14.81 0,-8.05 -5.89,-14.81 -14.81,-14.81 -12.79,0 -24,7.62 -29.76,20.56zm95.03 43.28c-2.73,3.16 -8.05,5.46 -12.65,5.46 -6.47,0 -10.06,-4.46 -10.06,-12.53 0,-18.02 18.26,-19.46 26.16,-29.55 -1.29,11.1 -5.31,25.81 -3.45,36.62zm1.44 4.74c3.02,6.9 9.63,10.21 19.99,10.21 6.03,0 12.07,-1.3 16.24,-3.45 2.16,-1.15 2.88,-3.02 1.72,-4.17 -2.29,-2.3 -10.2,0.86 -10.2,-11.38l0 -23.34c0,-26.81 -9.49,-36.73 -35.08,-36.73 -21.42,0 -36.95,6.9 -36.95,16.55 0,6.21 5.61,11.1 12.22,11.1 3.6,0 6.33,-1.44 8.2,-4.03 4.6,-6.49 7.33,-19.31 15.52,-19.31 5.75,0 10.35,5.46 10.35,12.39 0.15,21.04 -52.47,15.4 -52.47,42.93 0,11.82 9.63,19.44 24.3,19.44 10.49,0 20.41,-3.89 26.16,-10.21zm50.75 -8.2c0,12.23 -7.91,10.79 -10.21,13.52 -1.15,1.44 -0.57,3.74 1.73,3.74l45.14 0c2.3,0 2.88,-2.3 1.72,-3.74 -2.29,-2.73 -10.2,-1.29 -10.2,-13.52l0 -16.96c0,-17.39 8.19,-32.92 17.82,-32.92 5.75,0 9.35,5.32 9.35,14.09 0,9.49 -4.31,24.29 -4.31,34.36 0,13.22 7.33,19.84 21.85,19.84 6.04,0 12.08,-1.3 16.24,-3.45 2.16,-1.15 2.88,-3.02 1.73,-4.17 -2.3,-2.3 -10.21,0.86 -10.21,-11.36l0 -23.15c0,-16.82 -2.15,-36.66 -25.59,-36.66 -12.65,0 -20.99,7.05 -27.74,23.29 0,-5.46 1.72,-14.66 -2.88,-18.54 -2.01,-1.73 -5.32,-2.73 -10.35,-2.73 -5.32,0 -12.65,1 -22.57,3.16 -2.3,0.43 -2.88,2.87 -1.73,4.03 2.3,2.29 10.21,-0.87 10.21,11.35l0 39.82zm172.66 -30.76l-17.25 0 7.47 -20.7 9.78 20.7zm3.16 -56.93c-0.43,-1.01 -1.43,-1.58 -2.44,-1.58 -1.01,0 -2.01,0.57 -2.44,1.58l-31.78 88.41c-4.02,11.36 -10.06,9.78 -13.08,12.51 -1.58,1.44 -0.86,4.03 1.44,4.03l21.99 0c2.45,0 2.3,-2.74 0.58,-3.74 -2.88,-1.87 -9.63,-2.3 -5.89,-12.8l9.77 -27.17 20.7 0c5.32,11.65 10.5,23.72 12.94,30.34 1.3,3.45 0.58,6.18 -1.87,7.18 -3.59,1.59 -5.03,2.74 -5.03,4.03 0,1.29 1.01,2.16 2.3,2.16l44.42 0c1.3,0 2.31,-0.87 2.31,-2.16 0,-2.16 -3.02,-2.73 -6.04,-4.74 -1.87,-1.3 -4.32,-4.46 -5.32,-6.62l-42.56 -91.43zm65.42 87.69c0,12.23 -7.91,10.79 -10.21,13.52 -1.15,1.44 -0.58,3.74 1.72,3.74l45.15 0c2.3,0 2.87,-2.3 1.72,-3.74 -2.3,-2.73 -10.21,-1.29 -10.21,-13.52l0 -16.96c0,-17.39 8.2,-32.92 17.83,-32.92 5.75,0 9.35,5.32 9.35,14.09 0,9.49 -4.32,24.29 -4.32,34.36 0,13.22 7.33,19.84 21.86,19.84 6.03,0 12.07,-1.3 16.24,-3.45 2.16,-1.15 2.88,-3.02 1.73,-4.17 -2.31,-2.3 -10.21,0.86 -10.21,-11.36l0 -23.15c0,-16.82 -2.16,-36.66 -25.59,-36.66 -12.65,0 -20.99,7.05 -27.75,23.29 0,-5.46 1.73,-14.66 -2.87,-18.54 -2.02,-1.73 -5.32,-2.73 -10.35,-2.73 -5.32,0 -12.66,1 -22.58,3.16 -2.3,0.43 -2.87,2.87 -1.72,4.03 2.3,2.29 10.21,-0.87 10.21,11.35l0 39.82zm148.65 8.92c-34.94,0 -35.94,-64.84 -9.92,-64.84 8.05,0 13.22,6.33 13.22,17.4l0 38.96c0,3.02 0.44,5.46 1.3,7.76 -1.44,0.43 -3.16,0.72 -4.6,0.72zm31.48 -79.69c0,-11.27 0,-18.5 -14.37,-18.5 -5.32,0 -12.51,1.03 -22.29,3.04 -2.3,0.43 -2.87,2.9 -1.72,4.05 2.3,2.3 9.49,-0.86 10.2,11.41l0.87 13.41c-4.89,-2.01 -10.64,-3.02 -17.11,-3.02 -55.35,0 -54.92,78.79 0,78.79 7.62,0 14.81,-2.02 20.41,-5.47 3.31,3.6 8.78,5.47 16.25,5.47 6.04,0 12.08,-1.3 16.25,-3.45 2.15,-1.15 2.87,-3.02 1.72,-4.17 -2.3,-2.3 -10.21,0.86 -10.21,-11.36l0 -70.2zm62.68 74.23c-2.73,3.16 -8.05,5.46 -12.65,5.46 -6.46,0 -10.06,-4.46 -10.06,-12.53 0,-18.02 18.26,-19.46 26.16,-29.55 -1.29,11.1 -5.31,25.81 -3.45,36.62zm1.44 4.74c3.02,6.9 9.64,10.21 19.99,10.21 6.03,0 12.07,-1.3 16.24,-3.45 2.16,-1.15 2.88,-3.02 1.73,-4.17 -2.3,-2.3 -10.21,0.86 -10.21,-11.38l0 -23.34c0,-26.81 -9.49,-36.73 -35.08,-36.73 -21.42,0 -36.95,6.9 -36.95,16.55 0,6.21 5.61,11.1 12.22,11.1 3.6,0 6.33,-1.44 8.2,-4.03 4.6,-6.49 7.33,-19.31 15.52,-19.31 5.76,0 10.35,5.46 10.35,12.39 0.15,21.04 -52.47,15.4 -52.47,42.93 0,11.82 9.63,19.44 24.3,19.44 10.49,0 20.41,-3.89 26.16,-10.21zm123.49 -4.74c-2.73,3.16 -8.05,5.46 -12.65,5.46 -6.46,0 -10.06,-4.46 -10.06,-12.53 0,-18.02 18.26,-19.46 26.17,-29.55 -1.3,11.1 -5.32,25.81 -3.46,36.62zm1.44 4.74c3.02,6.9 9.64,10.21 19.99,10.21 6.03,0 12.07,-1.3 16.24,-3.45 2.16,-1.15 2.88,-3.02 1.73,-4.17 -2.3,-2.3 -10.21,0.86 -10.21,-11.38l0 -23.34c0,-26.81 -9.49,-36.73 -35.08,-36.73 -21.42,0 -36.95,6.9 -36.95,16.55 0,6.21 5.61,11.1 12.22,11.1 3.6,0 6.33,-1.44 8.2,-4.03 4.6,-6.49 7.33,-19.31 15.52,-19.31 5.76,0 10.36,5.46 10.36,12.39 0.14,21.04 -52.48,15.4 -52.48,42.93 0,11.82 9.63,19.44 24.3,19.44 10.49,0 20.41,-3.89 26.16,-10.21zm78.93 -41.64c0.86,-7.29 8.05,-15.29 15.53,-15.29 13.08,0 14.66,23.29 -1.87,23.29 -5.47,0 -10.79,-3.43 -13.66,-8zm40.83 51.85c6.18,0 11.5,-1.3 15.24,-3.31 2.15,-1.15 2.87,-2.87 1.72,-4.03 -1.72,-1.58 -5.17,-0.71 -8.91,-5.89 -3.88,-5.32 -9.78,-19.55 -24.58,-25.3 29.61,-3.02 27.6,-40.54 2.87,-40.54 -11.5,0 -22.43,8.05 -27.89,18.35l0.72 -28.37c0.29,-11.33 0.14,-18.59 -14.23,-18.59 -5.32,0 -12.66,1.03 -22.43,3.06 -2.3,0.44 -2.88,2.9 -1.73,4.05 2.31,2.33 10.21,-0.86 10.21,11.48l0 70.68c0,12.23 -7.9,10.79 -10.21,13.52 -1.15,1.44 -0.57,3.74 1.73,3.74l45.14 0c2.3,0 2.88,-2.3 1.73,-3.74 -2.3,-2.73 -10.21,-1.29 -10.21,-13.52l0 -27.72c6.18,6.74 11.79,5.44 13.95,17.09 2.29,12.22 4.02,29.04 26.88,29.04zm68.72 -14.95c-2.73,3.16 -8.05,5.46 -12.65,5.46 -6.47,0 -10.07,-4.46 -10.07,-12.53 0,-18.02 18.26,-19.46 26.17,-29.55 -1.3,11.1 -5.32,25.81 -3.45,36.62zm1.44 4.74c3.01,6.9 9.63,10.21 19.98,10.21 6.04,0 12.08,-1.3 16.24,-3.45 2.16,-1.15 2.88,-3.02 1.73,-4.17 -2.3,-2.3 -10.21,0.86 -10.21,-11.38l0 -23.34c0,-26.81 -9.49,-36.73 -35.08,-36.73 -21.42,0 -36.94,6.9 -36.94,16.55 0,6.21 5.6,11.1 12.22,11.1 3.59,0 6.32,-1.44 8.19,-4.03 4.6,-6.49 7.33,-19.31 15.53,-19.31 5.75,0 10.35,5.46 10.35,12.39 0.14,21.04 -52.48,15.4 -52.48,42.93 0,11.82 9.64,19.44 24.3,19.44 10.49,0 20.41,-3.89 26.17,-10.21zm50.74 -8.2c0,12.23 -7.9,10.79 -10.2,13.52 -1.15,1.44 -0.58,3.74 1.72,3.74l45.14 0c2.3,0 2.88,-2.3 1.73,-3.74 -2.3,-2.73 -10.21,-1.29 -10.21,-13.52l0 -16.96c0,-17.39 8.2,-32.92 17.83,-32.92 5.75,0 9.34,5.32 9.34,14.09 0,9.49 -4.31,24.29 -4.31,34.36 0,13.22 7.33,19.84 21.85,19.84 6.04,0 12.08,-1.3 16.25,-3.45 2.15,-1.15 2.87,-3.02 1.72,-4.17 -2.3,-2.3 -10.2,0.86 -10.2,-11.36l0 -23.15c0,-16.82 -2.16,-36.66 -25.59,-36.66 -12.66,0 -20.99,7.05 -27.75,23.29 0,-5.46 1.72,-14.66 -2.88,-18.54 -2.01,-1.73 -5.32,-2.73 -10.35,-2.73 -5.32,0 -12.65,1 -22.57,3.16 -2.3,0.43 -2.87,2.87 -1.72,4.03 2.3,2.29 10.2,-0.87 10.2,11.35l0 39.82zm203.72 -4.48c0,-26.38 -48.16,-25.95 -48.16,-42.65 0,-5.63 4.02,-9.22 10.06,-9.22 12.94,0 9.63,20.32 23,20.32 5.03,0 9.78,-3.33 9.78,-8.65 0,-10.52 -14.95,-15.98 -30.91,-15.98 -17.68,0 -36.52,7.18 -36.52,22.88 0,26.09 48.45,27.82 48.45,43.25 0,5.17 -4.17,8.48 -10.78,8.48 -18.4,0 -17.54,-12.39 -22.28,-18.86 -2.02,-2.9 -5.18,-4.19 -8.34,-4.19 -5.47,0 -10.64,4.05 -10.64,10.52 0,9.8 15.96,17.13 37.09,17.13 19.41,0 39.25,-6.9 39.25,-23.03zm53.33 7.94c-2.73,3.16 -8.05,5.46 -12.65,5.46 -6.47,0 -10.06,-4.46 -10.06,-12.53 0,-18.02 18.26,-19.46 26.16,-29.55 -1.29,11.1 -5.31,25.81 -3.45,36.62zm1.44 4.74c3.02,6.9 9.63,10.21 19.99,10.21 6.03,0 12.07,-1.3 16.24,-3.45 2.16,-1.15 2.88,-3.02 1.73,-4.17 -2.3,-2.3 -10.21,0.86 -10.21,-11.38l0 -23.34c0,-26.81 -9.49,-36.73 -35.08,-36.73 -21.42,0 -36.95,6.9 -36.95,16.55 0,6.21 5.61,11.1 12.22,11.1 3.6,0 6.33,-1.44 8.2,-4.03 4.6,-6.49 7.33,-19.31 15.52,-19.31 5.75,0 10.35,5.46 10.35,12.39 0.15,21.04 -52.47,15.4 -52.47,42.93 0,11.82 9.63,19.44 24.3,19.44 10.49,0 20.41,-3.89 26.16,-10.21zm50.75 -8.2c0,12.23 -7.91,10.79 -10.21,13.52 -1.15,1.44 -0.57,3.74 1.73,3.74l45.14 0c2.3,0 2.88,-2.3 1.72,-3.74 -2.29,-2.73 -10.2,-1.29 -10.2,-13.52l0 -16.96c0,-17.39 8.19,-32.92 17.83,-32.92 5.74,0 9.34,5.32 9.34,14.09 0,9.49 -4.31,24.29 -4.31,34.36 0,13.22 7.33,19.84 21.85,19.84 6.04,0 12.08,-1.3 16.24,-3.45 2.16,-1.15 2.88,-3.02 1.73,-4.17 -2.3,-2.3 -10.21,0.86 -10.21,-11.36l0 -23.15c0,-16.82 -2.15,-36.66 -25.59,-36.66 -12.65,0 -20.99,7.05 -27.74,23.29 0,-5.46 1.72,-14.66 -2.88,-18.54 -2.01,-1.73 -5.32,-2.73 -10.35,-2.73 -5.32,0 -12.65,1 -22.57,3.16 -2.3,0.43 -2.88,2.87 -1.73,4.03 2.3,2.29 10.21,-0.87 10.21,11.35l0 39.82zm139.16 -56.06c18.41,0 18.41,57.93 0,57.93 -18.25,0 -18.25,-57.93 0,-57.93zm24.73 84.53c0,11.21 -11.36,16.53 -22.86,16.53 -10.2,0 -23.72,-4.02 -23.72,-16.53 0,-19.84 28.61,-21.13 43.56,-27.6 26.6,-11.65 26.31,-47.3 -2.73,-58.08 6.33,0.86 11.07,1.43 14.67,1.43 8.62,0 13.8,-4.02 13.8,-10.49 0,-5.75 -4.03,-9.78 -9.78,-9.78 -2.87,0 -5.32,1.01 -7.76,3.45 -2.59,2.59 -6.18,7.62 -10.78,10.64 -2.74,1.73 -5.47,2.16 -8.34,2.16 -3.31,0 -6.9,-0.58 -10.79,-0.58 -53.04,0 -54.91,62.54 -3.59,65.42 -28.03,5.03 -45.57,8.77 -45.57,22.28 0,15.67 23.86,22 49.16,22 30.48,0 49.89,-8.34 49.89,-21.43 0,-10.63 -13.08,-17.68 -37.95,-19.55 -0.15,0 -0.29,0 -0.29,0 -3.02,0 -3.6,3.45 -0.43,4.17 8.34,1.87 13.51,8.05 13.51,15.96zm74.9 -25.01c-2.73,3.16 -8.05,5.46 -12.65,5.46 -6.47,0 -10.06,-4.46 -10.06,-12.53 0,-18.02 18.26,-19.46 26.16,-29.55 -1.29,11.1 -5.32,25.81 -3.45,36.62zm1.44 4.74c3.02,6.9 9.63,10.21 19.98,10.21 6.04,0 12.08,-1.3 16.25,-3.45 2.16,-1.15 2.88,-3.02 1.72,-4.17 -2.29,-2.3 -10.2,0.86 -10.2,-11.38l0 -23.34c0,-26.81 -9.49,-36.73 -35.08,-36.73 -21.42,0 -36.95,6.9 -36.95,16.55 0,6.21 5.61,11.1 12.22,11.1 3.6,0 6.33,-1.44 8.2,-4.03 4.6,-6.49 7.33,-19.31 15.52,-19.31 5.75,0 10.35,5.46 10.35,12.39 0.15,21.04 -52.47,15.4 -52.47,42.93 0,11.82 9.63,19.44 24.3,19.44 10.49,0 20.41,-3.89 26.16,-10.21zm94.6 -7.05c-3.02,4.61 -7.05,7.48 -10.78,7.48 -6.9,0 -7.05,-10.06 -7.05,-16.68l0 -45.14 11.65 0c2.87,0 2.87,-5.03 0,-5.03l-13.37 0c1,-0.86 1.72,-2.01 1.72,-4.03l0 -12.65c0,-1.43 -1.15,-2.15 -2.44,-2.15 -0.87,0 -1.73,0.28 -2.3,1 -6.9,9.06 -16.11,15.96 -30.05,17.83 -2.73,0.43 -2.59,5.03 0.14,5.03l6.47 0 0 34.94c0,16.82 2.16,36.66 25.59,36.66 10.21,0 18.12,-5.04 24.01,-14.95 1.29,-2.16 0.29,-3.74 -1.29,-3.74 -0.72,0 -1.58,0.43 -2.3,1.43zm76.34 -51.61c1.15,-0.28 2.15,-0.43 3.3,-0.43 34.94,0 35.94,64.84 9.92,64.84 -8.19,0 -13.22,-6.61 -13.22,-17.4l0 -47.01zm0 -20.31c0.71,-11.27 0.43,-18.5 -14.24,-18.5 -5.32,0 -12.65,1.03 -22.42,3.04 -2.3,0.43 -2.88,2.9 -1.73,4.05 2.3,2.3 10.21,-0.86 10.21,11.41l0 68.33c0,8.48 -0.72,15.1 -1.73,16.96 -1.43,2.59 0.87,3.89 3.02,3.89 3.6,0 5.03,-4.03 13.09,-4.03 8.05,0 14.23,4.03 30.04,4.03 55.35,0 54.92,-78.79 0,-78.79 -6.18,0 -12.07,1.44 -17.11,3.74l0.87 -14.13zm89.85 39.72c0.72,-13.22 6.76,-24.87 17.11,-24.87 9.34,0 13.94,9.35 12.22,22.72 -0.15,1.14 -0.72,2.15 -2.3,2.15l-27.03 0zm14.95 49.46c15.81,0 27.75,-5.32 35.37,-15.67 1.15,-1.59 -0.58,-3.17 -2.02,-3.17 -0.57,0 -1,0.15 -1.43,0.58 -4.75,5.17 -10.64,7.47 -18.98,7.47 -18.4,0 -27.46,-17.68 -28.03,-34.36l35.07 0c9.78,0 13.95,-3.01 13.95,-10.06 0,-13.37 -14.67,-23.58 -33.93,-23.58 -55.35,0 -54.92,78.79 0,78.79zm76.91 -58.23c1.3,-5.32 -0.14,-11.64 -3.3,-14.81 -2.73,-2.73 -7.19,-3.59 -12.22,-3.59 -7.62,0 -16.39,2.01 -21.13,3.02 -2.31,0.43 -2.88,2.87 -1.73,4.03 2.3,2.29 10.21,-0.87 10.21,11.35l0 39.82c0,12.23 -7.91,10.79 -10.21,13.52 -1.15,1.44 -0.58,3.74 1.73,3.74l45.14 0c2.3,0 2.87,-2.3 1.72,-3.74 -0.86,-1.01 -2.44,-1.44 -4.17,-2.3 -6.9,-3.31 -8.91,-7.33 -8.91,-16.82 0,-16.1 7.04,-37.81 13.51,-41.26 3.74,-2.02 4.17,-7.19 6.47,-7.19l0.15 0.14c-1.44,2.3 -2.3,5.18 -2.3,8.34 0,8.2 6.03,14.81 14.8,14.81 8.92,0 14.81,-6.76 14.81,-14.81 0,-8.05 -5.89,-14.81 -14.81,-14.81 -12.79,0 -24,7.62 -29.76,20.56zm95.03 43.28c-2.73,3.16 -8.05,5.46 -12.65,5.46 -6.47,0 -10.06,-4.46 -10.06,-12.53 0,-18.02 18.26,-19.46 26.16,-29.55 -1.29,11.1 -5.31,25.81 -3.45,36.62zm1.44 4.74c3.02,6.9 9.63,10.21 19.99,10.21 6.03,0 12.07,-1.3 16.24,-3.45 2.16,-1.15 2.88,-3.02 1.73,-4.17 -2.3,-2.3 -10.21,0.86 -10.21,-11.38l0 -23.34c0,-26.81 -9.49,-36.73 -35.08,-36.73 -21.42,0 -36.95,6.9 -36.95,16.55 0,6.21 5.61,11.1 12.22,11.1 3.6,0 6.33,-1.44 8.2,-4.03 4.6,-6.49 7.33,-19.31 15.52,-19.31 5.75,0 10.35,5.46 10.35,12.39 0.15,21.04 -52.47,15.4 -52.47,42.93 0,11.82 9.63,19.44 24.3,19.44 10.49,0 20.41,-3.89 26.16,-10.21zm78.93 -48.02c1.29,-5.32 -0.15,-11.64 -3.31,-14.81 -2.73,-2.73 -7.19,-3.59 -12.22,-3.59 -7.62,0 -16.39,2.01 -21.13,3.02 -2.3,0.43 -2.88,2.87 -1.73,4.03 2.3,2.29 10.21,-0.87 10.21,11.35l0 39.82c0,12.23 -7.91,10.79 -10.21,13.52 -1.15,1.44 -0.57,3.74 1.73,3.74l45.14 0c2.3,0 2.88,-2.3 1.72,-3.74 -0.86,-1.01 -2.44,-1.44 -4.16,-2.3 -6.9,-3.31 -8.92,-7.33 -8.92,-16.82 0,-16.1 7.05,-37.81 13.52,-41.26 3.73,-2.02 4.17,-7.19 6.47,-7.19l0.14 0.14c-1.44,2.3 -2.3,5.18 -2.3,8.34 0,8.2 6.04,14.81 14.81,14.81 8.91,0 14.81,-6.76 14.81,-14.81 0,-8.05 -5.9,-14.81 -14.81,-14.81 -12.8,0 -24.01,7.62 -29.76,20.56zm100.63 40.97c-3.02,4.61 -7.04,7.48 -10.78,7.48 -6.9,0 -7.04,-10.06 -7.04,-16.68l0 -45.14 11.64 0c2.88,0 2.88,-5.03 0,-5.03l-13.37 0c1.01,-0.86 1.73,-2.01 1.73,-4.03l0 -12.65c0,-1.43 -1.15,-2.15 -2.45,-2.15 -0.86,0 -1.72,0.28 -2.3,1 -6.9,9.06 -16.1,15.96 -30.04,17.83 -2.74,0.43 -2.59,5.03 0.14,5.03l6.47 0 0 34.94c0,16.82 2.15,36.66 25.59,36.66 10.2,0 18.11,-5.04 24.01,-14.95 1.29,-2.16 0.28,-3.74 -1.3,-3.74 -0.72,0 -1.58,0.43 -2.3,1.43zm12.51 -82.66c0,8.2 6.04,14.81 14.81,14.81 8.91,0 14.81,-6.76 14.81,-14.81 0,-8.05 -5.9,-14.81 -14.81,-14.81 -8.92,0 -14.81,6.47 -14.81,14.81zm31.48 41.69c0,-11.21 0,-18.4 -14.37,-18.4 -5.32,0 -12.51,1.01 -22.28,3.02 -2.31,0.43 -2.88,2.87 -1.73,4.03 2.3,2.29 10.21,-0.87 10.21,11.35l0 40.26c0,12.07 6.75,17.97 20.41,17.97 6.04,0 12.08,-1.3 16.25,-3.45 2.15,-1.15 2.87,-3.02 1.72,-4.17 -2.3,-2.3 -10.21,0.86 -10.21,-11.36l0 -39.25zm83.53 -10.64c1.15,-0.28 2.16,-0.43 3.31,-0.43 34.93,0 35.94,64.84 9.92,64.84 -8.2,0 -13.23,-6.61 -13.23,-17.4l0 -47.01zm0 -20.31c0.72,-11.27 0.43,-18.5 -14.23,-18.5 -5.32,0 -12.65,1.03 -22.43,3.04 -2.3,0.43 -2.88,2.9 -1.72,4.05 2.3,2.3 10.2,-0.86 10.2,11.41l0 68.33c0,8.48 -0.72,15.1 -1.72,16.96 -1.44,2.59 0.86,3.89 3.02,3.89 3.59,0 5.03,-4.03 13.08,-4.03 8.05,0 14.23,4.03 30.05,4.03 55.35,0 54.91,-78.79 0,-78.79 -6.19,0 -12.08,1.44 -17.11,3.74l0.86 -14.13z"/>
     <path class="fil0" d="M11677 14408.98c-2.73,3.16 -8.05,5.46 -12.65,5.46 -6.47,0 -10.06,-4.46 -10.06,-12.53 0,-18.02 18.26,-19.46 26.16,-29.55 -1.29,11.1 -5.31,25.81 -3.45,36.62zm1.44 4.74c3.02,6.9 9.63,10.21 19.99,10.21 6.03,0 12.07,-1.3 16.24,-3.45 2.16,-1.15 2.88,-3.02 1.73,-4.17 -2.3,-2.3 -10.21,0.86 -10.21,-11.38l0 -23.34c0,-26.81 -9.49,-36.73 -35.08,-36.73 -21.42,0 -36.95,6.9 -36.95,16.55 0,6.21 5.61,11.1 12.22,11.1 3.6,0 6.33,-1.44 8.2,-4.03 4.6,-6.49 7.33,-19.31 15.52,-19.31 5.75,0 10.35,5.46 10.35,12.39 0.15,21.04 -52.47,15.4 -52.47,42.93 0,11.82 9.63,19.44 24.3,19.44 10.49,0 20.41,-3.89 26.16,-10.21zm86.26 -64.26c18.4,0 18.4,57.93 0,57.93 -18.26,0 -18.26,-57.93 0,-57.93zm24.73 84.53c0,11.21 -11.36,16.53 -22.86,16.53 -10.21,0 -23.72,-4.02 -23.72,-16.53 0,-19.84 28.61,-21.13 43.56,-27.6 26.6,-11.65 26.31,-47.3 -2.73,-58.08 6.32,0.86 11.07,1.43 14.66,1.43 8.63,0 13.8,-4.02 13.8,-10.49 0,-5.75 -4.02,-9.78 -9.77,-9.78 -2.88,0 -5.32,1.01 -7.77,3.45 -2.58,2.59 -6.18,7.62 -10.78,10.64 -2.73,1.73 -5.46,2.16 -8.34,2.16 -3.3,0 -6.9,-0.58 -10.78,-0.58 -53.05,0 -54.92,62.54 -3.59,65.42 -28.04,5.03 -45.58,8.77 -45.58,22.28 0,15.67 23.87,22 49.17,22 30.48,0 49.89,-8.34 49.89,-21.43 0,-10.63 -13.09,-17.68 -37.96,-19.55 -0.14,0 -0.28,0 -0.28,0 -3.02,0 -3.6,3.45 -0.44,4.17 8.34,1.87 13.52,8.05 13.52,15.96zm31.91 -109.98c0,8.2 6.04,14.81 14.81,14.81 8.92,0 14.81,-6.76 14.81,-14.81 0,-8.05 -5.89,-14.81 -14.81,-14.81 -8.91,0 -14.81,6.47 -14.81,14.81zm31.49 41.69c0,-11.21 0,-18.4 -14.38,-18.4 -5.32,0 -12.51,1.01 -22.28,3.02 -2.3,0.43 -2.88,2.87 -1.73,4.03 2.3,2.29 10.21,-0.87 10.21,11.35l0 40.26c0,12.07 6.76,17.97 20.42,17.97 6.03,0 12.07,-1.3 16.24,-3.45 2.16,-1.15 2.88,-3.02 1.72,-4.17 -2.29,-2.3 -10.2,0.86 -10.2,-11.36l0 -39.25zm84.24 6.38c0.87,-7.29 8.05,-15.29 15.53,-15.29 13.08,0 14.66,23.29 -1.87,23.29 -5.46,0 -10.78,-3.43 -13.66,-8zm40.83 51.85c6.18,0 11.5,-1.3 15.24,-3.31 2.16,-1.15 2.88,-2.87 1.73,-4.03 -1.73,-1.58 -5.18,-0.71 -8.92,-5.89 -3.88,-5.32 -9.77,-19.55 -24.58,-25.3 29.61,-3.02 27.6,-40.54 2.87,-40.54 -11.5,0 -22.42,8.05 -27.89,18.35l0.72 -28.37c0.29,-11.33 0.15,-18.59 -14.23,-18.59 -5.32,0 -12.65,1.03 -22.43,3.06 -2.3,0.44 -2.87,2.9 -1.72,4.05 2.3,2.33 10.2,-0.86 10.2,11.48l0 70.68c0,12.23 -7.9,10.79 -10.2,13.52 -1.15,1.44 -0.58,3.74 1.72,3.74l45.14 0c2.31,0 2.88,-2.3 1.73,-3.74 -2.3,-2.73 -10.21,-1.29 -10.21,-13.52l0 -27.72c6.19,6.74 11.79,5.44 13.95,17.09 2.3,12.22 4.02,29.04 26.88,29.04zm68.72 -14.95c-2.73,3.16 -8.05,5.46 -12.65,5.46 -6.47,0 -10.06,-4.46 -10.06,-12.53 0,-18.02 18.26,-19.46 26.16,-29.55 -1.29,11.1 -5.32,25.81 -3.45,36.62zm1.44 4.74c3.02,6.9 9.63,10.21 19.98,10.21 6.04,0 12.08,-1.3 16.25,-3.45 2.15,-1.15 2.87,-3.02 1.72,-4.17 -2.3,-2.3 -10.2,0.86 -10.2,-11.38l0 -23.34c0,-26.81 -9.49,-36.73 -35.08,-36.73 -21.42,0 -36.95,6.9 -36.95,16.55 0,6.21 5.61,11.1 12.22,11.1 3.59,0 6.33,-1.44 8.19,-4.03 4.61,-6.49 7.34,-19.31 15.53,-19.31 5.75,0 10.35,5.46 10.35,12.39 0.15,21.04 -52.47,15.4 -52.47,42.93 0,11.82 9.63,19.44 24.29,19.44 10.5,0 20.42,-3.89 26.17,-10.21zm101.78 -8.2c0,12.23 -7.47,10.79 -9.77,13.52 -1.15,1.44 -0.58,3.74 1.72,3.74l44.71 0c2.3,0 2.88,-2.3 1.73,-3.74 -2.3,-2.73 -10.21,-1.29 -10.21,-13.52l0 -28.89c2.59,-11.93 8.91,-20.99 16.39,-20.99 5.75,0 9.49,5.32 9.49,14.09 0,9.49 -4.31,24.29 -4.31,34.36 0,13.22 7.33,19.84 21.85,19.84 6.04,0 12.07,-1.3 16.24,-3.45 2.16,-1.15 2.88,-3.02 1.73,-4.17 -2.3,-2.3 -10.21,0.86 -10.21,-11.36l0 -23.15c0,-16.82 -2.15,-36.66 -25.59,-36.66 -12.36,0 -20.56,6.62 -27.17,22 -0.57,-14.52 -8.05,-22 -22.43,-22 -13.08,0 -21.85,6.04 -27.74,19.41 0.43,-8.34 -0.29,-12.51 -3.02,-14.66 -2.3,-1.87 -6.18,-2.59 -10.78,-2.59 -8.06,0 -17.69,2.16 -22.14,3.02 -2.31,0.43 -2.88,2.87 -1.73,4.03 2.3,2.29 10.21,-0.87 10.21,11.35l0 39.82c0,12.23 -7.91,10.79 -10.21,13.52 -1.15,1.44 -0.58,3.74 1.73,3.74l45.14 0c2.3,0 2.87,-2.3 1.72,-3.74 -2.3,-2.73 -10.2,-1.29 -10.2,-13.52l0 -29.61c2.73,-11.64 8.91,-20.27 15.67,-20.27 7.04,0 7.18,9.34 7.18,15.96l0 33.92zm99.06 -81.51c0,8.2 6.04,14.81 14.81,14.81 8.91,0 14.8,-6.76 14.8,-14.81 0,-8.05 -5.89,-14.81 -14.8,-14.81 -8.92,0 -14.81,6.47 -14.81,14.81zm31.48 41.69c0,-11.21 0,-18.4 -14.37,-18.4 -5.32,0 -12.51,1.01 -22.29,3.02 -2.3,0.43 -2.87,2.87 -1.72,4.03 2.3,2.29 10.2,-0.87 10.2,11.35l0 40.26c0,12.07 6.76,17.97 20.42,17.97 6.04,0 12.08,-1.3 16.24,-3.45 2.16,-1.15 2.88,-3.02 1.73,-4.17 -2.3,-2.3 -10.21,0.86 -10.21,-11.36l0 -39.25zm-3315.7 229.43c0,-26.38 -48.16,-25.95 -48.16,-42.65 0,-5.63 4.02,-9.23 10.06,-9.23 12.94,0 9.63,20.32 23,20.32 5.03,0 9.78,-3.33 9.78,-8.65 0,-10.52 -14.95,-15.98 -30.91,-15.98 -17.68,0 -36.52,7.19 -36.52,22.88 0,26.1 48.45,27.82 48.45,43.25 0,5.18 -4.17,8.48 -10.78,8.48 -18.4,0 -17.54,-12.39 -22.28,-18.85 -2.02,-2.9 -5.18,-4.2 -8.34,-4.2 -5.47,0 -10.64,4.05 -10.64,10.52 0,9.8 15.96,17.13 37.09,17.13 19.41,0 39.25,-6.9 39.25,-23.02zm53.33 7.93c-2.73,3.16 -8.05,5.46 -12.65,5.46 -6.47,0 -10.06,-4.46 -10.06,-12.53 0,-18.02 18.26,-19.46 26.16,-29.54 -1.29,11.09 -5.31,25.8 -3.45,36.61zm1.44 4.74c3.02,6.9 9.63,10.21 19.99,10.21 6.03,0 12.07,-1.29 16.24,-3.45 2.16,-1.15 2.88,-3.02 1.72,-4.17 -2.29,-2.3 -10.2,0.86 -10.2,-11.38l0 -23.34c0,-26.81 -9.49,-36.73 -35.08,-36.73 -21.42,0 -36.95,6.9 -36.95,16.56 0,6.2 5.61,11.09 12.22,11.09 3.6,0 6.33,-1.44 8.2,-4.03 4.6,-6.49 7.33,-19.31 15.52,-19.31 5.75,0 10.35,5.47 10.35,12.39 0.15,21.04 -52.47,15.41 -52.47,42.94 0,11.81 9.63,19.43 24.3,19.43 10.49,0 20.41,-3.88 26.16,-10.21zm90.43 -4.74c-2.73,3.16 -8.05,5.46 -12.65,5.46 -6.47,0 -10.07,-4.46 -10.07,-12.53 0,-18.02 18.26,-19.46 26.17,-29.54 -1.3,11.09 -5.32,25.8 -3.45,36.61zm1.44 4.74c3.02,6.9 9.63,10.21 19.98,10.21 6.04,0 12.08,-1.29 16.24,-3.45 2.16,-1.15 2.88,-3.02 1.73,-4.17 -2.3,-2.3 -10.21,0.86 -10.21,-11.38l0 -23.34c0,-26.81 -9.49,-36.73 -35.08,-36.73 -21.42,0 -36.94,6.9 -36.94,16.56 0,6.2 5.6,11.09 12.22,11.09 3.59,0 6.32,-1.44 8.19,-4.03 4.6,-6.49 7.33,-19.31 15.53,-19.31 5.75,0 10.35,5.47 10.35,12.39 0.14,21.04 -52.47,15.41 -52.47,42.94 0,11.81 9.63,19.43 24.29,19.43 10.5,0 20.42,-3.88 26.17,-10.21zm94.59 -7.04c-3.02,4.6 -7.04,7.47 -10.78,7.47 -6.9,0 -7.04,-10.06 -7.04,-16.67l0 -45.15 11.64 0c2.88,0 2.88,-5.03 0,-5.03l-13.37 0c1.01,-0.86 1.73,-2.01 1.73,-4.02l0 -12.65c0,-1.44 -1.15,-2.16 -2.45,-2.16 -0.86,0 -1.72,0.29 -2.3,1.01 -6.9,9.05 -16.1,15.95 -30.04,17.82 -2.74,0.43 -2.59,5.03 0.14,5.03l6.47 0 0 34.94c0,16.82 2.15,36.66 25.59,36.66 10.21,0 18.11,-5.03 24.01,-14.95 1.29,-2.16 0.29,-3.74 -1.3,-3.74 -0.72,0 -1.58,0.43 -2.3,1.44zm77.06 -34.6c0.86,-7.29 8.05,-15.29 15.53,-15.29 13.08,0 14.66,23.29 -1.87,23.29 -5.47,0 -10.78,-3.43 -13.66,-8zm40.83 51.85c6.18,0 11.5,-1.29 15.24,-3.31 2.15,-1.15 2.87,-2.87 1.72,-4.02 -1.72,-1.58 -5.17,-0.72 -8.91,-5.9 -3.88,-5.32 -9.77,-19.55 -24.58,-25.3 29.61,-3.02 27.6,-40.54 2.87,-40.54 -11.5,0 -22.43,8.05 -27.89,18.35l0.72 -28.37c0.29,-11.33 0.14,-18.59 -14.23,-18.59 -5.32,0 -12.65,1.03 -22.43,3.07 -2.3,0.43 -2.87,2.9 -1.72,4.05 2.3,2.32 10.2,-0.87 10.2,11.47l0 70.69c0,12.22 -7.9,10.78 -10.2,13.51 -1.15,1.44 -0.58,3.74 1.72,3.74l45.14 0c2.3,0 2.88,-2.3 1.73,-3.74 -2.3,-2.73 -10.21,-1.29 -10.21,-13.51l0 -27.73c6.18,6.74 11.79,5.44 13.95,17.09 2.3,12.22 4.02,29.04 26.88,29.04zm68.72 -14.95c-2.73,3.16 -8.05,5.46 -12.65,5.46 -6.47,0 -10.07,-4.46 -10.07,-12.53 0,-18.02 18.26,-19.46 26.17,-29.54 -1.3,11.09 -5.32,25.8 -3.45,36.61zm1.44 4.74c3.02,6.9 9.63,10.21 19.98,10.21 6.04,0 12.08,-1.29 16.25,-3.45 2.15,-1.15 2.87,-3.02 1.72,-4.17 -2.3,-2.3 -10.21,0.86 -10.21,-11.38l0 -23.34c0,-26.81 -9.48,-36.73 -35.08,-36.73 -21.42,0 -36.94,6.9 -36.94,16.56 0,6.2 5.6,11.09 12.22,11.09 3.59,0 6.32,-1.44 8.19,-4.03 4.6,-6.49 7.33,-19.31 15.53,-19.31 5.75,0 10.35,5.47 10.35,12.39 0.14,21.04 -52.47,15.41 -52.47,42.94 0,11.81 9.63,19.43 24.29,19.43 10.5,0 20.42,-3.88 26.17,-10.21zm101.78 -8.19c0,12.22 -7.47,10.78 -9.77,13.51 -1.16,1.44 -0.58,3.74 1.72,3.74l44.71 0c2.3,0 2.88,-2.3 1.73,-3.74 -2.3,-2.73 -10.21,-1.29 -10.21,-13.51l0 -28.9c2.59,-11.93 8.91,-20.99 16.39,-20.99 5.75,0 9.49,5.32 9.49,14.09 0,9.49 -4.32,24.3 -4.32,34.36 0,13.23 7.34,19.84 21.86,19.84 6.03,0 12.07,-1.29 16.24,-3.45 2.16,-1.15 2.88,-3.02 1.73,-4.17 -2.3,-2.3 -10.21,0.86 -10.21,-11.36l0 -23.14c0,-16.82 -2.16,-36.66 -25.59,-36.66 -12.36,0 -20.56,6.61 -27.17,21.99 -0.58,-14.52 -8.05,-21.99 -22.43,-21.99 -13.08,0 -21.85,6.03 -27.75,19.41 0.44,-8.34 -0.28,-12.51 -3.01,-14.67 -2.3,-1.87 -6.19,-2.59 -10.79,-2.59 -8.05,0 -17.68,2.16 -22.14,3.02 -2.3,0.43 -2.87,2.88 -1.72,4.03 2.3,2.3 10.2,-0.86 10.2,11.35l0 39.83c0,12.22 -7.9,10.78 -10.2,13.51 -1.15,1.44 -0.58,3.74 1.72,3.74l45.14 0c2.31,0 2.88,-2.3 1.73,-3.74 -2.3,-2.73 -10.21,-1.29 -10.21,-13.51l0 -29.62c2.74,-11.64 8.92,-20.27 15.67,-20.27 7.05,0 7.19,9.35 7.19,15.96l0 33.93zm99.06 -81.52c0,8.2 6.03,14.81 14.8,14.81 8.92,0 14.81,-6.76 14.81,-14.81 0,-8.05 -5.89,-14.8 -14.81,-14.8 -8.91,0 -14.8,6.46 -14.8,14.8zm31.48 41.69c0,-11.21 0,-18.4 -14.38,-18.4 -5.31,0 -12.5,1.01 -22.28,3.02 -2.3,0.43 -2.87,2.88 -1.72,4.03 2.3,2.3 10.2,-0.86 10.2,11.35l0 40.26c0,12.08 6.76,17.97 20.42,17.97 6.04,0 12.07,-1.29 16.24,-3.45 2.16,-1.15 2.88,-3.02 1.73,-4.17 -2.3,-2.3 -10.21,0.86 -10.21,-11.36l0 -39.25zm107.1 39.83c0,12.22 -7.47,10.78 -9.77,13.51 -1.15,1.44 -0.58,3.74 1.72,3.74l44.71 0c2.3,0 2.88,-2.3 1.73,-3.74 -2.3,-2.73 -10.21,-1.29 -10.21,-13.51l0 -28.9c2.59,-11.93 8.91,-20.99 16.39,-20.99 5.75,0 9.49,5.32 9.49,14.09 0,9.49 -4.31,24.3 -4.31,34.36 0,13.23 7.33,19.84 21.85,19.84 6.04,0 12.07,-1.29 16.24,-3.45 2.16,-1.15 2.88,-3.02 1.73,-4.17 -2.3,-2.3 -10.21,0.86 -10.21,-11.36l0 -23.14c0,-16.82 -2.16,-36.66 -25.59,-36.66 -12.36,0 -20.56,6.61 -27.17,21.99 -0.57,-14.52 -8.05,-21.99 -22.43,-21.99 -13.08,0 -21.85,6.03 -27.74,19.41 0.43,-8.34 -0.29,-12.51 -3.02,-14.67 -2.3,-1.87 -6.18,-2.59 -10.78,-2.59 -8.06,0 -17.69,2.16 -22.15,3.02 -2.3,0.43 -2.87,2.88 -1.72,4.03 2.3,2.3 10.21,-0.86 10.21,11.35l0 39.83c0,12.22 -7.91,10.78 -10.21,13.51 -1.15,1.44 -0.58,3.74 1.72,3.74l45.15 0c2.3,0 2.87,-2.3 1.72,-3.74 -2.3,-2.73 -10.21,-1.29 -10.21,-13.51l0 -29.62c2.74,-11.64 8.92,-20.27 15.68,-20.27 7.04,0 7.18,9.35 7.18,15.96l0 33.93zm119.47 -31.06c0.72,-13.22 6.76,-24.87 17.11,-24.87 9.34,0 13.95,9.35 12.22,22.72 -0.14,1.15 -0.72,2.15 -2.3,2.15l-27.03 0zm14.95 49.46c15.82,0 27.75,-5.32 35.37,-15.67 1.15,-1.58 -0.57,-3.16 -2.01,-3.16 -0.58,0 -1.01,0.14 -1.44,0.57 -4.75,5.18 -10.64,7.48 -18.98,7.48 -18.4,0 -27.46,-17.69 -28.03,-34.36l35.08 0c9.77,0 13.94,-3.02 13.94,-10.07 0,-13.37 -14.66,-23.57 -33.93,-23.57 -55.35,0 -54.91,78.78 0,78.78zm99.78 -18.4c0,12.22 -7.48,10.78 -9.78,13.51 -1.15,1.44 -0.57,3.74 1.73,3.74l44.71 0c2.3,0 2.87,-2.3 1.72,-3.74 -2.3,-2.73 -10.21,-1.29 -10.21,-13.51l0 -28.9c2.59,-11.93 8.92,-20.99 16.39,-20.99 5.75,0 9.49,5.32 9.49,14.09 0,9.49 -4.31,24.3 -4.31,34.36 0,13.23 7.33,19.84 21.85,19.84 6.04,0 12.08,-1.29 16.25,-3.45 2.15,-1.15 2.87,-3.02 1.72,-4.17 -2.3,-2.3 -10.21,0.86 -10.21,-11.36l0 -23.14c0,-16.82 -2.15,-36.66 -25.58,-36.66 -12.37,0 -20.56,6.61 -27.18,21.99 -0.57,-14.52 -8.05,-21.99 -22.43,-21.99 -13.08,0 -21.85,6.03 -27.74,19.41 0.43,-8.34 -0.29,-12.51 -3.02,-14.67 -2.3,-1.87 -6.18,-2.59 -10.78,-2.59 -8.05,0 -17.68,2.16 -22.14,3.02 -2.3,0.43 -2.88,2.88 -1.73,4.03 2.3,2.3 10.21,-0.86 10.21,11.35l0 39.83c0,12.22 -7.91,10.78 -10.21,13.51 -1.15,1.44 -0.57,3.74 1.73,3.74l45.14 0c2.3,0 2.88,-2.3 1.72,-3.74 -2.29,-2.73 -10.2,-1.29 -10.2,-13.51l0 -29.62c2.73,-11.64 8.91,-20.27 15.67,-20.27 7.04,0 7.19,9.35 7.19,15.96l0 33.93zm133.84 -50.89c34.94,0 35.94,64.83 9.92,64.83 -8.19,0 -13.23,-6.61 -13.23,-17.39l0 -36.38c0,-5.89 -0.14,-8.33 -0.71,-10.49 1.29,-0.29 2.73,-0.57 4.02,-0.57zm-31.48 81.8c0,12.22 -7.91,10.78 -10.21,13.51 -1.15,1.44 -0.58,3.74 1.73,3.74l45.14 0c2.3,0 2.87,-2.3 1.72,-3.74 -2.3,-2.73 -10.21,-1.29 -10.21,-13.51l0 -15.24c4.75,1.72 10.07,2.73 16.25,2.73 55.35,0 54.92,-78.78 0,-78.78 -7.33,0 -14.23,1.86 -19.7,5.03 -2.15,-1.87 -5.46,-2.88 -10.78,-2.88 -5.32,0 -12.51,1.01 -22.42,3.02 -2.31,0.43 -2.88,2.88 -1.73,4.03 2.3,2.3 10.21,-0.86 10.21,11.35l0 70.74zm118.03 -61.97c0.72,-13.22 6.75,-24.87 17.11,-24.87 9.34,0 13.94,9.35 12.22,22.72 -0.15,1.15 -0.72,2.15 -2.3,2.15l-27.03 0zm14.95 49.46c15.81,0 27.75,-5.32 35.36,-15.67 1.16,-1.58 -0.57,-3.16 -2.01,-3.16 -0.57,0 -1,0.14 -1.44,0.57 -4.74,5.18 -10.63,7.48 -18.97,7.48 -18.4,0 -27.46,-17.69 -28.04,-34.36l35.08 0c9.78,0 13.95,-3.02 13.95,-10.07 0,-13.37 -14.67,-23.57 -33.93,-23.57 -55.35,0 -54.92,78.78 0,78.78zm76.91 -58.23c1.3,-5.31 -0.14,-11.64 -3.3,-14.8 -2.74,-2.73 -7.19,-3.6 -12.22,-3.6 -7.62,0 -16.39,2.02 -21.14,3.02 -2.3,0.43 -2.87,2.88 -1.72,4.03 2.3,2.3 10.2,-0.86 10.2,11.35l0 39.83c0,12.22 -7.9,10.78 -10.2,13.51 -1.15,1.44 -0.58,3.74 1.72,3.74l45.14 0c2.31,0 2.88,-2.3 1.73,-3.74 -0.86,-1 -2.44,-1.44 -4.17,-2.3 -6.9,-3.3 -8.91,-7.33 -8.91,-16.82 0,-16.1 7.04,-37.81 13.51,-41.26 3.74,-2.01 4.17,-7.19 6.47,-7.19l0.14 0.15c-1.43,2.3 -2.3,5.17 -2.3,8.34 0,8.19 6.04,14.8 14.81,14.8 8.92,0 14.81,-6.75 14.81,-14.8 0,-8.06 -5.89,-14.81 -14.81,-14.81 -12.79,0 -24.01,7.62 -29.76,20.55zm53.48 -41.69c0,8.2 6.04,14.81 14.81,14.81 8.91,0 14.81,-6.76 14.81,-14.81 0,-8.05 -5.9,-14.8 -14.81,-14.8 -8.91,0 -14.81,6.46 -14.81,14.8zm31.49 41.69c0,-11.21 0,-18.4 -14.38,-18.4 -5.32,0 -12.51,1.01 -22.28,3.02 -2.3,0.43 -2.88,2.88 -1.73,4.03 2.3,2.3 10.21,-0.86 10.21,11.35l0 40.26c0,12.08 6.76,17.97 20.41,17.97 6.04,0 12.08,-1.29 16.25,-3.45 2.16,-1.15 2.88,-3.02 1.72,-4.17 -2.29,-2.3 -10.2,0.86 -10.2,-11.36l0 -39.25zm23 39.83c0,12.22 -7.91,10.78 -10.21,13.51 -1.15,1.44 -0.57,3.74 1.73,3.74l45.14 0c2.3,0 2.87,-2.3 1.72,-3.74 -2.3,-2.73 -10.2,-1.29 -10.2,-13.51l0 -16.97c0,-17.39 8.19,-32.92 17.82,-32.92 5.75,0 9.35,5.32 9.35,14.09 0,9.49 -4.31,24.3 -4.31,34.36 0,13.23 7.33,19.84 21.85,19.84 6.04,0 12.07,-1.29 16.24,-3.45 2.16,-1.15 2.88,-3.02 1.73,-4.17 -2.3,-2.3 -10.21,0.86 -10.21,-11.36l0 -23.14c0,-16.82 -2.15,-36.66 -25.59,-36.66 -12.65,0 -20.99,7.04 -27.75,23.29 0,-5.47 1.73,-14.67 -2.87,-18.55 -2.01,-1.72 -5.32,-2.73 -10.35,-2.73 -5.32,0 -12.65,1.01 -22.57,3.16 -2.3,0.43 -2.88,2.88 -1.73,4.03 2.3,2.3 10.21,-0.86 10.21,11.35l0 39.83zm139.16 -56.07c18.4,0 18.4,57.94 0,57.94 -18.26,0 -18.26,-57.94 0,-57.94zm24.73 84.53c0,11.22 -11.36,16.54 -22.86,16.54 -10.21,0 -23.72,-4.03 -23.72,-16.54 0,-19.84 28.61,-21.13 43.56,-27.6 26.6,-11.64 26.31,-47.3 -2.73,-58.08 6.33,0.86 11.07,1.44 14.66,1.44 8.63,0 13.81,-4.03 13.81,-10.5 0,-5.75 -4.03,-9.77 -9.78,-9.77 -2.87,0 -5.32,1 -7.76,3.45 -2.59,2.58 -6.19,7.62 -10.79,10.63 -2.73,1.73 -5.46,2.16 -8.33,2.16 -3.31,0 -6.91,-0.57 -10.79,-0.57 -53.05,0 -54.92,62.53 -3.59,65.41 -28.04,5.03 -45.57,8.77 -45.57,22.28 0,15.67 23.86,22 49.16,22 30.48,0 49.89,-8.34 49.89,-21.42 0,-10.64 -13.08,-17.69 -37.95,-19.55 -0.15,0 -0.29,0 -0.29,0 -3.02,0 -3.6,3.45 -0.43,4.17 8.34,1.86 13.51,8.05 13.51,15.95zm74.9 -25.01c-2.73,3.16 -8.05,5.46 -12.65,5.46 -6.47,0 -10.06,-4.46 -10.06,-12.53 0,-18.02 18.26,-19.46 26.16,-29.54 -1.29,11.09 -5.32,25.8 -3.45,36.61zm1.44 4.74c3.02,6.9 9.63,10.21 19.98,10.21 6.04,0 12.08,-1.29 16.25,-3.45 2.15,-1.15 2.87,-3.02 1.72,-4.17 -2.3,-2.3 -10.2,0.86 -10.2,-11.38l0 -23.34c0,-26.81 -9.49,-36.73 -35.08,-36.73 -21.42,0 -36.95,6.9 -36.95,16.56 0,6.2 5.61,11.09 12.22,11.09 3.59,0 6.33,-1.44 8.19,-4.03 4.61,-6.49 7.34,-19.31 15.53,-19.31 5.75,0 10.35,5.47 10.35,12.39 0.15,21.04 -52.47,15.41 -52.47,42.94 0,11.81 9.63,19.43 24.3,19.43 10.49,0 20.41,-3.88 26.16,-10.21zm94.6 -7.04c-3.02,4.6 -7.05,7.47 -10.79,7.47 -6.9,0 -7.04,-10.06 -7.04,-16.67l0 -45.15 11.64 0c2.88,0 2.88,-5.03 0,-5.03l-13.37 0c1.01,-0.86 1.73,-2.01 1.73,-4.02l0 -12.65c0,-1.44 -1.15,-2.16 -2.44,-2.16 -0.87,0 -1.73,0.29 -2.3,1.01 -6.91,9.05 -16.11,15.95 -30.05,17.82 -2.73,0.43 -2.59,5.03 0.14,5.03l6.47 0 0 34.94c0,16.82 2.16,36.66 25.59,36.66 10.21,0 18.12,-5.03 24.01,-14.95 1.29,-2.16 0.29,-3.74 -1.29,-3.74 -0.72,0 -1.58,0.43 -2.3,1.44zm12.5 -82.67c0,8.2 6.04,14.81 14.81,14.81 8.92,0 14.81,-6.76 14.81,-14.81 0,-8.05 -5.89,-14.8 -14.81,-14.8 -8.91,0 -14.81,6.46 -14.81,14.8zm31.49 41.69c0,-11.21 0,-18.4 -14.38,-18.4 -5.32,0 -12.51,1.01 -22.28,3.02 -2.3,0.43 -2.88,2.88 -1.73,4.03 2.3,2.3 10.21,-0.86 10.21,11.35l0 40.26c0,12.08 6.76,17.97 20.42,17.97 6.03,0 12.07,-1.29 16.24,-3.45 2.16,-1.15 2.88,-3.02 1.73,-4.17 -2.3,-2.3 -10.21,0.86 -10.21,-11.36l0 -39.25zm95.74 43.28c-2.73,3.16 -8.05,5.46 -12.65,5.46 -6.47,0 -10.06,-4.46 -10.06,-12.53 0,-18.02 18.26,-19.46 26.16,-29.54 -1.29,11.09 -5.31,25.8 -3.45,36.61zm1.44 4.74c3.02,6.9 9.63,10.21 19.99,10.21 6.03,0 12.07,-1.29 16.24,-3.45 2.16,-1.15 2.88,-3.02 1.73,-4.17 -2.3,-2.3 -10.21,0.86 -10.21,-11.38l0 -23.34c0,-26.81 -9.49,-36.73 -35.08,-36.73 -21.42,0 -36.95,6.9 -36.95,16.56 0,6.2 5.61,11.09 12.22,11.09 3.6,0 6.33,-1.44 8.2,-4.03 4.6,-6.49 7.33,-19.31 15.52,-19.31 5.75,0 10.35,5.47 10.35,12.39 0.15,21.04 -52.47,15.41 -52.47,42.94 0,11.81 9.63,19.43 24.3,19.43 10.49,0 20.41,-3.88 26.16,-10.21zm84.82 -64.12c11.22,0 8.05,14.24 11.22,20.99 1.72,3.74 5.75,5.61 9.63,5.61 5.32,0 10.64,-3.31 10.64,-10.35 -0.15,-12.08 -13.95,-20.7 -33.5,-20.7 -55.35,0 -54.92,78.78 0,78.78 15.96,0 27.75,-5.32 35.37,-15.67 1.15,-1.58 -0.58,-3.16 -2.02,-3.16 -0.57,0 -1,0.14 -1.43,0.57 -4.89,5.32 -10.79,7.48 -18.98,7.48 -35.22,0 -35.22,-63.55 -10.93,-63.55z"/>
     <path class="fil0" d="M11036.46 14603.06c-2.73,3.16 -8.05,5.46 -12.65,5.46 -6.47,0 -10.06,-4.46 -10.06,-12.53 0,-18.02 18.26,-19.46 26.16,-29.54 -1.29,11.09 -5.31,25.8 -3.45,36.61zm1.44 4.74c3.02,6.9 9.63,10.21 19.98,10.21 6.04,0 12.08,-1.29 16.25,-3.45 2.16,-1.15 2.88,-3.02 1.72,-4.17 -2.29,-2.3 -10.2,0.86 -10.2,-11.38l0 -23.34c0,-26.81 -9.49,-36.73 -35.08,-36.73 -21.42,0 -36.95,6.9 -36.95,16.56 0,6.2 5.61,11.09 12.22,11.09 3.6,0 6.33,-1.44 8.2,-4.03 4.6,-6.49 7.33,-19.31 15.52,-19.31 5.75,0 10.35,5.47 10.35,12.39 0.15,21.04 -52.47,15.41 -52.47,42.94 0,11.81 9.63,19.43 24.3,19.43 10.49,0 20.41,-3.88 26.16,-10.21zm78.93 -48.02c1.29,-5.31 -0.15,-11.64 -3.31,-14.8 -2.73,-2.73 -7.19,-3.6 -12.22,-3.6 -7.62,0 -16.39,2.02 -21.13,3.02 -2.3,0.43 -2.88,2.88 -1.73,4.03 2.3,2.3 10.21,-0.86 10.21,11.35l0 39.83c0,12.22 -7.91,10.78 -10.21,13.51 -1.15,1.44 -0.57,3.74 1.73,3.74l45.14 0c2.3,0 2.88,-2.3 1.72,-3.74 -0.86,-1 -2.44,-1.44 -4.16,-2.3 -6.91,-3.3 -8.92,-7.33 -8.92,-16.82 0,-16.1 7.05,-37.81 13.52,-41.26 3.73,-2.01 4.17,-7.19 6.46,-7.19l0.15 0.15c-1.44,2.3 -2.3,5.17 -2.3,8.34 0,8.19 6.04,14.8 14.81,14.8 8.91,0 14.8,-6.75 14.8,-14.8 0,-8.06 -5.89,-14.81 -14.8,-14.81 -12.8,0 -24.01,7.62 -29.76,20.55zm95.03 43.28c-2.73,3.16 -8.05,5.46 -12.65,5.46 -6.47,0 -10.07,-4.46 -10.07,-12.53 0,-18.02 18.26,-19.46 26.17,-29.54 -1.3,11.09 -5.32,25.8 -3.45,36.61zm1.43 4.74c3.02,6.9 9.64,10.21 19.99,10.21 6.04,0 12.07,-1.29 16.24,-3.45 2.16,-1.15 2.88,-3.02 1.73,-4.17 -2.3,-2.3 -10.21,0.86 -10.21,-11.38l0 -23.34c0,-26.81 -9.49,-36.73 -35.08,-36.73 -21.42,0 -36.94,6.9 -36.94,16.56 0,6.2 5.6,11.09 12.21,11.09 3.6,0 6.33,-1.44 8.2,-4.03 4.6,-6.49 7.33,-19.31 15.53,-19.31 5.75,0 10.35,5.47 10.35,12.39 0.14,21.04 -52.48,15.41 -52.48,42.94 0,11.81 9.64,19.43 24.3,19.43 10.49,0 20.41,-3.88 26.16,-10.21zm150.81 -12.67c0,-26.38 -48.16,-25.95 -48.16,-42.65 0,-5.63 4.03,-9.23 10.06,-9.23 12.94,0 9.64,20.32 23.01,20.32 5.03,0 9.77,-3.33 9.77,-8.65 0,-10.52 -14.95,-15.98 -30.91,-15.98 -17.68,0 -36.51,7.19 -36.51,22.88 0,26.1 48.45,27.82 48.45,43.25 0,5.18 -4.17,8.48 -10.79,8.48 -18.4,0 -17.54,-12.39 -22.28,-18.85 -2.01,-2.9 -5.18,-4.2 -8.34,-4.2 -5.46,0 -10.64,4.05 -10.64,10.52 0,9.8 15.96,17.13 37.09,17.13 19.41,0 39.25,-6.9 39.25,-23.02zm45.14 -46.41c34.94,0 35.94,64.83 9.92,64.83 -8.19,0 -13.22,-6.61 -13.22,-17.39l0 -36.38c0,-5.89 -0.15,-8.33 -0.72,-10.49 1.29,-0.29 2.73,-0.57 4.02,-0.57zm-31.48 81.8c0,12.22 -7.91,10.78 -10.21,13.51 -1.15,1.44 -0.57,3.74 1.73,3.74l45.14 0c2.3,0 2.88,-2.3 1.72,-3.74 -2.3,-2.73 -10.2,-1.29 -10.2,-13.51l0 -15.24c4.74,1.72 10.06,2.73 16.24,2.73 55.35,0 54.92,-78.78 0,-78.78 -7.33,0 -14.23,1.86 -19.69,5.03 -2.16,-1.87 -5.47,-2.88 -10.79,-2.88 -5.32,0 -12.5,1.01 -22.42,3.02 -2.3,0.43 -2.88,2.88 -1.73,4.03 2.3,2.3 10.21,-0.86 10.21,11.35l0 70.74zm118.03 -61.97c0.72,-13.22 6.76,-24.87 17.11,-24.87 9.34,0 13.94,9.35 12.22,22.72 -0.15,1.15 -0.72,2.15 -2.3,2.15l-27.03 0zm14.95 49.46c15.81,0 27.75,-5.32 35.37,-15.67 1.15,-1.58 -0.58,-3.16 -2.02,-3.16 -0.57,0 -1,0.14 -1.43,0.57 -4.75,5.18 -10.64,7.48 -18.98,7.48 -18.4,0 -27.46,-17.69 -28.03,-34.36l35.07 0c9.78,0 13.95,-3.02 13.95,-10.07 0,-13.37 -14.67,-23.57 -33.93,-23.57 -55.35,0 -54.92,78.78 0,78.78zm117.17 -22.88c0,-26.38 -48.16,-25.95 -48.16,-42.65 0,-5.63 4.02,-9.23 10.06,-9.23 12.94,0 9.63,20.32 23,20.32 5.04,0 9.78,-3.33 9.78,-8.65 0,-10.52 -14.95,-15.98 -30.91,-15.98 -17.68,0 -36.51,7.19 -36.51,22.88 0,26.1 48.44,27.82 48.44,43.25 0,5.18 -4.17,8.48 -10.78,8.48 -18.4,0 -17.54,-12.39 -22.28,-18.85 -2.01,-2.9 -5.18,-4.2 -8.34,-4.2 -5.46,0 -10.64,4.05 -10.64,10.52 0,9.8 15.96,17.13 37.09,17.13 19.41,0 39.25,-6.9 39.25,-23.02zm10.35 -77.04c0,8.2 6.04,14.81 14.81,14.81 8.91,0 14.81,-6.76 14.81,-14.81 0,-8.05 -5.9,-14.8 -14.81,-14.8 -8.92,0 -14.81,6.46 -14.81,14.8zm31.48 41.69c0,-11.21 0,-18.4 -14.37,-18.4 -5.32,0 -12.51,1.01 -22.28,3.02 -2.31,0.43 -2.88,2.88 -1.73,4.03 2.3,2.3 10.21,-0.86 10.21,11.35l0 40.26c0,12.08 6.75,17.97 20.41,17.97 6.04,0 12.08,-1.29 16.25,-3.45 2.15,-1.15 2.87,-3.02 1.72,-4.17 -2.3,-2.3 -10.21,0.86 -10.21,-11.36l0 -39.25zm62.68 43.28c-2.73,3.16 -8.05,5.46 -12.65,5.46 -6.46,0 -10.06,-4.46 -10.06,-12.53 0,-18.02 18.26,-19.46 26.17,-29.54 -1.3,11.09 -5.32,25.8 -3.46,36.61zm1.44 4.74c3.02,6.9 9.64,10.21 19.99,10.21 6.03,0 12.07,-1.29 16.24,-3.45 2.16,-1.15 2.88,-3.02 1.73,-4.17 -2.3,-2.3 -10.21,0.86 -10.21,-11.38l0 -23.34c0,-26.81 -9.49,-36.73 -35.08,-36.73 -21.42,0 -36.95,6.9 -36.95,16.56 0,6.2 5.61,11.09 12.22,11.09 3.6,0 6.33,-1.44 8.2,-4.03 4.6,-6.49 7.33,-19.31 15.52,-19.31 5.76,0 10.36,5.47 10.36,12.39 0.14,21.04 -52.48,15.41 -52.48,42.94 0,11.81 9.63,19.43 24.3,19.43 10.49,0 20.41,-3.88 26.16,-10.21zm78.21 -79.04c0,-11.22 0,-18.43 -14.38,-18.43 -5.32,0 -12.5,1.01 -22.28,3.04 -2.3,0.43 -2.87,2.88 -1.72,4.03 2.3,2.3 10.2,-0.86 10.2,11.36l0 71.26c0,12.07 6.76,17.99 20.42,17.99 6.04,0 12.07,-1.29 16.24,-3.48 2.16,-1.14 2.88,-3.01 1.73,-4.16 -2.3,-2.3 -10.21,0.86 -10.21,-11.36l0 -70.25zm52.76 -10.67c0,8.2 6.04,14.81 14.81,14.81 8.91,0 14.81,-6.76 14.81,-14.81 0,-8.05 -5.9,-14.8 -14.81,-14.8 -8.91,0 -14.81,6.46 -14.81,14.8zm31.49 41.69c0,-11.21 0,-18.4 -14.38,-18.4 -5.32,0 -12.51,1.01 -22.28,3.02 -2.3,0.43 -2.88,2.88 -1.73,4.03 2.3,2.3 10.21,-0.86 10.21,11.35l0 40.26c0,12.08 6.76,17.97 20.41,17.97 6.04,0 12.08,-1.29 16.25,-3.45 2.15,-1.15 2.87,-3.02 1.72,-4.17 -2.3,-2.3 -10.2,0.86 -10.2,-11.36l0 -39.25zm23 39.83c0,12.22 -7.91,10.78 -10.21,13.51 -1.15,1.44 -0.58,3.74 1.73,3.74l45.14 0c2.3,0 2.87,-2.3 1.72,-3.74 -2.3,-2.73 -10.2,-1.29 -10.2,-13.51l0 -16.97c0,-17.39 8.19,-32.92 17.82,-32.92 5.75,0 9.35,5.32 9.35,14.09 0,9.49 -4.32,24.3 -4.32,34.36 0,13.23 7.34,19.84 21.86,19.84 6.03,0 12.07,-1.29 16.24,-3.45 2.16,-1.15 2.88,-3.02 1.73,-4.17 -2.3,-2.3 -10.21,0.86 -10.21,-11.36l0 -23.14c0,-16.82 -2.16,-36.66 -25.59,-36.66 -12.65,0 -20.99,7.04 -27.75,23.29 0,-5.47 1.73,-14.67 -2.87,-18.55 -2.02,-1.72 -5.32,-2.73 -10.35,-2.73 -5.32,0 -12.65,1.01 -22.57,3.16 -2.31,0.43 -2.88,2.88 -1.73,4.03 2.3,2.3 10.21,-0.86 10.21,11.35l0 39.83zm100.35 -81.52c0,8.2 6.03,14.81 14.8,14.81 8.92,0 14.81,-6.76 14.81,-14.81 0,-8.05 -5.89,-14.8 -14.81,-14.8 -8.91,0 -14.8,6.46 -14.8,14.8zm31.48 41.69c0,-11.21 0,-18.4 -14.38,-18.4 -5.32,0 -12.51,1.01 -22.28,3.02 -2.3,0.43 -2.88,2.88 -1.73,4.03 2.31,2.3 10.21,-0.86 10.21,11.35l0 40.26c0,12.08 6.76,17.97 20.42,17.97 6.03,0 12.07,-1.29 16.24,-3.45 2.16,-1.15 2.88,-3.02 1.73,-4.17 -2.3,-2.3 -10.21,0.86 -10.21,-11.36l0 -39.25zm16.39 45.29c0,7.48 5.46,13.51 13.51,13.51 8.2,0 13.52,-6.18 13.52,-13.51 0,-7.33 -5.32,-13.51 -13.52,-13.51 -8.19,0 -13.51,5.89 -13.51,13.51z"/>
    </g>
    <path class="fil0" d="M8403.54 14854.63c590.31,-4.73 1489.2,-2.25 2089.33,-2.81 602.77,0.5 1495.74,-1.86 2089.34,2.81 -590.31,4.67 -1489.2,2.31 -2089.34,2.81 -602.76,-0.56 -1495.73,1.92 -2089.33,-2.81l0 0z"/>
   </g>
   <path class="fil0" d="M8296.07 14096.63l4393.61 0c8.52,0 16.27,3.48 21.88,9.1 5.62,5.61 9.1,13.36 9.1,21.88l0 1445.84c0,8.53 -3.48,16.28 -9.1,21.89 -5.61,5.61 -13.36,9.09 -21.88,9.09l-4393.61 0c-8.52,0 -16.27,-3.48 -21.88,-9.09 -5.62,-5.61 -9.1,-13.36 -9.1,-21.89l0 -1445.84c0,-8.52 3.48,-16.27 9.1,-21.88 5.61,-5.62 13.36,-9.1 21.88,-9.1zm4393.61 8.49l-4393.61 0c-6.18,0 -11.8,2.53 -15.88,6.61 -4.08,4.08 -6.61,9.7 -6.61,15.88l0 1445.84c0,6.18 2.53,11.81 6.61,15.88 4.08,4.08 9.7,6.61 15.88,6.61l4393.61 0c6.18,0 11.8,-2.53 15.88,-6.61 4.08,-4.07 6.61,-9.7 6.61,-15.88l0 -1445.84c0,-6.18 -2.53,-11.8 -6.61,-15.88 -4.08,-4.08 -9.7,-6.61 -15.88,-6.61z"/>
  </g>
 </g>
</svg>
